# Tiled2Unity generated file. Do not modify by hand.
# Wavefront file for 'SouthGrave_mesh_0005.obj'

# Vertices (Count = 200)
v -224 -480 0
v -256 -480 0
v -256 -448 0
v -224 -448 0
v -256 -480 0
v -288 -480 0
v -288 -448 0
v -256 -448 0
v -576 -480 0
v -608 -480 0
v -608 -448 0
v -576 -448 0
v -608 -480 0
v -640 -480 0
v -640 -448 0
v -608 -448 0
v -224 -512 0
v -256 -512 0
v -256 -480 0
v -224 -480 0
v -256 -512 0
v -288 -512 0
v -288 -480 0
v -256 -480 0
v -576 -512 0
v -608 -512 0
v -608 -480 0
v -576 -480 0
v -608 -512 0
v -640 -512 0
v -640 -480 0
v -608 -480 0
v -128 -544 0
v -160 -544 0
v -160 -512 0
v -128 -512 0
v -224 -544 0
v -256 -544 0
v -256 -512 0
v -224 -512 0
v -256 -544 0
v -288 -544 0
v -288 -512 0
v -256 -512 0
v -416 -544 0
v -448 -544 0
v -448 -512 0
v -416 -512 0
v -576 -544 0
v -608 -544 0
v -608 -512 0
v -576 -512 0
v -608 -544 0
v -640 -544 0
v -640 -512 0
v -608 -512 0
v -896 -544 0
v -928 -544 0
v -928 -512 0
v -896 -512 0
v -928 -544 0
v -960 -544 0
v -960 -512 0
v -928 -512 0
v -896 -576 0
v -928 -576 0
v -928 -544 0
v -896 -544 0
v -928 -576 0
v -960 -576 0
v -960 -544 0
v -928 -544 0
v -896 -608 0
v -928 -608 0
v -928 -576 0
v -896 -576 0
v -928 -608 0
v -960 -608 0
v -960 -576 0
v -928 -576 0
v -288 -640 0
v -320 -640 0
v -320 -608 0
v -288 -608 0
v -736 -672 0
v -768 -672 0
v -768 -640 0
v -736 -640 0
v -192 -736 0
v -224 -736 0
v -224 -704 0
v -192 -704 0
v -352 -736 0
v -384 -736 0
v -384 -704 0
v -352 -704 0
v -384 -736 0
v -416 -736 0
v -416 -704 0
v -384 -704 0
v -352 -768 0
v -384 -768 0
v -384 -736 0
v -352 -736 0
v -384 -768 0
v -416 -768 0
v -416 -736 0
v -384 -736 0
v -576 -768 0
v -608 -768 0
v -608 -736 0
v -576 -736 0
v -896 -768 0
v -928 -768 0
v -928 -736 0
v -896 -736 0
v -928 -768 0
v -960 -768 0
v -960 -736 0
v -928 -736 0
v -352 -800 0
v -384 -800 0
v -384 -768 0
v -352 -768 0
v -384 -800 0
v -416 -800 0
v -416 -768 0
v -384 -768 0
v -896 -800 0
v -928 -800 0
v -928 -768 0
v -896 -768 0
v -928 -800 0
v -960 -800 0
v -960 -768 0
v -928 -768 0
v -64 -832 0
v -96 -832 0
v -96 -800 0
v -64 -800 0
v -768 -832 0
v -800 -832 0
v -800 -800 0
v -768 -800 0
v -800 -832 0
v -832 -832 0
v -832 -800 0
v -800 -800 0
v -896 -832 0
v -928 -832 0
v -928 -800 0
v -896 -800 0
v -928 -832 0
v -960 -832 0
v -960 -800 0
v -928 -800 0
v -768 -864 0
v -800 -864 0
v -800 -832 0
v -768 -832 0
v -800 -864 0
v -832 -864 0
v -832 -832 0
v -800 -832 0
v -416 -896 0
v -448 -896 0
v -448 -864 0
v -416 -864 0
v -448 -896 0
v -480 -896 0
v -480 -864 0
v -448 -864 0
v -768 -896 0
v -800 -896 0
v -800 -864 0
v -768 -864 0
v -800 -896 0
v -832 -896 0
v -832 -864 0
v -800 -864 0
v -96 -928 0
v -128 -928 0
v -128 -896 0
v -96 -896 0
v -416 -928 0
v -448 -928 0
v -448 -896 0
v -416 -896 0
v -448 -928 0
v -480 -928 0
v -480 -896 0
v -448 -896 0
v -416 -960 0
v -448 -960 0
v -448 -928 0
v -416 -928 0
v -448 -960 0
v -480 -960 0
v -480 -928 0
v -448 -928 0

# Texture cooridinates (Count = 14)
vt 0.625 0.1875
vt 0.65625 0.1875
vt 0.65625 0.21875
vt 0.625 0.21875
vt 0.6875 0.1875
vt 0.6875 0.21875
vt 0.625 0.15625
vt 0.65625 0.15625
vt 0.6875 0.15625
vt 0.71875 0.1875
vt 0.71875 0.21875
vt 0.625 0.125
vt 0.65625 0.125
vt 0.6875 0.125

# Normal
vn 0 0 -1

# Mesh description
g SouthGrave_mesh_0005

# Faces
f 1/1/1 2/2/1 3/3/1 4/4/1
f 5/2/1 6/5/1 7/6/1 8/3/1
f 9/1/1 10/2/1 11/3/1 12/4/1
f 13/2/1 14/5/1 15/6/1 16/3/1
f 17/7/1 18/8/1 19/2/1 20/1/1
f 21/8/1 22/9/1 23/5/1 24/2/1
f 25/7/1 26/8/1 27/2/1 28/1/1
f 29/8/1 30/9/1 31/5/1 32/2/1
f 33/5/1 34/10/1 35/11/1 36/6/1
f 37/12/1 38/13/1 39/8/1 40/7/1
f 41/13/1 42/14/1 43/9/1 44/8/1
f 45/5/1 46/10/1 47/11/1 48/6/1
f 49/12/1 50/13/1 51/8/1 52/7/1
f 53/13/1 54/14/1 55/9/1 56/8/1
f 57/1/1 58/2/1 59/3/1 60/4/1
f 61/2/1 62/5/1 63/6/1 64/3/1
f 65/7/1 66/8/1 67/2/1 68/1/1
f 69/8/1 70/9/1 71/5/1 72/2/1
f 73/12/1 74/13/1 75/8/1 76/7/1
f 77/13/1 78/14/1 79/9/1 80/8/1
f 81/5/1 82/10/1 83/11/1 84/6/1
f 85/5/1 86/10/1 87/11/1 88/6/1
f 89/5/1 90/10/1 91/11/1 92/6/1
f 93/1/1 94/2/1 95/3/1 96/4/1
f 97/2/1 98/5/1 99/6/1 100/3/1
f 101/7/1 102/8/1 103/2/1 104/1/1
f 105/8/1 106/9/1 107/5/1 108/2/1
f 109/5/1 110/10/1 111/11/1 112/6/1
f 113/1/1 114/2/1 115/3/1 116/4/1
f 117/2/1 118/5/1 119/6/1 120/3/1
f 121/12/1 122/13/1 123/8/1 124/7/1
f 125/13/1 126/14/1 127/9/1 128/8/1
f 129/7/1 130/8/1 131/2/1 132/1/1
f 133/8/1 134/9/1 135/5/1 136/2/1
f 137/5/1 138/10/1 139/11/1 140/6/1
f 141/1/1 142/2/1 143/3/1 144/4/1
f 145/2/1 146/5/1 147/6/1 148/3/1
f 149/12/1 150/13/1 151/8/1 152/7/1
f 153/13/1 154/14/1 155/9/1 156/8/1
f 157/7/1 158/8/1 159/2/1 160/1/1
f 161/8/1 162/9/1 163/5/1 164/2/1
f 165/1/1 166/2/1 167/3/1 168/4/1
f 169/2/1 170/5/1 171/6/1 172/3/1
f 173/12/1 174/13/1 175/8/1 176/7/1
f 177/13/1 178/14/1 179/9/1 180/8/1
f 181/5/1 182/10/1 183/11/1 184/6/1
f 185/7/1 186/8/1 187/2/1 188/1/1
f 189/8/1 190/9/1 191/5/1 192/2/1
f 193/12/1 194/13/1 195/8/1 196/7/1
f 197/13/1 198/14/1 199/9/1 200/8/1

