# Tiled2Unity generated file. Do not modify by hand.
# Wavefront file for 'westJungle_mesh_0006.obj'

# Vertices (Count = 108)
v -96 -96 0
v -128 -96 0
v -128 -64 0
v -96 -64 0
v -128 -96 0
v -160 -96 0
v -160 -64 0
v -128 -64 0
v -160 -96 0
v -192 -96 0
v -192 -64 0
v -160 -64 0
v -96 -128 0
v -128 -128 0
v -128 -96 0
v -96 -96 0
v -128 -128 0
v -160 -128 0
v -160 -96 0
v -128 -96 0
v -160 -128 0
v -192 -128 0
v -192 -96 0
v -160 -96 0
v -96 -160 0
v -128 -160 0
v -128 -128 0
v -96 -128 0
v -128 -160 0
v -160 -160 0
v -160 -128 0
v -128 -128 0
v -160 -160 0
v -192 -160 0
v -192 -128 0
v -160 -128 0
v -864 -576 0
v -896 -576 0
v -896 -544 0
v -864 -544 0
v -896 -576 0
v -928 -576 0
v -928 -544 0
v -896 -544 0
v -928 -576 0
v -960 -576 0
v -960 -544 0
v -928 -544 0
v -864 -608 0
v -896 -608 0
v -896 -576 0
v -864 -576 0
v -896 -608 0
v -928 -608 0
v -928 -576 0
v -896 -576 0
v -928 -608 0
v -960 -608 0
v -960 -576 0
v -928 -576 0
v -864 -640 0
v -896 -640 0
v -896 -608 0
v -864 -608 0
v -896 -640 0
v -928 -640 0
v -928 -608 0
v -896 -608 0
v -928 -640 0
v -960 -640 0
v -960 -608 0
v -928 -608 0
v -320 -672 0
v -352 -672 0
v -352 -640 0
v -320 -640 0
v -352 -672 0
v -384 -672 0
v -384 -640 0
v -352 -640 0
v -384 -672 0
v -416 -672 0
v -416 -640 0
v -384 -640 0
v -320 -704 0
v -352 -704 0
v -352 -672 0
v -320 -672 0
v -352 -704 0
v -384 -704 0
v -384 -672 0
v -352 -672 0
v -384 -704 0
v -416 -704 0
v -416 -672 0
v -384 -672 0
v -320 -736 0
v -352 -736 0
v -352 -704 0
v -320 -704 0
v -352 -736 0
v -384 -736 0
v -384 -704 0
v -352 -704 0
v -384 -736 0
v -416 -736 0
v -416 -704 0
v -384 -704 0

# Texture cooridinates (Count = 16)
vt 0.7692308 0.2307692
vt 0.8461539 0.2307692
vt 0.8461539 0.3076923
vt 0.7692308 0.3076923
vt 0.9230769 0.2307692
vt 0.9230769 0.3076923
vt 1 0.2307692
vt 1 0.3076923
vt 0.7692308 0.1538461
vt 0.8461539 0.1538461
vt 0.9230769 0.1538461
vt 1 0.1538461
vt 0.7692308 0.07692307
vt 0.8461539 0.07692307
vt 0.9230769 0.07692307
vt 1 0.07692307

# Normal
vn 0 0 -1

# Mesh description
g westJungle_mesh_0006

# Faces
f 1/1/1 2/2/1 3/3/1 4/4/1
f 5/2/1 6/5/1 7/6/1 8/3/1
f 9/5/1 10/7/1 11/8/1 12/6/1
f 13/9/1 14/10/1 15/2/1 16/1/1
f 17/10/1 18/11/1 19/5/1 20/2/1
f 21/11/1 22/12/1 23/7/1 24/5/1
f 25/13/1 26/14/1 27/10/1 28/9/1
f 29/14/1 30/15/1 31/11/1 32/10/1
f 33/15/1 34/16/1 35/12/1 36/11/1
f 37/1/1 38/2/1 39/3/1 40/4/1
f 41/2/1 42/5/1 43/6/1 44/3/1
f 45/5/1 46/7/1 47/8/1 48/6/1
f 49/9/1 50/10/1 51/2/1 52/1/1
f 53/10/1 54/11/1 55/5/1 56/2/1
f 57/11/1 58/12/1 59/7/1 60/5/1
f 61/13/1 62/14/1 63/10/1 64/9/1
f 65/14/1 66/15/1 67/11/1 68/10/1
f 69/15/1 70/16/1 71/12/1 72/11/1
f 73/1/1 74/2/1 75/3/1 76/4/1
f 77/2/1 78/5/1 79/6/1 80/3/1
f 81/5/1 82/7/1 83/8/1 84/6/1
f 85/9/1 86/10/1 87/2/1 88/1/1
f 89/10/1 90/11/1 91/5/1 92/2/1
f 93/11/1 94/12/1 95/7/1 96/5/1
f 97/13/1 98/14/1 99/10/1 100/9/1
f 101/14/1 102/15/1 103/11/1 104/10/1
f 105/15/1 106/16/1 107/12/1 108/11/1

