# Tiled2Unity generated file. Do not modify by hand.
# Wavefront file for 'westJungle_mesh_0003.obj'

# Vertices (Count = 12)
v -128 -192 0
v -160 -192 0
v -160 -160 0
v -128 -160 0
v -896 -672 0
v -928 -672 0
v -928 -640 0
v -896 -640 0
v -352 -768 0
v -384 -768 0
v -384 -736 0
v -352 -736 0

# Texture cooridinates (Count = 4)
vt 0.8461539 0
vt 0.9230769 0
vt 0.9230769 0.07692307
vt 0.8461539 0.07692307

# Normal
vn 0 0 -1

# Mesh description
g westJungle_mesh_0003

# Faces
f 1/1/1 2/2/1 3/3/1 4/4/1
f 5/1/1 6/2/1 7/3/1 8/4/1
f 9/1/1 10/2/1 11/3/1 12/4/1

