# Tiled2Unity generated file. Do not modify by hand.
# Wavefront file for 'westJungle_mesh_0005.obj'

# Vertices (Count = 360)
v -448 -64 0
v -480 -64 0
v -480 -32 0
v -448 -32 0
v -480 -64 0
v -512 -64 0
v -512 -32 0
v -480 -32 0
v -512 -64 0
v -544 -64 0
v -544 -32 0
v -512 -32 0
v -704 -64 0
v -736 -64 0
v -736 -32 0
v -704 -32 0
v -736 -64 0
v -768 -64 0
v -768 -32 0
v -736 -32 0
v -768 -64 0
v -800 -64 0
v -800 -32 0
v -768 -32 0
v -448 -96 0
v -480 -96 0
v -480 -64 0
v -448 -64 0
v -480 -96 0
v -512 -96 0
v -512 -64 0
v -480 -64 0
v -512 -96 0
v -544 -96 0
v -544 -64 0
v -512 -64 0
v -704 -96 0
v -736 -96 0
v -736 -64 0
v -704 -64 0
v -736 -96 0
v -768 -96 0
v -768 -64 0
v -736 -64 0
v -768 -96 0
v -800 -96 0
v -800 -64 0
v -768 -64 0
v -448 -128 0
v -480 -128 0
v -480 -96 0
v -448 -96 0
v -480 -128 0
v -512 -128 0
v -512 -96 0
v -480 -96 0
v -512 -128 0
v -544 -128 0
v -544 -96 0
v -512 -96 0
v -704 -128 0
v -736 -128 0
v -736 -96 0
v -704 -96 0
v -736 -128 0
v -768 -128 0
v -768 -96 0
v -736 -96 0
v -768 -128 0
v -800 -128 0
v -800 -96 0
v -768 -96 0
v -320 -192 0
v -352 -192 0
v -352 -160 0
v -320 -160 0
v -352 -192 0
v -384 -192 0
v -384 -160 0
v -352 -160 0
v -384 -192 0
v -416 -192 0
v -416 -160 0
v -384 -160 0
v -320 -224 0
v -352 -224 0
v -352 -192 0
v -320 -192 0
v -352 -224 0
v -384 -224 0
v -384 -192 0
v -352 -192 0
v -384 -224 0
v -416 -224 0
v -416 -192 0
v -384 -192 0
v -864 -224 0
v -896 -224 0
v -896 -192 0
v -864 -192 0
v -896 -224 0
v -928 -224 0
v -928 -192 0
v -896 -192 0
v -928 -224 0
v -960 -224 0
v -960 -192 0
v -928 -192 0
v -320 -256 0
v -352 -256 0
v -352 -224 0
v -320 -224 0
v -352 -256 0
v -384 -256 0
v -384 -224 0
v -352 -224 0
v -384 -256 0
v -416 -256 0
v -416 -224 0
v -384 -224 0
v -672 -256 0
v -704 -256 0
v -704 -224 0
v -672 -224 0
v -704 -256 0
v -736 -256 0
v -736 -224 0
v -704 -224 0
v -736 -256 0
v -768 -256 0
v -768 -224 0
v -736 -224 0
v -864 -256 0
v -896 -256 0
v -896 -224 0
v -864 -224 0
v -896 -256 0
v -928 -256 0
v -928 -224 0
v -896 -224 0
v -928 -256 0
v -960 -256 0
v -960 -224 0
v -928 -224 0
v -672 -288 0
v -704 -288 0
v -704 -256 0
v -672 -256 0
v -704 -288 0
v -736 -288 0
v -736 -256 0
v -704 -256 0
v -736 -288 0
v -768 -288 0
v -768 -256 0
v -736 -256 0
v -864 -288 0
v -896 -288 0
v -896 -256 0
v -864 -256 0
v -896 -288 0
v -928 -288 0
v -928 -256 0
v -896 -256 0
v -928 -288 0
v -960 -288 0
v -960 -256 0
v -928 -256 0
v -672 -320 0
v -704 -320 0
v -704 -288 0
v -672 -288 0
v -704 -320 0
v -736 -320 0
v -736 -288 0
v -704 -288 0
v -736 -320 0
v -768 -320 0
v -768 -288 0
v -736 -288 0
v -224 -352 0
v -256 -352 0
v -256 -320 0
v -224 -320 0
v -256 -352 0
v -288 -352 0
v -288 -320 0
v -256 -320 0
v -288 -352 0
v -320 -352 0
v -320 -320 0
v -288 -320 0
v -224 -384 0
v -256 -384 0
v -256 -352 0
v -224 -352 0
v -256 -384 0
v -288 -384 0
v -288 -352 0
v -256 -352 0
v -288 -384 0
v -320 -384 0
v -320 -352 0
v -288 -352 0
v -32 -416 0
v -64 -416 0
v -64 -384 0
v -32 -384 0
v -64 -416 0
v -96 -416 0
v -96 -384 0
v -64 -384 0
v -96 -416 0
v -128 -416 0
v -128 -384 0
v -96 -384 0
v -224 -416 0
v -256 -416 0
v -256 -384 0
v -224 -384 0
v -256 -416 0
v -288 -416 0
v -288 -384 0
v -256 -384 0
v -288 -416 0
v -320 -416 0
v -320 -384 0
v -288 -384 0
v -32 -448 0
v -64 -448 0
v -64 -416 0
v -32 -416 0
v -64 -448 0
v -96 -448 0
v -96 -416 0
v -64 -416 0
v -96 -448 0
v -128 -448 0
v -128 -416 0
v -96 -416 0
v -32 -480 0
v -64 -480 0
v -64 -448 0
v -32 -448 0
v -64 -480 0
v -96 -480 0
v -96 -448 0
v -64 -448 0
v -96 -480 0
v -128 -480 0
v -128 -448 0
v -96 -448 0
v -608 -672 0
v -640 -672 0
v -640 -640 0
v -608 -640 0
v -640 -672 0
v -672 -672 0
v -672 -640 0
v -640 -640 0
v -672 -672 0
v -704 -672 0
v -704 -640 0
v -672 -640 0
v -608 -704 0
v -640 -704 0
v -640 -672 0
v -608 -672 0
v -640 -704 0
v -672 -704 0
v -672 -672 0
v -640 -672 0
v -672 -704 0
v -704 -704 0
v -704 -672 0
v -672 -672 0
v -608 -736 0
v -640 -736 0
v -640 -704 0
v -608 -704 0
v -640 -736 0
v -672 -736 0
v -672 -704 0
v -640 -704 0
v -672 -736 0
v -704 -736 0
v -704 -704 0
v -672 -704 0
v -64 -832 0
v -96 -832 0
v -96 -800 0
v -64 -800 0
v -96 -832 0
v -128 -832 0
v -128 -800 0
v -96 -800 0
v -128 -832 0
v -160 -832 0
v -160 -800 0
v -128 -800 0
v -832 -832 0
v -864 -832 0
v -864 -800 0
v -832 -800 0
v -864 -832 0
v -896 -832 0
v -896 -800 0
v -864 -800 0
v -896 -832 0
v -928 -832 0
v -928 -800 0
v -896 -800 0
v -64 -864 0
v -96 -864 0
v -96 -832 0
v -64 -832 0
v -96 -864 0
v -128 -864 0
v -128 -832 0
v -96 -832 0
v -128 -864 0
v -160 -864 0
v -160 -832 0
v -128 -832 0
v -832 -864 0
v -864 -864 0
v -864 -832 0
v -832 -832 0
v -864 -864 0
v -896 -864 0
v -896 -832 0
v -864 -832 0
v -896 -864 0
v -928 -864 0
v -928 -832 0
v -896 -832 0
v -64 -896 0
v -96 -896 0
v -96 -864 0
v -64 -864 0
v -96 -896 0
v -128 -896 0
v -128 -864 0
v -96 -864 0
v -128 -896 0
v -160 -896 0
v -160 -864 0
v -128 -864 0
v -832 -896 0
v -864 -896 0
v -864 -864 0
v -832 -864 0
v -864 -896 0
v -896 -896 0
v -896 -864 0
v -864 -864 0
v -896 -896 0
v -928 -896 0
v -928 -864 0
v -896 -864 0

# Texture cooridinates (Count = 16)
vt 0 0.8571429
vt 0.1666667 0.8571429
vt 0.1666667 1
vt 0 1
vt 0.3333333 0.8571429
vt 0.3333333 1
vt 0.5 0.8571429
vt 0.5 1
vt 0 0.7142857
vt 0.1666667 0.7142857
vt 0.3333333 0.7142857
vt 0.5 0.7142857
vt 0 0.5714285
vt 0.1666667 0.5714285
vt 0.3333333 0.5714285
vt 0.5 0.5714285

# Normal
vn 0 0 -1

# Mesh description
g westJungle_mesh_0005

# Faces
f 1/1/1 2/2/1 3/3/1 4/4/1
f 5/2/1 6/5/1 7/6/1 8/3/1
f 9/5/1 10/7/1 11/8/1 12/6/1
f 13/1/1 14/2/1 15/3/1 16/4/1
f 17/2/1 18/5/1 19/6/1 20/3/1
f 21/5/1 22/7/1 23/8/1 24/6/1
f 25/9/1 26/10/1 27/2/1 28/1/1
f 29/10/1 30/11/1 31/5/1 32/2/1
f 33/11/1 34/12/1 35/7/1 36/5/1
f 37/9/1 38/10/1 39/2/1 40/1/1
f 41/10/1 42/11/1 43/5/1 44/2/1
f 45/11/1 46/12/1 47/7/1 48/5/1
f 49/13/1 50/14/1 51/10/1 52/9/1
f 53/14/1 54/15/1 55/11/1 56/10/1
f 57/15/1 58/16/1 59/12/1 60/11/1
f 61/13/1 62/14/1 63/10/1 64/9/1
f 65/14/1 66/15/1 67/11/1 68/10/1
f 69/15/1 70/16/1 71/12/1 72/11/1
f 73/1/1 74/2/1 75/3/1 76/4/1
f 77/2/1 78/5/1 79/6/1 80/3/1
f 81/5/1 82/7/1 83/8/1 84/6/1
f 85/9/1 86/10/1 87/2/1 88/1/1
f 89/10/1 90/11/1 91/5/1 92/2/1
f 93/11/1 94/12/1 95/7/1 96/5/1
f 97/1/1 98/2/1 99/3/1 100/4/1
f 101/2/1 102/5/1 103/6/1 104/3/1
f 105/5/1 106/7/1 107/8/1 108/6/1
f 109/13/1 110/14/1 111/10/1 112/9/1
f 113/14/1 114/15/1 115/11/1 116/10/1
f 117/15/1 118/16/1 119/12/1 120/11/1
f 121/1/1 122/2/1 123/3/1 124/4/1
f 125/2/1 126/5/1 127/6/1 128/3/1
f 129/5/1 130/7/1 131/8/1 132/6/1
f 133/9/1 134/10/1 135/2/1 136/1/1
f 137/10/1 138/11/1 139/5/1 140/2/1
f 141/11/1 142/12/1 143/7/1 144/5/1
f 145/9/1 146/10/1 147/2/1 148/1/1
f 149/10/1 150/11/1 151/5/1 152/2/1
f 153/11/1 154/12/1 155/7/1 156/5/1
f 157/13/1 158/14/1 159/10/1 160/9/1
f 161/14/1 162/15/1 163/11/1 164/10/1
f 165/15/1 166/16/1 167/12/1 168/11/1
f 169/13/1 170/14/1 171/10/1 172/9/1
f 173/14/1 174/15/1 175/11/1 176/10/1
f 177/15/1 178/16/1 179/12/1 180/11/1
f 181/1/1 182/2/1 183/3/1 184/4/1
f 185/2/1 186/5/1 187/6/1 188/3/1
f 189/5/1 190/7/1 191/8/1 192/6/1
f 193/9/1 194/10/1 195/2/1 196/1/1
f 197/10/1 198/11/1 199/5/1 200/2/1
f 201/11/1 202/12/1 203/7/1 204/5/1
f 205/1/1 206/2/1 207/3/1 208/4/1
f 209/2/1 210/5/1 211/6/1 212/3/1
f 213/5/1 214/7/1 215/8/1 216/6/1
f 217/13/1 218/14/1 219/10/1 220/9/1
f 221/14/1 222/15/1 223/11/1 224/10/1
f 225/15/1 226/16/1 227/12/1 228/11/1
f 229/9/1 230/10/1 231/2/1 232/1/1
f 233/10/1 234/11/1 235/5/1 236/2/1
f 237/11/1 238/12/1 239/7/1 240/5/1
f 241/13/1 242/14/1 243/10/1 244/9/1
f 245/14/1 246/15/1 247/11/1 248/10/1
f 249/15/1 250/16/1 251/12/1 252/11/1
f 253/1/1 254/2/1 255/3/1 256/4/1
f 257/2/1 258/5/1 259/6/1 260/3/1
f 261/5/1 262/7/1 263/8/1 264/6/1
f 265/9/1 266/10/1 267/2/1 268/1/1
f 269/10/1 270/11/1 271/5/1 272/2/1
f 273/11/1 274/12/1 275/7/1 276/5/1
f 277/13/1 278/14/1 279/10/1 280/9/1
f 281/14/1 282/15/1 283/11/1 284/10/1
f 285/15/1 286/16/1 287/12/1 288/11/1
f 289/1/1 290/2/1 291/3/1 292/4/1
f 293/2/1 294/5/1 295/6/1 296/3/1
f 297/5/1 298/7/1 299/8/1 300/6/1
f 301/1/1 302/2/1 303/3/1 304/4/1
f 305/2/1 306/5/1 307/6/1 308/3/1
f 309/5/1 310/7/1 311/8/1 312/6/1
f 313/9/1 314/10/1 315/2/1 316/1/1
f 317/10/1 318/11/1 319/5/1 320/2/1
f 321/11/1 322/12/1 323/7/1 324/5/1
f 325/9/1 326/10/1 327/2/1 328/1/1
f 329/10/1 330/11/1 331/5/1 332/2/1
f 333/11/1 334/12/1 335/7/1 336/5/1
f 337/13/1 338/14/1 339/10/1 340/9/1
f 341/14/1 342/15/1 343/11/1 344/10/1
f 345/15/1 346/16/1 347/12/1 348/11/1
f 349/13/1 350/14/1 351/10/1 352/9/1
f 353/14/1 354/15/1 355/11/1 356/10/1
f 357/15/1 358/16/1 359/12/1 360/11/1

