# Tiled2Unity generated file. Do not modify by hand.
# Wavefront file for 'Obedroom_mesh_0007.obj'

# Vertices (Count = 20)
v -128 -128 0
v -160 -128 0
v -160 -96 0
v -128 -96 0
v -192 -128 0
v -224 -128 0
v -224 -96 0
v -192 -96 0
v -320 -128 0
v -352 -128 0
v -352 -96 0
v -320 -96 0
v -256 -224 0
v -288 -224 0
v -288 -192 0
v -256 -192 0
v -320 -320 0
v -352 -320 0
v -352 -288 0
v -320 -288 0

# Texture cooridinates (Count = 4)
vt 0.5625 0.8125
vt 0.625 0.8125
vt 0.625 0.875
vt 0.5625 0.875

# Normal
vn 0 0 -1

# Mesh description
g Obedroom_mesh_0007

# Faces
f 1/1/1 2/2/1 3/3/1 4/4/1
f 5/1/1 6/2/1 7/3/1 8/4/1
f 9/1/1 10/2/1 11/3/1 12/4/1
f 13/1/1 14/2/1 15/3/1 16/4/1
f 17/1/1 18/2/1 19/3/1 20/4/1

