# Tiled2Unity generated file. Do not modify by hand.
# Wavefront file for 'Obedroom_mesh_0004.obj'

# Vertices (Count = 16)
v -96 -64 0
v -128 -64 0
v -128 -32 0
v -96 -32 0
v -256 -64 0
v -288 -64 0
v -288 -32 0
v -256 -32 0
v -96 -96 0
v -128 -96 0
v -128 -64 0
v -96 -64 0
v -256 -96 0
v -288 -96 0
v -288 -64 0
v -256 -64 0

# Texture cooridinates (Count = 6)
vt 0.8888889 0.8571429
vt 1 0.8571429
vt 1 1
vt 0.8888889 1
vt 0.8888889 0.7142857
vt 1 0.7142857

# Normal
vn 0 0 -1

# Mesh description
g Obedroom_mesh_0004

# Faces
f 1/1/1 2/2/1 3/3/1 4/4/1
f 5/1/1 6/2/1 7/3/1 8/4/1
f 9/5/1 10/6/1 11/2/1 12/1/1
f 13/5/1 14/6/1 15/2/1 16/1/1

