# Tiled2Unity generated file. Do not modify by hand.
# Wavefront file for 'davaoForest_mesh_0003.obj'

# Vertices (Count = 988)
v -896 -288 0
v -928 -288 0
v -928 -256 0
v -896 -256 0
v -928 -288 0
v -960 -288 0
v -960 -256 0
v -928 -256 0
v -960 -288 0
v -992 -288 0
v -992 -256 0
v -960 -256 0
v -864 -320 0
v -896 -320 0
v -896 -288 0
v -864 -288 0
v -896 -320 0
v -928 -320 0
v -928 -288 0
v -896 -288 0
v -928 -320 0
v -960 -320 0
v -960 -288 0
v -928 -288 0
v -960 -320 0
v -992 -320 0
v -992 -288 0
v -960 -288 0
v -64 -352 0
v -96 -352 0
v -96 -320 0
v -64 -320 0
v -96 -352 0
v -128 -352 0
v -128 -320 0
v -96 -320 0
v -128 -352 0
v -160 -352 0
v -160 -320 0
v -128 -320 0
v -160 -352 0
v -192 -352 0
v -192 -320 0
v -160 -320 0
v -192 -352 0
v -224 -352 0
v -224 -320 0
v -192 -320 0
v -224 -352 0
v -256 -352 0
v -256 -320 0
v -224 -320 0
v -256 -352 0
v -288 -352 0
v -288 -320 0
v -256 -320 0
v -800 -352 0
v -832 -352 0
v -832 -320 0
v -800 -320 0
v -832 -352 0
v -864 -352 0
v -864 -320 0
v -832 -320 0
v -864 -352 0
v -896 -352 0
v -896 -320 0
v -864 -320 0
v -896 -352 0
v -928 -352 0
v -928 -320 0
v -896 -320 0
v -928 -352 0
v -960 -352 0
v -960 -320 0
v -928 -320 0
v -960 -352 0
v -992 -352 0
v -992 -320 0
v -960 -320 0
v -32 -384 0
v -64 -384 0
v -64 -352 0
v -32 -352 0
v -64 -384 0
v -96 -384 0
v -96 -352 0
v -64 -352 0
v -96 -384 0
v -128 -384 0
v -128 -352 0
v -96 -352 0
v -128 -384 0
v -160 -384 0
v -160 -352 0
v -128 -352 0
v -160 -384 0
v -192 -384 0
v -192 -352 0
v -160 -352 0
v -192 -384 0
v -224 -384 0
v -224 -352 0
v -192 -352 0
v -224 -384 0
v -256 -384 0
v -256 -352 0
v -224 -352 0
v -256 -384 0
v -288 -384 0
v -288 -352 0
v -256 -352 0
v -288 -384 0
v -320 -384 0
v -320 -352 0
v -288 -352 0
v -768 -384 0
v -800 -384 0
v -800 -352 0
v -768 -352 0
v -800 -384 0
v -832 -384 0
v -832 -352 0
v -800 -352 0
v -832 -384 0
v -864 -384 0
v -864 -352 0
v -832 -352 0
v -864 -384 0
v -896 -384 0
v -896 -352 0
v -864 -352 0
v -896 -384 0
v -928 -384 0
v -928 -352 0
v -896 -352 0
v -928 -384 0
v -960 -384 0
v -960 -352 0
v -928 -352 0
v -32 -416 0
v -64 -416 0
v -64 -384 0
v -32 -384 0
v -64 -416 0
v -96 -416 0
v -96 -384 0
v -64 -384 0
v -96 -416 0
v -128 -416 0
v -128 -384 0
v -96 -384 0
v -128 -416 0
v -160 -416 0
v -160 -384 0
v -128 -384 0
v -160 -416 0
v -192 -416 0
v -192 -384 0
v -160 -384 0
v -192 -416 0
v -224 -416 0
v -224 -384 0
v -192 -384 0
v -224 -416 0
v -256 -416 0
v -256 -384 0
v -224 -384 0
v -256 -416 0
v -288 -416 0
v -288 -384 0
v -256 -384 0
v -288 -416 0
v -320 -416 0
v -320 -384 0
v -288 -384 0
v -768 -416 0
v -800 -416 0
v -800 -384 0
v -768 -384 0
v -800 -416 0
v -832 -416 0
v -832 -384 0
v -800 -384 0
v -832 -416 0
v -864 -416 0
v -864 -384 0
v -832 -384 0
v -864 -416 0
v -896 -416 0
v -896 -384 0
v -864 -384 0
v -896 -416 0
v -928 -416 0
v -928 -384 0
v -896 -384 0
v -32 -448 0
v -64 -448 0
v -64 -416 0
v -32 -416 0
v -64 -448 0
v -96 -448 0
v -96 -416 0
v -64 -416 0
v -96 -448 0
v -128 -448 0
v -128 -416 0
v -96 -416 0
v -128 -448 0
v -160 -448 0
v -160 -416 0
v -128 -416 0
v -192 -448 0
v -224 -448 0
v -224 -416 0
v -192 -416 0
v -224 -448 0
v -256 -448 0
v -256 -416 0
v -224 -416 0
v -256 -448 0
v -288 -448 0
v -288 -416 0
v -256 -416 0
v -288 -448 0
v -320 -448 0
v -320 -416 0
v -288 -416 0
v -320 -448 0
v -352 -448 0
v -352 -416 0
v -320 -416 0
v -608 -448 0
v -640 -448 0
v -640 -416 0
v -608 -416 0
v -640 -448 0
v -672 -448 0
v -672 -416 0
v -640 -416 0
v -672 -448 0
v -704 -448 0
v -704 -416 0
v -672 -416 0
v -704 -448 0
v -736 -448 0
v -736 -416 0
v -704 -416 0
v -768 -448 0
v -800 -448 0
v -800 -416 0
v -768 -416 0
v -800 -448 0
v -832 -448 0
v -832 -416 0
v -800 -416 0
v -832 -448 0
v -864 -448 0
v -864 -416 0
v -832 -416 0
v -864 -448 0
v -896 -448 0
v -896 -416 0
v -864 -416 0
v -32 -480 0
v -64 -480 0
v -64 -448 0
v -32 -448 0
v -64 -480 0
v -96 -480 0
v -96 -448 0
v -64 -448 0
v -96 -480 0
v -128 -480 0
v -128 -448 0
v -96 -448 0
v -192 -480 0
v -224 -480 0
v -224 -448 0
v -192 -448 0
v -224 -480 0
v -256 -480 0
v -256 -448 0
v -224 -448 0
v -256 -480 0
v -288 -480 0
v -288 -448 0
v -256 -448 0
v -288 -480 0
v -320 -480 0
v -320 -448 0
v -288 -448 0
v -320 -480 0
v -352 -480 0
v -352 -448 0
v -320 -448 0
v -576 -480 0
v -608 -480 0
v -608 -448 0
v -576 -448 0
v -608 -480 0
v -640 -480 0
v -640 -448 0
v -608 -448 0
v -640 -480 0
v -672 -480 0
v -672 -448 0
v -640 -448 0
v -672 -480 0
v -704 -480 0
v -704 -448 0
v -672 -448 0
v -704 -480 0
v -736 -480 0
v -736 -448 0
v -704 -448 0
v -768 -480 0
v -800 -480 0
v -800 -448 0
v -768 -448 0
v -800 -480 0
v -832 -480 0
v -832 -448 0
v -800 -448 0
v -832 -480 0
v -864 -480 0
v -864 -448 0
v -832 -448 0
v -160 -512 0
v -192 -512 0
v -192 -480 0
v -160 -480 0
v -192 -512 0
v -224 -512 0
v -224 -480 0
v -192 -480 0
v -224 -512 0
v -256 -512 0
v -256 -480 0
v -224 -480 0
v -256 -512 0
v -288 -512 0
v -288 -480 0
v -256 -480 0
v -288 -512 0
v -320 -512 0
v -320 -480 0
v -288 -480 0
v -384 -512 0
v -416 -512 0
v -416 -480 0
v -384 -480 0
v -416 -512 0
v -448 -512 0
v -448 -480 0
v -416 -480 0
v -448 -512 0
v -480 -512 0
v -480 -480 0
v -448 -480 0
v -480 -512 0
v -512 -512 0
v -512 -480 0
v -480 -480 0
v -512 -512 0
v -544 -512 0
v -544 -480 0
v -512 -480 0
v -544 -512 0
v -576 -512 0
v -576 -480 0
v -544 -480 0
v -576 -512 0
v -608 -512 0
v -608 -480 0
v -576 -480 0
v -608 -512 0
v -640 -512 0
v -640 -480 0
v -608 -480 0
v -640 -512 0
v -672 -512 0
v -672 -480 0
v -640 -480 0
v -672 -512 0
v -704 -512 0
v -704 -480 0
v -672 -480 0
v -704 -512 0
v -736 -512 0
v -736 -480 0
v -704 -480 0
v -768 -512 0
v -800 -512 0
v -800 -480 0
v -768 -480 0
v -800 -512 0
v -832 -512 0
v -832 -480 0
v -800 -480 0
v -832 -512 0
v -864 -512 0
v -864 -480 0
v -832 -480 0
v -864 -512 0
v -896 -512 0
v -896 -480 0
v -864 -480 0
v -160 -544 0
v -192 -544 0
v -192 -512 0
v -160 -512 0
v -192 -544 0
v -224 -544 0
v -224 -512 0
v -192 -512 0
v -224 -544 0
v -256 -544 0
v -256 -512 0
v -224 -512 0
v -256 -544 0
v -288 -544 0
v -288 -512 0
v -256 -512 0
v -384 -544 0
v -416 -544 0
v -416 -512 0
v -384 -512 0
v -416 -544 0
v -448 -544 0
v -448 -512 0
v -416 -512 0
v -448 -544 0
v -480 -544 0
v -480 -512 0
v -448 -512 0
v -480 -544 0
v -512 -544 0
v -512 -512 0
v -480 -512 0
v -512 -544 0
v -544 -544 0
v -544 -512 0
v -512 -512 0
v -544 -544 0
v -576 -544 0
v -576 -512 0
v -544 -512 0
v -576 -544 0
v -608 -544 0
v -608 -512 0
v -576 -512 0
v -608 -544 0
v -640 -544 0
v -640 -512 0
v -608 -512 0
v -640 -544 0
v -672 -544 0
v -672 -512 0
v -640 -512 0
v -672 -544 0
v -704 -544 0
v -704 -512 0
v -672 -512 0
v -704 -544 0
v -736 -544 0
v -736 -512 0
v -704 -512 0
v -768 -544 0
v -800 -544 0
v -800 -512 0
v -768 -512 0
v -800 -544 0
v -832 -544 0
v -832 -512 0
v -800 -512 0
v -832 -544 0
v -864 -544 0
v -864 -512 0
v -832 -512 0
v -864 -544 0
v -896 -544 0
v -896 -512 0
v -864 -512 0
v -160 -576 0
v -192 -576 0
v -192 -544 0
v -160 -544 0
v -192 -576 0
v -224 -576 0
v -224 -544 0
v -192 -544 0
v -224 -576 0
v -256 -576 0
v -256 -544 0
v -224 -544 0
v -256 -576 0
v -288 -576 0
v -288 -544 0
v -256 -544 0
v -384 -576 0
v -416 -576 0
v -416 -544 0
v -384 -544 0
v -416 -576 0
v -448 -576 0
v -448 -544 0
v -416 -544 0
v -448 -576 0
v -480 -576 0
v -480 -544 0
v -448 -544 0
v -480 -576 0
v -512 -576 0
v -512 -544 0
v -480 -544 0
v -512 -576 0
v -544 -576 0
v -544 -544 0
v -512 -544 0
v -544 -576 0
v -576 -576 0
v -576 -544 0
v -544 -544 0
v -576 -576 0
v -608 -576 0
v -608 -544 0
v -576 -544 0
v -608 -576 0
v -640 -576 0
v -640 -544 0
v -608 -544 0
v -640 -576 0
v -672 -576 0
v -672 -544 0
v -640 -544 0
v -768 -576 0
v -800 -576 0
v -800 -544 0
v -768 -544 0
v -800 -576 0
v -832 -576 0
v -832 -544 0
v -800 -544 0
v -832 -576 0
v -864 -576 0
v -864 -544 0
v -832 -544 0
v -864 -576 0
v -896 -576 0
v -896 -544 0
v -864 -544 0
v -896 -576 0
v -928 -576 0
v -928 -544 0
v -896 -544 0
v -160 -608 0
v -192 -608 0
v -192 -576 0
v -160 -576 0
v -192 -608 0
v -224 -608 0
v -224 -576 0
v -192 -576 0
v -224 -608 0
v -256 -608 0
v -256 -576 0
v -224 -576 0
v -256 -608 0
v -288 -608 0
v -288 -576 0
v -256 -576 0
v -352 -608 0
v -384 -608 0
v -384 -576 0
v -352 -576 0
v -384 -608 0
v -416 -608 0
v -416 -576 0
v -384 -576 0
v -416 -608 0
v -448 -608 0
v -448 -576 0
v -416 -576 0
v -448 -608 0
v -480 -608 0
v -480 -576 0
v -448 -576 0
v -544 -608 0
v -576 -608 0
v -576 -576 0
v -544 -576 0
v -576 -608 0
v -608 -608 0
v -608 -576 0
v -576 -576 0
v -608 -608 0
v -640 -608 0
v -640 -576 0
v -608 -576 0
v -800 -608 0
v -832 -608 0
v -832 -576 0
v -800 -576 0
v -832 -608 0
v -864 -608 0
v -864 -576 0
v -832 -576 0
v -864 -608 0
v -896 -608 0
v -896 -576 0
v -864 -576 0
v -896 -608 0
v -928 -608 0
v -928 -576 0
v -896 -576 0
v -192 -640 0
v -224 -640 0
v -224 -608 0
v -192 -608 0
v -224 -640 0
v -256 -640 0
v -256 -608 0
v -224 -608 0
v -256 -640 0
v -288 -640 0
v -288 -608 0
v -256 -608 0
v -288 -640 0
v -320 -640 0
v -320 -608 0
v -288 -608 0
v -352 -640 0
v -384 -640 0
v -384 -608 0
v -352 -608 0
v -384 -640 0
v -416 -640 0
v -416 -608 0
v -384 -608 0
v -416 -640 0
v -448 -640 0
v -448 -608 0
v -416 -608 0
v -448 -640 0
v -480 -640 0
v -480 -608 0
v -448 -608 0
v -544 -640 0
v -576 -640 0
v -576 -608 0
v -544 -608 0
v -576 -640 0
v -608 -640 0
v -608 -608 0
v -576 -608 0
v -608 -640 0
v -640 -640 0
v -640 -608 0
v -608 -608 0
v -640 -640 0
v -672 -640 0
v -672 -608 0
v -640 -608 0
v -832 -640 0
v -864 -640 0
v -864 -608 0
v -832 -608 0
v -864 -640 0
v -896 -640 0
v -896 -608 0
v -864 -608 0
v -896 -640 0
v -928 -640 0
v -928 -608 0
v -896 -608 0
v -928 -640 0
v -960 -640 0
v -960 -608 0
v -928 -608 0
v -192 -672 0
v -224 -672 0
v -224 -640 0
v -192 -640 0
v -224 -672 0
v -256 -672 0
v -256 -640 0
v -224 -640 0
v -256 -672 0
v -288 -672 0
v -288 -640 0
v -256 -640 0
v -288 -672 0
v -320 -672 0
v -320 -640 0
v -288 -640 0
v -320 -672 0
v -352 -672 0
v -352 -640 0
v -320 -640 0
v -352 -672 0
v -384 -672 0
v -384 -640 0
v -352 -640 0
v -384 -672 0
v -416 -672 0
v -416 -640 0
v -384 -640 0
v -416 -672 0
v -448 -672 0
v -448 -640 0
v -416 -640 0
v -448 -672 0
v -480 -672 0
v -480 -640 0
v -448 -640 0
v -544 -672 0
v -576 -672 0
v -576 -640 0
v -544 -640 0
v -576 -672 0
v -608 -672 0
v -608 -640 0
v -576 -640 0
v -608 -672 0
v -640 -672 0
v -640 -640 0
v -608 -640 0
v -640 -672 0
v -672 -672 0
v -672 -640 0
v -640 -640 0
v -672 -672 0
v -704 -672 0
v -704 -640 0
v -672 -640 0
v -704 -672 0
v -736 -672 0
v -736 -640 0
v -704 -640 0
v -832 -672 0
v -864 -672 0
v -864 -640 0
v -832 -640 0
v -864 -672 0
v -896 -672 0
v -896 -640 0
v -864 -640 0
v -896 -672 0
v -928 -672 0
v -928 -640 0
v -896 -640 0
v -928 -672 0
v -960 -672 0
v -960 -640 0
v -928 -640 0
v -192 -704 0
v -224 -704 0
v -224 -672 0
v -192 -672 0
v -224 -704 0
v -256 -704 0
v -256 -672 0
v -224 -672 0
v -256 -704 0
v -288 -704 0
v -288 -672 0
v -256 -672 0
v -288 -704 0
v -320 -704 0
v -320 -672 0
v -288 -672 0
v -320 -704 0
v -352 -704 0
v -352 -672 0
v -320 -672 0
v -352 -704 0
v -384 -704 0
v -384 -672 0
v -352 -672 0
v -384 -704 0
v -416 -704 0
v -416 -672 0
v -384 -672 0
v -416 -704 0
v -448 -704 0
v -448 -672 0
v -416 -672 0
v -576 -704 0
v -608 -704 0
v -608 -672 0
v -576 -672 0
v -608 -704 0
v -640 -704 0
v -640 -672 0
v -608 -672 0
v -640 -704 0
v -672 -704 0
v -672 -672 0
v -640 -672 0
v -672 -704 0
v -704 -704 0
v -704 -672 0
v -672 -672 0
v -704 -704 0
v -736 -704 0
v -736 -672 0
v -704 -672 0
v -736 -704 0
v -768 -704 0
v -768 -672 0
v -736 -672 0
v -768 -704 0
v -800 -704 0
v -800 -672 0
v -768 -672 0
v -800 -704 0
v -832 -704 0
v -832 -672 0
v -800 -672 0
v -832 -704 0
v -864 -704 0
v -864 -672 0
v -832 -672 0
v -864 -704 0
v -896 -704 0
v -896 -672 0
v -864 -672 0
v -896 -704 0
v -928 -704 0
v -928 -672 0
v -896 -672 0
v -928 -704 0
v -960 -704 0
v -960 -672 0
v -928 -672 0
v -224 -736 0
v -256 -736 0
v -256 -704 0
v -224 -704 0
v -256 -736 0
v -288 -736 0
v -288 -704 0
v -256 -704 0
v -288 -736 0
v -320 -736 0
v -320 -704 0
v -288 -704 0
v -320 -736 0
v -352 -736 0
v -352 -704 0
v -320 -704 0
v -352 -736 0
v -384 -736 0
v -384 -704 0
v -352 -704 0
v -384 -736 0
v -416 -736 0
v -416 -704 0
v -384 -704 0
v -416 -736 0
v -448 -736 0
v -448 -704 0
v -416 -704 0
v -448 -736 0
v -480 -736 0
v -480 -704 0
v -448 -704 0
v -576 -736 0
v -608 -736 0
v -608 -704 0
v -576 -704 0
v -608 -736 0
v -640 -736 0
v -640 -704 0
v -608 -704 0
v -640 -736 0
v -672 -736 0
v -672 -704 0
v -640 -704 0
v -672 -736 0
v -704 -736 0
v -704 -704 0
v -672 -704 0
v -704 -736 0
v -736 -736 0
v -736 -704 0
v -704 -704 0
v -736 -736 0
v -768 -736 0
v -768 -704 0
v -736 -704 0
v -768 -736 0
v -800 -736 0
v -800 -704 0
v -768 -704 0
v -800 -736 0
v -832 -736 0
v -832 -704 0
v -800 -704 0
v -832 -736 0
v -864 -736 0
v -864 -704 0
v -832 -704 0
v -864 -736 0
v -896 -736 0
v -896 -704 0
v -864 -704 0
v -896 -736 0
v -928 -736 0
v -928 -704 0
v -896 -704 0
v -928 -736 0
v -960 -736 0
v -960 -704 0
v -928 -704 0
v -288 -768 0
v -320 -768 0
v -320 -736 0
v -288 -736 0
v -320 -768 0
v -352 -768 0
v -352 -736 0
v -320 -736 0
v -352 -768 0
v -384 -768 0
v -384 -736 0
v -352 -736 0
v -384 -768 0
v -416 -768 0
v -416 -736 0
v -384 -736 0
v -416 -768 0
v -448 -768 0
v -448 -736 0
v -416 -736 0
v -448 -768 0
v -480 -768 0
v -480 -736 0
v -448 -736 0
v -672 -768 0
v -704 -768 0
v -704 -736 0
v -672 -736 0
v -704 -768 0
v -736 -768 0
v -736 -736 0
v -704 -736 0
v -736 -768 0
v -768 -768 0
v -768 -736 0
v -736 -736 0
v -768 -768 0
v -800 -768 0
v -800 -736 0
v -768 -736 0
v -800 -768 0
v -832 -768 0
v -832 -736 0
v -800 -736 0
v -832 -768 0
v -864 -768 0
v -864 -736 0
v -832 -736 0
v -864 -768 0
v -896 -768 0
v -896 -736 0
v -864 -736 0
v -896 -768 0
v -928 -768 0
v -928 -736 0
v -896 -736 0
v -352 -800 0
v -384 -800 0
v -384 -768 0
v -352 -768 0
v -384 -800 0
v -416 -800 0
v -416 -768 0
v -384 -768 0
v -416 -800 0
v -448 -800 0
v -448 -768 0
v -416 -768 0
v -448 -800 0
v -480 -800 0
v -480 -768 0
v -448 -768 0

# Texture cooridinates (Count = 26)
vt 0 0.90625
vt 0.03125 0.90625
vt 0.03125 0.9375
vt 0 0.9375
vt 0.0625 0.90625
vt 0.0625 0.9375
vt 0.09375 0.9375
vt 0.09375 0.96875
vt 0.0625 0.96875
vt 0.03125 0.8125
vt 0.0625 0.8125
vt 0.0625 0.84375
vt 0.03125 0.84375
vt 0.09375 0.8125
vt 0.09375 0.84375
vt 0.09375 0.90625
vt 0.03125 0.96875
vt 0.0625 1
vt 0.03125 1
vt 0.0625 0.875
vt 0.03125 0.875
vt 0 0.8125
vt 0 0.84375
vt 0.09375 0.875
vt 0.09375 1
vt 0 0.875

# Normal
vn 0 0 -1

# Mesh description
g davaoForest_mesh_0003

# Faces
f 1/1/1 2/2/1 3/3/1 4/4/1
f 5/2/1 6/5/1 7/6/1 8/3/1
f 9/2/1 10/5/1 11/6/1 12/3/1
f 13/1/1 14/2/1 15/3/1 16/4/1
f 17/6/1 18/7/1 19/8/1 20/9/1
f 21/10/1 22/11/1 23/12/1 24/13/1
f 25/11/1 26/14/1 27/15/1 28/12/1
f 29/1/1 30/2/1 31/3/1 32/4/1
f 33/2/1 34/5/1 35/6/1 36/3/1
f 37/2/1 38/5/1 39/6/1 40/3/1
f 41/2/1 42/5/1 43/6/1 44/3/1
f 45/2/1 46/5/1 47/6/1 48/3/1
f 49/2/1 50/5/1 51/6/1 52/3/1
f 53/5/1 54/16/1 55/7/1 56/6/1
f 57/1/1 58/2/1 59/3/1 60/4/1
f 61/2/1 62/5/1 63/6/1 64/3/1
f 65/6/1 66/7/1 67/8/1 68/9/1
f 69/10/1 70/11/1 71/12/1 72/13/1
f 73/17/1 74/9/1 75/18/1 76/19/1
f 77/13/1 78/12/1 79/20/1 80/21/1
f 81/1/1 82/2/1 83/3/1 84/4/1
f 85/6/1 86/7/1 87/8/1 88/9/1
f 89/22/1 90/10/1 91/13/1 92/23/1
f 93/11/1 94/14/1 95/15/1 96/12/1
f 97/11/1 98/14/1 99/15/1 100/12/1
f 101/22/1 102/10/1 103/13/1 104/23/1
f 105/22/1 106/10/1 107/13/1 108/23/1
f 109/3/1 110/6/1 111/9/1 112/17/1
f 113/5/1 114/16/1 115/7/1 116/6/1
f 117/1/1 118/2/1 119/3/1 120/4/1
f 121/6/1 122/7/1 123/8/1 124/9/1
f 125/11/1 126/14/1 127/15/1 128/12/1
f 129/11/1 130/14/1 131/15/1 132/12/1
f 133/17/1 134/9/1 135/18/1 136/19/1
f 137/12/1 138/15/1 139/24/1 140/20/1
f 141/6/1 142/7/1 143/8/1 144/9/1
f 145/10/1 146/11/1 147/12/1 148/13/1
f 149/22/1 150/10/1 151/13/1 152/23/1
f 153/17/1 154/9/1 155/18/1 156/19/1
f 157/13/1 158/12/1 159/20/1 160/21/1
f 161/13/1 162/12/1 163/20/1 164/21/1
f 165/9/1 166/8/1 167/25/1 168/18/1
f 169/10/1 170/11/1 171/12/1 172/13/1
f 173/3/1 174/6/1 175/9/1 176/17/1
f 177/26/1 178/21/1 179/2/1 180/1/1
f 181/22/1 182/10/1 183/13/1 184/23/1
f 185/21/1 186/20/1 187/5/1 188/2/1
f 189/17/1 190/9/1 191/18/1 192/19/1
f 193/12/1 194/15/1 195/24/1 196/20/1
f 197/10/1 198/11/1 199/12/1 200/13/1
f 201/22/1 202/10/1 203/13/1 204/23/1
f 205/17/1 206/9/1 207/18/1 208/19/1
f 209/12/1 210/15/1 211/24/1 212/20/1
f 213/1/1 214/2/1 215/3/1 216/4/1
f 217/6/1 218/7/1 219/8/1 220/9/1
f 221/21/1 222/20/1 223/5/1 224/2/1
f 225/11/1 226/14/1 227/15/1 228/12/1
f 229/20/1 230/24/1 231/16/1 232/5/1
f 233/1/1 234/2/1 235/3/1 236/4/1
f 237/2/1 238/5/1 239/6/1 240/3/1
f 241/2/1 242/5/1 243/6/1 244/3/1
f 245/5/1 246/16/1 247/7/1 248/6/1
f 249/26/1 250/21/1 251/2/1 252/1/1
f 253/22/1 254/10/1 255/13/1 256/23/1
f 257/17/1 258/9/1 259/18/1 260/19/1
f 261/12/1 262/15/1 263/24/1 264/20/1
f 265/13/1 266/12/1 267/20/1 268/21/1
f 269/13/1 270/12/1 271/20/1 272/21/1
f 273/12/1 274/15/1 275/24/1 276/20/1
f 277/26/1 278/21/1 279/2/1 280/1/1
f 281/22/1 282/10/1 283/13/1 284/23/1
f 285/10/1 286/11/1 287/12/1 288/13/1
f 289/17/1 290/9/1 291/18/1 292/19/1
f 293/12/1 294/15/1 295/24/1 296/20/1
f 297/1/1 298/2/1 299/3/1 300/4/1
f 301/6/1 302/7/1 303/8/1 304/9/1
f 305/10/1 306/11/1 307/12/1 308/13/1
f 309/22/1 310/10/1 311/13/1 312/23/1
f 313/20/1 314/24/1 315/16/1 316/5/1
f 317/26/1 318/21/1 319/2/1 320/1/1
f 321/11/1 322/14/1 323/15/1 324/12/1
f 325/20/1 326/24/1 327/16/1 328/5/1
f 329/1/1 330/2/1 331/3/1 332/4/1
f 333/6/1 334/7/1 335/8/1 336/9/1
f 337/10/1 338/11/1 339/12/1 340/13/1
f 341/17/1 342/9/1 343/18/1 344/19/1
f 345/12/1 346/15/1 347/24/1 348/20/1
f 349/1/1 350/2/1 351/3/1 352/4/1
f 353/2/1 354/5/1 355/6/1 356/3/1
f 357/2/1 358/5/1 359/6/1 360/3/1
f 361/2/1 362/5/1 363/6/1 364/3/1
f 365/2/1 366/5/1 367/6/1 368/3/1
f 369/2/1 370/5/1 371/6/1 372/3/1
f 373/6/1 374/7/1 375/8/1 376/9/1
f 377/10/1 378/11/1 379/12/1 380/13/1
f 381/21/1 382/20/1 383/5/1 384/2/1
f 385/21/1 386/20/1 387/5/1 388/2/1
f 389/20/1 390/24/1 391/16/1 392/5/1
f 393/26/1 394/21/1 395/2/1 396/1/1
f 397/10/1 398/11/1 399/12/1 400/13/1
f 401/3/1 402/6/1 403/9/1 404/17/1
f 405/5/1 406/16/1 407/7/1 408/6/1
f 409/26/1 410/21/1 411/2/1 412/1/1
f 413/10/1 414/11/1 415/12/1 416/13/1
f 417/21/1 418/20/1 419/5/1 420/2/1
f 421/20/1 422/24/1 423/16/1 424/5/1
f 425/26/1 426/21/1 427/2/1 428/1/1
f 429/21/1 430/20/1 431/5/1 432/2/1
f 433/21/1 434/20/1 435/5/1 436/2/1
f 437/11/1 438/14/1 439/15/1 440/12/1
f 441/21/1 442/20/1 443/5/1 444/2/1
f 445/21/1 446/20/1 447/5/1 448/2/1
f 449/21/1 450/20/1 451/5/1 452/2/1
f 453/11/1 454/14/1 455/15/1 456/12/1
f 457/17/1 458/9/1 459/18/1 460/19/1
f 461/13/1 462/12/1 463/20/1 464/21/1
f 465/12/1 466/15/1 467/24/1 468/20/1
f 469/26/1 470/21/1 471/2/1 472/1/1
f 473/11/1 474/14/1 475/15/1 476/12/1
f 477/11/1 478/14/1 479/15/1 480/12/1
f 481/20/1 482/24/1 483/16/1 484/5/1
f 485/26/1 486/21/1 487/2/1 488/1/1
f 489/22/1 490/10/1 491/13/1 492/23/1
f 493/10/1 494/11/1 495/12/1 496/13/1
f 497/20/1 498/24/1 499/16/1 500/5/1
f 501/26/1 502/21/1 503/2/1 504/1/1
f 505/11/1 506/14/1 507/15/1 508/12/1
f 509/17/1 510/9/1 511/18/1 512/19/1
f 513/13/1 514/12/1 515/20/1 516/21/1
f 517/13/1 518/12/1 519/20/1 520/21/1
f 521/9/1 522/8/1 523/25/1 524/18/1
f 525/21/1 526/20/1 527/5/1 528/2/1
f 529/17/1 530/9/1 531/18/1 532/19/1
f 533/12/1 534/15/1 535/24/1 536/20/1
f 537/23/1 538/13/1 539/21/1 540/26/1
f 541/9/1 542/8/1 543/25/1 544/18/1
f 545/11/1 546/14/1 547/15/1 548/12/1
f 549/3/1 550/6/1 551/9/1 552/17/1
f 553/5/1 554/16/1 555/7/1 556/6/1
f 557/23/1 558/13/1 559/21/1 560/26/1
f 561/9/1 562/8/1 563/25/1 564/18/1
f 565/10/1 566/11/1 567/12/1 568/13/1
f 569/20/1 570/24/1 571/16/1 572/5/1
f 573/1/1 574/2/1 575/3/1 576/4/1
f 577/6/1 578/7/1 579/8/1 580/9/1
f 581/21/1 582/20/1 583/5/1 584/2/1
f 585/20/1 586/24/1 587/16/1 588/5/1
f 589/26/1 590/21/1 591/2/1 592/1/1
f 593/10/1 594/11/1 595/12/1 596/13/1
f 597/20/1 598/24/1 599/16/1 600/5/1
f 601/23/1 602/13/1 603/21/1 604/26/1
f 605/9/1 606/8/1 607/25/1 608/18/1
f 609/10/1 610/11/1 611/12/1 612/13/1
f 613/20/1 614/24/1 615/16/1 616/5/1
f 617/26/1 618/21/1 619/2/1 620/1/1
f 621/11/1 622/14/1 623/15/1 624/12/1
f 625/3/1 626/6/1 627/9/1 628/17/1
f 629/5/1 630/16/1 631/7/1 632/6/1
f 633/26/1 634/21/1 635/2/1 636/1/1
f 637/11/1 638/14/1 639/15/1 640/12/1
f 641/11/1 642/14/1 643/15/1 644/12/1
f 645/20/1 646/24/1 647/16/1 648/5/1
f 649/26/1 650/21/1 651/2/1 652/1/1
f 653/11/1 654/14/1 655/15/1 656/12/1
f 657/3/1 658/6/1 659/9/1 660/17/1
f 661/5/1 662/16/1 663/7/1 664/6/1
f 665/26/1 666/21/1 667/2/1 668/1/1
f 669/11/1 670/14/1 671/15/1 672/12/1
f 673/3/1 674/6/1 675/9/1 676/17/1
f 677/5/1 678/16/1 679/7/1 680/6/1
f 681/26/1 682/21/1 683/2/1 684/1/1
f 685/11/1 686/14/1 687/15/1 688/12/1
f 689/22/1 690/10/1 691/13/1 692/23/1
f 693/3/1 694/6/1 695/9/1 696/17/1
f 697/5/1 698/16/1 699/7/1 700/6/1
f 701/26/1 702/21/1 703/2/1 704/1/1
f 705/11/1 706/14/1 707/15/1 708/12/1
f 709/17/1 710/9/1 711/18/1 712/19/1
f 713/12/1 714/15/1 715/24/1 716/20/1
f 717/23/1 718/13/1 719/21/1 720/26/1
f 721/9/1 722/8/1 723/25/1 724/18/1
f 725/22/1 726/10/1 727/13/1 728/23/1
f 729/3/1 730/6/1 731/9/1 732/17/1
f 733/2/1 734/5/1 735/6/1 736/3/1
f 737/5/1 738/16/1 739/7/1 740/6/1
f 741/26/1 742/21/1 743/2/1 744/1/1
f 745/21/1 746/20/1 747/5/1 748/2/1
f 749/22/1 750/10/1 751/13/1 752/23/1
f 753/20/1 754/24/1 755/16/1 756/5/1
f 757/23/1 758/13/1 759/21/1 760/26/1
f 761/9/1 762/8/1 763/25/1 764/18/1
f 765/10/1 766/11/1 767/12/1 768/13/1
f 769/22/1 770/10/1 771/13/1 772/23/1
f 773/3/1 774/6/1 775/9/1 776/17/1
f 777/6/1 778/7/1 779/8/1 780/9/1
f 781/21/1 782/20/1 783/5/1 784/2/1
f 785/20/1 786/24/1 787/16/1 788/5/1
f 789/26/1 790/21/1 791/2/1 792/1/1
f 793/10/1 794/11/1 795/12/1 796/13/1
f 797/10/1 798/11/1 799/12/1 800/13/1
f 801/11/1 802/14/1 803/15/1 804/12/1
f 805/3/1 806/6/1 807/9/1 808/17/1
f 809/2/1 810/5/1 811/6/1 812/3/1
f 813/2/1 814/5/1 815/6/1 816/3/1
f 817/2/1 818/5/1 819/6/1 820/3/1
f 821/6/1 822/7/1 823/8/1 824/9/1
f 825/22/1 826/10/1 827/13/1 828/23/1
f 829/11/1 830/14/1 831/15/1 832/12/1
f 833/20/1 834/24/1 835/16/1 836/5/1
f 837/23/1 838/13/1 839/21/1 840/26/1
f 841/13/1 842/12/1 843/20/1 844/21/1
f 845/9/1 846/8/1 847/25/1 848/18/1
f 849/10/1 850/11/1 851/12/1 852/13/1
f 853/11/1 854/14/1 855/15/1 856/12/1
f 857/11/1 858/14/1 859/15/1 860/12/1
f 861/3/1 862/6/1 863/9/1 864/17/1
f 865/5/1 866/16/1 867/7/1 868/6/1
f 869/23/1 870/13/1 871/21/1 872/26/1
f 873/13/1 874/12/1 875/20/1 876/21/1
f 877/13/1 878/12/1 879/20/1 880/21/1
f 881/9/1 882/8/1 883/25/1 884/18/1
f 885/11/1 886/14/1 887/15/1 888/12/1
f 889/22/1 890/10/1 891/13/1 892/23/1
f 893/11/1 894/14/1 895/15/1 896/12/1
f 897/11/1 898/14/1 899/15/1 900/12/1
f 901/22/1 902/10/1 903/13/1 904/23/1
f 905/10/1 906/11/1 907/12/1 908/13/1
f 909/17/1 910/9/1 911/18/1 912/19/1
f 913/12/1 914/15/1 915/24/1 916/20/1
f 917/23/1 918/13/1 919/21/1 920/26/1
f 921/13/1 922/12/1 923/20/1 924/21/1
f 925/9/1 926/8/1 927/25/1 928/18/1
f 929/11/1 930/14/1 931/15/1 932/12/1
f 933/11/1 934/14/1 935/15/1 936/12/1
f 937/20/1 938/24/1 939/16/1 940/5/1
f 941/23/1 942/13/1 943/21/1 944/26/1
f 945/13/1 946/12/1 947/20/1 948/21/1
f 949/13/1 950/12/1 951/20/1 952/21/1
f 953/13/1 954/12/1 955/20/1 956/21/1
f 957/13/1 958/12/1 959/20/1 960/21/1
f 961/13/1 962/12/1 963/20/1 964/21/1
f 965/13/1 966/12/1 967/20/1 968/21/1
f 969/12/1 970/15/1 971/24/1 972/20/1
f 973/23/1 974/13/1 975/21/1 976/26/1
f 977/13/1 978/12/1 979/20/1 980/21/1
f 981/13/1 982/12/1 983/20/1 984/21/1
f 985/12/1 986/15/1 987/24/1 988/20/1

