# Tiled2Unity generated file. Do not modify by hand.
# Wavefront file for 'EastJungle2_mesh_0002.obj'

# Vertices (Count = 652)
v -320 -64 0
v -352 -64 0
v -352 -32 0
v -320 -32 0
v -352 -64 0
v -384 -64 0
v -384 -32 0
v -352 -32 0
v -384 -64 0
v -416 -64 0
v -416 -32 0
v -384 -32 0
v -320 -96 0
v -352 -96 0
v -352 -64 0
v -320 -64 0
v -352 -96 0
v -384 -96 0
v -384 -64 0
v -352 -64 0
v -384 -96 0
v -416 -96 0
v -416 -64 0
v -384 -64 0
v -320 -128 0
v -352 -128 0
v -352 -96 0
v -320 -96 0
v -352 -128 0
v -384 -128 0
v -384 -96 0
v -352 -96 0
v -384 -128 0
v -416 -128 0
v -416 -96 0
v -384 -96 0
v -416 -128 0
v -448 -128 0
v -448 -96 0
v -416 -96 0
v -448 -128 0
v -480 -128 0
v -480 -96 0
v -448 -96 0
v -320 -160 0
v -352 -160 0
v -352 -128 0
v -320 -128 0
v -352 -160 0
v -384 -160 0
v -384 -128 0
v -352 -128 0
v -384 -160 0
v -416 -160 0
v -416 -128 0
v -384 -128 0
v -416 -160 0
v -448 -160 0
v -448 -128 0
v -416 -128 0
v -448 -160 0
v -480 -160 0
v -480 -128 0
v -448 -128 0
v -480 -160 0
v -512 -160 0
v -512 -128 0
v -480 -128 0
v -512 -160 0
v -544 -160 0
v -544 -128 0
v -512 -128 0
v -320 -192 0
v -352 -192 0
v -352 -160 0
v -320 -160 0
v -352 -192 0
v -384 -192 0
v -384 -160 0
v -352 -160 0
v -384 -192 0
v -416 -192 0
v -416 -160 0
v -384 -160 0
v -416 -192 0
v -448 -192 0
v -448 -160 0
v -416 -160 0
v -448 -192 0
v -480 -192 0
v -480 -160 0
v -448 -160 0
v -480 -192 0
v -512 -192 0
v -512 -160 0
v -480 -160 0
v -512 -192 0
v -544 -192 0
v -544 -160 0
v -512 -160 0
v -544 -192 0
v -576 -192 0
v -576 -160 0
v -544 -160 0
v -416 -224 0
v -448 -224 0
v -448 -192 0
v -416 -192 0
v -448 -224 0
v -480 -224 0
v -480 -192 0
v -448 -192 0
v -480 -224 0
v -512 -224 0
v -512 -192 0
v -480 -192 0
v -512 -224 0
v -544 -224 0
v -544 -192 0
v -512 -192 0
v -544 -224 0
v -576 -224 0
v -576 -192 0
v -544 -192 0
v -448 -256 0
v -480 -256 0
v -480 -224 0
v -448 -224 0
v -480 -256 0
v -512 -256 0
v -512 -224 0
v -480 -224 0
v -512 -256 0
v -544 -256 0
v -544 -224 0
v -512 -224 0
v -544 -256 0
v -576 -256 0
v -576 -224 0
v -544 -224 0
v -480 -288 0
v -512 -288 0
v -512 -256 0
v -480 -256 0
v -512 -288 0
v -544 -288 0
v -544 -256 0
v -512 -256 0
v -544 -288 0
v -576 -288 0
v -576 -256 0
v -544 -256 0
v -480 -320 0
v -512 -320 0
v -512 -288 0
v -480 -288 0
v -512 -320 0
v -544 -320 0
v -544 -288 0
v -512 -288 0
v -544 -320 0
v -576 -320 0
v -576 -288 0
v -544 -288 0
v -480 -352 0
v -512 -352 0
v -512 -320 0
v -480 -320 0
v -512 -352 0
v -544 -352 0
v -544 -320 0
v -512 -320 0
v -544 -352 0
v -576 -352 0
v -576 -320 0
v -544 -320 0
v -576 -352 0
v -608 -352 0
v -608 -320 0
v -576 -320 0
v -480 -384 0
v -512 -384 0
v -512 -352 0
v -480 -352 0
v -512 -384 0
v -544 -384 0
v -544 -352 0
v -512 -352 0
v -544 -384 0
v -576 -384 0
v -576 -352 0
v -544 -352 0
v -576 -384 0
v -608 -384 0
v -608 -352 0
v -576 -352 0
v -512 -416 0
v -544 -416 0
v -544 -384 0
v -512 -384 0
v -544 -416 0
v -576 -416 0
v -576 -384 0
v -544 -384 0
v -576 -416 0
v -608 -416 0
v -608 -384 0
v -576 -384 0
v -512 -448 0
v -544 -448 0
v -544 -416 0
v -512 -416 0
v -544 -448 0
v -576 -448 0
v -576 -416 0
v -544 -416 0
v -576 -448 0
v -608 -448 0
v -608 -416 0
v -576 -416 0
v -480 -480 0
v -512 -480 0
v -512 -448 0
v -480 -448 0
v -512 -480 0
v -544 -480 0
v -544 -448 0
v -512 -448 0
v -544 -480 0
v -576 -480 0
v -576 -448 0
v -544 -448 0
v -576 -480 0
v -608 -480 0
v -608 -448 0
v -576 -448 0
v -480 -512 0
v -512 -512 0
v -512 -480 0
v -480 -480 0
v -512 -512 0
v -544 -512 0
v -544 -480 0
v -512 -480 0
v -544 -512 0
v -576 -512 0
v -576 -480 0
v -544 -480 0
v -576 -512 0
v -608 -512 0
v -608 -480 0
v -576 -480 0
v -672 -512 0
v -704 -512 0
v -704 -480 0
v -672 -480 0
v -704 -512 0
v -736 -512 0
v -736 -480 0
v -704 -480 0
v -736 -512 0
v -768 -512 0
v -768 -480 0
v -736 -480 0
v -768 -512 0
v -800 -512 0
v -800 -480 0
v -768 -480 0
v -480 -544 0
v -512 -544 0
v -512 -512 0
v -480 -512 0
v -512 -544 0
v -544 -544 0
v -544 -512 0
v -512 -512 0
v -544 -544 0
v -576 -544 0
v -576 -512 0
v -544 -512 0
v -576 -544 0
v -608 -544 0
v -608 -512 0
v -576 -512 0
v -608 -544 0
v -640 -544 0
v -640 -512 0
v -608 -512 0
v -640 -544 0
v -672 -544 0
v -672 -512 0
v -640 -512 0
v -672 -544 0
v -704 -544 0
v -704 -512 0
v -672 -512 0
v -704 -544 0
v -736 -544 0
v -736 -512 0
v -704 -512 0
v -736 -544 0
v -768 -544 0
v -768 -512 0
v -736 -512 0
v -768 -544 0
v -800 -544 0
v -800 -512 0
v -768 -512 0
v -800 -544 0
v -832 -544 0
v -832 -512 0
v -800 -512 0
v -832 -544 0
v -864 -544 0
v -864 -512 0
v -832 -512 0
v -864 -544 0
v -896 -544 0
v -896 -512 0
v -864 -512 0
v -896 -544 0
v -928 -544 0
v -928 -512 0
v -896 -512 0
v -928 -544 0
v -960 -544 0
v -960 -512 0
v -928 -512 0
v -960 -544 0
v -992 -544 0
v -992 -512 0
v -960 -512 0
v -480 -576 0
v -512 -576 0
v -512 -544 0
v -480 -544 0
v -512 -576 0
v -544 -576 0
v -544 -544 0
v -512 -544 0
v -544 -576 0
v -576 -576 0
v -576 -544 0
v -544 -544 0
v -576 -576 0
v -608 -576 0
v -608 -544 0
v -576 -544 0
v -608 -576 0
v -640 -576 0
v -640 -544 0
v -608 -544 0
v -640 -576 0
v -672 -576 0
v -672 -544 0
v -640 -544 0
v -672 -576 0
v -704 -576 0
v -704 -544 0
v -672 -544 0
v -704 -576 0
v -736 -576 0
v -736 -544 0
v -704 -544 0
v -736 -576 0
v -768 -576 0
v -768 -544 0
v -736 -544 0
v -768 -576 0
v -800 -576 0
v -800 -544 0
v -768 -544 0
v -800 -576 0
v -832 -576 0
v -832 -544 0
v -800 -544 0
v -832 -576 0
v -864 -576 0
v -864 -544 0
v -832 -544 0
v -864 -576 0
v -896 -576 0
v -896 -544 0
v -864 -544 0
v -896 -576 0
v -928 -576 0
v -928 -544 0
v -896 -544 0
v -928 -576 0
v -960 -576 0
v -960 -544 0
v -928 -544 0
v -960 -576 0
v -992 -576 0
v -992 -544 0
v -960 -544 0
v -480 -608 0
v -512 -608 0
v -512 -576 0
v -480 -576 0
v -512 -608 0
v -544 -608 0
v -544 -576 0
v -512 -576 0
v -544 -608 0
v -576 -608 0
v -576 -576 0
v -544 -576 0
v -576 -608 0
v -608 -608 0
v -608 -576 0
v -576 -576 0
v -608 -608 0
v -640 -608 0
v -640 -576 0
v -608 -576 0
v -640 -608 0
v -672 -608 0
v -672 -576 0
v -640 -576 0
v -672 -608 0
v -704 -608 0
v -704 -576 0
v -672 -576 0
v -704 -608 0
v -736 -608 0
v -736 -576 0
v -704 -576 0
v -736 -608 0
v -768 -608 0
v -768 -576 0
v -736 -576 0
v -768 -608 0
v -800 -608 0
v -800 -576 0
v -768 -576 0
v -800 -608 0
v -832 -608 0
v -832 -576 0
v -800 -576 0
v -832 -608 0
v -864 -608 0
v -864 -576 0
v -832 -576 0
v -864 -608 0
v -896 -608 0
v -896 -576 0
v -864 -576 0
v -896 -608 0
v -928 -608 0
v -928 -576 0
v -896 -576 0
v -928 -608 0
v -960 -608 0
v -960 -576 0
v -928 -576 0
v -960 -608 0
v -992 -608 0
v -992 -576 0
v -960 -576 0
v -512 -640 0
v -544 -640 0
v -544 -608 0
v -512 -608 0
v -544 -640 0
v -576 -640 0
v -576 -608 0
v -544 -608 0
v -576 -640 0
v -608 -640 0
v -608 -608 0
v -576 -608 0
v -608 -640 0
v -640 -640 0
v -640 -608 0
v -608 -608 0
v -640 -640 0
v -672 -640 0
v -672 -608 0
v -640 -608 0
v -512 -672 0
v -544 -672 0
v -544 -640 0
v -512 -640 0
v -544 -672 0
v -576 -672 0
v -576 -640 0
v -544 -640 0
v -576 -672 0
v -608 -672 0
v -608 -640 0
v -576 -640 0
v -608 -672 0
v -640 -672 0
v -640 -640 0
v -608 -640 0
v -512 -704 0
v -544 -704 0
v -544 -672 0
v -512 -672 0
v -544 -704 0
v -576 -704 0
v -576 -672 0
v -544 -672 0
v -576 -704 0
v -608 -704 0
v -608 -672 0
v -576 -672 0
v -608 -704 0
v -640 -704 0
v -640 -672 0
v -608 -672 0
v -480 -736 0
v -512 -736 0
v -512 -704 0
v -480 -704 0
v -512 -736 0
v -544 -736 0
v -544 -704 0
v -512 -704 0
v -544 -736 0
v -576 -736 0
v -576 -704 0
v -544 -704 0
v -576 -736 0
v -608 -736 0
v -608 -704 0
v -576 -704 0
v -608 -736 0
v -640 -736 0
v -640 -704 0
v -608 -704 0
v -480 -768 0
v -512 -768 0
v -512 -736 0
v -480 -736 0
v -512 -768 0
v -544 -768 0
v -544 -736 0
v -512 -736 0
v -544 -768 0
v -576 -768 0
v -576 -736 0
v -544 -736 0
v -576 -768 0
v -608 -768 0
v -608 -736 0
v -576 -736 0
v -608 -768 0
v -640 -768 0
v -640 -736 0
v -608 -736 0
v -480 -800 0
v -512 -800 0
v -512 -768 0
v -480 -768 0
v -512 -800 0
v -544 -800 0
v -544 -768 0
v -512 -768 0
v -544 -800 0
v -576 -800 0
v -576 -768 0
v -544 -768 0
v -480 -832 0
v -512 -832 0
v -512 -800 0
v -480 -800 0
v -512 -832 0
v -544 -832 0
v -544 -800 0
v -512 -800 0
v -544 -832 0
v -576 -832 0
v -576 -800 0
v -544 -800 0
v -480 -864 0
v -512 -864 0
v -512 -832 0
v -480 -832 0
v -512 -864 0
v -544 -864 0
v -544 -832 0
v -512 -832 0
v -544 -864 0
v -576 -864 0
v -576 -832 0
v -544 -832 0
v -480 -896 0
v -512 -896 0
v -512 -864 0
v -480 -864 0
v -512 -896 0
v -544 -896 0
v -544 -864 0
v -512 -864 0
v -544 -896 0
v -576 -896 0
v -576 -864 0
v -544 -864 0
v -576 -896 0
v -608 -896 0
v -608 -864 0
v -576 -864 0
v -480 -928 0
v -512 -928 0
v -512 -896 0
v -480 -896 0
v -512 -928 0
v -544 -928 0
v -544 -896 0
v -512 -896 0
v -544 -928 0
v -576 -928 0
v -576 -896 0
v -544 -896 0
v -576 -928 0
v -608 -928 0
v -608 -896 0
v -576 -896 0
v -512 -960 0
v -544 -960 0
v -544 -928 0
v -512 -928 0
v -544 -960 0
v -576 -960 0
v -576 -928 0
v -544 -928 0
v -576 -960 0
v -608 -960 0
v -608 -928 0
v -576 -928 0
v -608 -960 0
v -640 -960 0
v -640 -928 0
v -608 -928 0
v -512 -992 0
v -544 -992 0
v -544 -960 0
v -512 -960 0
v -544 -992 0
v -576 -992 0
v -576 -960 0
v -544 -960 0
v -576 -992 0
v -608 -992 0
v -608 -960 0
v -576 -960 0
v -608 -992 0
v -640 -992 0
v -640 -960 0
v -608 -960 0

# Texture cooridinates (Count = 30)
vt 0 0.875
vt 0.03125 0.875
vt 0.03125 0.90625
vt 0 0.90625
vt 0.03125 0.8125
vt 0.0625 0.8125
vt 0.0625 0.84375
vt 0.03125 0.84375
vt 0.0625 0.875
vt 0.09375 0.875
vt 0.09375 0.90625
vt 0.0625 0.90625
vt 0 0.8125
vt 0 0.84375
vt 0.09375 0.8125
vt 0.09375 0.84375
vt 0.03125 0.9375
vt 0.0625 0.9375
vt 0.0625 0.96875
vt 0.03125 0.96875
vt 0.09375 0.9375
vt 0.09375 0.96875
vt 0.09375 1
vt 0.0625 1
vt 0 0.9375
vt 0.90625 0.5
vt 0.9375 0.5
vt 0.9375 0.53125
vt 0.90625 0.53125
vt 0.03125 1

# Normal
vn 0 0 -1

# Mesh description
g EastJungle2_mesh_0002

# Faces
f 1/1/1 2/2/1 3/3/1 4/4/1
f 5/5/1 6/6/1 7/7/1 8/8/1
f 9/9/1 10/10/1 11/11/1 12/12/1
f 13/1/1 14/2/1 15/3/1 16/4/1
f 17/13/1 18/5/1 19/8/1 20/14/1
f 21/9/1 22/10/1 23/11/1 24/12/1
f 25/1/1 26/2/1 27/3/1 28/4/1
f 29/6/1 30/15/1 31/16/1 32/7/1
f 33/17/1 34/18/1 35/19/1 36/20/1
f 37/3/1 38/12/1 39/18/1 40/17/1
f 41/12/1 42/11/1 43/21/1 44/18/1
f 45/1/1 46/2/1 47/3/1 48/4/1
f 49/6/1 50/15/1 51/16/1 52/7/1
f 53/2/1 54/9/1 55/12/1 56/3/1
f 57/6/1 58/15/1 59/16/1 60/7/1
f 61/17/1 62/18/1 63/19/1 64/20/1
f 65/3/1 66/12/1 67/18/1 68/17/1
f 69/12/1 70/11/1 71/21/1 72/18/1
f 73/14/1 74/8/1 75/2/1 76/1/1
f 77/8/1 78/7/1 79/9/1 80/2/1
f 81/8/1 82/7/1 83/9/1 84/2/1
f 85/19/1 86/22/1 87/23/1 88/24/1
f 89/6/1 90/15/1 91/16/1 92/7/1
f 93/13/1 94/5/1 95/8/1 96/14/1
f 97/17/1 98/18/1 99/19/1 100/20/1
f 101/12/1 102/11/1 103/21/1 104/18/1
f 105/14/1 106/8/1 107/2/1 108/1/1
f 109/19/1 110/22/1 111/23/1 112/24/1
f 113/2/1 114/9/1 115/12/1 116/3/1
f 117/2/1 118/9/1 119/12/1 120/3/1
f 121/9/1 122/10/1 123/11/1 124/12/1
f 125/14/1 126/8/1 127/2/1 128/1/1
f 129/19/1 130/22/1 131/23/1 132/24/1
f 133/13/1 134/5/1 135/8/1 136/14/1
f 137/9/1 138/10/1 139/11/1 140/12/1
f 141/1/1 142/2/1 143/3/1 144/4/1
f 145/2/1 146/9/1 147/12/1 148/3/1
f 149/9/1 150/10/1 151/11/1 152/12/1
f 153/1/1 154/2/1 155/3/1 156/4/1
f 157/13/1 158/5/1 159/8/1 160/14/1
f 161/9/1 162/10/1 163/11/1 164/12/1
f 165/1/1 166/2/1 167/3/1 168/4/1
f 169/2/1 170/9/1 171/12/1 172/3/1
f 173/17/1 174/18/1 175/19/1 176/20/1
f 177/12/1 178/11/1 179/21/1 180/18/1
f 181/14/1 182/8/1 183/2/1 184/1/1
f 185/19/1 186/22/1 187/23/1 188/24/1
f 189/13/1 190/5/1 191/8/1 192/14/1
f 193/9/1 194/10/1 195/11/1 196/12/1
f 197/1/1 198/2/1 199/3/1 200/4/1
f 201/13/1 202/5/1 203/8/1 204/14/1
f 205/9/1 206/10/1 207/11/1 208/12/1
f 209/1/1 210/2/1 211/3/1 212/4/1
f 213/6/1 214/15/1 215/16/1 216/7/1
f 217/9/1 218/10/1 219/11/1 220/12/1
f 221/4/1 222/3/1 223/17/1 224/25/1
f 225/18/1 226/21/1 227/22/1 228/19/1
f 229/13/1 230/5/1 231/8/1 232/14/1
f 233/9/1 234/10/1 235/11/1 236/12/1
f 237/1/1 238/2/1 239/3/1 240/4/1
f 241/6/1 242/15/1 243/16/1 244/7/1
f 245/13/1 246/5/1 247/8/1 248/14/1
f 249/9/1 250/10/1 251/11/1 252/12/1
f 253/4/1 254/3/1 255/17/1 256/25/1
f 257/3/1 258/12/1 259/18/1 260/17/1
f 261/3/1 262/12/1 263/18/1 264/17/1
f 265/12/1 266/11/1 267/21/1 268/18/1
f 269/1/1 270/2/1 271/3/1 272/4/1
f 273/13/1 274/5/1 275/8/1 276/14/1
f 277/6/1 278/15/1 279/16/1 280/7/1
f 281/9/1 282/10/1 283/11/1 284/12/1
f 285/4/1 286/3/1 287/17/1 288/25/1
f 289/3/1 290/12/1 291/18/1 292/17/1
f 293/18/1 294/21/1 295/22/1 296/19/1
f 297/6/1 298/15/1 299/16/1 300/7/1
f 301/13/1 302/5/1 303/8/1 304/14/1
f 305/17/1 306/18/1 307/19/1 308/20/1
f 309/3/1 310/12/1 311/18/1 312/17/1
f 313/3/1 314/12/1 315/18/1 316/17/1
f 317/3/1 318/12/1 319/18/1 320/17/1
f 321/3/1 322/12/1 323/18/1 324/17/1
f 325/3/1 326/12/1 327/18/1 328/17/1
f 329/26/1 330/27/1 331/28/1 332/29/1
f 333/1/1 334/2/1 335/3/1 336/4/1
f 337/2/1 338/9/1 339/12/1 340/3/1
f 341/5/1 342/6/1 343/7/1 344/8/1
f 345/17/1 346/18/1 347/19/1 348/20/1
f 349/18/1 350/21/1 351/22/1 352/19/1
f 353/6/1 354/15/1 355/16/1 356/7/1
f 357/13/1 358/5/1 359/8/1 360/14/1
f 361/13/1 362/5/1 363/8/1 364/14/1
f 365/6/1 366/15/1 367/16/1 368/7/1
f 369/2/1 370/9/1 371/12/1 372/3/1
f 373/5/1 374/6/1 375/7/1 376/8/1
f 377/13/1 378/5/1 379/8/1 380/14/1
f 381/13/1 382/5/1 383/8/1 384/14/1
f 385/13/1 386/5/1 387/8/1 388/14/1
f 389/13/1 390/5/1 391/8/1 392/14/1
f 393/26/1 394/27/1 395/28/1 396/29/1
f 397/14/1 398/8/1 399/2/1 400/1/1
f 401/19/1 402/22/1 403/23/1 404/24/1
f 405/6/1 406/15/1 407/16/1 408/7/1
f 409/13/1 410/5/1 411/8/1 412/14/1
f 413/6/1 414/15/1 415/16/1 416/7/1
f 417/20/1 418/19/1 419/24/1 420/30/1
f 421/8/1 422/7/1 423/9/1 424/2/1
f 425/8/1 426/7/1 427/9/1 428/2/1
f 429/8/1 430/7/1 431/9/1 432/2/1
f 433/8/1 434/7/1 435/9/1 436/2/1
f 437/8/1 438/7/1 439/9/1 440/2/1
f 441/8/1 442/7/1 443/9/1 444/2/1
f 445/8/1 446/7/1 447/9/1 448/2/1
f 449/8/1 450/7/1 451/9/1 452/2/1
f 453/8/1 454/7/1 455/9/1 456/2/1
f 457/26/1 458/27/1 459/28/1 460/29/1
f 461/1/1 462/2/1 463/3/1 464/4/1
f 465/2/1 466/9/1 467/12/1 468/3/1
f 469/6/1 470/15/1 471/16/1 472/7/1
f 473/20/1 474/19/1 475/24/1 476/30/1
f 477/7/1 478/16/1 479/10/1 480/9/1
f 481/14/1 482/8/1 483/2/1 484/1/1
f 485/19/1 486/22/1 487/23/1 488/24/1
f 489/2/1 490/9/1 491/12/1 492/3/1
f 493/9/1 494/10/1 495/11/1 496/12/1
f 497/4/1 498/3/1 499/17/1 500/25/1
f 501/18/1 502/21/1 503/22/1 504/19/1
f 505/6/1 506/15/1 507/16/1 508/7/1
f 509/9/1 510/10/1 511/11/1 512/12/1
f 513/4/1 514/3/1 515/17/1 516/25/1
f 517/18/1 518/21/1 519/22/1 520/19/1
f 521/13/1 522/5/1 523/8/1 524/14/1
f 525/6/1 526/15/1 527/16/1 528/7/1
f 529/9/1 530/10/1 531/11/1 532/12/1
f 533/1/1 534/2/1 535/3/1 536/4/1
f 537/13/1 538/5/1 539/8/1 540/14/1
f 541/20/1 542/19/1 543/24/1 544/30/1
f 545/8/1 546/7/1 547/9/1 548/2/1
f 549/7/1 550/16/1 551/10/1 552/9/1
f 553/1/1 554/2/1 555/3/1 556/4/1
f 557/13/1 558/5/1 559/8/1 560/14/1
f 561/9/1 562/10/1 563/11/1 564/12/1
f 565/1/1 566/2/1 567/3/1 568/4/1
f 569/2/1 570/9/1 571/12/1 572/3/1
f 573/9/1 574/10/1 575/11/1 576/12/1
f 577/1/1 578/2/1 579/3/1 580/4/1
f 581/13/1 582/5/1 583/8/1 584/14/1
f 585/9/1 586/10/1 587/11/1 588/12/1
f 589/1/1 590/2/1 591/3/1 592/4/1
f 593/6/1 594/15/1 595/16/1 596/7/1
f 597/17/1 598/18/1 599/19/1 600/20/1
f 601/12/1 602/11/1 603/21/1 604/18/1
f 605/14/1 606/8/1 607/2/1 608/1/1
f 609/19/1 610/22/1 611/23/1 612/24/1
f 613/13/1 614/5/1 615/8/1 616/14/1
f 617/9/1 618/10/1 619/11/1 620/12/1
f 621/1/1 622/2/1 623/3/1 624/4/1
f 625/13/1 626/5/1 627/8/1 628/14/1
f 629/17/1 630/18/1 631/19/1 632/20/1
f 633/12/1 634/11/1 635/21/1 636/18/1
f 637/1/1 638/2/1 639/3/1 640/4/1
f 641/6/1 642/15/1 643/16/1 644/7/1
f 645/2/1 646/9/1 647/12/1 648/3/1
f 649/9/1 650/10/1 651/11/1 652/12/1

