# Tiled2Unity generated file. Do not modify by hand.
# Wavefront file for 'EastJungle2_mesh_0005.obj'

# Vertices (Count = 12)
v -960 -544 0
v -992 -544 0
v -992 -512 0
v -960 -512 0
v -960 -576 0
v -992 -576 0
v -992 -544 0
v -960 -544 0
v -960 -608 0
v -992 -608 0
v -992 -576 0
v -960 -576 0

# Texture cooridinates (Count = 4)
vt 0.90625 0.5
vt 0.9375 0.5
vt 0.9375 0.53125
vt 0.90625 0.53125

# Normal
vn 0 0 -1

# Mesh description
g EastJungle2_mesh_0005

# Faces
f 1/1/1 2/2/1 3/3/1 4/4/1
f 5/1/1 6/2/1 7/3/1 8/4/1
f 9/1/1 10/2/1 11/3/1 12/4/1

