# Tiled2Unity generated file. Do not modify by hand.
# Wavefront file for 'Island2Town_mesh_0006.obj'

# Vertices (Count = 576)
v -32 -608 0
v -64 -608 0
v -64 -576 0
v -32 -576 0
v -64 -608 0
v -96 -608 0
v -96 -576 0
v -64 -576 0
v -96 -608 0
v -128 -608 0
v -128 -576 0
v -96 -576 0
v -320 -608 0
v -352 -608 0
v -352 -576 0
v -320 -576 0
v -352 -608 0
v -384 -608 0
v -384 -576 0
v -352 -576 0
v -384 -608 0
v -416 -608 0
v -416 -576 0
v -384 -576 0
v -32 -640 0
v -64 -640 0
v -64 -608 0
v -32 -608 0
v -64 -640 0
v -96 -640 0
v -96 -608 0
v -64 -608 0
v -96 -640 0
v -128 -640 0
v -128 -608 0
v -96 -608 0
v -320 -640 0
v -352 -640 0
v -352 -608 0
v -320 -608 0
v -352 -640 0
v -384 -640 0
v -384 -608 0
v -352 -608 0
v -384 -640 0
v -416 -640 0
v -416 -608 0
v -384 -608 0
v -32 -672 0
v -64 -672 0
v -64 -640 0
v -32 -640 0
v -64 -672 0
v -96 -672 0
v -96 -640 0
v -64 -640 0
v -96 -672 0
v -128 -672 0
v -128 -640 0
v -96 -640 0
v -320 -672 0
v -352 -672 0
v -352 -640 0
v -320 -640 0
v -352 -672 0
v -384 -672 0
v -384 -640 0
v -352 -640 0
v -384 -672 0
v -416 -672 0
v -416 -640 0
v -384 -640 0
v -928 -672 0
v -960 -672 0
v -960 -640 0
v -928 -640 0
v -960 -672 0
v -992 -672 0
v -992 -640 0
v -960 -640 0
v -992 -672 0
v -1024 -672 0
v -1024 -640 0
v -992 -640 0
v -160 -704 0
v -192 -704 0
v -192 -672 0
v -160 -672 0
v -192 -704 0
v -224 -704 0
v -224 -672 0
v -192 -672 0
v -224 -704 0
v -256 -704 0
v -256 -672 0
v -224 -672 0
v -928 -704 0
v -960 -704 0
v -960 -672 0
v -928 -672 0
v -960 -704 0
v -992 -704 0
v -992 -672 0
v -960 -672 0
v -992 -704 0
v -1024 -704 0
v -1024 -672 0
v -992 -672 0
v -160 -736 0
v -192 -736 0
v -192 -704 0
v -160 -704 0
v -192 -736 0
v -224 -736 0
v -224 -704 0
v -192 -704 0
v -224 -736 0
v -256 -736 0
v -256 -704 0
v -224 -704 0
v -928 -736 0
v -960 -736 0
v -960 -704 0
v -928 -704 0
v -960 -736 0
v -992 -736 0
v -992 -704 0
v -960 -704 0
v -992 -736 0
v -1024 -736 0
v -1024 -704 0
v -992 -704 0
v -160 -768 0
v -192 -768 0
v -192 -736 0
v -160 -736 0
v -192 -768 0
v -224 -768 0
v -224 -736 0
v -192 -736 0
v -224 -768 0
v -256 -768 0
v -256 -736 0
v -224 -736 0
v -608 -768 0
v -640 -768 0
v -640 -736 0
v -608 -736 0
v -640 -768 0
v -672 -768 0
v -672 -736 0
v -640 -736 0
v -672 -768 0
v -704 -768 0
v -704 -736 0
v -672 -736 0
v -320 -800 0
v -352 -800 0
v -352 -768 0
v -320 -768 0
v -352 -800 0
v -384 -800 0
v -384 -768 0
v -352 -768 0
v -384 -800 0
v -416 -800 0
v -416 -768 0
v -384 -768 0
v -608 -800 0
v -640 -800 0
v -640 -768 0
v -608 -768 0
v -640 -800 0
v -672 -800 0
v -672 -768 0
v -640 -768 0
v -672 -800 0
v -704 -800 0
v -704 -768 0
v -672 -768 0
v -320 -832 0
v -352 -832 0
v -352 -800 0
v -320 -800 0
v -352 -832 0
v -384 -832 0
v -384 -800 0
v -352 -800 0
v -384 -832 0
v -416 -832 0
v -416 -800 0
v -384 -800 0
v -608 -832 0
v -640 -832 0
v -640 -800 0
v -608 -800 0
v -640 -832 0
v -672 -832 0
v -672 -800 0
v -640 -800 0
v -672 -832 0
v -704 -832 0
v -704 -800 0
v -672 -800 0
v -960 -832 0
v -992 -832 0
v -992 -800 0
v -960 -800 0
v -992 -832 0
v -1024 -832 0
v -1024 -800 0
v -992 -800 0
v -1024 -832 0
v -1056 -832 0
v -1056 -800 0
v -1024 -800 0
v -320 -864 0
v -352 -864 0
v -352 -832 0
v -320 -832 0
v -352 -864 0
v -384 -864 0
v -384 -832 0
v -352 -832 0
v -384 -864 0
v -416 -864 0
v -416 -832 0
v -384 -832 0
v -960 -864 0
v -992 -864 0
v -992 -832 0
v -960 -832 0
v -992 -864 0
v -1024 -864 0
v -1024 -832 0
v -992 -832 0
v -1024 -864 0
v -1056 -864 0
v -1056 -832 0
v -1024 -832 0
v -960 -896 0
v -992 -896 0
v -992 -864 0
v -960 -864 0
v -992 -896 0
v -1024 -896 0
v -1024 -864 0
v -992 -864 0
v -1024 -896 0
v -1056 -896 0
v -1056 -864 0
v -1024 -864 0
v -32 -928 0
v -64 -928 0
v -64 -896 0
v -32 -896 0
v -64 -928 0
v -96 -928 0
v -96 -896 0
v -64 -896 0
v -96 -928 0
v -128 -928 0
v -128 -896 0
v -96 -896 0
v -1152 -928 0
v -1184 -928 0
v -1184 -896 0
v -1152 -896 0
v -1184 -928 0
v -1216 -928 0
v -1216 -896 0
v -1184 -896 0
v -1216 -928 0
v -1248 -928 0
v -1248 -896 0
v -1216 -896 0
v -32 -960 0
v -64 -960 0
v -64 -928 0
v -32 -928 0
v -64 -960 0
v -96 -960 0
v -96 -928 0
v -64 -928 0
v -96 -960 0
v -128 -960 0
v -128 -928 0
v -96 -928 0
v -448 -960 0
v -480 -960 0
v -480 -928 0
v -448 -928 0
v -480 -960 0
v -512 -960 0
v -512 -928 0
v -480 -928 0
v -512 -960 0
v -544 -960 0
v -544 -928 0
v -512 -928 0
v -1152 -960 0
v -1184 -960 0
v -1184 -928 0
v -1152 -928 0
v -1184 -960 0
v -1216 -960 0
v -1216 -928 0
v -1184 -928 0
v -1216 -960 0
v -1248 -960 0
v -1248 -928 0
v -1216 -928 0
v -32 -992 0
v -64 -992 0
v -64 -960 0
v -32 -960 0
v -64 -992 0
v -96 -992 0
v -96 -960 0
v -64 -960 0
v -96 -992 0
v -128 -992 0
v -128 -960 0
v -96 -960 0
v -224 -992 0
v -256 -992 0
v -256 -960 0
v -224 -960 0
v -256 -992 0
v -288 -992 0
v -288 -960 0
v -256 -960 0
v -288 -992 0
v -320 -992 0
v -320 -960 0
v -288 -960 0
v -448 -992 0
v -480 -992 0
v -480 -960 0
v -448 -960 0
v -480 -992 0
v -512 -992 0
v -512 -960 0
v -480 -960 0
v -512 -992 0
v -544 -992 0
v -544 -960 0
v -512 -960 0
v -960 -992 0
v -992 -992 0
v -992 -960 0
v -960 -960 0
v -992 -992 0
v -1024 -992 0
v -1024 -960 0
v -992 -960 0
v -1024 -992 0
v -1056 -992 0
v -1056 -960 0
v -1024 -960 0
v -1152 -992 0
v -1184 -992 0
v -1184 -960 0
v -1152 -960 0
v -1184 -992 0
v -1216 -992 0
v -1216 -960 0
v -1184 -960 0
v -1216 -992 0
v -1248 -992 0
v -1248 -960 0
v -1216 -960 0
v -224 -1024 0
v -256 -1024 0
v -256 -992 0
v -224 -992 0
v -256 -1024 0
v -288 -1024 0
v -288 -992 0
v -256 -992 0
v -288 -1024 0
v -320 -1024 0
v -320 -992 0
v -288 -992 0
v -448 -1024 0
v -480 -1024 0
v -480 -992 0
v -448 -992 0
v -480 -1024 0
v -512 -1024 0
v -512 -992 0
v -480 -992 0
v -512 -1024 0
v -544 -1024 0
v -544 -992 0
v -512 -992 0
v -832 -1024 0
v -864 -1024 0
v -864 -992 0
v -832 -992 0
v -864 -1024 0
v -896 -1024 0
v -896 -992 0
v -864 -992 0
v -896 -1024 0
v -928 -1024 0
v -928 -992 0
v -896 -992 0
v -960 -1024 0
v -992 -1024 0
v -992 -992 0
v -960 -992 0
v -992 -1024 0
v -1024 -1024 0
v -1024 -992 0
v -992 -992 0
v -1024 -1024 0
v -1056 -1024 0
v -1056 -992 0
v -1024 -992 0
v -224 -1056 0
v -256 -1056 0
v -256 -1024 0
v -224 -1024 0
v -256 -1056 0
v -288 -1056 0
v -288 -1024 0
v -256 -1024 0
v -288 -1056 0
v -320 -1056 0
v -320 -1024 0
v -288 -1024 0
v -832 -1056 0
v -864 -1056 0
v -864 -1024 0
v -832 -1024 0
v -864 -1056 0
v -896 -1056 0
v -896 -1024 0
v -864 -1024 0
v -896 -1056 0
v -928 -1056 0
v -928 -1024 0
v -896 -1024 0
v -960 -1056 0
v -992 -1056 0
v -992 -1024 0
v -960 -1024 0
v -992 -1056 0
v -1024 -1056 0
v -1024 -1024 0
v -992 -1024 0
v -1024 -1056 0
v -1056 -1056 0
v -1056 -1024 0
v -1024 -1024 0
v -832 -1088 0
v -864 -1088 0
v -864 -1056 0
v -832 -1056 0
v -864 -1088 0
v -896 -1088 0
v -896 -1056 0
v -864 -1056 0
v -896 -1088 0
v -928 -1088 0
v -928 -1056 0
v -896 -1056 0
v -224 -1152 0
v -256 -1152 0
v -256 -1120 0
v -224 -1120 0
v -256 -1152 0
v -288 -1152 0
v -288 -1120 0
v -256 -1120 0
v -288 -1152 0
v -320 -1152 0
v -320 -1120 0
v -288 -1120 0
v -224 -1184 0
v -256 -1184 0
v -256 -1152 0
v -224 -1152 0
v -256 -1184 0
v -288 -1184 0
v -288 -1152 0
v -256 -1152 0
v -288 -1184 0
v -320 -1184 0
v -320 -1152 0
v -288 -1152 0
v -64 -1216 0
v -96 -1216 0
v -96 -1184 0
v -64 -1184 0
v -96 -1216 0
v -128 -1216 0
v -128 -1184 0
v -96 -1184 0
v -128 -1216 0
v -160 -1216 0
v -160 -1184 0
v -128 -1184 0
v -224 -1216 0
v -256 -1216 0
v -256 -1184 0
v -224 -1184 0
v -256 -1216 0
v -288 -1216 0
v -288 -1184 0
v -256 -1184 0
v -288 -1216 0
v -320 -1216 0
v -320 -1184 0
v -288 -1184 0
v -416 -1216 0
v -448 -1216 0
v -448 -1184 0
v -416 -1184 0
v -448 -1216 0
v -480 -1216 0
v -480 -1184 0
v -448 -1184 0
v -480 -1216 0
v -512 -1216 0
v -512 -1184 0
v -480 -1184 0
v -64 -1248 0
v -96 -1248 0
v -96 -1216 0
v -64 -1216 0
v -96 -1248 0
v -128 -1248 0
v -128 -1216 0
v -96 -1216 0
v -128 -1248 0
v -160 -1248 0
v -160 -1216 0
v -128 -1216 0
v -416 -1248 0
v -448 -1248 0
v -448 -1216 0
v -416 -1216 0
v -448 -1248 0
v -480 -1248 0
v -480 -1216 0
v -448 -1216 0
v -480 -1248 0
v -512 -1248 0
v -512 -1216 0
v -480 -1216 0
v -64 -1280 0
v -96 -1280 0
v -96 -1248 0
v -64 -1248 0
v -96 -1280 0
v -128 -1280 0
v -128 -1248 0
v -96 -1248 0
v -128 -1280 0
v -160 -1280 0
v -160 -1248 0
v -128 -1248 0
v -416 -1280 0
v -448 -1280 0
v -448 -1248 0
v -416 -1248 0
v -448 -1280 0
v -480 -1280 0
v -480 -1248 0
v -448 -1248 0
v -480 -1280 0
v -512 -1280 0
v -512 -1248 0
v -480 -1248 0

# Texture cooridinates (Count = 16)
vt 0 0.6666666
vt 0.1666667 0.6666666
vt 0.1666667 1
vt 0 1
vt 0.3333333 0.6666666
vt 0.3333333 1
vt 0.5 0.6666666
vt 0.5 1
vt 0 0.3333333
vt 0.1666667 0.3333333
vt 0.3333333 0.3333333
vt 0.5 0.3333333
vt 0 0
vt 0.1666667 0
vt 0.3333333 0
vt 0.5 0

# Normal
vn 0 0 -1

# Mesh description
g Island2Town_mesh_0006

# Faces
f 1/1/1 2/2/1 3/3/1 4/4/1
f 5/2/1 6/5/1 7/6/1 8/3/1
f 9/5/1 10/7/1 11/8/1 12/6/1
f 13/1/1 14/2/1 15/3/1 16/4/1
f 17/2/1 18/5/1 19/6/1 20/3/1
f 21/5/1 22/7/1 23/8/1 24/6/1
f 25/9/1 26/10/1 27/2/1 28/1/1
f 29/10/1 30/11/1 31/5/1 32/2/1
f 33/11/1 34/12/1 35/7/1 36/5/1
f 37/9/1 38/10/1 39/2/1 40/1/1
f 41/10/1 42/11/1 43/5/1 44/2/1
f 45/11/1 46/12/1 47/7/1 48/5/1
f 49/13/1 50/14/1 51/10/1 52/9/1
f 53/14/1 54/15/1 55/11/1 56/10/1
f 57/15/1 58/16/1 59/12/1 60/11/1
f 61/13/1 62/14/1 63/10/1 64/9/1
f 65/14/1 66/15/1 67/11/1 68/10/1
f 69/15/1 70/16/1 71/12/1 72/11/1
f 73/1/1 74/2/1 75/3/1 76/4/1
f 77/2/1 78/5/1 79/6/1 80/3/1
f 81/5/1 82/7/1 83/8/1 84/6/1
f 85/1/1 86/2/1 87/3/1 88/4/1
f 89/2/1 90/5/1 91/6/1 92/3/1
f 93/5/1 94/7/1 95/8/1 96/6/1
f 97/9/1 98/10/1 99/2/1 100/1/1
f 101/10/1 102/11/1 103/5/1 104/2/1
f 105/11/1 106/12/1 107/7/1 108/5/1
f 109/9/1 110/10/1 111/2/1 112/1/1
f 113/10/1 114/11/1 115/5/1 116/2/1
f 117/11/1 118/12/1 119/7/1 120/5/1
f 121/13/1 122/14/1 123/10/1 124/9/1
f 125/14/1 126/15/1 127/11/1 128/10/1
f 129/15/1 130/16/1 131/12/1 132/11/1
f 133/13/1 134/14/1 135/10/1 136/9/1
f 137/14/1 138/15/1 139/11/1 140/10/1
f 141/15/1 142/16/1 143/12/1 144/11/1
f 145/1/1 146/2/1 147/3/1 148/4/1
f 149/2/1 150/5/1 151/6/1 152/3/1
f 153/5/1 154/7/1 155/8/1 156/6/1
f 157/1/1 158/2/1 159/3/1 160/4/1
f 161/2/1 162/5/1 163/6/1 164/3/1
f 165/5/1 166/7/1 167/8/1 168/6/1
f 169/9/1 170/10/1 171/2/1 172/1/1
f 173/10/1 174/11/1 175/5/1 176/2/1
f 177/11/1 178/12/1 179/7/1 180/5/1
f 181/9/1 182/10/1 183/2/1 184/1/1
f 185/10/1 186/11/1 187/5/1 188/2/1
f 189/11/1 190/12/1 191/7/1 192/5/1
f 193/13/1 194/14/1 195/10/1 196/9/1
f 197/14/1 198/15/1 199/11/1 200/10/1
f 201/15/1 202/16/1 203/12/1 204/11/1
f 205/1/1 206/2/1 207/3/1 208/4/1
f 209/2/1 210/5/1 211/6/1 212/3/1
f 213/5/1 214/7/1 215/8/1 216/6/1
f 217/13/1 218/14/1 219/10/1 220/9/1
f 221/14/1 222/15/1 223/11/1 224/10/1
f 225/15/1 226/16/1 227/12/1 228/11/1
f 229/9/1 230/10/1 231/2/1 232/1/1
f 233/10/1 234/11/1 235/5/1 236/2/1
f 237/11/1 238/12/1 239/7/1 240/5/1
f 241/13/1 242/14/1 243/10/1 244/9/1
f 245/14/1 246/15/1 247/11/1 248/10/1
f 249/15/1 250/16/1 251/12/1 252/11/1
f 253/1/1 254/2/1 255/3/1 256/4/1
f 257/2/1 258/5/1 259/6/1 260/3/1
f 261/5/1 262/7/1 263/8/1 264/6/1
f 265/1/1 266/2/1 267/3/1 268/4/1
f 269/2/1 270/5/1 271/6/1 272/3/1
f 273/5/1 274/7/1 275/8/1 276/6/1
f 277/9/1 278/10/1 279/2/1 280/1/1
f 281/10/1 282/11/1 283/5/1 284/2/1
f 285/11/1 286/12/1 287/7/1 288/5/1
f 289/1/1 290/2/1 291/3/1 292/4/1
f 293/2/1 294/5/1 295/6/1 296/3/1
f 297/5/1 298/7/1 299/8/1 300/6/1
f 301/9/1 302/10/1 303/2/1 304/1/1
f 305/10/1 306/11/1 307/5/1 308/2/1
f 309/11/1 310/12/1 311/7/1 312/5/1
f 313/13/1 314/14/1 315/10/1 316/9/1
f 317/14/1 318/15/1 319/11/1 320/10/1
f 321/15/1 322/16/1 323/12/1 324/11/1
f 325/1/1 326/2/1 327/3/1 328/4/1
f 329/2/1 330/5/1 331/6/1 332/3/1
f 333/5/1 334/7/1 335/8/1 336/6/1
f 337/9/1 338/10/1 339/2/1 340/1/1
f 341/10/1 342/11/1 343/5/1 344/2/1
f 345/11/1 346/12/1 347/7/1 348/5/1
f 349/1/1 350/2/1 351/3/1 352/4/1
f 353/2/1 354/5/1 355/6/1 356/3/1
f 357/5/1 358/7/1 359/8/1 360/6/1
f 361/13/1 362/14/1 363/10/1 364/9/1
f 365/14/1 366/15/1 367/11/1 368/10/1
f 369/15/1 370/16/1 371/12/1 372/11/1
f 373/9/1 374/10/1 375/2/1 376/1/1
f 377/10/1 378/11/1 379/5/1 380/2/1
f 381/11/1 382/12/1 383/7/1 384/5/1
f 385/13/1 386/14/1 387/10/1 388/9/1
f 389/14/1 390/15/1 391/11/1 392/10/1
f 393/15/1 394/16/1 395/12/1 396/11/1
f 397/1/1 398/2/1 399/3/1 400/4/1
f 401/2/1 402/5/1 403/6/1 404/3/1
f 405/5/1 406/7/1 407/8/1 408/6/1
f 409/9/1 410/10/1 411/2/1 412/1/1
f 413/10/1 414/11/1 415/5/1 416/2/1
f 417/11/1 418/12/1 419/7/1 420/5/1
f 421/13/1 422/14/1 423/10/1 424/9/1
f 425/14/1 426/15/1 427/11/1 428/10/1
f 429/15/1 430/16/1 431/12/1 432/11/1
f 433/9/1 434/10/1 435/2/1 436/1/1
f 437/10/1 438/11/1 439/5/1 440/2/1
f 441/11/1 442/12/1 443/7/1 444/5/1
f 445/13/1 446/14/1 447/10/1 448/9/1
f 449/14/1 450/15/1 451/11/1 452/10/1
f 453/15/1 454/16/1 455/12/1 456/11/1
f 457/13/1 458/14/1 459/10/1 460/9/1
f 461/14/1 462/15/1 463/11/1 464/10/1
f 465/15/1 466/16/1 467/12/1 468/11/1
f 469/1/1 470/2/1 471/3/1 472/4/1
f 473/2/1 474/5/1 475/6/1 476/3/1
f 477/5/1 478/7/1 479/8/1 480/6/1
f 481/9/1 482/10/1 483/2/1 484/1/1
f 485/10/1 486/11/1 487/5/1 488/2/1
f 489/11/1 490/12/1 491/7/1 492/5/1
f 493/1/1 494/2/1 495/3/1 496/4/1
f 497/2/1 498/5/1 499/6/1 500/3/1
f 501/5/1 502/7/1 503/8/1 504/6/1
f 505/13/1 506/14/1 507/10/1 508/9/1
f 509/14/1 510/15/1 511/11/1 512/10/1
f 513/15/1 514/16/1 515/12/1 516/11/1
f 517/1/1 518/2/1 519/3/1 520/4/1
f 521/2/1 522/5/1 523/6/1 524/3/1
f 525/5/1 526/7/1 527/8/1 528/6/1
f 529/9/1 530/10/1 531/2/1 532/1/1
f 533/10/1 534/11/1 535/5/1 536/2/1
f 537/11/1 538/12/1 539/7/1 540/5/1
f 541/9/1 542/10/1 543/2/1 544/1/1
f 545/10/1 546/11/1 547/5/1 548/2/1
f 549/11/1 550/12/1 551/7/1 552/5/1
f 553/13/1 554/14/1 555/10/1 556/9/1
f 557/14/1 558/15/1 559/11/1 560/10/1
f 561/15/1 562/16/1 563/12/1 564/11/1
f 565/13/1 566/14/1 567/10/1 568/9/1
f 569/14/1 570/15/1 571/11/1 572/10/1
f 573/15/1 574/16/1 575/12/1 576/11/1

