# Tiled2Unity generated file. Do not modify by hand.
# Wavefront file for 'Island2Town_mesh_0007.obj'

# Vertices (Count = 576)
v -32 -544 0
v -64 -544 0
v -64 -512 0
v -32 -512 0
v -64 -544 0
v -96 -544 0
v -96 -512 0
v -64 -512 0
v -96 -544 0
v -128 -544 0
v -128 -512 0
v -96 -512 0
v -320 -544 0
v -352 -544 0
v -352 -512 0
v -320 -512 0
v -352 -544 0
v -384 -544 0
v -384 -512 0
v -352 -512 0
v -384 -544 0
v -416 -544 0
v -416 -512 0
v -384 -512 0
v -32 -576 0
v -64 -576 0
v -64 -544 0
v -32 -544 0
v -64 -576 0
v -96 -576 0
v -96 -544 0
v -64 -544 0
v -96 -576 0
v -128 -576 0
v -128 -544 0
v -96 -544 0
v -320 -576 0
v -352 -576 0
v -352 -544 0
v -320 -544 0
v -352 -576 0
v -384 -576 0
v -384 -544 0
v -352 -544 0
v -384 -576 0
v -416 -576 0
v -416 -544 0
v -384 -544 0
v -32 -608 0
v -64 -608 0
v -64 -576 0
v -32 -576 0
v -64 -608 0
v -96 -608 0
v -96 -576 0
v -64 -576 0
v -96 -608 0
v -128 -608 0
v -128 -576 0
v -96 -576 0
v -320 -608 0
v -352 -608 0
v -352 -576 0
v -320 -576 0
v -352 -608 0
v -384 -608 0
v -384 -576 0
v -352 -576 0
v -384 -608 0
v -416 -608 0
v -416 -576 0
v -384 -576 0
v -928 -608 0
v -960 -608 0
v -960 -576 0
v -928 -576 0
v -960 -608 0
v -992 -608 0
v -992 -576 0
v -960 -576 0
v -992 -608 0
v -1024 -608 0
v -1024 -576 0
v -992 -576 0
v -160 -640 0
v -192 -640 0
v -192 -608 0
v -160 -608 0
v -192 -640 0
v -224 -640 0
v -224 -608 0
v -192 -608 0
v -224 -640 0
v -256 -640 0
v -256 -608 0
v -224 -608 0
v -928 -640 0
v -960 -640 0
v -960 -608 0
v -928 -608 0
v -960 -640 0
v -992 -640 0
v -992 -608 0
v -960 -608 0
v -992 -640 0
v -1024 -640 0
v -1024 -608 0
v -992 -608 0
v -160 -672 0
v -192 -672 0
v -192 -640 0
v -160 -640 0
v -192 -672 0
v -224 -672 0
v -224 -640 0
v -192 -640 0
v -224 -672 0
v -256 -672 0
v -256 -640 0
v -224 -640 0
v -928 -672 0
v -960 -672 0
v -960 -640 0
v -928 -640 0
v -960 -672 0
v -992 -672 0
v -992 -640 0
v -960 -640 0
v -992 -672 0
v -1024 -672 0
v -1024 -640 0
v -992 -640 0
v -160 -704 0
v -192 -704 0
v -192 -672 0
v -160 -672 0
v -192 -704 0
v -224 -704 0
v -224 -672 0
v -192 -672 0
v -224 -704 0
v -256 -704 0
v -256 -672 0
v -224 -672 0
v -320 -736 0
v -352 -736 0
v -352 -704 0
v -320 -704 0
v -352 -736 0
v -384 -736 0
v -384 -704 0
v -352 -704 0
v -384 -736 0
v -416 -736 0
v -416 -704 0
v -384 -704 0
v -608 -736 0
v -640 -736 0
v -640 -704 0
v -608 -704 0
v -640 -736 0
v -672 -736 0
v -672 -704 0
v -640 -704 0
v -672 -736 0
v -704 -736 0
v -704 -704 0
v -672 -704 0
v -320 -768 0
v -352 -768 0
v -352 -736 0
v -320 -736 0
v -352 -768 0
v -384 -768 0
v -384 -736 0
v -352 -736 0
v -384 -768 0
v -416 -768 0
v -416 -736 0
v -384 -736 0
v -608 -768 0
v -640 -768 0
v -640 -736 0
v -608 -736 0
v -640 -768 0
v -672 -768 0
v -672 -736 0
v -640 -736 0
v -672 -768 0
v -704 -768 0
v -704 -736 0
v -672 -736 0
v -960 -768 0
v -992 -768 0
v -992 -736 0
v -960 -736 0
v -992 -768 0
v -1024 -768 0
v -1024 -736 0
v -992 -736 0
v -1024 -768 0
v -1056 -768 0
v -1056 -736 0
v -1024 -736 0
v -320 -800 0
v -352 -800 0
v -352 -768 0
v -320 -768 0
v -352 -800 0
v -384 -800 0
v -384 -768 0
v -352 -768 0
v -384 -800 0
v -416 -800 0
v -416 -768 0
v -384 -768 0
v -608 -800 0
v -640 -800 0
v -640 -768 0
v -608 -768 0
v -640 -800 0
v -672 -800 0
v -672 -768 0
v -640 -768 0
v -672 -800 0
v -704 -800 0
v -704 -768 0
v -672 -768 0
v -960 -800 0
v -992 -800 0
v -992 -768 0
v -960 -768 0
v -992 -800 0
v -1024 -800 0
v -1024 -768 0
v -992 -768 0
v -1024 -800 0
v -1056 -800 0
v -1056 -768 0
v -1024 -768 0
v -960 -832 0
v -992 -832 0
v -992 -800 0
v -960 -800 0
v -992 -832 0
v -1024 -832 0
v -1024 -800 0
v -992 -800 0
v -1024 -832 0
v -1056 -832 0
v -1056 -800 0
v -1024 -800 0
v -32 -864 0
v -64 -864 0
v -64 -832 0
v -32 -832 0
v -64 -864 0
v -96 -864 0
v -96 -832 0
v -64 -832 0
v -96 -864 0
v -128 -864 0
v -128 -832 0
v -96 -832 0
v -32 -896 0
v -64 -896 0
v -64 -864 0
v -32 -864 0
v -64 -896 0
v -96 -896 0
v -96 -864 0
v -64 -864 0
v -96 -896 0
v -128 -896 0
v -128 -864 0
v -96 -864 0
v -1152 -896 0
v -1184 -896 0
v -1184 -864 0
v -1152 -864 0
v -1184 -896 0
v -1216 -896 0
v -1216 -864 0
v -1184 -864 0
v -1216 -896 0
v -1248 -896 0
v -1248 -864 0
v -1216 -864 0
v -32 -928 0
v -64 -928 0
v -64 -896 0
v -32 -896 0
v -64 -928 0
v -96 -928 0
v -96 -896 0
v -64 -896 0
v -96 -928 0
v -128 -928 0
v -128 -896 0
v -96 -896 0
v -448 -928 0
v -480 -928 0
v -480 -896 0
v -448 -896 0
v -480 -928 0
v -512 -928 0
v -512 -896 0
v -480 -896 0
v -512 -928 0
v -544 -928 0
v -544 -896 0
v -512 -896 0
v -960 -928 0
v -992 -928 0
v -992 -896 0
v -960 -896 0
v -992 -928 0
v -1024 -928 0
v -1024 -896 0
v -992 -896 0
v -1024 -928 0
v -1056 -928 0
v -1056 -896 0
v -1024 -896 0
v -1152 -928 0
v -1184 -928 0
v -1184 -896 0
v -1152 -896 0
v -1184 -928 0
v -1216 -928 0
v -1216 -896 0
v -1184 -896 0
v -1216 -928 0
v -1248 -928 0
v -1248 -896 0
v -1216 -896 0
v -224 -960 0
v -256 -960 0
v -256 -928 0
v -224 -928 0
v -256 -960 0
v -288 -960 0
v -288 -928 0
v -256 -928 0
v -288 -960 0
v -320 -960 0
v -320 -928 0
v -288 -928 0
v -448 -960 0
v -480 -960 0
v -480 -928 0
v -448 -928 0
v -480 -960 0
v -512 -960 0
v -512 -928 0
v -480 -928 0
v -512 -960 0
v -544 -960 0
v -544 -928 0
v -512 -928 0
v -832 -960 0
v -864 -960 0
v -864 -928 0
v -832 -928 0
v -864 -960 0
v -896 -960 0
v -896 -928 0
v -864 -928 0
v -896 -960 0
v -928 -960 0
v -928 -928 0
v -896 -928 0
v -960 -960 0
v -992 -960 0
v -992 -928 0
v -960 -928 0
v -992 -960 0
v -1024 -960 0
v -1024 -928 0
v -992 -928 0
v -1024 -960 0
v -1056 -960 0
v -1056 -928 0
v -1024 -928 0
v -1152 -960 0
v -1184 -960 0
v -1184 -928 0
v -1152 -928 0
v -1184 -960 0
v -1216 -960 0
v -1216 -928 0
v -1184 -928 0
v -1216 -960 0
v -1248 -960 0
v -1248 -928 0
v -1216 -928 0
v -224 -992 0
v -256 -992 0
v -256 -960 0
v -224 -960 0
v -256 -992 0
v -288 -992 0
v -288 -960 0
v -256 -960 0
v -288 -992 0
v -320 -992 0
v -320 -960 0
v -288 -960 0
v -448 -992 0
v -480 -992 0
v -480 -960 0
v -448 -960 0
v -480 -992 0
v -512 -992 0
v -512 -960 0
v -480 -960 0
v -512 -992 0
v -544 -992 0
v -544 -960 0
v -512 -960 0
v -832 -992 0
v -864 -992 0
v -864 -960 0
v -832 -960 0
v -864 -992 0
v -896 -992 0
v -896 -960 0
v -864 -960 0
v -896 -992 0
v -928 -992 0
v -928 -960 0
v -896 -960 0
v -960 -992 0
v -992 -992 0
v -992 -960 0
v -960 -960 0
v -992 -992 0
v -1024 -992 0
v -1024 -960 0
v -992 -960 0
v -1024 -992 0
v -1056 -992 0
v -1056 -960 0
v -1024 -960 0
v -224 -1024 0
v -256 -1024 0
v -256 -992 0
v -224 -992 0
v -256 -1024 0
v -288 -1024 0
v -288 -992 0
v -256 -992 0
v -288 -1024 0
v -320 -1024 0
v -320 -992 0
v -288 -992 0
v -832 -1024 0
v -864 -1024 0
v -864 -992 0
v -832 -992 0
v -864 -1024 0
v -896 -1024 0
v -896 -992 0
v -864 -992 0
v -896 -1024 0
v -928 -1024 0
v -928 -992 0
v -896 -992 0
v -224 -1120 0
v -256 -1120 0
v -256 -1088 0
v -224 -1088 0
v -256 -1120 0
v -288 -1120 0
v -288 -1088 0
v -256 -1088 0
v -288 -1120 0
v -320 -1120 0
v -320 -1088 0
v -288 -1088 0
v -64 -1152 0
v -96 -1152 0
v -96 -1120 0
v -64 -1120 0
v -96 -1152 0
v -128 -1152 0
v -128 -1120 0
v -96 -1120 0
v -128 -1152 0
v -160 -1152 0
v -160 -1120 0
v -128 -1120 0
v -224 -1152 0
v -256 -1152 0
v -256 -1120 0
v -224 -1120 0
v -256 -1152 0
v -288 -1152 0
v -288 -1120 0
v -256 -1120 0
v -288 -1152 0
v -320 -1152 0
v -320 -1120 0
v -288 -1120 0
v -64 -1184 0
v -96 -1184 0
v -96 -1152 0
v -64 -1152 0
v -96 -1184 0
v -128 -1184 0
v -128 -1152 0
v -96 -1152 0
v -128 -1184 0
v -160 -1184 0
v -160 -1152 0
v -128 -1152 0
v -224 -1184 0
v -256 -1184 0
v -256 -1152 0
v -224 -1152 0
v -256 -1184 0
v -288 -1184 0
v -288 -1152 0
v -256 -1152 0
v -288 -1184 0
v -320 -1184 0
v -320 -1152 0
v -288 -1152 0
v -416 -1184 0
v -448 -1184 0
v -448 -1152 0
v -416 -1152 0
v -448 -1184 0
v -480 -1184 0
v -480 -1152 0
v -448 -1152 0
v -480 -1184 0
v -512 -1184 0
v -512 -1152 0
v -480 -1152 0
v -64 -1216 0
v -96 -1216 0
v -96 -1184 0
v -64 -1184 0
v -96 -1216 0
v -128 -1216 0
v -128 -1184 0
v -96 -1184 0
v -128 -1216 0
v -160 -1216 0
v -160 -1184 0
v -128 -1184 0
v -416 -1216 0
v -448 -1216 0
v -448 -1184 0
v -416 -1184 0
v -448 -1216 0
v -480 -1216 0
v -480 -1184 0
v -448 -1184 0
v -480 -1216 0
v -512 -1216 0
v -512 -1184 0
v -480 -1184 0
v -416 -1248 0
v -448 -1248 0
v -448 -1216 0
v -416 -1216 0
v -448 -1248 0
v -480 -1248 0
v -480 -1216 0
v -448 -1216 0
v -480 -1248 0
v -512 -1248 0
v -512 -1216 0
v -480 -1216 0

# Texture cooridinates (Count = 16)
vt 0 0.8571429
vt 0.1666667 0.8571429
vt 0.1666667 1
vt 0 1
vt 0.3333333 0.8571429
vt 0.3333333 1
vt 0.5 0.8571429
vt 0.5 1
vt 0 0.7142857
vt 0.1666667 0.7142857
vt 0.3333333 0.7142857
vt 0.5 0.7142857
vt 0 0.5714285
vt 0.1666667 0.5714285
vt 0.3333333 0.5714285
vt 0.5 0.5714285

# Normal
vn 0 0 -1

# Mesh description
g Island2Town_mesh_0007

# Faces
f 1/1/1 2/2/1 3/3/1 4/4/1
f 5/2/1 6/5/1 7/6/1 8/3/1
f 9/5/1 10/7/1 11/8/1 12/6/1
f 13/1/1 14/2/1 15/3/1 16/4/1
f 17/2/1 18/5/1 19/6/1 20/3/1
f 21/5/1 22/7/1 23/8/1 24/6/1
f 25/9/1 26/10/1 27/2/1 28/1/1
f 29/10/1 30/11/1 31/5/1 32/2/1
f 33/11/1 34/12/1 35/7/1 36/5/1
f 37/9/1 38/10/1 39/2/1 40/1/1
f 41/10/1 42/11/1 43/5/1 44/2/1
f 45/11/1 46/12/1 47/7/1 48/5/1
f 49/13/1 50/14/1 51/10/1 52/9/1
f 53/14/1 54/15/1 55/11/1 56/10/1
f 57/15/1 58/16/1 59/12/1 60/11/1
f 61/13/1 62/14/1 63/10/1 64/9/1
f 65/14/1 66/15/1 67/11/1 68/10/1
f 69/15/1 70/16/1 71/12/1 72/11/1
f 73/1/1 74/2/1 75/3/1 76/4/1
f 77/2/1 78/5/1 79/6/1 80/3/1
f 81/5/1 82/7/1 83/8/1 84/6/1
f 85/1/1 86/2/1 87/3/1 88/4/1
f 89/2/1 90/5/1 91/6/1 92/3/1
f 93/5/1 94/7/1 95/8/1 96/6/1
f 97/9/1 98/10/1 99/2/1 100/1/1
f 101/10/1 102/11/1 103/5/1 104/2/1
f 105/11/1 106/12/1 107/7/1 108/5/1
f 109/9/1 110/10/1 111/2/1 112/1/1
f 113/10/1 114/11/1 115/5/1 116/2/1
f 117/11/1 118/12/1 119/7/1 120/5/1
f 121/13/1 122/14/1 123/10/1 124/9/1
f 125/14/1 126/15/1 127/11/1 128/10/1
f 129/15/1 130/16/1 131/12/1 132/11/1
f 133/13/1 134/14/1 135/10/1 136/9/1
f 137/14/1 138/15/1 139/11/1 140/10/1
f 141/15/1 142/16/1 143/12/1 144/11/1
f 145/1/1 146/2/1 147/3/1 148/4/1
f 149/2/1 150/5/1 151/6/1 152/3/1
f 153/5/1 154/7/1 155/8/1 156/6/1
f 157/1/1 158/2/1 159/3/1 160/4/1
f 161/2/1 162/5/1 163/6/1 164/3/1
f 165/5/1 166/7/1 167/8/1 168/6/1
f 169/9/1 170/10/1 171/2/1 172/1/1
f 173/10/1 174/11/1 175/5/1 176/2/1
f 177/11/1 178/12/1 179/7/1 180/5/1
f 181/9/1 182/10/1 183/2/1 184/1/1
f 185/10/1 186/11/1 187/5/1 188/2/1
f 189/11/1 190/12/1 191/7/1 192/5/1
f 193/1/1 194/2/1 195/3/1 196/4/1
f 197/2/1 198/5/1 199/6/1 200/3/1
f 201/5/1 202/7/1 203/8/1 204/6/1
f 205/13/1 206/14/1 207/10/1 208/9/1
f 209/14/1 210/15/1 211/11/1 212/10/1
f 213/15/1 214/16/1 215/12/1 216/11/1
f 217/13/1 218/14/1 219/10/1 220/9/1
f 221/14/1 222/15/1 223/11/1 224/10/1
f 225/15/1 226/16/1 227/12/1 228/11/1
f 229/9/1 230/10/1 231/2/1 232/1/1
f 233/10/1 234/11/1 235/5/1 236/2/1
f 237/11/1 238/12/1 239/7/1 240/5/1
f 241/13/1 242/14/1 243/10/1 244/9/1
f 245/14/1 246/15/1 247/11/1 248/10/1
f 249/15/1 250/16/1 251/12/1 252/11/1
f 253/1/1 254/2/1 255/3/1 256/4/1
f 257/2/1 258/5/1 259/6/1 260/3/1
f 261/5/1 262/7/1 263/8/1 264/6/1
f 265/9/1 266/10/1 267/2/1 268/1/1
f 269/10/1 270/11/1 271/5/1 272/2/1
f 273/11/1 274/12/1 275/7/1 276/5/1
f 277/1/1 278/2/1 279/3/1 280/4/1
f 281/2/1 282/5/1 283/6/1 284/3/1
f 285/5/1 286/7/1 287/8/1 288/6/1
f 289/13/1 290/14/1 291/10/1 292/9/1
f 293/14/1 294/15/1 295/11/1 296/10/1
f 297/15/1 298/16/1 299/12/1 300/11/1
f 301/1/1 302/2/1 303/3/1 304/4/1
f 305/2/1 306/5/1 307/6/1 308/3/1
f 309/5/1 310/7/1 311/8/1 312/6/1
f 313/1/1 314/2/1 315/3/1 316/4/1
f 317/2/1 318/5/1 319/6/1 320/3/1
f 321/5/1 322/7/1 323/8/1 324/6/1
f 325/9/1 326/10/1 327/2/1 328/1/1
f 329/10/1 330/11/1 331/5/1 332/2/1
f 333/11/1 334/12/1 335/7/1 336/5/1
f 337/1/1 338/2/1 339/3/1 340/4/1
f 341/2/1 342/5/1 343/6/1 344/3/1
f 345/5/1 346/7/1 347/8/1 348/6/1
f 349/9/1 350/10/1 351/2/1 352/1/1
f 353/10/1 354/11/1 355/5/1 356/2/1
f 357/11/1 358/12/1 359/7/1 360/5/1
f 361/1/1 362/2/1 363/3/1 364/4/1
f 365/2/1 366/5/1 367/6/1 368/3/1
f 369/5/1 370/7/1 371/8/1 372/6/1
f 373/9/1 374/10/1 375/2/1 376/1/1
f 377/10/1 378/11/1 379/5/1 380/2/1
f 381/11/1 382/12/1 383/7/1 384/5/1
f 385/13/1 386/14/1 387/10/1 388/9/1
f 389/14/1 390/15/1 391/11/1 392/10/1
f 393/15/1 394/16/1 395/12/1 396/11/1
f 397/9/1 398/10/1 399/2/1 400/1/1
f 401/10/1 402/11/1 403/5/1 404/2/1
f 405/11/1 406/12/1 407/7/1 408/5/1
f 409/13/1 410/14/1 411/10/1 412/9/1
f 413/14/1 414/15/1 415/11/1 416/10/1
f 417/15/1 418/16/1 419/12/1 420/11/1
f 421/9/1 422/10/1 423/2/1 424/1/1
f 425/10/1 426/11/1 427/5/1 428/2/1
f 429/11/1 430/12/1 431/7/1 432/5/1
f 433/13/1 434/14/1 435/10/1 436/9/1
f 437/14/1 438/15/1 439/11/1 440/10/1
f 441/15/1 442/16/1 443/12/1 444/11/1
f 445/13/1 446/14/1 447/10/1 448/9/1
f 449/14/1 450/15/1 451/11/1 452/10/1
f 453/15/1 454/16/1 455/12/1 456/11/1
f 457/13/1 458/14/1 459/10/1 460/9/1
f 461/14/1 462/15/1 463/11/1 464/10/1
f 465/15/1 466/16/1 467/12/1 468/11/1
f 469/1/1 470/2/1 471/3/1 472/4/1
f 473/2/1 474/5/1 475/6/1 476/3/1
f 477/5/1 478/7/1 479/8/1 480/6/1
f 481/1/1 482/2/1 483/3/1 484/4/1
f 485/2/1 486/5/1 487/6/1 488/3/1
f 489/5/1 490/7/1 491/8/1 492/6/1
f 493/9/1 494/10/1 495/2/1 496/1/1
f 497/10/1 498/11/1 499/5/1 500/2/1
f 501/11/1 502/12/1 503/7/1 504/5/1
f 505/9/1 506/10/1 507/2/1 508/1/1
f 509/10/1 510/11/1 511/5/1 512/2/1
f 513/11/1 514/12/1 515/7/1 516/5/1
f 517/13/1 518/14/1 519/10/1 520/9/1
f 521/14/1 522/15/1 523/11/1 524/10/1
f 525/15/1 526/16/1 527/12/1 528/11/1
f 529/1/1 530/2/1 531/3/1 532/4/1
f 533/2/1 534/5/1 535/6/1 536/3/1
f 537/5/1 538/7/1 539/8/1 540/6/1
f 541/13/1 542/14/1 543/10/1 544/9/1
f 545/14/1 546/15/1 547/11/1 548/10/1
f 549/15/1 550/16/1 551/12/1 552/11/1
f 553/9/1 554/10/1 555/2/1 556/1/1
f 557/10/1 558/11/1 559/5/1 560/2/1
f 561/11/1 562/12/1 563/7/1 564/5/1
f 565/13/1 566/14/1 567/10/1 568/9/1
f 569/14/1 570/15/1 571/11/1 572/10/1
f 573/15/1 574/16/1 575/12/1 576/11/1

