# Tiled2Unity generated file. Do not modify by hand.
# Wavefront file for 'Island2Town_mesh_0003.obj'

# Vertices (Count = 216)
v -128 -96 0
v -160 -96 0
v -160 -64 0
v -128 -64 0
v -160 -96 0
v -192 -96 0
v -192 -64 0
v -160 -64 0
v -192 -96 0
v -224 -96 0
v -224 -64 0
v -192 -64 0
v -608 -96 0
v -640 -96 0
v -640 -64 0
v -608 -64 0
v -640 -96 0
v -672 -96 0
v -672 -64 0
v -640 -64 0
v -672 -96 0
v -704 -96 0
v -704 -64 0
v -672 -64 0
v -128 -128 0
v -160 -128 0
v -160 -96 0
v -128 -96 0
v -160 -128 0
v -192 -128 0
v -192 -96 0
v -160 -96 0
v -192 -128 0
v -224 -128 0
v -224 -96 0
v -192 -96 0
v -608 -128 0
v -640 -128 0
v -640 -96 0
v -608 -96 0
v -640 -128 0
v -672 -128 0
v -672 -96 0
v -640 -96 0
v -672 -128 0
v -704 -128 0
v -704 -96 0
v -672 -96 0
v -128 -160 0
v -160 -160 0
v -160 -128 0
v -128 -128 0
v -160 -160 0
v -192 -160 0
v -192 -128 0
v -160 -128 0
v -192 -160 0
v -224 -160 0
v -224 -128 0
v -192 -128 0
v -608 -160 0
v -640 -160 0
v -640 -128 0
v -608 -128 0
v -640 -160 0
v -672 -160 0
v -672 -128 0
v -640 -128 0
v -672 -160 0
v -704 -160 0
v -704 -128 0
v -672 -128 0
v -1056 -256 0
v -1088 -256 0
v -1088 -224 0
v -1056 -224 0
v -1088 -256 0
v -1120 -256 0
v -1120 -224 0
v -1088 -224 0
v -1120 -256 0
v -1152 -256 0
v -1152 -224 0
v -1120 -224 0
v -1056 -288 0
v -1088 -288 0
v -1088 -256 0
v -1056 -256 0
v -1088 -288 0
v -1120 -288 0
v -1120 -256 0
v -1088 -256 0
v -1120 -288 0
v -1152 -288 0
v -1152 -256 0
v -1120 -256 0
v -1056 -320 0
v -1088 -320 0
v -1088 -288 0
v -1056 -288 0
v -1088 -320 0
v -1120 -320 0
v -1120 -288 0
v -1088 -288 0
v -1120 -320 0
v -1152 -320 0
v -1152 -288 0
v -1120 -288 0
v -288 -384 0
v -320 -384 0
v -320 -352 0
v -288 -352 0
v -320 -384 0
v -352 -384 0
v -352 -352 0
v -320 -352 0
v -352 -384 0
v -384 -384 0
v -384 -352 0
v -352 -352 0
v -288 -416 0
v -320 -416 0
v -320 -384 0
v -288 -384 0
v -320 -416 0
v -352 -416 0
v -352 -384 0
v -320 -384 0
v -352 -416 0
v -384 -416 0
v -384 -384 0
v -352 -384 0
v -288 -448 0
v -320 -448 0
v -320 -416 0
v -288 -416 0
v -320 -448 0
v -352 -448 0
v -352 -416 0
v -320 -416 0
v -352 -448 0
v -384 -448 0
v -384 -416 0
v -352 -416 0
v -576 -448 0
v -608 -448 0
v -608 -416 0
v -576 -416 0
v -608 -448 0
v -640 -448 0
v -640 -416 0
v -608 -416 0
v -640 -448 0
v -672 -448 0
v -672 -416 0
v -640 -416 0
v -576 -480 0
v -608 -480 0
v -608 -448 0
v -576 -448 0
v -608 -480 0
v -640 -480 0
v -640 -448 0
v -608 -448 0
v -640 -480 0
v -672 -480 0
v -672 -448 0
v -640 -448 0
v -576 -512 0
v -608 -512 0
v -608 -480 0
v -576 -480 0
v -608 -512 0
v -640 -512 0
v -640 -480 0
v -608 -480 0
v -640 -512 0
v -672 -512 0
v -672 -480 0
v -640 -480 0
v -1184 -544 0
v -1216 -544 0
v -1216 -512 0
v -1184 -512 0
v -1216 -544 0
v -1248 -544 0
v -1248 -512 0
v -1216 -512 0
v -1248 -544 0
v -1280 -544 0
v -1280 -512 0
v -1248 -512 0
v -1184 -576 0
v -1216 -576 0
v -1216 -544 0
v -1184 -544 0
v -1216 -576 0
v -1248 -576 0
v -1248 -544 0
v -1216 -544 0
v -1248 -576 0
v -1280 -576 0
v -1280 -544 0
v -1248 -544 0
v -1184 -608 0
v -1216 -608 0
v -1216 -576 0
v -1184 -576 0
v -1216 -608 0
v -1248 -608 0
v -1248 -576 0
v -1216 -576 0
v -1248 -608 0
v -1280 -608 0
v -1280 -576 0
v -1248 -576 0

# Texture cooridinates (Count = 16)
vt 0.15625 0.53125
vt 0.1875 0.53125
vt 0.1875 0.5625
vt 0.15625 0.5625
vt 0.21875 0.53125
vt 0.21875 0.5625
vt 0.25 0.53125
vt 0.25 0.5625
vt 0.15625 0.5
vt 0.1875 0.5
vt 0.21875 0.5
vt 0.25 0.5
vt 0.15625 0.46875
vt 0.1875 0.46875
vt 0.21875 0.46875
vt 0.25 0.46875

# Normal
vn 0 0 -1

# Mesh description
g Island2Town_mesh_0003

# Faces
f 1/1/1 2/2/1 3/3/1 4/4/1
f 5/2/1 6/5/1 7/6/1 8/3/1
f 9/5/1 10/7/1 11/8/1 12/6/1
f 13/1/1 14/2/1 15/3/1 16/4/1
f 17/2/1 18/5/1 19/6/1 20/3/1
f 21/5/1 22/7/1 23/8/1 24/6/1
f 25/9/1 26/10/1 27/2/1 28/1/1
f 29/10/1 30/11/1 31/5/1 32/2/1
f 33/11/1 34/12/1 35/7/1 36/5/1
f 37/9/1 38/10/1 39/2/1 40/1/1
f 41/10/1 42/11/1 43/5/1 44/2/1
f 45/11/1 46/12/1 47/7/1 48/5/1
f 49/13/1 50/14/1 51/10/1 52/9/1
f 53/14/1 54/15/1 55/11/1 56/10/1
f 57/15/1 58/16/1 59/12/1 60/11/1
f 61/13/1 62/14/1 63/10/1 64/9/1
f 65/14/1 66/15/1 67/11/1 68/10/1
f 69/15/1 70/16/1 71/12/1 72/11/1
f 73/1/1 74/2/1 75/3/1 76/4/1
f 77/2/1 78/5/1 79/6/1 80/3/1
f 81/5/1 82/7/1 83/8/1 84/6/1
f 85/9/1 86/10/1 87/2/1 88/1/1
f 89/10/1 90/11/1 91/5/1 92/2/1
f 93/11/1 94/12/1 95/7/1 96/5/1
f 97/13/1 98/14/1 99/10/1 100/9/1
f 101/14/1 102/15/1 103/11/1 104/10/1
f 105/15/1 106/16/1 107/12/1 108/11/1
f 109/1/1 110/2/1 111/3/1 112/4/1
f 113/2/1 114/5/1 115/6/1 116/3/1
f 117/5/1 118/7/1 119/8/1 120/6/1
f 121/9/1 122/10/1 123/2/1 124/1/1
f 125/10/1 126/11/1 127/5/1 128/2/1
f 129/11/1 130/12/1 131/7/1 132/5/1
f 133/13/1 134/14/1 135/10/1 136/9/1
f 137/14/1 138/15/1 139/11/1 140/10/1
f 141/15/1 142/16/1 143/12/1 144/11/1
f 145/1/1 146/2/1 147/3/1 148/4/1
f 149/2/1 150/5/1 151/6/1 152/3/1
f 153/5/1 154/7/1 155/8/1 156/6/1
f 157/9/1 158/10/1 159/2/1 160/1/1
f 161/10/1 162/11/1 163/5/1 164/2/1
f 165/11/1 166/12/1 167/7/1 168/5/1
f 169/13/1 170/14/1 171/10/1 172/9/1
f 173/14/1 174/15/1 175/11/1 176/10/1
f 177/15/1 178/16/1 179/12/1 180/11/1
f 181/1/1 182/2/1 183/3/1 184/4/1
f 185/2/1 186/5/1 187/6/1 188/3/1
f 189/5/1 190/7/1 191/8/1 192/6/1
f 193/9/1 194/10/1 195/2/1 196/1/1
f 197/10/1 198/11/1 199/5/1 200/2/1
f 201/11/1 202/12/1 203/7/1 204/5/1
f 205/13/1 206/14/1 207/10/1 208/9/1
f 209/14/1 210/15/1 211/11/1 212/10/1
f 213/15/1 214/16/1 215/12/1 216/11/1

