# Tiled2Unity generated file. Do not modify by hand.
# Wavefront file for 'EastJungle_mesh_0003.obj'

# Vertices (Count = 568)
v -768 -480 0
v -800 -480 0
v -800 -448 0
v -768 -448 0
v -800 -480 0
v -832 -480 0
v -832 -448 0
v -800 -448 0
v -832 -480 0
v -864 -480 0
v -864 -448 0
v -832 -448 0
v -864 -480 0
v -896 -480 0
v -896 -448 0
v -864 -448 0
v -896 -480 0
v -928 -480 0
v -928 -448 0
v -896 -448 0
v -928 -480 0
v -960 -480 0
v -960 -448 0
v -928 -448 0
v -960 -480 0
v -992 -480 0
v -992 -448 0
v -960 -448 0
v -544 -512 0
v -576 -512 0
v -576 -480 0
v -544 -480 0
v -576 -512 0
v -608 -512 0
v -608 -480 0
v -576 -480 0
v -608 -512 0
v -640 -512 0
v -640 -480 0
v -608 -480 0
v -640 -512 0
v -672 -512 0
v -672 -480 0
v -640 -480 0
v -672 -512 0
v -704 -512 0
v -704 -480 0
v -672 -480 0
v -704 -512 0
v -736 -512 0
v -736 -480 0
v -704 -480 0
v -736 -512 0
v -768 -512 0
v -768 -480 0
v -736 -480 0
v -768 -512 0
v -800 -512 0
v -800 -480 0
v -768 -480 0
v -800 -512 0
v -832 -512 0
v -832 -480 0
v -800 -480 0
v -832 -512 0
v -864 -512 0
v -864 -480 0
v -832 -480 0
v -864 -512 0
v -896 -512 0
v -896 -480 0
v -864 -480 0
v -896 -512 0
v -928 -512 0
v -928 -480 0
v -896 -480 0
v -928 -512 0
v -960 -512 0
v -960 -480 0
v -928 -480 0
v -960 -512 0
v -992 -512 0
v -992 -480 0
v -960 -480 0
v -320 -544 0
v -352 -544 0
v -352 -512 0
v -320 -512 0
v -352 -544 0
v -384 -544 0
v -384 -512 0
v -352 -512 0
v -384 -544 0
v -416 -544 0
v -416 -512 0
v -384 -512 0
v -416 -544 0
v -448 -544 0
v -448 -512 0
v -416 -512 0
v -448 -544 0
v -480 -544 0
v -480 -512 0
v -448 -512 0
v -480 -544 0
v -512 -544 0
v -512 -512 0
v -480 -512 0
v -512 -544 0
v -544 -544 0
v -544 -512 0
v -512 -512 0
v -544 -544 0
v -576 -544 0
v -576 -512 0
v -544 -512 0
v -576 -544 0
v -608 -544 0
v -608 -512 0
v -576 -512 0
v -608 -544 0
v -640 -544 0
v -640 -512 0
v -608 -512 0
v -640 -544 0
v -672 -544 0
v -672 -512 0
v -640 -512 0
v -672 -544 0
v -704 -544 0
v -704 -512 0
v -672 -512 0
v -704 -544 0
v -736 -544 0
v -736 -512 0
v -704 -512 0
v -736 -544 0
v -768 -544 0
v -768 -512 0
v -736 -512 0
v -768 -544 0
v -800 -544 0
v -800 -512 0
v -768 -512 0
v -800 -544 0
v -832 -544 0
v -832 -512 0
v -800 -512 0
v -832 -544 0
v -864 -544 0
v -864 -512 0
v -832 -512 0
v -864 -544 0
v -896 -544 0
v -896 -512 0
v -864 -512 0
v -896 -544 0
v -928 -544 0
v -928 -512 0
v -896 -512 0
v -928 -544 0
v -960 -544 0
v -960 -512 0
v -928 -512 0
v -960 -544 0
v -992 -544 0
v -992 -512 0
v -960 -512 0
v -32 -576 0
v -64 -576 0
v -64 -544 0
v -32 -544 0
v -64 -576 0
v -96 -576 0
v -96 -544 0
v -64 -544 0
v -96 -576 0
v -128 -576 0
v -128 -544 0
v -96 -544 0
v -128 -576 0
v -160 -576 0
v -160 -544 0
v -128 -544 0
v -160 -576 0
v -192 -576 0
v -192 -544 0
v -160 -544 0
v -192 -576 0
v -224 -576 0
v -224 -544 0
v -192 -544 0
v -224 -576 0
v -256 -576 0
v -256 -544 0
v -224 -544 0
v -256 -576 0
v -288 -576 0
v -288 -544 0
v -256 -544 0
v -288 -576 0
v -320 -576 0
v -320 -544 0
v -288 -544 0
v -320 -576 0
v -352 -576 0
v -352 -544 0
v -320 -544 0
v -352 -576 0
v -384 -576 0
v -384 -544 0
v -352 -544 0
v -384 -576 0
v -416 -576 0
v -416 -544 0
v -384 -544 0
v -416 -576 0
v -448 -576 0
v -448 -544 0
v -416 -544 0
v -448 -576 0
v -480 -576 0
v -480 -544 0
v -448 -544 0
v -480 -576 0
v -512 -576 0
v -512 -544 0
v -480 -544 0
v -512 -576 0
v -544 -576 0
v -544 -544 0
v -512 -544 0
v -544 -576 0
v -576 -576 0
v -576 -544 0
v -544 -544 0
v -576 -576 0
v -608 -576 0
v -608 -544 0
v -576 -544 0
v -608 -576 0
v -640 -576 0
v -640 -544 0
v -608 -544 0
v -640 -576 0
v -672 -576 0
v -672 -544 0
v -640 -544 0
v -672 -576 0
v -704 -576 0
v -704 -544 0
v -672 -544 0
v -704 -576 0
v -736 -576 0
v -736 -544 0
v -704 -544 0
v -736 -576 0
v -768 -576 0
v -768 -544 0
v -736 -544 0
v -768 -576 0
v -800 -576 0
v -800 -544 0
v -768 -544 0
v -800 -576 0
v -832 -576 0
v -832 -544 0
v -800 -544 0
v -832 -576 0
v -864 -576 0
v -864 -544 0
v -832 -544 0
v -32 -608 0
v -64 -608 0
v -64 -576 0
v -32 -576 0
v -64 -608 0
v -96 -608 0
v -96 -576 0
v -64 -576 0
v -96 -608 0
v -128 -608 0
v -128 -576 0
v -96 -576 0
v -128 -608 0
v -160 -608 0
v -160 -576 0
v -128 -576 0
v -160 -608 0
v -192 -608 0
v -192 -576 0
v -160 -576 0
v -192 -608 0
v -224 -608 0
v -224 -576 0
v -192 -576 0
v -224 -608 0
v -256 -608 0
v -256 -576 0
v -224 -576 0
v -256 -608 0
v -288 -608 0
v -288 -576 0
v -256 -576 0
v -288 -608 0
v -320 -608 0
v -320 -576 0
v -288 -576 0
v -320 -608 0
v -352 -608 0
v -352 -576 0
v -320 -576 0
v -352 -608 0
v -384 -608 0
v -384 -576 0
v -352 -576 0
v -384 -608 0
v -416 -608 0
v -416 -576 0
v -384 -576 0
v -416 -608 0
v -448 -608 0
v -448 -576 0
v -416 -576 0
v -448 -608 0
v -480 -608 0
v -480 -576 0
v -448 -576 0
v -480 -608 0
v -512 -608 0
v -512 -576 0
v -480 -576 0
v -512 -608 0
v -544 -608 0
v -544 -576 0
v -512 -576 0
v -544 -608 0
v -576 -608 0
v -576 -576 0
v -544 -576 0
v -576 -608 0
v -608 -608 0
v -608 -576 0
v -576 -576 0
v -32 -640 0
v -64 -640 0
v -64 -608 0
v -32 -608 0
v -64 -640 0
v -96 -640 0
v -96 -608 0
v -64 -608 0
v -96 -640 0
v -128 -640 0
v -128 -608 0
v -96 -608 0
v -128 -640 0
v -160 -640 0
v -160 -608 0
v -128 -608 0
v -160 -640 0
v -192 -640 0
v -192 -608 0
v -160 -608 0
v -192 -640 0
v -224 -640 0
v -224 -608 0
v -192 -608 0
v -224 -640 0
v -256 -640 0
v -256 -608 0
v -224 -608 0
v -256 -640 0
v -288 -640 0
v -288 -608 0
v -256 -608 0
v -288 -640 0
v -320 -640 0
v -320 -608 0
v -288 -608 0
v -320 -640 0
v -352 -640 0
v -352 -608 0
v -320 -608 0
v -352 -640 0
v -384 -640 0
v -384 -608 0
v -352 -608 0
v -416 -640 0
v -448 -640 0
v -448 -608 0
v -416 -608 0
v -448 -640 0
v -480 -640 0
v -480 -608 0
v -448 -608 0
v -480 -640 0
v -512 -640 0
v -512 -608 0
v -480 -608 0
v -512 -640 0
v -544 -640 0
v -544 -608 0
v -512 -608 0
v -416 -672 0
v -448 -672 0
v -448 -640 0
v -416 -640 0
v -448 -672 0
v -480 -672 0
v -480 -640 0
v -448 -640 0
v -480 -672 0
v -512 -672 0
v -512 -640 0
v -480 -640 0
v -512 -672 0
v -544 -672 0
v -544 -640 0
v -512 -640 0
v -416 -704 0
v -448 -704 0
v -448 -672 0
v -416 -672 0
v -448 -704 0
v -480 -704 0
v -480 -672 0
v -448 -672 0
v -480 -704 0
v -512 -704 0
v -512 -672 0
v -480 -672 0
v -512 -704 0
v -544 -704 0
v -544 -672 0
v -512 -672 0
v -416 -736 0
v -448 -736 0
v -448 -704 0
v -416 -704 0
v -448 -736 0
v -480 -736 0
v -480 -704 0
v -448 -704 0
v -480 -736 0
v -512 -736 0
v -512 -704 0
v -480 -704 0
v -416 -768 0
v -448 -768 0
v -448 -736 0
v -416 -736 0
v -448 -768 0
v -480 -768 0
v -480 -736 0
v -448 -736 0
v -480 -768 0
v -512 -768 0
v -512 -736 0
v -480 -736 0
v -416 -800 0
v -448 -800 0
v -448 -768 0
v -416 -768 0
v -448 -800 0
v -480 -800 0
v -480 -768 0
v -448 -768 0
v -480 -800 0
v -512 -800 0
v -512 -768 0
v -480 -768 0
v -512 -800 0
v -544 -800 0
v -544 -768 0
v -512 -768 0
v -416 -832 0
v -448 -832 0
v -448 -800 0
v -416 -800 0
v -448 -832 0
v -480 -832 0
v -480 -800 0
v -448 -800 0
v -480 -832 0
v -512 -832 0
v -512 -800 0
v -480 -800 0
v -512 -832 0
v -544 -832 0
v -544 -800 0
v -512 -800 0
v -416 -864 0
v -448 -864 0
v -448 -832 0
v -416 -832 0
v -448 -864 0
v -480 -864 0
v -480 -832 0
v -448 -832 0
v -480 -864 0
v -512 -864 0
v -512 -832 0
v -480 -832 0
v -512 -864 0
v -544 -864 0
v -544 -832 0
v -512 -832 0
v -448 -896 0
v -480 -896 0
v -480 -864 0
v -448 -864 0
v -480 -896 0
v -512 -896 0
v -512 -864 0
v -480 -864 0
v -512 -896 0
v -544 -896 0
v -544 -864 0
v -512 -864 0
v -448 -928 0
v -480 -928 0
v -480 -896 0
v -448 -896 0
v -480 -928 0
v -512 -928 0
v -512 -896 0
v -480 -896 0
v -512 -928 0
v -544 -928 0
v -544 -896 0
v -512 -896 0
v -544 -928 0
v -576 -928 0
v -576 -896 0
v -544 -896 0
v -448 -960 0
v -480 -960 0
v -480 -928 0
v -448 -928 0
v -480 -960 0
v -512 -960 0
v -512 -928 0
v -480 -928 0
v -512 -960 0
v -544 -960 0
v -544 -928 0
v -512 -928 0
v -544 -960 0
v -576 -960 0
v -576 -928 0
v -544 -928 0
v -448 -992 0
v -480 -992 0
v -480 -960 0
v -448 -960 0
v -480 -992 0
v -512 -992 0
v -512 -960 0
v -480 -960 0
v -512 -992 0
v -544 -992 0
v -544 -960 0
v -512 -960 0
v -544 -992 0
v -576 -992 0
v -576 -960 0
v -544 -960 0

# Texture cooridinates (Count = 26)
vt 0 0.90625
vt 0.03125 0.90625
vt 0.03125 0.9375
vt 0 0.9375
vt 0.0625 0.90625
vt 0.0625 0.9375
vt 0.09375 0.9375
vt 0.09375 0.96875
vt 0.0625 0.96875
vt 0.03125 0.8125
vt 0.0625 0.8125
vt 0.0625 0.84375
vt 0.03125 0.84375
vt 0.03125 0.875
vt 0.0625 0.875
vt 0.09375 0.8125
vt 0.09375 0.84375
vt 0 0.8125
vt 0 0.84375
vt 0.03125 0.96875
vt 0.0625 1
vt 0.03125 1
vt 0.09375 0.875
vt 0.09375 1
vt 0.09375 0.90625
vt 0 0.875

# Normal
vn 0 0 -1

# Mesh description
g EastJungle_mesh_0003

# Faces
f 1/1/1 2/2/1 3/3/1 4/4/1
f 5/2/1 6/5/1 7/6/1 8/3/1
f 9/2/1 10/5/1 11/6/1 12/3/1
f 13/2/1 14/5/1 15/6/1 16/3/1
f 17/2/1 18/5/1 19/6/1 20/3/1
f 21/2/1 22/5/1 23/6/1 24/3/1
f 25/2/1 26/5/1 27/6/1 28/3/1
f 29/1/1 30/2/1 31/3/1 32/4/1
f 33/2/1 34/5/1 35/6/1 36/3/1
f 37/2/1 38/5/1 39/6/1 40/3/1
f 41/2/1 42/5/1 43/6/1 44/3/1
f 45/2/1 46/5/1 47/6/1 48/3/1
f 49/2/1 50/5/1 51/6/1 52/3/1
f 53/2/1 54/5/1 55/6/1 56/3/1
f 57/6/1 58/7/1 59/8/1 60/9/1
f 61/10/1 62/11/1 63/12/1 64/13/1
f 65/14/1 66/15/1 67/5/1 68/2/1
f 69/11/1 70/16/1 71/17/1 72/12/1
f 73/14/1 74/15/1 75/5/1 76/2/1
f 77/11/1 78/16/1 79/17/1 80/12/1
f 81/14/1 82/15/1 83/5/1 84/2/1
f 85/1/1 86/2/1 87/3/1 88/4/1
f 89/2/1 90/5/1 91/6/1 92/3/1
f 93/2/1 94/5/1 95/6/1 96/3/1
f 97/2/1 98/5/1 99/6/1 100/3/1
f 101/2/1 102/5/1 103/6/1 104/3/1
f 105/2/1 106/5/1 107/6/1 108/3/1
f 109/2/1 110/5/1 111/6/1 112/3/1
f 113/6/1 114/7/1 115/8/1 116/9/1
f 117/11/1 118/16/1 119/17/1 120/12/1
f 121/18/1 122/10/1 123/13/1 124/19/1
f 125/14/1 126/15/1 127/5/1 128/2/1
f 129/14/1 130/15/1 131/5/1 132/2/1
f 133/11/1 134/16/1 135/17/1 136/12/1
f 137/11/1 138/16/1 139/17/1 140/12/1
f 141/18/1 142/10/1 143/13/1 144/19/1
f 145/14/1 146/15/1 147/5/1 148/2/1
f 149/20/1 150/9/1 151/21/1 152/22/1
f 153/13/1 154/12/1 155/15/1 156/14/1
f 157/13/1 158/12/1 159/15/1 160/14/1
f 161/13/1 162/12/1 163/15/1 164/14/1
f 165/13/1 166/12/1 167/15/1 168/14/1
f 169/2/1 170/5/1 171/6/1 172/3/1
f 173/2/1 174/5/1 175/6/1 176/3/1
f 177/2/1 178/5/1 179/6/1 180/3/1
f 181/2/1 182/5/1 183/6/1 184/3/1
f 185/2/1 186/5/1 187/6/1 188/3/1
f 189/2/1 190/5/1 191/6/1 192/3/1
f 193/2/1 194/5/1 195/6/1 196/3/1
f 197/2/1 198/5/1 199/6/1 200/3/1
f 201/2/1 202/5/1 203/6/1 204/3/1
f 205/6/1 206/7/1 207/8/1 208/9/1
f 209/18/1 210/10/1 211/13/1 212/19/1
f 213/11/1 214/16/1 215/17/1 216/12/1
f 217/14/1 218/15/1 219/5/1 220/2/1
f 221/11/1 222/16/1 223/17/1 224/12/1
f 225/10/1 226/11/1 227/12/1 228/13/1
f 229/14/1 230/15/1 231/5/1 232/2/1
f 233/11/1 234/16/1 235/17/1 236/12/1
f 237/20/1 238/9/1 239/21/1 240/22/1
f 241/13/1 242/12/1 243/15/1 244/14/1
f 245/13/1 246/12/1 247/15/1 248/14/1
f 249/13/1 250/12/1 251/15/1 252/14/1
f 253/13/1 254/12/1 255/15/1 256/14/1
f 257/13/1 258/12/1 259/15/1 260/14/1
f 261/13/1 262/12/1 263/15/1 264/14/1
f 265/13/1 266/12/1 267/15/1 268/14/1
f 269/12/1 270/17/1 271/23/1 272/15/1
f 273/14/1 274/15/1 275/5/1 276/2/1
f 277/11/1 278/16/1 279/17/1 280/12/1
f 281/11/1 282/16/1 283/17/1 284/12/1
f 285/11/1 286/16/1 287/17/1 288/12/1
f 289/18/1 290/10/1 291/13/1 292/19/1
f 293/18/1 294/10/1 295/13/1 296/19/1
f 297/10/1 298/11/1 299/12/1 300/13/1
f 301/10/1 302/11/1 303/12/1 304/13/1
f 305/14/1 306/15/1 307/5/1 308/2/1
f 309/14/1 310/15/1 311/5/1 312/2/1
f 313/20/1 314/9/1 315/21/1 316/22/1
f 317/13/1 318/12/1 319/15/1 320/14/1
f 321/13/1 322/12/1 323/15/1 324/14/1
f 325/9/1 326/8/1 327/24/1 328/21/1
f 329/10/1 330/11/1 331/12/1 332/13/1
f 333/20/1 334/9/1 335/21/1 336/22/1
f 337/13/1 338/12/1 339/15/1 340/14/1
f 341/12/1 342/17/1 343/23/1 344/15/1
f 345/13/1 346/12/1 347/15/1 348/14/1
f 349/13/1 350/12/1 351/15/1 352/14/1
f 353/13/1 354/12/1 355/15/1 356/14/1
f 357/13/1 358/12/1 359/15/1 360/14/1
f 361/13/1 362/12/1 363/15/1 364/14/1
f 365/13/1 366/12/1 367/15/1 368/14/1
f 369/13/1 370/12/1 371/15/1 372/14/1
f 373/13/1 374/12/1 375/15/1 376/14/1
f 377/13/1 378/12/1 379/15/1 380/14/1
f 381/13/1 382/12/1 383/15/1 384/14/1
f 385/12/1 386/17/1 387/23/1 388/15/1
f 389/1/1 390/2/1 391/3/1 392/4/1
f 393/6/1 394/7/1 395/8/1 396/9/1
f 397/11/1 398/16/1 399/17/1 400/12/1
f 401/15/1 402/23/1 403/25/1 404/5/1
f 405/26/1 406/14/1 407/2/1 408/1/1
f 409/10/1 410/11/1 411/12/1 412/13/1
f 413/18/1 414/10/1 415/13/1 416/19/1
f 417/15/1 418/23/1 419/25/1 420/5/1
f 421/26/1 422/14/1 423/2/1 424/1/1
f 425/10/1 426/11/1 427/12/1 428/13/1
f 429/20/1 430/9/1 431/21/1 432/22/1
f 433/12/1 434/17/1 435/23/1 436/15/1
f 437/26/1 438/14/1 439/2/1 440/1/1
f 441/18/1 442/10/1 443/13/1 444/19/1
f 445/15/1 446/23/1 447/25/1 448/5/1
f 449/26/1 450/14/1 451/2/1 452/1/1
f 453/10/1 454/11/1 455/12/1 456/13/1
f 457/15/1 458/23/1 459/25/1 460/5/1
f 461/26/1 462/14/1 463/2/1 464/1/1
f 465/11/1 466/16/1 467/17/1 468/12/1
f 469/3/1 470/6/1 471/9/1 472/20/1
f 473/5/1 474/25/1 475/7/1 476/6/1
f 477/26/1 478/14/1 479/2/1 480/1/1
f 481/11/1 482/16/1 483/17/1 484/12/1
f 485/18/1 486/10/1 487/13/1 488/19/1
f 489/15/1 490/23/1 491/25/1 492/5/1
f 493/19/1 494/13/1 495/14/1 496/26/1
f 497/9/1 498/8/1 499/24/1 500/21/1
f 501/18/1 502/10/1 503/13/1 504/19/1
f 505/15/1 506/23/1 507/25/1 508/5/1
f 509/26/1 510/14/1 511/2/1 512/1/1
f 513/14/1 514/15/1 515/5/1 516/2/1
f 517/15/1 518/23/1 519/25/1 520/5/1
f 521/26/1 522/14/1 523/2/1 524/1/1
f 525/14/1 526/15/1 527/5/1 528/2/1
f 529/3/1 530/6/1 531/9/1 532/20/1
f 533/5/1 534/25/1 535/7/1 536/6/1
f 537/26/1 538/14/1 539/2/1 540/1/1
f 541/10/1 542/11/1 543/12/1 544/13/1
f 545/14/1 546/15/1 547/5/1 548/2/1
f 549/15/1 550/23/1 551/25/1 552/5/1
f 553/19/1 554/13/1 555/14/1 556/26/1
f 557/9/1 558/8/1 559/24/1 560/21/1
f 561/10/1 562/11/1 563/12/1 564/13/1
f 565/15/1 566/23/1 567/25/1 568/5/1

