# Tiled2Unity generated file. Do not modify by hand.
# Wavefront file for 'eastJungle_mesh_0006.obj'

# Vertices (Count = 156)
v -576 -320 0
v -608 -320 0
v -608 -288 0
v -576 -288 0
v -608 -320 0
v -640 -320 0
v -640 -288 0
v -608 -288 0
v -640 -320 0
v -672 -320 0
v -672 -288 0
v -640 -288 0
v -672 -320 0
v -704 -320 0
v -704 -288 0
v -672 -288 0
v -704 -320 0
v -736 -320 0
v -736 -288 0
v -704 -288 0
v -736 -320 0
v -768 -320 0
v -768 -288 0
v -736 -288 0
v -768 -320 0
v -800 -320 0
v -800 -288 0
v -768 -288 0
v -800 -320 0
v -832 -320 0
v -832 -288 0
v -800 -288 0
v -832 -320 0
v -864 -320 0
v -864 -288 0
v -832 -288 0
v -864 -320 0
v -896 -320 0
v -896 -288 0
v -864 -288 0
v -896 -320 0
v -928 -320 0
v -928 -288 0
v -896 -288 0
v -576 -352 0
v -608 -352 0
v -608 -320 0
v -576 -320 0
v -608 -352 0
v -640 -352 0
v -640 -320 0
v -608 -320 0
v -640 -352 0
v -672 -352 0
v -672 -320 0
v -640 -320 0
v -672 -352 0
v -704 -352 0
v -704 -320 0
v -672 -320 0
v -704 -352 0
v -736 -352 0
v -736 -320 0
v -704 -320 0
v -736 -352 0
v -768 -352 0
v -768 -320 0
v -736 -320 0
v -768 -352 0
v -800 -352 0
v -800 -320 0
v -768 -320 0
v -800 -352 0
v -832 -352 0
v -832 -320 0
v -800 -320 0
v -832 -352 0
v -864 -352 0
v -864 -320 0
v -832 -320 0
v -864 -352 0
v -896 -352 0
v -896 -320 0
v -864 -320 0
v -896 -352 0
v -928 -352 0
v -928 -320 0
v -896 -320 0
v -928 -352 0
v -960 -352 0
v -960 -320 0
v -928 -320 0
v -576 -384 0
v -608 -384 0
v -608 -352 0
v -576 -352 0
v -608 -384 0
v -640 -384 0
v -640 -352 0
v -608 -352 0
v -640 -384 0
v -672 -384 0
v -672 -352 0
v -640 -352 0
v -672 -384 0
v -704 -384 0
v -704 -352 0
v -672 -352 0
v -704 -384 0
v -736 -384 0
v -736 -352 0
v -704 -352 0
v -736 -384 0
v -768 -384 0
v -768 -352 0
v -736 -352 0
v -768 -384 0
v -800 -384 0
v -800 -352 0
v -768 -352 0
v -800 -384 0
v -832 -384 0
v -832 -352 0
v -800 -352 0
v -832 -384 0
v -864 -384 0
v -864 -352 0
v -832 -352 0
v -864 -384 0
v -896 -384 0
v -896 -352 0
v -864 -352 0
v -896 -384 0
v -928 -384 0
v -928 -352 0
v -896 -352 0
v -928 -384 0
v -960 -384 0
v -960 -352 0
v -928 -352 0
v -832 -416 0
v -864 -416 0
v -864 -384 0
v -832 -384 0
v -864 -416 0
v -896 -416 0
v -896 -384 0
v -864 -384 0
v -896 -416 0
v -928 -416 0
v -928 -384 0
v -896 -384 0
v -928 -416 0
v -960 -416 0
v -960 -384 0
v -928 -384 0

# Texture cooridinates (Count = 24)
vt 0 0.90625
vt 0.03125 0.90625
vt 0.03125 0.9375
vt 0 0.9375
vt 0.0625 0.90625
vt 0.0625 0.9375
vt 0.09375 0.90625
vt 0.09375 0.9375
vt 0 0.875
vt 0.03125 0.875
vt 0 0.8125
vt 0.03125 0.8125
vt 0.03125 0.84375
vt 0 0.84375
vt 0.0625 0.875
vt 0.0625 0.8125
vt 0.09375 0.8125
vt 0.09375 0.84375
vt 0.0625 0.84375
vt 0.0625 0.96875
vt 0.03125 0.96875
vt 0.09375 0.96875
vt 0.09375 1
vt 0.0625 1

# Normal
vn 0 0 -1

# Mesh description
g eastJungle_mesh_0006

# Faces
f 1/1/1 2/2/1 3/3/1 4/4/1
f 5/2/1 6/5/1 7/6/1 8/3/1
f 9/2/1 10/5/1 11/6/1 12/3/1
f 13/2/1 14/5/1 15/6/1 16/3/1
f 17/2/1 18/5/1 19/6/1 20/3/1
f 21/2/1 22/5/1 23/6/1 24/3/1
f 25/2/1 26/5/1 27/6/1 28/3/1
f 29/2/1 30/5/1 31/6/1 32/3/1
f 33/2/1 34/5/1 35/6/1 36/3/1
f 37/2/1 38/5/1 39/6/1 40/3/1
f 41/5/1 42/7/1 43/8/1 44/6/1
f 45/9/1 46/10/1 47/2/1 48/1/1
f 49/11/1 50/12/1 51/13/1 52/14/1
f 53/10/1 54/15/1 55/5/1 56/2/1
f 57/11/1 58/12/1 59/13/1 60/14/1
f 61/16/1 62/17/1 63/18/1 64/19/1
f 65/11/1 66/12/1 67/13/1 68/14/1
f 69/16/1 70/17/1 71/18/1 72/19/1
f 73/10/1 74/15/1 75/5/1 76/2/1
f 77/12/1 78/16/1 79/19/1 80/13/1
f 81/10/1 82/15/1 83/5/1 84/2/1
f 85/3/1 86/6/1 87/20/1 88/21/1
f 89/2/1 90/5/1 91/6/1 92/3/1
f 93/14/1 94/13/1 95/10/1 96/9/1
f 97/13/1 98/19/1 99/15/1 100/10/1
f 101/13/1 102/19/1 103/15/1 104/10/1
f 105/13/1 106/19/1 107/15/1 108/10/1
f 109/13/1 110/19/1 111/15/1 112/10/1
f 113/13/1 114/19/1 115/15/1 116/10/1
f 117/13/1 118/19/1 119/15/1 120/10/1
f 121/13/1 122/19/1 123/15/1 124/10/1
f 125/20/1 126/22/1 127/23/1 128/24/1
f 129/12/1 130/16/1 131/19/1 132/13/1
f 133/16/1 134/17/1 135/18/1 136/19/1
f 137/11/1 138/12/1 139/13/1 140/14/1
f 141/14/1 142/13/1 143/10/1 144/9/1
f 145/13/1 146/19/1 147/15/1 148/10/1
f 149/13/1 150/19/1 151/15/1 152/10/1
f 153/13/1 154/19/1 155/15/1 156/10/1

