# Tiled2Unity generated file. Do not modify by hand.
# Wavefront file for 'westJungle2_mesh_0002.obj'

# Vertices (Count = 512)
v -352 -64 0
v -384 -64 0
v -384 -32 0
v -352 -32 0
v -384 -64 0
v -416 -64 0
v -416 -32 0
v -384 -32 0
v -416 -64 0
v -448 -64 0
v -448 -32 0
v -416 -32 0
v -352 -96 0
v -384 -96 0
v -384 -64 0
v -352 -64 0
v -384 -96 0
v -416 -96 0
v -416 -64 0
v -384 -64 0
v -416 -96 0
v -448 -96 0
v -448 -64 0
v -416 -64 0
v -352 -128 0
v -384 -128 0
v -384 -96 0
v -352 -96 0
v -384 -128 0
v -416 -128 0
v -416 -96 0
v -384 -96 0
v -416 -128 0
v -448 -128 0
v -448 -96 0
v -416 -96 0
v -352 -160 0
v -384 -160 0
v -384 -128 0
v -352 -128 0
v -384 -160 0
v -416 -160 0
v -416 -128 0
v -384 -128 0
v -416 -160 0
v -448 -160 0
v -448 -128 0
v -416 -128 0
v -352 -192 0
v -384 -192 0
v -384 -160 0
v -352 -160 0
v -384 -192 0
v -416 -192 0
v -416 -160 0
v -384 -160 0
v -416 -192 0
v -448 -192 0
v -448 -160 0
v -416 -160 0
v -352 -224 0
v -384 -224 0
v -384 -192 0
v -352 -192 0
v -384 -224 0
v -416 -224 0
v -416 -192 0
v -384 -192 0
v -416 -224 0
v -448 -224 0
v -448 -192 0
v -416 -192 0
v -352 -256 0
v -384 -256 0
v -384 -224 0
v -352 -224 0
v -384 -256 0
v -416 -256 0
v -416 -224 0
v -384 -224 0
v -416 -256 0
v -448 -256 0
v -448 -224 0
v -416 -224 0
v -352 -288 0
v -384 -288 0
v -384 -256 0
v -352 -256 0
v -384 -288 0
v -416 -288 0
v -416 -256 0
v -384 -256 0
v -416 -288 0
v -448 -288 0
v -448 -256 0
v -416 -256 0
v -352 -320 0
v -384 -320 0
v -384 -288 0
v -352 -288 0
v -384 -320 0
v -416 -320 0
v -416 -288 0
v -384 -288 0
v -416 -320 0
v -448 -320 0
v -448 -288 0
v -416 -288 0
v -448 -320 0
v -480 -320 0
v -480 -288 0
v -448 -288 0
v -352 -352 0
v -384 -352 0
v -384 -320 0
v -352 -320 0
v -384 -352 0
v -416 -352 0
v -416 -320 0
v -384 -320 0
v -416 -352 0
v -448 -352 0
v -448 -320 0
v -416 -320 0
v -448 -352 0
v -480 -352 0
v -480 -320 0
v -448 -320 0
v -352 -384 0
v -384 -384 0
v -384 -352 0
v -352 -352 0
v -384 -384 0
v -416 -384 0
v -416 -352 0
v -384 -352 0
v -416 -384 0
v -448 -384 0
v -448 -352 0
v -416 -352 0
v -448 -384 0
v -480 -384 0
v -480 -352 0
v -448 -352 0
v -384 -416 0
v -416 -416 0
v -416 -384 0
v -384 -384 0
v -416 -416 0
v -448 -416 0
v -448 -384 0
v -416 -384 0
v -448 -416 0
v -480 -416 0
v -480 -384 0
v -448 -384 0
v -480 -416 0
v -512 -416 0
v -512 -384 0
v -480 -384 0
v -384 -448 0
v -416 -448 0
v -416 -416 0
v -384 -416 0
v -416 -448 0
v -448 -448 0
v -448 -416 0
v -416 -416 0
v -448 -448 0
v -480 -448 0
v -480 -416 0
v -448 -416 0
v -480 -448 0
v -512 -448 0
v -512 -416 0
v -480 -416 0
v -384 -480 0
v -416 -480 0
v -416 -448 0
v -384 -448 0
v -416 -480 0
v -448 -480 0
v -448 -448 0
v -416 -448 0
v -448 -480 0
v -480 -480 0
v -480 -448 0
v -448 -448 0
v -480 -480 0
v -512 -480 0
v -512 -448 0
v -480 -448 0
v -512 -480 0
v -544 -480 0
v -544 -448 0
v -512 -448 0
v -416 -512 0
v -448 -512 0
v -448 -480 0
v -416 -480 0
v -448 -512 0
v -480 -512 0
v -480 -480 0
v -448 -480 0
v -480 -512 0
v -512 -512 0
v -512 -480 0
v -480 -480 0
v -512 -512 0
v -544 -512 0
v -544 -480 0
v -512 -480 0
v -544 -512 0
v -576 -512 0
v -576 -480 0
v -544 -480 0
v -448 -544 0
v -480 -544 0
v -480 -512 0
v -448 -512 0
v -480 -544 0
v -512 -544 0
v -512 -512 0
v -480 -512 0
v -512 -544 0
v -544 -544 0
v -544 -512 0
v -512 -512 0
v -544 -544 0
v -576 -544 0
v -576 -512 0
v -544 -512 0
v -448 -576 0
v -480 -576 0
v -480 -544 0
v -448 -544 0
v -480 -576 0
v -512 -576 0
v -512 -544 0
v -480 -544 0
v -512 -576 0
v -544 -576 0
v -544 -544 0
v -512 -544 0
v -544 -576 0
v -576 -576 0
v -576 -544 0
v -544 -544 0
v -576 -576 0
v -608 -576 0
v -608 -544 0
v -576 -544 0
v -480 -608 0
v -512 -608 0
v -512 -576 0
v -480 -576 0
v -512 -608 0
v -544 -608 0
v -544 -576 0
v -512 -576 0
v -544 -608 0
v -576 -608 0
v -576 -576 0
v -544 -576 0
v -576 -608 0
v -608 -608 0
v -608 -576 0
v -576 -576 0
v -608 -608 0
v -640 -608 0
v -640 -576 0
v -608 -576 0
v -512 -640 0
v -544 -640 0
v -544 -608 0
v -512 -608 0
v -544 -640 0
v -576 -640 0
v -576 -608 0
v -544 -608 0
v -576 -640 0
v -608 -640 0
v -608 -608 0
v -576 -608 0
v -608 -640 0
v -640 -640 0
v -640 -608 0
v -608 -608 0
v -512 -672 0
v -544 -672 0
v -544 -640 0
v -512 -640 0
v -544 -672 0
v -576 -672 0
v -576 -640 0
v -544 -640 0
v -576 -672 0
v -608 -672 0
v -608 -640 0
v -576 -640 0
v -608 -672 0
v -640 -672 0
v -640 -640 0
v -608 -640 0
v -640 -672 0
v -672 -672 0
v -672 -640 0
v -640 -640 0
v -544 -704 0
v -576 -704 0
v -576 -672 0
v -544 -672 0
v -576 -704 0
v -608 -704 0
v -608 -672 0
v -576 -672 0
v -608 -704 0
v -640 -704 0
v -640 -672 0
v -608 -672 0
v -640 -704 0
v -672 -704 0
v -672 -672 0
v -640 -672 0
v -544 -736 0
v -576 -736 0
v -576 -704 0
v -544 -704 0
v -576 -736 0
v -608 -736 0
v -608 -704 0
v -576 -704 0
v -608 -736 0
v -640 -736 0
v -640 -704 0
v -608 -704 0
v -640 -736 0
v -672 -736 0
v -672 -704 0
v -640 -704 0
v -576 -768 0
v -608 -768 0
v -608 -736 0
v -576 -736 0
v -608 -768 0
v -640 -768 0
v -640 -736 0
v -608 -736 0
v -640 -768 0
v -672 -768 0
v -672 -736 0
v -640 -736 0
v -672 -768 0
v -704 -768 0
v -704 -736 0
v -672 -736 0
v -576 -800 0
v -608 -800 0
v -608 -768 0
v -576 -768 0
v -608 -800 0
v -640 -800 0
v -640 -768 0
v -608 -768 0
v -640 -800 0
v -672 -800 0
v -672 -768 0
v -640 -768 0
v -672 -800 0
v -704 -800 0
v -704 -768 0
v -672 -768 0
v -576 -832 0
v -608 -832 0
v -608 -800 0
v -576 -800 0
v -608 -832 0
v -640 -832 0
v -640 -800 0
v -608 -800 0
v -640 -832 0
v -672 -832 0
v -672 -800 0
v -640 -800 0
v -672 -832 0
v -704 -832 0
v -704 -800 0
v -672 -800 0
v -544 -864 0
v -576 -864 0
v -576 -832 0
v -544 -832 0
v -576 -864 0
v -608 -864 0
v -608 -832 0
v -576 -832 0
v -608 -864 0
v -640 -864 0
v -640 -832 0
v -608 -832 0
v -640 -864 0
v -672 -864 0
v -672 -832 0
v -640 -832 0
v -672 -864 0
v -704 -864 0
v -704 -832 0
v -672 -832 0
v -448 -896 0
v -480 -896 0
v -480 -864 0
v -448 -864 0
v -480 -896 0
v -512 -896 0
v -512 -864 0
v -480 -864 0
v -512 -896 0
v -544 -896 0
v -544 -864 0
v -512 -864 0
v -544 -896 0
v -576 -896 0
v -576 -864 0
v -544 -864 0
v -576 -896 0
v -608 -896 0
v -608 -864 0
v -576 -864 0
v -608 -896 0
v -640 -896 0
v -640 -864 0
v -608 -864 0
v -640 -896 0
v -672 -896 0
v -672 -864 0
v -640 -864 0
v -672 -896 0
v -704 -896 0
v -704 -864 0
v -672 -864 0
v -416 -928 0
v -448 -928 0
v -448 -896 0
v -416 -896 0
v -448 -928 0
v -480 -928 0
v -480 -896 0
v -448 -896 0
v -480 -928 0
v -512 -928 0
v -512 -896 0
v -480 -896 0
v -512 -928 0
v -544 -928 0
v -544 -896 0
v -512 -896 0
v -544 -928 0
v -576 -928 0
v -576 -896 0
v -544 -896 0
v -576 -928 0
v -608 -928 0
v -608 -896 0
v -576 -896 0
v -608 -928 0
v -640 -928 0
v -640 -896 0
v -608 -896 0
v -640 -928 0
v -672 -928 0
v -672 -896 0
v -640 -896 0
v -416 -960 0
v -448 -960 0
v -448 -928 0
v -416 -928 0
v -448 -960 0
v -480 -960 0
v -480 -928 0
v -448 -928 0
v -480 -960 0
v -512 -960 0
v -512 -928 0
v -480 -928 0
v -512 -960 0
v -544 -960 0
v -544 -928 0
v -512 -928 0
v -544 -960 0
v -576 -960 0
v -576 -928 0
v -544 -928 0
v -576 -960 0
v -608 -960 0
v -608 -928 0
v -576 -928 0
v -416 -992 0
v -448 -992 0
v -448 -960 0
v -416 -960 0
v -448 -992 0
v -480 -992 0
v -480 -960 0
v -448 -960 0
v -480 -992 0
v -512 -992 0
v -512 -960 0
v -480 -960 0
v -512 -992 0
v -544 -992 0
v -544 -960 0
v -512 -960 0

# Texture cooridinates (Count = 26)
vt 0 0.875
vt 0.03125 0.875
vt 0.03125 0.90625
vt 0 0.90625
vt 0.03125 0.8125
vt 0.0625 0.8125
vt 0.0625 0.84375
vt 0.03125 0.84375
vt 0.0625 0.875
vt 0.09375 0.875
vt 0.09375 0.90625
vt 0.0625 0.90625
vt 0.09375 0.8125
vt 0.09375 0.84375
vt 0 0.8125
vt 0 0.84375
vt 0.03125 0.9375
vt 0.0625 0.9375
vt 0.0625 0.96875
vt 0.03125 0.96875
vt 0.09375 0.9375
vt 0.09375 0.96875
vt 0.09375 1
vt 0.0625 1
vt 0 0.9375
vt 0.03125 1

# Normal
vn 0 0 -1

# Mesh description
g westJungle2_mesh_0002

# Faces
f 1/1/1 2/2/1 3/3/1 4/4/1
f 5/5/1 6/6/1 7/7/1 8/8/1
f 9/9/1 10/10/1 11/11/1 12/12/1
f 13/1/1 14/2/1 15/3/1 16/4/1
f 17/6/1 18/13/1 19/14/1 20/7/1
f 21/9/1 22/10/1 23/11/1 24/12/1
f 25/1/1 26/2/1 27/3/1 28/4/1
f 29/2/1 30/9/1 31/12/1 32/3/1
f 33/9/1 34/10/1 35/11/1 36/12/1
f 37/1/1 38/2/1 39/3/1 40/4/1
f 41/15/1 42/5/1 43/8/1 44/16/1
f 45/9/1 46/10/1 47/11/1 48/12/1
f 49/1/1 50/2/1 51/3/1 52/4/1
f 53/6/1 54/13/1 55/14/1 56/7/1
f 57/9/1 58/10/1 59/11/1 60/12/1
f 61/1/1 62/2/1 63/3/1 64/4/1
f 65/6/1 66/13/1 67/14/1 68/7/1
f 69/9/1 70/10/1 71/11/1 72/12/1
f 73/1/1 74/2/1 75/3/1 76/4/1
f 77/6/1 78/13/1 79/14/1 80/7/1
f 81/9/1 82/10/1 83/11/1 84/12/1
f 85/1/1 86/2/1 87/3/1 88/4/1
f 89/15/1 90/5/1 91/8/1 92/16/1
f 93/9/1 94/10/1 95/11/1 96/12/1
f 97/1/1 98/2/1 99/3/1 100/4/1
f 101/6/1 102/13/1 103/14/1 104/7/1
f 105/17/1 106/18/1 107/19/1 108/20/1
f 109/12/1 110/11/1 111/21/1 112/18/1
f 113/1/1 114/2/1 115/3/1 116/4/1
f 117/2/1 118/9/1 119/12/1 120/3/1
f 121/5/1 122/6/1 123/7/1 124/8/1
f 125/9/1 126/10/1 127/11/1 128/12/1
f 129/16/1 130/8/1 131/2/1 132/1/1
f 133/19/1 134/22/1 135/23/1 136/24/1
f 137/5/1 138/6/1 139/7/1 140/8/1
f 141/9/1 142/10/1 143/11/1 144/12/1
f 145/1/1 146/2/1 147/3/1 148/4/1
f 149/2/1 150/9/1 151/12/1 152/3/1
f 153/17/1 154/18/1 155/19/1 156/20/1
f 157/12/1 158/11/1 159/21/1 160/18/1
f 161/1/1 162/2/1 163/3/1 164/4/1
f 165/2/1 166/9/1 167/12/1 168/3/1
f 169/2/1 170/9/1 171/12/1 172/3/1
f 173/9/1 174/10/1 175/11/1 176/12/1
f 177/16/1 178/8/1 179/2/1 180/1/1
f 181/19/1 182/22/1 183/23/1 184/24/1
f 185/6/1 186/13/1 187/14/1 188/7/1
f 189/17/1 190/18/1 191/19/1 192/20/1
f 193/12/1 194/11/1 195/21/1 196/18/1
f 197/16/1 198/8/1 199/2/1 200/1/1
f 201/19/1 202/22/1 203/23/1 204/24/1
f 205/5/1 206/6/1 207/7/1 208/8/1
f 209/17/1 210/18/1 211/19/1 212/20/1
f 213/12/1 214/11/1 215/21/1 216/18/1
f 217/1/1 218/2/1 219/3/1 220/4/1
f 221/6/1 222/13/1 223/14/1 224/7/1
f 225/15/1 226/5/1 227/8/1 228/16/1
f 229/9/1 230/10/1 231/11/1 232/12/1
f 233/16/1 234/8/1 235/2/1 236/1/1
f 237/19/1 238/22/1 239/23/1 240/24/1
f 241/15/1 242/5/1 243/8/1 244/16/1
f 245/17/1 246/18/1 247/19/1 248/20/1
f 249/12/1 250/11/1 251/21/1 252/18/1
f 253/16/1 254/8/1 255/2/1 256/1/1
f 257/19/1 258/22/1 259/23/1 260/24/1
f 261/6/1 262/13/1 263/14/1 264/7/1
f 265/17/1 266/18/1 267/19/1 268/20/1
f 269/12/1 270/11/1 271/21/1 272/18/1
f 273/1/1 274/2/1 275/3/1 276/4/1
f 277/5/1 278/6/1 279/7/1 280/8/1
f 281/5/1 282/6/1 283/7/1 284/8/1
f 285/9/1 286/10/1 287/11/1 288/12/1
f 289/16/1 290/8/1 291/2/1 292/1/1
f 293/19/1 294/22/1 295/23/1 296/24/1
f 297/2/1 298/9/1 299/12/1 300/3/1
f 301/17/1 302/18/1 303/19/1 304/20/1
f 305/12/1 306/11/1 307/21/1 308/18/1
f 309/1/1 310/2/1 311/3/1 312/4/1
f 313/15/1 314/5/1 315/8/1 316/16/1
f 317/5/1 318/6/1 319/7/1 320/8/1
f 321/9/1 322/10/1 323/11/1 324/12/1
f 325/16/1 326/8/1 327/2/1 328/1/1
f 329/19/1 330/22/1 331/23/1 332/24/1
f 333/6/1 334/13/1 335/14/1 336/7/1
f 337/9/1 338/10/1 339/11/1 340/12/1
f 341/1/1 342/2/1 343/3/1 344/4/1
f 345/5/1 346/6/1 347/7/1 348/8/1
f 349/17/1 350/18/1 351/19/1 352/20/1
f 353/12/1 354/11/1 355/21/1 356/18/1
f 357/1/1 358/2/1 359/3/1 360/4/1
f 361/2/1 362/9/1 363/12/1 364/3/1
f 365/2/1 366/9/1 367/12/1 368/3/1
f 369/9/1 370/10/1 371/11/1 372/12/1
f 373/1/1 374/2/1 375/3/1 376/4/1
f 377/6/1 378/13/1 379/14/1 380/7/1
f 381/6/1 382/13/1 383/14/1 384/7/1
f 385/9/1 386/10/1 387/11/1 388/12/1
f 389/4/1 390/3/1 391/17/1 392/25/1
f 393/18/1 394/21/1 395/22/1 396/19/1
f 397/15/1 398/5/1 399/8/1 400/16/1
f 401/6/1 402/13/1 403/14/1 404/7/1
f 405/9/1 406/10/1 407/11/1 408/12/1
f 409/4/1 410/3/1 411/17/1 412/25/1
f 413/3/1 414/12/1 415/18/1 416/17/1
f 417/3/1 418/12/1 419/18/1 420/17/1
f 421/18/1 422/21/1 423/22/1 424/19/1
f 425/5/1 426/6/1 427/7/1 428/8/1
f 429/6/1 430/13/1 431/14/1 432/7/1
f 433/20/1 434/19/1 435/24/1 436/26/1
f 437/7/1 438/14/1 439/10/1 440/9/1
f 441/4/1 442/3/1 443/17/1 444/25/1
f 445/18/1 446/21/1 447/22/1 448/19/1
f 449/5/1 450/6/1 451/7/1 452/8/1
f 453/5/1 454/6/1 455/7/1 456/8/1
f 457/5/1 458/6/1 459/7/1 460/8/1
f 461/20/1 462/19/1 463/24/1 464/26/1
f 465/8/1 466/7/1 467/9/1 468/2/1
f 469/7/1 470/14/1 471/10/1 472/9/1
f 473/1/1 474/2/1 475/3/1 476/4/1
f 477/6/1 478/13/1 479/14/1 480/7/1
f 481/15/1 482/5/1 483/8/1 484/16/1
f 485/20/1 486/19/1 487/24/1 488/26/1
f 489/8/1 490/7/1 491/9/1 492/2/1
f 493/7/1 494/14/1 495/10/1 496/9/1
f 497/1/1 498/2/1 499/3/1 500/4/1
f 501/6/1 502/13/1 503/14/1 504/7/1
f 505/20/1 506/19/1 507/24/1 508/26/1
f 509/7/1 510/14/1 511/10/1 512/9/1

