# Tiled2Unity generated file. Do not modify by hand.
# Wavefront file for 'westJungle2_mesh_0003.obj'

# Vertices (Count = 372)
v -160 -128 0
v -192 -128 0
v -192 -96 0
v -160 -96 0
v -192 -128 0
v -224 -128 0
v -224 -96 0
v -192 -96 0
v -224 -128 0
v -256 -128 0
v -256 -96 0
v -224 -96 0
v -160 -160 0
v -192 -160 0
v -192 -128 0
v -160 -128 0
v -192 -160 0
v -224 -160 0
v -224 -128 0
v -192 -128 0
v -224 -160 0
v -256 -160 0
v -256 -128 0
v -224 -128 0
v -736 -160 0
v -768 -160 0
v -768 -128 0
v -736 -128 0
v -768 -160 0
v -800 -160 0
v -800 -128 0
v -768 -128 0
v -800 -160 0
v -832 -160 0
v -832 -128 0
v -800 -128 0
v -160 -192 0
v -192 -192 0
v -192 -160 0
v -160 -160 0
v -192 -192 0
v -224 -192 0
v -224 -160 0
v -192 -160 0
v -224 -192 0
v -256 -192 0
v -256 -160 0
v -224 -160 0
v -544 -224 0
v -576 -224 0
v -576 -192 0
v -544 -192 0
v -576 -224 0
v -608 -224 0
v -608 -192 0
v -576 -192 0
v -608 -224 0
v -640 -224 0
v -640 -192 0
v -608 -192 0
v -544 -256 0
v -576 -256 0
v -576 -224 0
v -544 -224 0
v -576 -256 0
v -608 -256 0
v -608 -224 0
v -576 -224 0
v -608 -256 0
v -640 -256 0
v -640 -224 0
v -608 -224 0
v -544 -288 0
v -576 -288 0
v -576 -256 0
v -544 -256 0
v -576 -288 0
v -608 -288 0
v -608 -256 0
v -576 -256 0
v -608 -288 0
v -640 -288 0
v -640 -256 0
v -608 -256 0
v -32 -320 0
v -64 -320 0
v -64 -288 0
v -32 -288 0
v -64 -320 0
v -96 -320 0
v -96 -288 0
v -64 -288 0
v -96 -320 0
v -128 -320 0
v -128 -288 0
v -96 -288 0
v -32 -352 0
v -64 -352 0
v -64 -320 0
v -32 -320 0
v -64 -352 0
v -96 -352 0
v -96 -320 0
v -64 -320 0
v -96 -352 0
v -128 -352 0
v -128 -320 0
v -96 -320 0
v -32 -384 0
v -64 -384 0
v -64 -352 0
v -32 -352 0
v -64 -384 0
v -96 -384 0
v -96 -352 0
v -64 -352 0
v -96 -384 0
v -128 -384 0
v -128 -352 0
v -96 -352 0
v -576 -384 0
v -608 -384 0
v -608 -352 0
v -576 -352 0
v -608 -384 0
v -640 -384 0
v -640 -352 0
v -608 -352 0
v -640 -384 0
v -672 -384 0
v -672 -352 0
v -640 -352 0
v -576 -416 0
v -608 -416 0
v -608 -384 0
v -576 -384 0
v -608 -416 0
v -640 -416 0
v -640 -384 0
v -608 -384 0
v -640 -416 0
v -672 -416 0
v -672 -384 0
v -640 -384 0
v -768 -416 0
v -800 -416 0
v -800 -384 0
v -768 -384 0
v -800 -416 0
v -832 -416 0
v -832 -384 0
v -800 -384 0
v -832 -416 0
v -864 -416 0
v -864 -384 0
v -832 -384 0
v -192 -448 0
v -224 -448 0
v -224 -416 0
v -192 -416 0
v -224 -448 0
v -256 -448 0
v -256 -416 0
v -224 -416 0
v -256 -448 0
v -288 -448 0
v -288 -416 0
v -256 -416 0
v -576 -448 0
v -608 -448 0
v -608 -416 0
v -576 -416 0
v -608 -448 0
v -640 -448 0
v -640 -416 0
v -608 -416 0
v -640 -448 0
v -672 -448 0
v -672 -416 0
v -640 -416 0
v -64 -640 0
v -96 -640 0
v -96 -608 0
v -64 -608 0
v -96 -640 0
v -128 -640 0
v -128 -608 0
v -96 -608 0
v -128 -640 0
v -160 -640 0
v -160 -608 0
v -128 -608 0
v -64 -672 0
v -96 -672 0
v -96 -640 0
v -64 -640 0
v -96 -672 0
v -128 -672 0
v -128 -640 0
v -96 -640 0
v -128 -672 0
v -160 -672 0
v -160 -640 0
v -128 -640 0
v -352 -672 0
v -384 -672 0
v -384 -640 0
v -352 -640 0
v -384 -672 0
v -416 -672 0
v -416 -640 0
v -384 -640 0
v -416 -672 0
v -448 -672 0
v -448 -640 0
v -416 -640 0
v -736 -672 0
v -768 -672 0
v -768 -640 0
v -736 -640 0
v -768 -672 0
v -800 -672 0
v -800 -640 0
v -768 -640 0
v -800 -672 0
v -832 -672 0
v -832 -640 0
v -800 -640 0
v -64 -704 0
v -96 -704 0
v -96 -672 0
v -64 -672 0
v -96 -704 0
v -128 -704 0
v -128 -672 0
v -96 -672 0
v -128 -704 0
v -160 -704 0
v -160 -672 0
v -128 -672 0
v -352 -704 0
v -384 -704 0
v -384 -672 0
v -352 -672 0
v -384 -704 0
v -416 -704 0
v -416 -672 0
v -384 -672 0
v -416 -704 0
v -448 -704 0
v -448 -672 0
v -416 -672 0
v -736 -704 0
v -768 -704 0
v -768 -672 0
v -736 -672 0
v -768 -704 0
v -800 -704 0
v -800 -672 0
v -768 -672 0
v -800 -704 0
v -832 -704 0
v -832 -672 0
v -800 -672 0
v -352 -736 0
v -384 -736 0
v -384 -704 0
v -352 -704 0
v -384 -736 0
v -416 -736 0
v -416 -704 0
v -384 -704 0
v -416 -736 0
v -448 -736 0
v -448 -704 0
v -416 -704 0
v -736 -736 0
v -768 -736 0
v -768 -704 0
v -736 -704 0
v -768 -736 0
v -800 -736 0
v -800 -704 0
v -768 -704 0
v -800 -736 0
v -832 -736 0
v -832 -704 0
v -800 -704 0
v -64 -832 0
v -96 -832 0
v -96 -800 0
v -64 -800 0
v -96 -832 0
v -128 -832 0
v -128 -800 0
v -96 -800 0
v -128 -832 0
v -160 -832 0
v -160 -800 0
v -128 -800 0
v -64 -864 0
v -96 -864 0
v -96 -832 0
v -64 -832 0
v -96 -864 0
v -128 -864 0
v -128 -832 0
v -96 -832 0
v -128 -864 0
v -160 -864 0
v -160 -832 0
v -128 -832 0
v -64 -896 0
v -96 -896 0
v -96 -864 0
v -64 -864 0
v -96 -896 0
v -128 -896 0
v -128 -864 0
v -96 -864 0
v -128 -896 0
v -160 -896 0
v -160 -864 0
v -128 -864 0
v -256 -928 0
v -288 -928 0
v -288 -896 0
v -256 -896 0
v -288 -928 0
v -320 -928 0
v -320 -896 0
v -288 -896 0
v -320 -928 0
v -352 -928 0
v -352 -896 0
v -320 -896 0
v -800 -928 0
v -832 -928 0
v -832 -896 0
v -800 -896 0
v -832 -928 0
v -864 -928 0
v -864 -896 0
v -832 -896 0
v -864 -928 0
v -896 -928 0
v -896 -896 0
v -864 -896 0
v -256 -960 0
v -288 -960 0
v -288 -928 0
v -256 -928 0
v -288 -960 0
v -320 -960 0
v -320 -928 0
v -288 -928 0
v -320 -960 0
v -352 -960 0
v -352 -928 0
v -320 -928 0
v -256 -992 0
v -288 -992 0
v -288 -960 0
v -256 -960 0
v -288 -992 0
v -320 -992 0
v -320 -960 0
v -288 -960 0
v -320 -992 0
v -352 -992 0
v -352 -960 0
v -320 -960 0

# Texture cooridinates (Count = 16)
vt 0 0.6666666
vt 0.1666667 0.6666666
vt 0.1666667 1
vt 0 1
vt 0.3333333 0.6666666
vt 0.3333333 1
vt 0.5 0.6666666
vt 0.5 1
vt 0 0.3333333
vt 0.1666667 0.3333333
vt 0.3333333 0.3333333
vt 0.5 0.3333333
vt 0 0
vt 0.1666667 0
vt 0.3333333 0
vt 0.5 0

# Normal
vn 0 0 -1

# Mesh description
g westJungle2_mesh_0003

# Faces
f 1/1/1 2/2/1 3/3/1 4/4/1
f 5/2/1 6/5/1 7/6/1 8/3/1
f 9/5/1 10/7/1 11/8/1 12/6/1
f 13/9/1 14/10/1 15/2/1 16/1/1
f 17/10/1 18/11/1 19/5/1 20/2/1
f 21/11/1 22/12/1 23/7/1 24/5/1
f 25/1/1 26/2/1 27/3/1 28/4/1
f 29/2/1 30/5/1 31/6/1 32/3/1
f 33/5/1 34/7/1 35/8/1 36/6/1
f 37/13/1 38/14/1 39/10/1 40/9/1
f 41/14/1 42/15/1 43/11/1 44/10/1
f 45/15/1 46/16/1 47/12/1 48/11/1
f 49/1/1 50/2/1 51/3/1 52/4/1
f 53/2/1 54/5/1 55/6/1 56/3/1
f 57/5/1 58/7/1 59/8/1 60/6/1
f 61/9/1 62/10/1 63/2/1 64/1/1
f 65/10/1 66/11/1 67/5/1 68/2/1
f 69/11/1 70/12/1 71/7/1 72/5/1
f 73/13/1 74/14/1 75/10/1 76/9/1
f 77/14/1 78/15/1 79/11/1 80/10/1
f 81/15/1 82/16/1 83/12/1 84/11/1
f 85/1/1 86/2/1 87/3/1 88/4/1
f 89/2/1 90/5/1 91/6/1 92/3/1
f 93/5/1 94/7/1 95/8/1 96/6/1
f 97/9/1 98/10/1 99/2/1 100/1/1
f 101/10/1 102/11/1 103/5/1 104/2/1
f 105/11/1 106/12/1 107/7/1 108/5/1
f 109/13/1 110/14/1 111/10/1 112/9/1
f 113/14/1 114/15/1 115/11/1 116/10/1
f 117/15/1 118/16/1 119/12/1 120/11/1
f 121/1/1 122/2/1 123/3/1 124/4/1
f 125/2/1 126/5/1 127/6/1 128/3/1
f 129/5/1 130/7/1 131/8/1 132/6/1
f 133/9/1 134/10/1 135/2/1 136/1/1
f 137/10/1 138/11/1 139/5/1 140/2/1
f 141/11/1 142/12/1 143/7/1 144/5/1
f 145/1/1 146/2/1 147/3/1 148/4/1
f 149/2/1 150/5/1 151/6/1 152/3/1
f 153/5/1 154/7/1 155/8/1 156/6/1
f 157/1/1 158/2/1 159/3/1 160/4/1
f 161/2/1 162/5/1 163/6/1 164/3/1
f 165/5/1 166/7/1 167/8/1 168/6/1
f 169/13/1 170/14/1 171/10/1 172/9/1
f 173/14/1 174/15/1 175/11/1 176/10/1
f 177/15/1 178/16/1 179/12/1 180/11/1
f 181/1/1 182/2/1 183/3/1 184/4/1
f 185/2/1 186/5/1 187/6/1 188/3/1
f 189/5/1 190/7/1 191/8/1 192/6/1
f 193/9/1 194/10/1 195/2/1 196/1/1
f 197/10/1 198/11/1 199/5/1 200/2/1
f 201/11/1 202/12/1 203/7/1 204/5/1
f 205/1/1 206/2/1 207/3/1 208/4/1
f 209/2/1 210/5/1 211/6/1 212/3/1
f 213/5/1 214/7/1 215/8/1 216/6/1
f 217/1/1 218/2/1 219/3/1 220/4/1
f 221/2/1 222/5/1 223/6/1 224/3/1
f 225/5/1 226/7/1 227/8/1 228/6/1
f 229/13/1 230/14/1 231/10/1 232/9/1
f 233/14/1 234/15/1 235/11/1 236/10/1
f 237/15/1 238/16/1 239/12/1 240/11/1
f 241/9/1 242/10/1 243/2/1 244/1/1
f 245/10/1 246/11/1 247/5/1 248/2/1
f 249/11/1 250/12/1 251/7/1 252/5/1
f 253/9/1 254/10/1 255/2/1 256/1/1
f 257/10/1 258/11/1 259/5/1 260/2/1
f 261/11/1 262/12/1 263/7/1 264/5/1
f 265/13/1 266/14/1 267/10/1 268/9/1
f 269/14/1 270/15/1 271/11/1 272/10/1
f 273/15/1 274/16/1 275/12/1 276/11/1
f 277/13/1 278/14/1 279/10/1 280/9/1
f 281/14/1 282/15/1 283/11/1 284/10/1
f 285/15/1 286/16/1 287/12/1 288/11/1
f 289/1/1 290/2/1 291/3/1 292/4/1
f 293/2/1 294/5/1 295/6/1 296/3/1
f 297/5/1 298/7/1 299/8/1 300/6/1
f 301/9/1 302/10/1 303/2/1 304/1/1
f 305/10/1 306/11/1 307/5/1 308/2/1
f 309/11/1 310/12/1 311/7/1 312/5/1
f 313/13/1 314/14/1 315/10/1 316/9/1
f 317/14/1 318/15/1 319/11/1 320/10/1
f 321/15/1 322/16/1 323/12/1 324/11/1
f 325/1/1 326/2/1 327/3/1 328/4/1
f 329/2/1 330/5/1 331/6/1 332/3/1
f 333/5/1 334/7/1 335/8/1 336/6/1
f 337/1/1 338/2/1 339/3/1 340/4/1
f 341/2/1 342/5/1 343/6/1 344/3/1
f 345/5/1 346/7/1 347/8/1 348/6/1
f 349/9/1 350/10/1 351/2/1 352/1/1
f 353/10/1 354/11/1 355/5/1 356/2/1
f 357/11/1 358/12/1 359/7/1 360/5/1
f 361/13/1 362/14/1 363/10/1 364/9/1
f 365/14/1 366/15/1 367/11/1 368/10/1
f 369/15/1 370/16/1 371/12/1 372/11/1

