# Tiled2Unity generated file. Do not modify by hand.
# Wavefront file for 'roommap_mesh_0005.obj'

# Vertices (Count = 72)
v -192 -64 0
v -224 -64 0
v -224 -32 0
v -192 -32 0
v -32 -96 0
v -64 -96 0
v -64 -64 0
v -32 -64 0
v -64 -96 0
v -96 -96 0
v -96 -64 0
v -64 -64 0
v -96 -96 0
v -128 -96 0
v -128 -64 0
v -96 -64 0
v -128 -96 0
v -160 -96 0
v -160 -64 0
v -128 -64 0
v -288 -96 0
v -320 -96 0
v -320 -64 0
v -288 -64 0
v -320 -96 0
v -352 -96 0
v -352 -64 0
v -320 -64 0
v -32 -128 0
v -64 -128 0
v -64 -96 0
v -32 -96 0
v -64 -128 0
v -96 -128 0
v -96 -96 0
v -64 -96 0
v -96 -128 0
v -128 -128 0
v -128 -96 0
v -96 -96 0
v -128 -128 0
v -160 -128 0
v -160 -96 0
v -128 -96 0
v -288 -128 0
v -320 -128 0
v -320 -96 0
v -288 -96 0
v -320 -128 0
v -352 -128 0
v -352 -96 0
v -320 -96 0
v -32 -288 0
v -64 -288 0
v -64 -256 0
v -32 -256 0
v -32 -320 0
v -64 -320 0
v -64 -288 0
v -32 -288 0
v -32 -352 0
v -64 -352 0
v -64 -320 0
v -32 -320 0
v -128 -384 0
v -160 -384 0
v -160 -352 0
v -128 -352 0
v -224 -384 0
v -256 -384 0
v -256 -352 0
v -224 -352 0

# Texture cooridinates (Count = 25)
vt 0.1875 0.3125
vt 0.25 0.3125
vt 0.25 0.375
vt 0.1875 0.375
vt 0.0625 0.5625
vt 0.125 0.5625
vt 0.125 0.625
vt 0.0625 0.625
vt 0 0.5625
vt 0 0.625
vt 0.0625 0.5
vt 0.125 0.5
vt 0 0.5
vt 0.3125 0.5625
vt 0.3125 0.625
vt 0.25 0.625
vt 0.25 0.5625
vt 0.25 0.9375
vt 0.3125 0.9375
vt 0.3125 1
vt 0.25 1
vt 0.125 0.9375
vt 0.1875 0.9375
vt 0.1875 1
vt 0.125 1

# Normal
vn 0 0 -1

# Mesh description
g roommap_mesh_0005

# Faces
f 1/1/1 2/2/1 3/3/1 4/4/1
f 5/5/1 6/6/1 7/7/1 8/8/1
f 9/5/1 10/6/1 11/7/1 12/8/1
f 13/5/1 14/6/1 15/7/1 16/8/1
f 17/5/1 18/6/1 19/7/1 20/8/1
f 21/9/1 22/5/1 23/8/1 24/10/1
f 25/9/1 26/5/1 27/8/1 28/10/1
f 29/11/1 30/12/1 31/6/1 32/5/1
f 33/11/1 34/12/1 35/6/1 36/5/1
f 37/11/1 38/12/1 39/6/1 40/5/1
f 41/11/1 42/12/1 43/6/1 44/5/1
f 45/13/1 46/11/1 47/5/1 48/9/1
f 49/13/1 50/11/1 51/5/1 52/9/1
f 53/14/1 54/15/1 55/16/1 56/17/1
f 57/14/1 58/15/1 59/16/1 60/17/1
f 61/14/1 62/15/1 63/16/1 64/17/1
f 65/18/1 66/19/1 67/20/1 68/21/1
f 69/22/1 70/23/1 71/24/1 72/25/1

