# Tiled2Unity generated file. Do not modify by hand.
# Wavefront file for 'roommap_mesh_0007.obj'

# Vertices (Count = 40)
v -32 -192 0
v -64 -192 0
v -64 -160 0
v -32 -160 0
v -64 -192 0
v -96 -192 0
v -96 -160 0
v -64 -160 0
v -288 -192 0
v -320 -192 0
v -320 -160 0
v -288 -160 0
v -320 -192 0
v -352 -192 0
v -352 -160 0
v -320 -160 0
v -32 -224 0
v -64 -224 0
v -64 -192 0
v -32 -192 0
v -64 -224 0
v -96 -224 0
v -96 -192 0
v -64 -192 0
v -288 -224 0
v -320 -224 0
v -320 -192 0
v -288 -192 0
v -320 -224 0
v -352 -224 0
v -352 -192 0
v -320 -192 0
v -288 -256 0
v -320 -256 0
v -320 -224 0
v -288 -224 0
v -320 -256 0
v -352 -256 0
v -352 -224 0
v -320 -224 0

# Texture cooridinates (Count = 24)
vt 0.3636364 0.8
vt 0.4545455 0.8
vt 0.4545455 1
vt 0.3636364 1
vt 0.5454546 0.8
vt 0.5454546 1
vt 0 0.8
vt 0.09090909 0.8
vt 0.09090909 1
vt 0 1
vt 0.1818182 0.8
vt 0.1818182 1
vt 0.3636364 0.4
vt 0.4545455 0.4
vt 0.4545455 0.6
vt 0.3636364 0.6
vt 0.5454546 0.4
vt 0.5454546 0.6
vt 0 0.6
vt 0.09090909 0.6
vt 0.1818182 0.6
vt 0 0.4
vt 0.09090909 0.4
vt 0.1818182 0.4

# Normal
vn 0 0 -1

# Mesh description
g roommap_mesh_0007

# Faces
f 1/1/1 2/2/1 3/3/1 4/4/1
f 5/2/1 6/5/1 7/6/1 8/3/1
f 9/7/1 10/8/1 11/9/1 12/10/1
f 13/8/1 14/11/1 15/12/1 16/9/1
f 17/13/1 18/14/1 19/15/1 20/16/1
f 21/14/1 22/17/1 23/18/1 24/15/1
f 25/19/1 26/20/1 27/8/1 28/7/1
f 29/20/1 30/21/1 31/11/1 32/8/1
f 33/22/1 34/23/1 35/20/1 36/19/1
f 37/23/1 38/24/1 39/21/1 40/20/1

