# Tiled2Unity generated file. Do not modify by hand.
# Wavefront file for 'roommap_mesh_0006.obj'

# Vertices (Count = 24)
v -224 -96 0
v -256 -96 0
v -256 -64 0
v -224 -64 0
v -256 -96 0
v -288 -96 0
v -288 -64 0
v -256 -64 0
v -160 -128 0
v -192 -128 0
v -192 -96 0
v -160 -96 0
v -192 -128 0
v -224 -128 0
v -224 -96 0
v -192 -96 0
v -224 -128 0
v -256 -128 0
v -256 -96 0
v -224 -96 0
v -256 -128 0
v -288 -128 0
v -288 -96 0
v -256 -96 0

# Texture cooridinates (Count = 15)
vt 0 0.3333333
vt 0.1428571 0.3333333
vt 0.1428571 0.6666666
vt 0 0.6666666
vt 0.2857143 0.3333333
vt 0.2857143 0.6666666
vt 0.4285714 0.6666666
vt 0.5714286 0.6666666
vt 0.5714286 1
vt 0.4285714 1
vt 0.7142857 0.6666666
vt 0.7142857 1
vt 0 0
vt 0.1428571 0
vt 0.2857143 0

# Normal
vn 0 0 -1

# Mesh description
g roommap_mesh_0006

# Faces
f 1/1/1 2/2/1 3/3/1 4/4/1
f 5/2/1 6/5/1 7/6/1 8/3/1
f 9/7/1 10/8/1 11/9/1 12/10/1
f 13/8/1 14/11/1 15/12/1 16/9/1
f 17/13/1 18/14/1 19/2/1 20/1/1
f 21/14/1 22/15/1 23/5/1 24/2/1

