# Tiled2Unity generated file. Do not modify by hand.
# Wavefront file for 'NorthInnerCave_mesh_0003.obj'

# Vertices (Count = 872)
v -416 -160 0
v -448 -160 0
v -448 -128 0
v -416 -128 0
v -448 -160 0
v -480 -160 0
v -480 -128 0
v -448 -128 0
v -480 -160 0
v -512 -160 0
v -512 -128 0
v -480 -128 0
v -512 -160 0
v -544 -160 0
v -544 -128 0
v -512 -128 0
v -832 -160 0
v -864 -160 0
v -864 -128 0
v -832 -128 0
v -864 -160 0
v -896 -160 0
v -896 -128 0
v -864 -128 0
v -896 -160 0
v -928 -160 0
v -928 -128 0
v -896 -128 0
v -928 -160 0
v -960 -160 0
v -960 -128 0
v -928 -128 0
v -960 -160 0
v -992 -160 0
v -992 -128 0
v -960 -128 0
v -256 -192 0
v -288 -192 0
v -288 -160 0
v -256 -160 0
v -288 -192 0
v -320 -192 0
v -320 -160 0
v -288 -160 0
v -320 -192 0
v -352 -192 0
v -352 -160 0
v -320 -160 0
v -352 -192 0
v -384 -192 0
v -384 -160 0
v -352 -160 0
v -384 -192 0
v -416 -192 0
v -416 -160 0
v -384 -160 0
v -416 -192 0
v -448 -192 0
v -448 -160 0
v -416 -160 0
v -448 -192 0
v -480 -192 0
v -480 -160 0
v -448 -160 0
v -480 -192 0
v -512 -192 0
v -512 -160 0
v -480 -160 0
v -512 -192 0
v -544 -192 0
v -544 -160 0
v -512 -160 0
v -832 -192 0
v -864 -192 0
v -864 -160 0
v -832 -160 0
v -864 -192 0
v -896 -192 0
v -896 -160 0
v -864 -160 0
v -896 -192 0
v -928 -192 0
v -928 -160 0
v -896 -160 0
v -928 -192 0
v -960 -192 0
v -960 -160 0
v -928 -160 0
v -960 -192 0
v -992 -192 0
v -992 -160 0
v -960 -160 0
v -32 -224 0
v -64 -224 0
v -64 -192 0
v -32 -192 0
v -64 -224 0
v -96 -224 0
v -96 -192 0
v -64 -192 0
v -96 -224 0
v -128 -224 0
v -128 -192 0
v -96 -192 0
v -128 -224 0
v -160 -224 0
v -160 -192 0
v -128 -192 0
v -256 -224 0
v -288 -224 0
v -288 -192 0
v -256 -192 0
v -288 -224 0
v -320 -224 0
v -320 -192 0
v -288 -192 0
v -320 -224 0
v -352 -224 0
v -352 -192 0
v -320 -192 0
v -352 -224 0
v -384 -224 0
v -384 -192 0
v -352 -192 0
v -384 -224 0
v -416 -224 0
v -416 -192 0
v -384 -192 0
v -416 -224 0
v -448 -224 0
v -448 -192 0
v -416 -192 0
v -448 -224 0
v -480 -224 0
v -480 -192 0
v -448 -192 0
v -480 -224 0
v -512 -224 0
v -512 -192 0
v -480 -192 0
v -512 -224 0
v -544 -224 0
v -544 -192 0
v -512 -192 0
v -832 -224 0
v -864 -224 0
v -864 -192 0
v -832 -192 0
v -864 -224 0
v -896 -224 0
v -896 -192 0
v -864 -192 0
v -896 -224 0
v -928 -224 0
v -928 -192 0
v -896 -192 0
v -928 -224 0
v -960 -224 0
v -960 -192 0
v -928 -192 0
v -960 -224 0
v -992 -224 0
v -992 -192 0
v -960 -192 0
v -32 -256 0
v -64 -256 0
v -64 -224 0
v -32 -224 0
v -64 -256 0
v -96 -256 0
v -96 -224 0
v -64 -224 0
v -96 -256 0
v -128 -256 0
v -128 -224 0
v -96 -224 0
v -128 -256 0
v -160 -256 0
v -160 -224 0
v -128 -224 0
v -256 -256 0
v -288 -256 0
v -288 -224 0
v -256 -224 0
v -288 -256 0
v -320 -256 0
v -320 -224 0
v -288 -224 0
v -320 -256 0
v -352 -256 0
v -352 -224 0
v -320 -224 0
v -352 -256 0
v -384 -256 0
v -384 -224 0
v -352 -224 0
v -384 -256 0
v -416 -256 0
v -416 -224 0
v -384 -224 0
v -416 -256 0
v -448 -256 0
v -448 -224 0
v -416 -224 0
v -448 -256 0
v -480 -256 0
v -480 -224 0
v -448 -224 0
v -480 -256 0
v -512 -256 0
v -512 -224 0
v -480 -224 0
v -512 -256 0
v -544 -256 0
v -544 -224 0
v -512 -224 0
v -32 -288 0
v -64 -288 0
v -64 -256 0
v -32 -256 0
v -64 -288 0
v -96 -288 0
v -96 -256 0
v -64 -256 0
v -96 -288 0
v -128 -288 0
v -128 -256 0
v -96 -256 0
v -128 -288 0
v -160 -288 0
v -160 -256 0
v -128 -256 0
v -384 -288 0
v -416 -288 0
v -416 -256 0
v -384 -256 0
v -416 -288 0
v -448 -288 0
v -448 -256 0
v -416 -256 0
v -448 -288 0
v -480 -288 0
v -480 -256 0
v -448 -256 0
v -480 -288 0
v -512 -288 0
v -512 -256 0
v -480 -256 0
v -32 -320 0
v -64 -320 0
v -64 -288 0
v -32 -288 0
v -64 -320 0
v -96 -320 0
v -96 -288 0
v -64 -288 0
v -96 -320 0
v -128 -320 0
v -128 -288 0
v -96 -288 0
v -32 -352 0
v -64 -352 0
v -64 -320 0
v -32 -320 0
v -64 -352 0
v -96 -352 0
v -96 -320 0
v -64 -320 0
v -96 -352 0
v -128 -352 0
v -128 -320 0
v -96 -320 0
v -32 -384 0
v -64 -384 0
v -64 -352 0
v -32 -352 0
v -64 -384 0
v -96 -384 0
v -96 -352 0
v -64 -352 0
v -96 -384 0
v -128 -384 0
v -128 -352 0
v -96 -352 0
v -32 -416 0
v -64 -416 0
v -64 -384 0
v -32 -384 0
v -64 -416 0
v -96 -416 0
v -96 -384 0
v -64 -384 0
v -896 -416 0
v -928 -416 0
v -928 -384 0
v -896 -384 0
v -928 -416 0
v -960 -416 0
v -960 -384 0
v -928 -384 0
v -960 -416 0
v -992 -416 0
v -992 -384 0
v -960 -384 0
v -32 -448 0
v -64 -448 0
v -64 -416 0
v -32 -416 0
v -64 -448 0
v -96 -448 0
v -96 -416 0
v -64 -416 0
v -256 -448 0
v -288 -448 0
v -288 -416 0
v -256 -416 0
v -288 -448 0
v -320 -448 0
v -320 -416 0
v -288 -416 0
v -320 -448 0
v -352 -448 0
v -352 -416 0
v -320 -416 0
v -896 -448 0
v -928 -448 0
v -928 -416 0
v -896 -416 0
v -928 -448 0
v -960 -448 0
v -960 -416 0
v -928 -416 0
v -960 -448 0
v -992 -448 0
v -992 -416 0
v -960 -416 0
v -192 -480 0
v -224 -480 0
v -224 -448 0
v -192 -448 0
v -224 -480 0
v -256 -480 0
v -256 -448 0
v -224 -448 0
v -256 -480 0
v -288 -480 0
v -288 -448 0
v -256 -448 0
v -288 -480 0
v -320 -480 0
v -320 -448 0
v -288 -448 0
v -320 -480 0
v -352 -480 0
v -352 -448 0
v -320 -448 0
v -352 -480 0
v -384 -480 0
v -384 -448 0
v -352 -448 0
v -896 -480 0
v -928 -480 0
v -928 -448 0
v -896 -448 0
v -928 -480 0
v -960 -480 0
v -960 -448 0
v -928 -448 0
v -960 -480 0
v -992 -480 0
v -992 -448 0
v -960 -448 0
v -192 -512 0
v -224 -512 0
v -224 -480 0
v -192 -480 0
v -224 -512 0
v -256 -512 0
v -256 -480 0
v -224 -480 0
v -256 -512 0
v -288 -512 0
v -288 -480 0
v -256 -480 0
v -288 -512 0
v -320 -512 0
v -320 -480 0
v -288 -480 0
v -320 -512 0
v -352 -512 0
v -352 -480 0
v -320 -480 0
v -352 -512 0
v -384 -512 0
v -384 -480 0
v -352 -480 0
v -896 -512 0
v -928 -512 0
v -928 -480 0
v -896 -480 0
v -928 -512 0
v -960 -512 0
v -960 -480 0
v -928 -480 0
v -960 -512 0
v -992 -512 0
v -992 -480 0
v -960 -480 0
v -192 -544 0
v -224 -544 0
v -224 -512 0
v -192 -512 0
v -224 -544 0
v -256 -544 0
v -256 -512 0
v -224 -512 0
v -256 -544 0
v -288 -544 0
v -288 -512 0
v -256 -512 0
v -288 -544 0
v -320 -544 0
v -320 -512 0
v -288 -512 0
v -320 -544 0
v -352 -544 0
v -352 -512 0
v -320 -512 0
v -896 -544 0
v -928 -544 0
v -928 -512 0
v -896 -512 0
v -928 -544 0
v -960 -544 0
v -960 -512 0
v -928 -512 0
v -960 -544 0
v -992 -544 0
v -992 -512 0
v -960 -512 0
v -672 -576 0
v -704 -576 0
v -704 -544 0
v -672 -544 0
v -704 -576 0
v -736 -576 0
v -736 -544 0
v -704 -544 0
v -736 -576 0
v -768 -576 0
v -768 -544 0
v -736 -544 0
v -896 -576 0
v -928 -576 0
v -928 -544 0
v -896 -544 0
v -928 -576 0
v -960 -576 0
v -960 -544 0
v -928 -544 0
v -960 -576 0
v -992 -576 0
v -992 -544 0
v -960 -544 0
v -608 -608 0
v -640 -608 0
v -640 -576 0
v -608 -576 0
v -640 -608 0
v -672 -608 0
v -672 -576 0
v -640 -576 0
v -672 -608 0
v -704 -608 0
v -704 -576 0
v -672 -576 0
v -704 -608 0
v -736 -608 0
v -736 -576 0
v -704 -576 0
v -736 -608 0
v -768 -608 0
v -768 -576 0
v -736 -576 0
v -768 -608 0
v -800 -608 0
v -800 -576 0
v -768 -576 0
v -800 -608 0
v -832 -608 0
v -832 -576 0
v -800 -576 0
v -896 -608 0
v -928 -608 0
v -928 -576 0
v -896 -576 0
v -928 -608 0
v -960 -608 0
v -960 -576 0
v -928 -576 0
v -960 -608 0
v -992 -608 0
v -992 -576 0
v -960 -576 0
v -608 -640 0
v -640 -640 0
v -640 -608 0
v -608 -608 0
v -640 -640 0
v -672 -640 0
v -672 -608 0
v -640 -608 0
v -672 -640 0
v -704 -640 0
v -704 -608 0
v -672 -608 0
v -704 -640 0
v -736 -640 0
v -736 -608 0
v -704 -608 0
v -736 -640 0
v -768 -640 0
v -768 -608 0
v -736 -608 0
v -768 -640 0
v -800 -640 0
v -800 -608 0
v -768 -608 0
v -800 -640 0
v -832 -640 0
v -832 -608 0
v -800 -608 0
v -512 -672 0
v -544 -672 0
v -544 -640 0
v -512 -640 0
v -544 -672 0
v -576 -672 0
v -576 -640 0
v -544 -640 0
v -576 -672 0
v -608 -672 0
v -608 -640 0
v -576 -640 0
v -608 -672 0
v -640 -672 0
v -640 -640 0
v -608 -640 0
v -640 -672 0
v -672 -672 0
v -672 -640 0
v -640 -640 0
v -672 -672 0
v -704 -672 0
v -704 -640 0
v -672 -640 0
v -704 -672 0
v -736 -672 0
v -736 -640 0
v -704 -640 0
v -736 -672 0
v -768 -672 0
v -768 -640 0
v -736 -640 0
v -768 -672 0
v -800 -672 0
v -800 -640 0
v -768 -640 0
v -800 -672 0
v -832 -672 0
v -832 -640 0
v -800 -640 0
v -480 -704 0
v -512 -704 0
v -512 -672 0
v -480 -672 0
v -512 -704 0
v -544 -704 0
v -544 -672 0
v -512 -672 0
v -544 -704 0
v -576 -704 0
v -576 -672 0
v -544 -672 0
v -576 -704 0
v -608 -704 0
v -608 -672 0
v -576 -672 0
v -608 -704 0
v -640 -704 0
v -640 -672 0
v -608 -672 0
v -640 -704 0
v -672 -704 0
v -672 -672 0
v -640 -672 0
v -672 -704 0
v -704 -704 0
v -704 -672 0
v -672 -672 0
v -704 -704 0
v -736 -704 0
v -736 -672 0
v -704 -672 0
v -736 -704 0
v -768 -704 0
v -768 -672 0
v -736 -672 0
v -768 -704 0
v -800 -704 0
v -800 -672 0
v -768 -672 0
v -480 -736 0
v -512 -736 0
v -512 -704 0
v -480 -704 0
v -512 -736 0
v -544 -736 0
v -544 -704 0
v -512 -704 0
v -544 -736 0
v -576 -736 0
v -576 -704 0
v -544 -704 0
v -576 -736 0
v -608 -736 0
v -608 -704 0
v -576 -704 0
v -640 -736 0
v -672 -736 0
v -672 -704 0
v -640 -704 0
v -672 -736 0
v -704 -736 0
v -704 -704 0
v -672 -704 0
v -704 -736 0
v -736 -736 0
v -736 -704 0
v -704 -704 0
v -736 -736 0
v -768 -736 0
v -768 -704 0
v -736 -704 0
v -480 -768 0
v -512 -768 0
v -512 -736 0
v -480 -736 0
v -512 -768 0
v -544 -768 0
v -544 -736 0
v -512 -736 0
v -544 -768 0
v -576 -768 0
v -576 -736 0
v -544 -736 0
v -576 -768 0
v -608 -768 0
v -608 -736 0
v -576 -736 0
v -640 -768 0
v -672 -768 0
v -672 -736 0
v -640 -736 0
v -672 -768 0
v -704 -768 0
v -704 -736 0
v -672 -736 0
v -704 -768 0
v -736 -768 0
v -736 -736 0
v -704 -736 0
v -736 -768 0
v -768 -768 0
v -768 -736 0
v -736 -736 0
v -448 -800 0
v -480 -800 0
v -480 -768 0
v -448 -768 0
v -480 -800 0
v -512 -800 0
v -512 -768 0
v -480 -768 0
v -512 -800 0
v -544 -800 0
v -544 -768 0
v -512 -768 0
v -544 -800 0
v -576 -800 0
v -576 -768 0
v -544 -768 0
v -576 -800 0
v -608 -800 0
v -608 -768 0
v -576 -768 0
v -448 -832 0
v -480 -832 0
v -480 -800 0
v -448 -800 0
v -480 -832 0
v -512 -832 0
v -512 -800 0
v -480 -800 0
v -512 -832 0
v -544 -832 0
v -544 -800 0
v -512 -800 0
v -544 -832 0
v -576 -832 0
v -576 -800 0
v -544 -800 0
v -448 -864 0
v -480 -864 0
v -480 -832 0
v -448 -832 0
v -480 -864 0
v -512 -864 0
v -512 -832 0
v -480 -832 0
v -512 -864 0
v -544 -864 0
v -544 -832 0
v -512 -832 0
v -544 -864 0
v -576 -864 0
v -576 -832 0
v -544 -832 0
v -128 -896 0
v -160 -896 0
v -160 -864 0
v -128 -864 0
v -160 -896 0
v -192 -896 0
v -192 -864 0
v -160 -864 0
v -192 -896 0
v -224 -896 0
v -224 -864 0
v -192 -864 0
v -896 -896 0
v -928 -896 0
v -928 -864 0
v -896 -864 0
v -928 -896 0
v -960 -896 0
v -960 -864 0
v -928 -864 0
v -960 -896 0
v -992 -896 0
v -992 -864 0
v -960 -864 0
v -64 -928 0
v -96 -928 0
v -96 -896 0
v -64 -896 0
v -96 -928 0
v -128 -928 0
v -128 -896 0
v -96 -896 0
v -128 -928 0
v -160 -928 0
v -160 -896 0
v -128 -896 0
v -160 -928 0
v -192 -928 0
v -192 -896 0
v -160 -896 0
v -192 -928 0
v -224 -928 0
v -224 -896 0
v -192 -896 0
v -224 -928 0
v -256 -928 0
v -256 -896 0
v -224 -896 0
v -256 -928 0
v -288 -928 0
v -288 -896 0
v -256 -896 0
v -704 -928 0
v -736 -928 0
v -736 -896 0
v -704 -896 0
v -736 -928 0
v -768 -928 0
v -768 -896 0
v -736 -896 0
v -768 -928 0
v -800 -928 0
v -800 -896 0
v -768 -896 0
v -800 -928 0
v -832 -928 0
v -832 -896 0
v -800 -896 0
v -832 -928 0
v -864 -928 0
v -864 -896 0
v -832 -896 0
v -896 -928 0
v -928 -928 0
v -928 -896 0
v -896 -896 0
v -928 -928 0
v -960 -928 0
v -960 -896 0
v -928 -896 0
v -960 -928 0
v -992 -928 0
v -992 -896 0
v -960 -896 0
v -64 -960 0
v -96 -960 0
v -96 -928 0
v -64 -928 0
v -96 -960 0
v -128 -960 0
v -128 -928 0
v -96 -928 0
v -128 -960 0
v -160 -960 0
v -160 -928 0
v -128 -928 0
v -160 -960 0
v -192 -960 0
v -192 -928 0
v -160 -928 0
v -192 -960 0
v -224 -960 0
v -224 -928 0
v -192 -928 0
v -224 -960 0
v -256 -960 0
v -256 -928 0
v -224 -928 0
v -256 -960 0
v -288 -960 0
v -288 -928 0
v -256 -928 0
v -704 -960 0
v -736 -960 0
v -736 -928 0
v -704 -928 0
v -736 -960 0
v -768 -960 0
v -768 -928 0
v -736 -928 0
v -768 -960 0
v -800 -960 0
v -800 -928 0
v -768 -928 0
v -800 -960 0
v -832 -960 0
v -832 -928 0
v -800 -928 0
v -832 -960 0
v -864 -960 0
v -864 -928 0
v -832 -928 0
v -896 -960 0
v -928 -960 0
v -928 -928 0
v -896 -928 0
v -928 -960 0
v -960 -960 0
v -960 -928 0
v -928 -928 0
v -960 -960 0
v -992 -960 0
v -992 -928 0
v -960 -928 0

# Texture cooridinates (Count = 26)
vt 0 0.90625
vt 0.03125 0.90625
vt 0.03125 0.9375
vt 0 0.9375
vt 0.0625 0.90625
vt 0.0625 0.9375
vt 0.09375 0.90625
vt 0.09375 0.9375
vt 0.09375 0.96875
vt 0.0625 0.96875
vt 0 0.8125
vt 0.03125 0.8125
vt 0.03125 0.84375
vt 0 0.84375
vt 0.0625 0.8125
vt 0.09375 0.8125
vt 0.09375 0.84375
vt 0.0625 0.84375
vt 0.0625 0.875
vt 0.09375 0.875
vt 0 0.875
vt 0.03125 0.875
vt 0.09375 1
vt 0.0625 1
vt 0.03125 0.96875
vt 0.03125 1

# Normal
vn 0 0 -1

# Mesh description
g NorthInnerCave_mesh_0003

# Faces
f 1/1/1 2/2/1 3/3/1 4/4/1
f 5/2/1 6/5/1 7/6/1 8/3/1
f 9/2/1 10/5/1 11/6/1 12/3/1
f 13/5/1 14/7/1 15/8/1 16/6/1
f 17/1/1 18/2/1 19/3/1 20/4/1
f 21/2/1 22/5/1 23/6/1 24/3/1
f 25/2/1 26/5/1 27/6/1 28/3/1
f 29/2/1 30/5/1 31/6/1 32/3/1
f 33/5/1 34/7/1 35/8/1 36/6/1
f 37/1/1 38/2/1 39/3/1 40/4/1
f 41/2/1 42/5/1 43/6/1 44/3/1
f 45/2/1 46/5/1 47/6/1 48/3/1
f 49/2/1 50/5/1 51/6/1 52/3/1
f 53/2/1 54/5/1 55/6/1 56/3/1
f 57/6/1 58/8/1 59/9/1 60/10/1
f 61/11/1 62/12/1 63/13/1 64/14/1
f 65/15/1 66/16/1 67/17/1 68/18/1
f 69/19/1 70/20/1 71/7/1 72/5/1
f 73/21/1 74/22/1 75/2/1 76/1/1
f 77/11/1 78/12/1 79/13/1 80/14/1
f 81/15/1 82/16/1 83/17/1 84/18/1
f 85/11/1 86/12/1 87/13/1 88/14/1
f 89/19/1 90/20/1 91/7/1 92/5/1
f 93/2/1 94/5/1 95/6/1 96/3/1
f 97/2/1 98/5/1 99/6/1 100/3/1
f 101/2/1 102/5/1 103/6/1 104/3/1
f 105/5/1 106/7/1 107/8/1 108/6/1
f 109/21/1 110/22/1 111/2/1 112/1/1
f 113/11/1 114/12/1 115/13/1 116/14/1
f 117/22/1 118/19/1 119/5/1 120/2/1
f 121/15/1 122/16/1 123/17/1 124/18/1
f 125/12/1 126/15/1 127/18/1 128/13/1
f 129/15/1 130/16/1 131/17/1 132/18/1
f 133/11/1 134/12/1 135/13/1 136/14/1
f 137/12/1 138/15/1 139/18/1 140/13/1
f 141/19/1 142/20/1 143/7/1 144/5/1
f 145/14/1 146/13/1 147/22/1 148/21/1
f 149/13/1 150/18/1 151/19/1 152/22/1
f 153/13/1 154/18/1 155/19/1 156/22/1
f 157/13/1 158/18/1 159/19/1 160/22/1
f 161/18/1 162/17/1 163/20/1 164/19/1
f 165/22/1 166/19/1 167/5/1 168/2/1
f 169/15/1 170/16/1 171/17/1 172/18/1
f 173/11/1 174/12/1 175/13/1 176/14/1
f 177/19/1 178/20/1 179/7/1 180/5/1
f 181/14/1 182/13/1 183/22/1 184/21/1
f 185/13/1 186/18/1 187/19/1 188/22/1
f 189/13/1 190/18/1 191/19/1 192/22/1
f 193/13/1 194/18/1 195/19/1 196/22/1
f 197/10/1 198/9/1 199/23/1 200/24/1
f 201/15/1 202/16/1 203/17/1 204/18/1
f 205/12/1 206/15/1 207/18/1 208/13/1
f 209/25/1 210/10/1 211/24/1 212/26/1
f 213/18/1 214/17/1 215/20/1 216/19/1
f 217/10/1 218/9/1 219/23/1 220/24/1
f 221/15/1 222/16/1 223/17/1 224/18/1
f 225/25/1 226/10/1 227/24/1 228/26/1
f 229/18/1 230/17/1 231/20/1 232/19/1
f 233/14/1 234/13/1 235/22/1 236/21/1
f 237/13/1 238/18/1 239/19/1 240/22/1
f 241/13/1 242/18/1 243/19/1 244/22/1
f 245/18/1 246/17/1 247/20/1 248/19/1
f 249/6/1 250/8/1 251/9/1 252/10/1
f 253/15/1 254/16/1 255/17/1 256/18/1
f 257/19/1 258/20/1 259/7/1 260/5/1
f 261/11/1 262/12/1 263/13/1 264/14/1
f 265/15/1 266/16/1 267/17/1 268/18/1
f 269/19/1 270/20/1 271/7/1 272/5/1
f 273/15/1 274/16/1 275/17/1 276/18/1
f 277/25/1 278/10/1 279/24/1 280/26/1
f 281/18/1 282/17/1 283/20/1 284/19/1
f 285/11/1 286/12/1 287/13/1 288/14/1
f 289/19/1 290/20/1 291/7/1 292/5/1
f 293/1/1 294/2/1 295/3/1 296/4/1
f 297/2/1 298/5/1 299/6/1 300/3/1
f 301/5/1 302/7/1 303/8/1 304/6/1
f 305/13/1 306/18/1 307/19/1 308/22/1
f 309/18/1 310/17/1 311/20/1 312/19/1
f 313/1/1 314/2/1 315/3/1 316/4/1
f 317/2/1 318/5/1 319/6/1 320/3/1
f 321/5/1 322/7/1 323/8/1 324/6/1
f 325/21/1 326/22/1 327/2/1 328/1/1
f 329/15/1 330/16/1 331/17/1 332/18/1
f 333/19/1 334/20/1 335/7/1 336/5/1
f 337/1/1 338/2/1 339/3/1 340/4/1
f 341/2/1 342/5/1 343/6/1 344/3/1
f 345/6/1 346/8/1 347/9/1 348/10/1
f 349/11/1 350/12/1 351/13/1 352/14/1
f 353/3/1 354/6/1 355/10/1 356/25/1
f 357/5/1 358/7/1 359/8/1 360/6/1
f 361/21/1 362/22/1 363/2/1 364/1/1
f 365/12/1 366/15/1 367/18/1 368/13/1
f 369/19/1 370/20/1 371/7/1 372/5/1
f 373/21/1 374/22/1 375/2/1 376/1/1
f 377/11/1 378/12/1 379/13/1 380/14/1
f 381/22/1 382/19/1 383/5/1 384/2/1
f 385/11/1 386/12/1 387/13/1 388/14/1
f 389/25/1 390/10/1 391/24/1 392/26/1
f 393/18/1 394/17/1 395/20/1 396/19/1
f 397/21/1 398/22/1 399/2/1 400/1/1
f 401/12/1 402/15/1 403/18/1 404/13/1
f 405/19/1 406/20/1 407/7/1 408/5/1
f 409/14/1 410/13/1 411/22/1 412/21/1
f 413/13/1 414/18/1 415/19/1 416/22/1
f 417/13/1 418/18/1 419/19/1 420/22/1
f 421/13/1 422/18/1 423/19/1 424/22/1
f 425/18/1 426/17/1 427/20/1 428/19/1
f 429/21/1 430/22/1 431/2/1 432/1/1
f 433/22/1 434/19/1 435/5/1 436/2/1
f 437/3/1 438/6/1 439/10/1 440/25/1
f 441/1/1 442/2/1 443/3/1 444/4/1
f 445/2/1 446/5/1 447/6/1 448/3/1
f 449/5/1 450/7/1 451/8/1 452/6/1
f 453/21/1 454/22/1 455/2/1 456/1/1
f 457/11/1 458/12/1 459/13/1 460/14/1
f 461/11/1 462/12/1 463/13/1 464/14/1
f 465/1/1 466/2/1 467/3/1 468/4/1
f 469/2/1 470/5/1 471/6/1 472/3/1
f 473/6/1 474/8/1 475/9/1 476/10/1
f 477/15/1 478/16/1 479/17/1 480/18/1
f 481/3/1 482/6/1 483/10/1 484/25/1
f 485/2/1 486/5/1 487/6/1 488/3/1
f 489/5/1 490/7/1 491/8/1 492/6/1
f 493/14/1 494/13/1 495/22/1 496/21/1
f 497/13/1 498/18/1 499/19/1 500/22/1
f 501/13/1 502/18/1 503/19/1 504/22/1
f 505/21/1 506/22/1 507/2/1 508/1/1
f 509/12/1 510/15/1 511/18/1 512/13/1
f 513/11/1 514/12/1 515/13/1 516/14/1
f 517/12/1 518/15/1 519/18/1 520/13/1
f 521/11/1 522/12/1 523/13/1 524/14/1
f 525/15/1 526/16/1 527/17/1 528/18/1
f 529/19/1 530/20/1 531/7/1 532/5/1
f 533/1/1 534/2/1 535/3/1 536/4/1
f 537/2/1 538/5/1 539/6/1 540/3/1
f 541/5/1 542/7/1 543/8/1 544/6/1
f 545/21/1 546/22/1 547/2/1 548/1/1
f 549/11/1 550/12/1 551/13/1 552/14/1
f 553/15/1 554/16/1 555/17/1 556/18/1
f 557/11/1 558/12/1 559/13/1 560/14/1
f 561/11/1 562/12/1 563/13/1 564/14/1
f 565/25/1 566/10/1 567/24/1 568/26/1
f 569/18/1 570/17/1 571/20/1 572/19/1
f 573/1/1 574/2/1 575/3/1 576/4/1
f 577/6/1 578/8/1 579/9/1 580/10/1
f 581/11/1 582/12/1 583/13/1 584/14/1
f 585/19/1 586/20/1 587/7/1 588/5/1
f 589/14/1 590/13/1 591/22/1 592/21/1
f 593/10/1 594/9/1 595/23/1 596/24/1
f 597/11/1 598/12/1 599/13/1 600/14/1
f 601/15/1 602/16/1 603/17/1 604/18/1
f 605/25/1 606/10/1 607/24/1 608/26/1
f 609/18/1 610/17/1 611/20/1 612/19/1
f 613/21/1 614/22/1 615/2/1 616/1/1
f 617/22/1 618/19/1 619/5/1 620/2/1
f 621/12/1 622/15/1 623/18/1 624/13/1
f 625/19/1 626/20/1 627/7/1 628/5/1
f 629/21/1 630/22/1 631/2/1 632/1/1
f 633/11/1 634/12/1 635/13/1 636/14/1
f 637/22/1 638/19/1 639/5/1 640/2/1
f 641/19/1 642/20/1 643/7/1 644/5/1
f 645/21/1 646/22/1 647/2/1 648/1/1
f 649/22/1 650/19/1 651/5/1 652/2/1
f 653/12/1 654/15/1 655/18/1 656/13/1
f 657/19/1 658/20/1 659/7/1 660/5/1
f 661/14/1 662/13/1 663/22/1 664/21/1
f 665/13/1 666/18/1 667/19/1 668/22/1
f 669/13/1 670/18/1 671/19/1 672/22/1
f 673/18/1 674/17/1 675/20/1 676/19/1
f 677/1/1 678/2/1 679/3/1 680/4/1
f 681/6/1 682/8/1 683/9/1 684/10/1
f 685/11/1 686/12/1 687/13/1 688/14/1
f 689/12/1 690/15/1 691/18/1 692/13/1
f 693/19/1 694/20/1 695/7/1 696/5/1
f 697/21/1 698/22/1 699/2/1 700/1/1
f 701/12/1 702/15/1 703/18/1 704/13/1
f 705/15/1 706/16/1 707/17/1 708/18/1
f 709/25/1 710/10/1 711/24/1 712/26/1
f 713/14/1 714/13/1 715/22/1 716/21/1
f 717/13/1 718/18/1 719/19/1 720/22/1
f 721/13/1 722/18/1 723/19/1 724/22/1
f 725/18/1 726/17/1 727/20/1 728/19/1
f 729/1/1 730/2/1 731/3/1 732/4/1
f 733/2/1 734/5/1 735/6/1 736/3/1
f 737/5/1 738/7/1 739/8/1 740/6/1
f 741/1/1 742/2/1 743/3/1 744/4/1
f 745/2/1 746/5/1 747/6/1 748/3/1
f 749/5/1 750/7/1 751/8/1 752/6/1
f 753/1/1 754/2/1 755/3/1 756/4/1
f 757/2/1 758/5/1 759/6/1 760/3/1
f 761/6/1 762/8/1 763/9/1 764/10/1
f 765/12/1 766/15/1 767/18/1 768/13/1
f 769/3/1 770/6/1 771/10/1 772/25/1
f 773/2/1 774/5/1 775/6/1 776/3/1
f 777/5/1 778/7/1 779/8/1 780/6/1
f 781/1/1 782/2/1 783/3/1 784/4/1
f 785/2/1 786/5/1 787/6/1 788/3/1
f 789/2/1 790/5/1 791/6/1 792/3/1
f 793/2/1 794/5/1 795/6/1 796/3/1
f 797/5/1 798/7/1 799/8/1 800/6/1
f 801/21/1 802/22/1 803/2/1 804/1/1
f 805/15/1 806/16/1 807/17/1 808/18/1
f 809/19/1 810/20/1 811/7/1 812/5/1
f 813/21/1 814/22/1 815/2/1 816/1/1
f 817/22/1 818/19/1 819/5/1 820/2/1
f 821/12/1 822/15/1 823/18/1 824/13/1
f 825/12/1 826/15/1 827/18/1 828/13/1
f 829/22/1 830/19/1 831/5/1 832/2/1
f 833/15/1 834/16/1 835/17/1 836/18/1
f 837/19/1 838/20/1 839/7/1 840/5/1
f 841/21/1 842/22/1 843/2/1 844/1/1
f 845/15/1 846/16/1 847/17/1 848/18/1
f 849/22/1 850/19/1 851/5/1 852/2/1
f 853/15/1 854/16/1 855/17/1 856/18/1
f 857/19/1 858/20/1 859/7/1 860/5/1
f 861/21/1 862/22/1 863/2/1 864/1/1
f 865/22/1 866/19/1 867/5/1 868/2/1
f 869/19/1 870/20/1 871/7/1 872/5/1

