# Tiled2Unity generated file. Do not modify by hand.
# Wavefront file for 'NorthInnerCave_mesh_0002.obj'

# Vertices (Count = 896)
v -32 -64 0
v -64 -64 0
v -64 -32 0
v -32 -32 0
v -64 -64 0
v -96 -64 0
v -96 -32 0
v -64 -32 0
v -96 -64 0
v -128 -64 0
v -128 -32 0
v -96 -32 0
v -128 -64 0
v -160 -64 0
v -160 -32 0
v -128 -32 0
v -160 -64 0
v -192 -64 0
v -192 -32 0
v -160 -32 0
v -224 -64 0
v -256 -64 0
v -256 -32 0
v -224 -32 0
v -256 -64 0
v -288 -64 0
v -288 -32 0
v -256 -32 0
v -288 -64 0
v -320 -64 0
v -320 -32 0
v -288 -32 0
v -320 -64 0
v -352 -64 0
v -352 -32 0
v -320 -32 0
v -352 -64 0
v -384 -64 0
v -384 -32 0
v -352 -32 0
v -384 -64 0
v -416 -64 0
v -416 -32 0
v -384 -32 0
v -416 -64 0
v -448 -64 0
v -448 -32 0
v -416 -32 0
v -448 -64 0
v -480 -64 0
v -480 -32 0
v -448 -32 0
v -480 -64 0
v -512 -64 0
v -512 -32 0
v -480 -32 0
v -512 -64 0
v -544 -64 0
v -544 -32 0
v -512 -32 0
v -544 -64 0
v -576 -64 0
v -576 -32 0
v -544 -32 0
v -576 -64 0
v -608 -64 0
v -608 -32 0
v -576 -32 0
v -608 -64 0
v -640 -64 0
v -640 -32 0
v -608 -32 0
v -640 -64 0
v -672 -64 0
v -672 -32 0
v -640 -32 0
v -672 -64 0
v -704 -64 0
v -704 -32 0
v -672 -32 0
v -704 -64 0
v -736 -64 0
v -736 -32 0
v -704 -32 0
v -736 -64 0
v -768 -64 0
v -768 -32 0
v -736 -32 0
v -768 -64 0
v -800 -64 0
v -800 -32 0
v -768 -32 0
v -800 -64 0
v -832 -64 0
v -832 -32 0
v -800 -32 0
v -832 -64 0
v -864 -64 0
v -864 -32 0
v -832 -32 0
v -864 -64 0
v -896 -64 0
v -896 -32 0
v -864 -32 0
v -896 -64 0
v -928 -64 0
v -928 -32 0
v -896 -32 0
v -928 -64 0
v -960 -64 0
v -960 -32 0
v -928 -32 0
v -960 -64 0
v -992 -64 0
v -992 -32 0
v -960 -32 0
v -32 -96 0
v -64 -96 0
v -64 -64 0
v -32 -64 0
v -64 -96 0
v -96 -96 0
v -96 -64 0
v -64 -64 0
v -96 -96 0
v -128 -96 0
v -128 -64 0
v -96 -64 0
v -128 -96 0
v -160 -96 0
v -160 -64 0
v -128 -64 0
v -160 -96 0
v -192 -96 0
v -192 -64 0
v -160 -64 0
v -224 -96 0
v -256 -96 0
v -256 -64 0
v -224 -64 0
v -256 -96 0
v -288 -96 0
v -288 -64 0
v -256 -64 0
v -288 -96 0
v -320 -96 0
v -320 -64 0
v -288 -64 0
v -320 -96 0
v -352 -96 0
v -352 -64 0
v -320 -64 0
v -352 -96 0
v -384 -96 0
v -384 -64 0
v -352 -64 0
v -384 -96 0
v -416 -96 0
v -416 -64 0
v -384 -64 0
v -416 -96 0
v -448 -96 0
v -448 -64 0
v -416 -64 0
v -448 -96 0
v -480 -96 0
v -480 -64 0
v -448 -64 0
v -480 -96 0
v -512 -96 0
v -512 -64 0
v -480 -64 0
v -512 -96 0
v -544 -96 0
v -544 -64 0
v -512 -64 0
v -544 -96 0
v -576 -96 0
v -576 -64 0
v -544 -64 0
v -576 -96 0
v -608 -96 0
v -608 -64 0
v -576 -64 0
v -608 -96 0
v -640 -96 0
v -640 -64 0
v -608 -64 0
v -640 -96 0
v -672 -96 0
v -672 -64 0
v -640 -64 0
v -672 -96 0
v -704 -96 0
v -704 -64 0
v -672 -64 0
v -704 -96 0
v -736 -96 0
v -736 -64 0
v -704 -64 0
v -736 -96 0
v -768 -96 0
v -768 -64 0
v -736 -64 0
v -768 -96 0
v -800 -96 0
v -800 -64 0
v -768 -64 0
v -800 -96 0
v -832 -96 0
v -832 -64 0
v -800 -64 0
v -832 -96 0
v -864 -96 0
v -864 -64 0
v -832 -64 0
v -864 -96 0
v -896 -96 0
v -896 -64 0
v -864 -64 0
v -896 -96 0
v -928 -96 0
v -928 -64 0
v -896 -64 0
v -928 -96 0
v -960 -96 0
v -960 -64 0
v -928 -64 0
v -960 -96 0
v -992 -96 0
v -992 -64 0
v -960 -64 0
v -32 -128 0
v -64 -128 0
v -64 -96 0
v -32 -96 0
v -64 -128 0
v -96 -128 0
v -96 -96 0
v -64 -96 0
v -96 -128 0
v -128 -128 0
v -128 -96 0
v -96 -96 0
v -128 -128 0
v -160 -128 0
v -160 -96 0
v -128 -96 0
v -160 -128 0
v -192 -128 0
v -192 -96 0
v -160 -96 0
v -224 -128 0
v -256 -128 0
v -256 -96 0
v -224 -96 0
v -256 -128 0
v -288 -128 0
v -288 -96 0
v -256 -96 0
v -288 -128 0
v -320 -128 0
v -320 -96 0
v -288 -96 0
v -320 -128 0
v -352 -128 0
v -352 -96 0
v -320 -96 0
v -352 -128 0
v -384 -128 0
v -384 -96 0
v -352 -96 0
v -384 -128 0
v -416 -128 0
v -416 -96 0
v -384 -96 0
v -416 -128 0
v -448 -128 0
v -448 -96 0
v -416 -96 0
v -448 -128 0
v -480 -128 0
v -480 -96 0
v -448 -96 0
v -480 -128 0
v -512 -128 0
v -512 -96 0
v -480 -96 0
v -512 -128 0
v -544 -128 0
v -544 -96 0
v -512 -96 0
v -544 -128 0
v -576 -128 0
v -576 -96 0
v -544 -96 0
v -576 -128 0
v -608 -128 0
v -608 -96 0
v -576 -96 0
v -608 -128 0
v -640 -128 0
v -640 -96 0
v -608 -96 0
v -640 -128 0
v -672 -128 0
v -672 -96 0
v -640 -96 0
v -672 -128 0
v -704 -128 0
v -704 -96 0
v -672 -96 0
v -704 -128 0
v -736 -128 0
v -736 -96 0
v -704 -96 0
v -736 -128 0
v -768 -128 0
v -768 -96 0
v -736 -96 0
v -768 -128 0
v -800 -128 0
v -800 -96 0
v -768 -96 0
v -800 -128 0
v -832 -128 0
v -832 -96 0
v -800 -96 0
v -832 -128 0
v -864 -128 0
v -864 -96 0
v -832 -96 0
v -864 -128 0
v -896 -128 0
v -896 -96 0
v -864 -96 0
v -896 -128 0
v -928 -128 0
v -928 -96 0
v -896 -96 0
v -928 -128 0
v -960 -128 0
v -960 -96 0
v -928 -96 0
v -960 -128 0
v -992 -128 0
v -992 -96 0
v -960 -96 0
v -256 -160 0
v -288 -160 0
v -288 -128 0
v -256 -128 0
v -320 -160 0
v -352 -160 0
v -352 -128 0
v -320 -128 0
v -544 -160 0
v -576 -160 0
v -576 -128 0
v -544 -128 0
v -96 -192 0
v -128 -192 0
v -128 -160 0
v -96 -160 0
v -640 -224 0
v -672 -224 0
v -672 -192 0
v -640 -192 0
v -704 -256 0
v -736 -256 0
v -736 -224 0
v -704 -224 0
v -736 -256 0
v -768 -256 0
v -768 -224 0
v -736 -224 0
v -768 -256 0
v -800 -256 0
v -800 -224 0
v -768 -224 0
v -800 -256 0
v -832 -256 0
v -832 -224 0
v -800 -224 0
v -832 -256 0
v -864 -256 0
v -864 -224 0
v -832 -224 0
v -864 -256 0
v -896 -256 0
v -896 -224 0
v -864 -224 0
v -896 -256 0
v -928 -256 0
v -928 -224 0
v -896 -224 0
v -928 -256 0
v -960 -256 0
v -960 -224 0
v -928 -224 0
v -960 -256 0
v -992 -256 0
v -992 -224 0
v -960 -224 0
v -704 -288 0
v -736 -288 0
v -736 -256 0
v -704 -256 0
v -736 -288 0
v -768 -288 0
v -768 -256 0
v -736 -256 0
v -768 -288 0
v -800 -288 0
v -800 -256 0
v -768 -256 0
v -800 -288 0
v -832 -288 0
v -832 -256 0
v -800 -256 0
v -832 -288 0
v -864 -288 0
v -864 -256 0
v -832 -256 0
v -864 -288 0
v -896 -288 0
v -896 -256 0
v -864 -256 0
v -896 -288 0
v -928 -288 0
v -928 -256 0
v -896 -256 0
v -928 -288 0
v -960 -288 0
v -960 -256 0
v -928 -256 0
v -960 -288 0
v -992 -288 0
v -992 -256 0
v -960 -256 0
v -160 -320 0
v -192 -320 0
v -192 -288 0
v -160 -288 0
v -192 -320 0
v -224 -320 0
v -224 -288 0
v -192 -288 0
v -224 -320 0
v -256 -320 0
v -256 -288 0
v -224 -288 0
v -256 -320 0
v -288 -320 0
v -288 -288 0
v -256 -288 0
v -288 -320 0
v -320 -320 0
v -320 -288 0
v -288 -288 0
v -320 -320 0
v -352 -320 0
v -352 -288 0
v -320 -288 0
v -352 -320 0
v -384 -320 0
v -384 -288 0
v -352 -288 0
v -384 -320 0
v -416 -320 0
v -416 -288 0
v -384 -288 0
v -864 -320 0
v -896 -320 0
v -896 -288 0
v -864 -288 0
v -160 -352 0
v -192 -352 0
v -192 -320 0
v -160 -320 0
v -192 -352 0
v -224 -352 0
v -224 -320 0
v -192 -320 0
v -224 -352 0
v -256 -352 0
v -256 -320 0
v -224 -320 0
v -256 -352 0
v -288 -352 0
v -288 -320 0
v -256 -320 0
v -288 -352 0
v -320 -352 0
v -320 -320 0
v -288 -320 0
v -320 -352 0
v -352 -352 0
v -352 -320 0
v -320 -320 0
v -352 -352 0
v -384 -352 0
v -384 -320 0
v -352 -320 0
v -384 -352 0
v -416 -352 0
v -416 -320 0
v -384 -320 0
v -896 -352 0
v -928 -352 0
v -928 -320 0
v -896 -320 0
v -160 -384 0
v -192 -384 0
v -192 -352 0
v -160 -352 0
v -192 -384 0
v -224 -384 0
v -224 -352 0
v -192 -352 0
v -224 -384 0
v -256 -384 0
v -256 -352 0
v -224 -352 0
v -256 -384 0
v -288 -384 0
v -288 -352 0
v -256 -352 0
v -288 -384 0
v -320 -384 0
v -320 -352 0
v -288 -352 0
v -320 -384 0
v -352 -384 0
v -352 -352 0
v -320 -352 0
v -352 -384 0
v -384 -384 0
v -384 -352 0
v -352 -352 0
v -384 -384 0
v -416 -384 0
v -416 -352 0
v -384 -352 0
v -608 -448 0
v -640 -448 0
v -640 -416 0
v -608 -416 0
v -640 -448 0
v -672 -448 0
v -672 -416 0
v -640 -416 0
v -672 -448 0
v -704 -448 0
v -704 -416 0
v -672 -416 0
v -704 -448 0
v -736 -448 0
v -736 -416 0
v -704 -416 0
v -736 -448 0
v -768 -448 0
v -768 -416 0
v -736 -416 0
v -768 -448 0
v -800 -448 0
v -800 -416 0
v -768 -416 0
v -800 -448 0
v -832 -448 0
v -832 -416 0
v -800 -416 0
v -128 -480 0
v -160 -480 0
v -160 -448 0
v -128 -448 0
v -608 -480 0
v -640 -480 0
v -640 -448 0
v -608 -448 0
v -640 -480 0
v -672 -480 0
v -672 -448 0
v -640 -448 0
v -672 -480 0
v -704 -480 0
v -704 -448 0
v -672 -448 0
v -704 -480 0
v -736 -480 0
v -736 -448 0
v -704 -448 0
v -736 -480 0
v -768 -480 0
v -768 -448 0
v -736 -448 0
v -768 -480 0
v -800 -480 0
v -800 -448 0
v -768 -448 0
v -800 -480 0
v -832 -480 0
v -832 -448 0
v -800 -448 0
v -544 -512 0
v -576 -512 0
v -576 -480 0
v -544 -480 0
v -608 -512 0
v -640 -512 0
v -640 -480 0
v -608 -480 0
v -640 -512 0
v -672 -512 0
v -672 -480 0
v -640 -480 0
v -672 -512 0
v -704 -512 0
v -704 -480 0
v -672 -480 0
v -704 -512 0
v -736 -512 0
v -736 -480 0
v -704 -480 0
v -736 -512 0
v -768 -512 0
v -768 -480 0
v -736 -480 0
v -768 -512 0
v -800 -512 0
v -800 -480 0
v -768 -480 0
v -800 -512 0
v -832 -512 0
v -832 -480 0
v -800 -480 0
v -96 -544 0
v -128 -544 0
v -128 -512 0
v -96 -512 0
v -160 -608 0
v -192 -608 0
v -192 -576 0
v -160 -576 0
v -192 -608 0
v -224 -608 0
v -224 -576 0
v -192 -576 0
v -224 -608 0
v -256 -608 0
v -256 -576 0
v -224 -576 0
v -256 -608 0
v -288 -608 0
v -288 -576 0
v -256 -576 0
v -288 -608 0
v -320 -608 0
v -320 -576 0
v -288 -576 0
v -352 -608 0
v -384 -608 0
v -384 -576 0
v -352 -576 0
v -384 -608 0
v -416 -608 0
v -416 -576 0
v -384 -576 0
v -416 -608 0
v -448 -608 0
v -448 -576 0
v -416 -576 0
v -448 -608 0
v -480 -608 0
v -480 -576 0
v -448 -576 0
v -480 -608 0
v -512 -608 0
v -512 -576 0
v -480 -576 0
v -160 -640 0
v -192 -640 0
v -192 -608 0
v -160 -608 0
v -192 -640 0
v -224 -640 0
v -224 -608 0
v -192 -608 0
v -224 -640 0
v -256 -640 0
v -256 -608 0
v -224 -608 0
v -256 -640 0
v -288 -640 0
v -288 -608 0
v -256 -608 0
v -288 -640 0
v -320 -640 0
v -320 -608 0
v -288 -608 0
v -352 -640 0
v -384 -640 0
v -384 -608 0
v -352 -608 0
v -384 -640 0
v -416 -640 0
v -416 -608 0
v -384 -608 0
v -416 -640 0
v -448 -640 0
v -448 -608 0
v -416 -608 0
v -448 -640 0
v -480 -640 0
v -480 -608 0
v -448 -608 0
v -480 -640 0
v -512 -640 0
v -512 -608 0
v -480 -608 0
v -896 -640 0
v -928 -640 0
v -928 -608 0
v -896 -608 0
v -160 -672 0
v -192 -672 0
v -192 -640 0
v -160 -640 0
v -192 -672 0
v -224 -672 0
v -224 -640 0
v -192 -640 0
v -224 -672 0
v -256 -672 0
v -256 -640 0
v -224 -640 0
v -256 -672 0
v -288 -672 0
v -288 -640 0
v -256 -640 0
v -288 -672 0
v -320 -672 0
v -320 -640 0
v -288 -640 0
v -352 -672 0
v -384 -672 0
v -384 -640 0
v -352 -640 0
v -384 -672 0
v -416 -672 0
v -416 -640 0
v -384 -640 0
v -416 -672 0
v -448 -672 0
v -448 -640 0
v -416 -640 0
v -448 -672 0
v -480 -672 0
v -480 -640 0
v -448 -640 0
v -480 -672 0
v -512 -672 0
v -512 -640 0
v -480 -640 0
v -384 -704 0
v -416 -704 0
v -416 -672 0
v -384 -672 0
v -416 -704 0
v -448 -704 0
v -448 -672 0
v -416 -672 0
v -288 -736 0
v -320 -736 0
v -320 -704 0
v -288 -704 0
v -320 -736 0
v -352 -736 0
v -352 -704 0
v -320 -704 0
v -352 -736 0
v -384 -736 0
v -384 -704 0
v -352 -704 0
v -288 -768 0
v -320 -768 0
v -320 -736 0
v -288 -736 0
v -320 -768 0
v -352 -768 0
v -352 -736 0
v -320 -736 0
v -352 -768 0
v -384 -768 0
v -384 -736 0
v -352 -736 0
v -288 -800 0
v -320 -800 0
v -320 -768 0
v -288 -768 0
v -320 -800 0
v -352 -800 0
v -352 -768 0
v -320 -768 0
v -352 -800 0
v -384 -800 0
v -384 -768 0
v -352 -768 0
v -928 -800 0
v -960 -800 0
v -960 -768 0
v -928 -768 0
v -192 -832 0
v -224 -832 0
v -224 -800 0
v -192 -800 0
v -576 -832 0
v -608 -832 0
v -608 -800 0
v -576 -800 0
v -608 -832 0
v -640 -832 0
v -640 -800 0
v -608 -800 0
v -800 -832 0
v -832 -832 0
v -832 -800 0
v -800 -800 0
v -832 -832 0
v -864 -832 0
v -864 -800 0
v -832 -800 0
v -864 -832 0
v -896 -832 0
v -896 -800 0
v -864 -800 0
v -128 -864 0
v -160 -864 0
v -160 -832 0
v -128 -832 0
v -576 -864 0
v -608 -864 0
v -608 -832 0
v -576 -832 0
v -608 -864 0
v -640 -864 0
v -640 -832 0
v -608 -832 0
v -800 -864 0
v -832 -864 0
v -832 -832 0
v -800 -832 0
v -832 -864 0
v -864 -864 0
v -864 -832 0
v -832 -832 0
v -864 -864 0
v -896 -864 0
v -896 -832 0
v -864 -832 0
v -928 -864 0
v -960 -864 0
v -960 -832 0
v -928 -832 0
v -384 -896 0
v -416 -896 0
v -416 -864 0
v -384 -864 0
v -576 -896 0
v -608 -896 0
v -608 -864 0
v -576 -864 0
v -608 -896 0
v -640 -896 0
v -640 -864 0
v -608 -864 0
v -768 -896 0
v -800 -896 0
v -800 -864 0
v -768 -864 0
v -800 -896 0
v -832 -896 0
v -832 -864 0
v -800 -864 0
v -832 -896 0
v -864 -896 0
v -864 -864 0
v -832 -864 0
v -864 -896 0
v -896 -896 0
v -896 -864 0
v -864 -864 0
v -544 -928 0
v -576 -928 0
v -576 -896 0
v -544 -896 0

# Texture cooridinates (Count = 34)
vt 0.3333333 0.6666666
vt 0.4166667 0.6666666
vt 0.4166667 0.7777778
vt 0.3333333 0.7777778
vt 0.08333334 0.5555556
vt 0.1666667 0.5555556
vt 0.1666667 0.6666666
vt 0.08333334 0.6666666
vt 0.25 0.6666666
vt 0.25 0.7777778
vt 0.08333334 0.3333333
vt 0.1666667 0.3333333
vt 0.1666667 0.4444444
vt 0.08333334 0.4444444
vt 0.25 0.3333333
vt 0.25 0.4444444
vt 0.08333334 0.2222222
vt 0.1666667 0.2222222
vt 0.25 0.2222222
vt 0.3333333 0.5555556
vt 0.4166667 0.5555556
vt 0.25 0.5555556
vt 0.5 0.4444444
vt 0.5833333 0.4444444
vt 0.5833333 0.5555556
vt 0.5 0.5555556
vt 0.08333334 0.1111111
vt 0.1666667 0.1111111
vt 0.25 0.1111111
vt 0.08333334 0
vt 0.1666667 0
vt 0 0.5555556
vt 0 0.6666666
vt 0 0.4444444

# Normal
vn 0 0 -1

# Mesh description
g NorthInnerCave_mesh_0002

# Faces
f 1/1/1 2/2/1 3/3/1 4/4/1
f 5/5/1 6/6/1 7/7/1 8/8/1
f 9/5/1 10/6/1 11/7/1 12/8/1
f 13/5/1 14/6/1 15/7/1 16/8/1
f 17/9/1 18/1/1 19/4/1 20/10/1
f 21/1/1 22/2/1 23/3/1 24/4/1
f 25/5/1 26/6/1 27/7/1 28/8/1
f 29/5/1 30/6/1 31/7/1 32/8/1
f 33/5/1 34/6/1 35/7/1 36/8/1
f 37/5/1 38/6/1 39/7/1 40/8/1
f 41/5/1 42/6/1 43/7/1 44/8/1
f 45/5/1 46/6/1 47/7/1 48/8/1
f 49/5/1 50/6/1 51/7/1 52/8/1
f 53/5/1 54/6/1 55/7/1 56/8/1
f 57/5/1 58/6/1 59/7/1 60/8/1
f 61/5/1 62/6/1 63/7/1 64/8/1
f 65/9/1 66/1/1 67/4/1 68/10/1
f 69/1/1 70/2/1 71/3/1 72/4/1
f 73/5/1 74/6/1 75/7/1 76/8/1
f 77/5/1 78/6/1 79/7/1 80/8/1
f 81/5/1 82/6/1 83/7/1 84/8/1
f 85/5/1 86/6/1 87/7/1 88/8/1
f 89/5/1 90/6/1 91/7/1 92/8/1
f 93/5/1 94/6/1 95/7/1 96/8/1
f 97/5/1 98/6/1 99/7/1 100/8/1
f 101/5/1 102/6/1 103/7/1 104/8/1
f 105/11/1 106/12/1 107/13/1 108/14/1
f 109/12/1 110/15/1 111/16/1 112/13/1
f 113/9/1 114/1/1 115/4/1 116/10/1
f 117/1/1 118/2/1 119/3/1 120/4/1
f 121/5/1 122/6/1 123/7/1 124/8/1
f 125/5/1 126/6/1 127/7/1 128/8/1
f 129/5/1 130/6/1 131/7/1 132/8/1
f 133/9/1 134/1/1 135/4/1 136/10/1
f 137/1/1 138/2/1 139/3/1 140/4/1
f 141/5/1 142/6/1 143/7/1 144/8/1
f 145/5/1 146/6/1 147/7/1 148/8/1
f 149/5/1 150/6/1 151/7/1 152/8/1
f 153/5/1 154/6/1 155/7/1 156/8/1
f 157/5/1 158/6/1 159/7/1 160/8/1
f 161/5/1 162/6/1 163/7/1 164/8/1
f 165/5/1 166/6/1 167/7/1 168/8/1
f 169/5/1 170/6/1 171/7/1 172/8/1
f 173/5/1 174/6/1 175/7/1 176/8/1
f 177/5/1 178/6/1 179/7/1 180/8/1
f 181/9/1 182/1/1 183/4/1 184/10/1
f 185/1/1 186/2/1 187/3/1 188/4/1
f 189/5/1 190/6/1 191/7/1 192/8/1
f 193/5/1 194/6/1 195/7/1 196/8/1
f 197/5/1 198/6/1 199/7/1 200/8/1
f 201/5/1 202/6/1 203/7/1 204/8/1
f 205/5/1 206/6/1 207/7/1 208/8/1
f 209/5/1 210/6/1 211/7/1 212/8/1
f 213/5/1 214/6/1 215/7/1 216/8/1
f 217/5/1 218/6/1 219/7/1 220/8/1
f 221/17/1 222/18/1 223/12/1 224/11/1
f 225/18/1 226/19/1 227/15/1 228/12/1
f 229/9/1 230/1/1 231/4/1 232/10/1
f 233/20/1 234/21/1 235/2/1 236/1/1
f 237/14/1 238/13/1 239/6/1 240/5/1
f 241/14/1 242/13/1 243/6/1 244/5/1
f 245/14/1 246/13/1 247/6/1 248/5/1
f 249/22/1 250/20/1 251/1/1 252/9/1
f 253/20/1 254/21/1 255/2/1 256/1/1
f 257/23/1 258/24/1 259/25/1 260/26/1
f 261/23/1 262/24/1 263/25/1 264/26/1
f 265/23/1 266/24/1 267/25/1 268/26/1
f 269/23/1 270/24/1 271/25/1 272/26/1
f 273/23/1 274/24/1 275/25/1 276/26/1
f 277/23/1 278/24/1 279/25/1 280/26/1
f 281/23/1 282/24/1 283/25/1 284/26/1
f 285/23/1 286/24/1 287/25/1 288/26/1
f 289/23/1 290/24/1 291/25/1 292/26/1
f 293/23/1 294/24/1 295/25/1 296/26/1
f 297/22/1 298/20/1 299/1/1 300/9/1
f 301/20/1 302/21/1 303/2/1 304/1/1
f 305/14/1 306/13/1 307/6/1 308/5/1
f 309/14/1 310/13/1 311/6/1 312/5/1
f 313/14/1 314/13/1 315/6/1 316/5/1
f 317/14/1 318/13/1 319/6/1 320/5/1
f 321/14/1 322/13/1 323/6/1 324/5/1
f 325/14/1 326/13/1 327/6/1 328/5/1
f 329/14/1 330/13/1 331/6/1 332/5/1
f 333/14/1 334/13/1 335/6/1 336/5/1
f 337/27/1 338/28/1 339/18/1 340/17/1
f 341/28/1 342/29/1 343/19/1 344/18/1
f 345/22/1 346/20/1 347/1/1 348/9/1
f 349/30/1 350/31/1 351/28/1 352/27/1
f 353/30/1 354/31/1 355/28/1 356/27/1
f 357/30/1 358/31/1 359/28/1 360/27/1
f 361/30/1 362/31/1 363/28/1 364/27/1
f 365/30/1 366/31/1 367/28/1 368/27/1
f 369/32/1 370/5/1 371/8/1 372/33/1
f 373/5/1 374/6/1 375/7/1 376/8/1
f 377/5/1 378/6/1 379/7/1 380/8/1
f 381/5/1 382/6/1 383/7/1 384/8/1
f 385/5/1 386/6/1 387/7/1 388/8/1
f 389/5/1 390/6/1 391/7/1 392/8/1
f 393/5/1 394/6/1 395/7/1 396/8/1
f 397/5/1 398/6/1 399/7/1 400/8/1
f 401/9/1 402/1/1 403/4/1 404/10/1
f 405/34/1 406/14/1 407/5/1 408/32/1
f 409/14/1 410/13/1 411/6/1 412/5/1
f 413/14/1 414/13/1 415/6/1 416/5/1
f 417/14/1 418/13/1 419/6/1 420/5/1
f 421/14/1 422/13/1 423/6/1 424/5/1
f 425/14/1 426/13/1 427/6/1 428/5/1
f 429/14/1 430/13/1 431/6/1 432/5/1
f 433/14/1 434/13/1 435/6/1 436/5/1
f 437/22/1 438/20/1 439/1/1 440/9/1
f 441/32/1 442/5/1 443/8/1 444/33/1
f 445/5/1 446/6/1 447/7/1 448/8/1
f 449/5/1 450/6/1 451/7/1 452/8/1
f 453/5/1 454/6/1 455/7/1 456/8/1
f 457/5/1 458/6/1 459/7/1 460/8/1
f 461/5/1 462/6/1 463/7/1 464/8/1
f 465/5/1 466/6/1 467/7/1 468/8/1
f 469/9/1 470/1/1 471/4/1 472/10/1
f 473/30/1 474/31/1 475/28/1 476/27/1
f 477/32/1 478/5/1 479/8/1 480/33/1
f 481/5/1 482/6/1 483/7/1 484/8/1
f 485/5/1 486/6/1 487/7/1 488/8/1
f 489/5/1 490/6/1 491/7/1 492/8/1
f 493/5/1 494/6/1 495/7/1 496/8/1
f 497/5/1 498/6/1 499/7/1 500/8/1
f 501/5/1 502/6/1 503/7/1 504/8/1
f 505/9/1 506/1/1 507/4/1 508/10/1
f 509/30/1 510/31/1 511/28/1 512/27/1
f 513/34/1 514/14/1 515/5/1 516/32/1
f 517/14/1 518/13/1 519/6/1 520/5/1
f 521/14/1 522/13/1 523/6/1 524/5/1
f 525/14/1 526/13/1 527/6/1 528/5/1
f 529/14/1 530/13/1 531/6/1 532/5/1
f 533/14/1 534/13/1 535/6/1 536/5/1
f 537/14/1 538/13/1 539/6/1 540/5/1
f 541/22/1 542/20/1 543/1/1 544/9/1
f 545/1/1 546/2/1 547/3/1 548/4/1
f 549/5/1 550/6/1 551/7/1 552/8/1
f 553/5/1 554/6/1 555/7/1 556/8/1
f 557/5/1 558/6/1 559/7/1 560/8/1
f 561/5/1 562/6/1 563/7/1 564/8/1
f 565/5/1 566/6/1 567/7/1 568/8/1
f 569/9/1 570/1/1 571/4/1 572/10/1
f 573/30/1 574/31/1 575/28/1 576/27/1
f 577/1/1 578/2/1 579/3/1 580/4/1
f 581/5/1 582/6/1 583/7/1 584/8/1
f 585/5/1 586/6/1 587/7/1 588/8/1
f 589/5/1 590/6/1 591/7/1 592/8/1
f 593/5/1 594/6/1 595/7/1 596/8/1
f 597/5/1 598/6/1 599/7/1 600/8/1
f 601/9/1 602/1/1 603/4/1 604/10/1
f 605/30/1 606/31/1 607/28/1 608/27/1
f 609/20/1 610/21/1 611/2/1 612/1/1
f 613/14/1 614/13/1 615/6/1 616/5/1
f 617/14/1 618/13/1 619/6/1 620/5/1
f 621/14/1 622/13/1 623/6/1 624/5/1
f 625/14/1 626/13/1 627/6/1 628/5/1
f 629/14/1 630/13/1 631/6/1 632/5/1
f 633/22/1 634/20/1 635/1/1 636/9/1
f 637/30/1 638/31/1 639/28/1 640/27/1
f 641/32/1 642/5/1 643/8/1 644/33/1
f 645/5/1 646/6/1 647/7/1 648/8/1
f 649/5/1 650/6/1 651/7/1 652/8/1
f 653/5/1 654/6/1 655/7/1 656/8/1
f 657/9/1 658/1/1 659/4/1 660/10/1
f 661/1/1 662/2/1 663/3/1 664/4/1
f 665/5/1 666/6/1 667/7/1 668/8/1
f 669/5/1 670/6/1 671/7/1 672/8/1
f 673/5/1 674/6/1 675/7/1 676/8/1
f 677/6/1 678/22/1 679/9/1 680/7/1
f 681/32/1 682/5/1 683/8/1 684/33/1
f 685/5/1 686/6/1 687/7/1 688/8/1
f 689/5/1 690/6/1 691/7/1 692/8/1
f 693/5/1 694/6/1 695/7/1 696/8/1
f 697/9/1 698/1/1 699/4/1 700/10/1
f 701/1/1 702/2/1 703/3/1 704/4/1
f 705/5/1 706/6/1 707/7/1 708/8/1
f 709/5/1 710/6/1 711/7/1 712/8/1
f 713/5/1 714/6/1 715/7/1 716/8/1
f 717/6/1 718/22/1 719/9/1 720/7/1
f 721/30/1 722/31/1 723/28/1 724/27/1
f 725/34/1 726/14/1 727/5/1 728/32/1
f 729/14/1 730/13/1 731/6/1 732/5/1
f 733/14/1 734/13/1 735/6/1 736/5/1
f 737/14/1 738/13/1 739/6/1 740/5/1
f 741/22/1 742/20/1 743/1/1 744/9/1
f 745/20/1 746/21/1 747/2/1 748/1/1
f 749/14/1 750/13/1 751/6/1 752/5/1
f 753/14/1 754/13/1 755/6/1 756/5/1
f 757/14/1 758/13/1 759/6/1 760/5/1
f 761/13/1 762/16/1 763/22/1 764/6/1
f 765/30/1 766/31/1 767/28/1 768/27/1
f 769/30/1 770/31/1 771/28/1 772/27/1
f 773/32/1 774/5/1 775/8/1 776/33/1
f 777/5/1 778/6/1 779/7/1 780/8/1
f 781/6/1 782/22/1 783/9/1 784/7/1
f 785/32/1 786/5/1 787/8/1 788/33/1
f 789/5/1 790/6/1 791/7/1 792/8/1
f 793/6/1 794/22/1 795/9/1 796/7/1
f 797/34/1 798/14/1 799/5/1 800/32/1
f 801/14/1 802/13/1 803/6/1 804/5/1
f 805/13/1 806/16/1 807/22/1 808/6/1
f 809/30/1 810/31/1 811/28/1 812/27/1
f 813/30/1 814/31/1 815/28/1 816/27/1
f 817/32/1 818/5/1 819/8/1 820/33/1
f 821/6/1 822/22/1 823/9/1 824/7/1
f 825/32/1 826/5/1 827/8/1 828/33/1
f 829/5/1 830/6/1 831/7/1 832/8/1
f 833/6/1 834/22/1 835/9/1 836/7/1
f 837/30/1 838/31/1 839/28/1 840/27/1
f 841/32/1 842/5/1 843/8/1 844/33/1
f 845/6/1 846/22/1 847/9/1 848/7/1
f 849/32/1 850/5/1 851/8/1 852/33/1
f 853/5/1 854/6/1 855/7/1 856/8/1
f 857/6/1 858/22/1 859/9/1 860/7/1
f 861/30/1 862/31/1 863/28/1 864/27/1
f 865/30/1 866/31/1 867/28/1 868/27/1
f 869/34/1 870/14/1 871/5/1 872/32/1
f 873/13/1 874/16/1 875/22/1 876/6/1
f 877/30/1 878/31/1 879/28/1 880/27/1
f 881/34/1 882/14/1 883/5/1 884/32/1
f 885/14/1 886/13/1 887/6/1 888/5/1
f 889/13/1 890/16/1 891/22/1 892/6/1
f 893/30/1 894/31/1 895/28/1 896/27/1

