# Tiled2Unity generated file. Do not modify by hand.
# Wavefront file for 'Island2WestJungle2_mesh_0007.obj'

# Vertices (Count = 24)
v -800 -160 0
v -832 -160 0
v -832 -128 0
v -800 -128 0
v -736 -320 0
v -768 -320 0
v -768 -288 0
v -736 -288 0
v -384 -448 0
v -416 -448 0
v -416 -416 0
v -384 -416 0
v -288 -672 0
v -320 -672 0
v -320 -640 0
v -288 -640 0
v -416 -800 0
v -448 -800 0
v -448 -768 0
v -416 -768 0
v -320 -992 0
v -352 -992 0
v -352 -960 0
v -320 -960 0

# Texture cooridinates (Count = 4)
vt 0.9375 0.5
vt 0.96875 0.5
vt 0.96875 0.53125
vt 0.9375 0.53125

# Normal
vn 0 0 -1

# Mesh description
g Island2WestJungle2_mesh_0007

# Faces
f 1/1/1 2/2/1 3/3/1 4/4/1
f 5/1/1 6/2/1 7/3/1 8/4/1
f 9/1/1 10/2/1 11/3/1 12/4/1
f 13/1/1 14/2/1 15/3/1 16/4/1
f 17/1/1 18/2/1 19/3/1 20/4/1
f 21/1/1 22/2/1 23/3/1 24/4/1

