# Tiled2Unity generated file. Do not modify by hand.
# Wavefront file for 'Island2WestJungle2_mesh_0005.obj'

# Vertices (Count = 432)
v -896 -96 0
v -928 -96 0
v -928 -64 0
v -896 -64 0
v -928 -96 0
v -960 -96 0
v -960 -64 0
v -928 -64 0
v -960 -96 0
v -992 -96 0
v -992 -64 0
v -960 -64 0
v -640 -128 0
v -672 -128 0
v -672 -96 0
v -640 -96 0
v -672 -128 0
v -704 -128 0
v -704 -96 0
v -672 -96 0
v -704 -128 0
v -736 -128 0
v -736 -96 0
v -704 -96 0
v -896 -128 0
v -928 -128 0
v -928 -96 0
v -896 -96 0
v -928 -128 0
v -960 -128 0
v -960 -96 0
v -928 -96 0
v -960 -128 0
v -992 -128 0
v -992 -96 0
v -960 -96 0
v -640 -160 0
v -672 -160 0
v -672 -128 0
v -640 -128 0
v -672 -160 0
v -704 -160 0
v -704 -128 0
v -672 -128 0
v -704 -160 0
v -736 -160 0
v -736 -128 0
v -704 -128 0
v -896 -160 0
v -928 -160 0
v -928 -128 0
v -896 -128 0
v -928 -160 0
v -960 -160 0
v -960 -128 0
v -928 -128 0
v -960 -160 0
v -992 -160 0
v -992 -128 0
v -960 -128 0
v -640 -192 0
v -672 -192 0
v -672 -160 0
v -640 -160 0
v -672 -192 0
v -704 -192 0
v -704 -160 0
v -672 -160 0
v -704 -192 0
v -736 -192 0
v -736 -160 0
v -704 -160 0
v -800 -224 0
v -832 -224 0
v -832 -192 0
v -800 -192 0
v -832 -224 0
v -864 -224 0
v -864 -192 0
v -832 -192 0
v -864 -224 0
v -896 -224 0
v -896 -192 0
v -864 -192 0
v -608 -256 0
v -640 -256 0
v -640 -224 0
v -608 -224 0
v -640 -256 0
v -672 -256 0
v -672 -224 0
v -640 -224 0
v -672 -256 0
v -704 -256 0
v -704 -224 0
v -672 -224 0
v -800 -256 0
v -832 -256 0
v -832 -224 0
v -800 -224 0
v -832 -256 0
v -864 -256 0
v -864 -224 0
v -832 -224 0
v -864 -256 0
v -896 -256 0
v -896 -224 0
v -864 -224 0
v -448 -288 0
v -480 -288 0
v -480 -256 0
v -448 -256 0
v -480 -288 0
v -512 -288 0
v -512 -256 0
v -480 -256 0
v -512 -288 0
v -544 -288 0
v -544 -256 0
v -512 -256 0
v -608 -288 0
v -640 -288 0
v -640 -256 0
v -608 -256 0
v -640 -288 0
v -672 -288 0
v -672 -256 0
v -640 -256 0
v -672 -288 0
v -704 -288 0
v -704 -256 0
v -672 -256 0
v -800 -288 0
v -832 -288 0
v -832 -256 0
v -800 -256 0
v -832 -288 0
v -864 -288 0
v -864 -256 0
v -832 -256 0
v -864 -288 0
v -896 -288 0
v -896 -256 0
v -864 -256 0
v -448 -320 0
v -480 -320 0
v -480 -288 0
v -448 -288 0
v -480 -320 0
v -512 -320 0
v -512 -288 0
v -480 -288 0
v -512 -320 0
v -544 -320 0
v -544 -288 0
v -512 -288 0
v -608 -320 0
v -640 -320 0
v -640 -288 0
v -608 -288 0
v -640 -320 0
v -672 -320 0
v -672 -288 0
v -640 -288 0
v -672 -320 0
v -704 -320 0
v -704 -288 0
v -672 -288 0
v -448 -352 0
v -480 -352 0
v -480 -320 0
v -448 -320 0
v -480 -352 0
v -512 -352 0
v -512 -320 0
v -480 -320 0
v -512 -352 0
v -544 -352 0
v -544 -320 0
v -512 -320 0
v -576 -608 0
v -608 -608 0
v -608 -576 0
v -576 -576 0
v -608 -608 0
v -640 -608 0
v -640 -576 0
v -608 -576 0
v -640 -608 0
v -672 -608 0
v -672 -576 0
v -640 -576 0
v -416 -640 0
v -448 -640 0
v -448 -608 0
v -416 -608 0
v -448 -640 0
v -480 -640 0
v -480 -608 0
v -448 -608 0
v -480 -640 0
v -512 -640 0
v -512 -608 0
v -480 -608 0
v -576 -640 0
v -608 -640 0
v -608 -608 0
v -576 -608 0
v -608 -640 0
v -640 -640 0
v -640 -608 0
v -608 -608 0
v -640 -640 0
v -672 -640 0
v -672 -608 0
v -640 -608 0
v -416 -672 0
v -448 -672 0
v -448 -640 0
v -416 -640 0
v -448 -672 0
v -480 -672 0
v -480 -640 0
v -448 -640 0
v -480 -672 0
v -512 -672 0
v -512 -640 0
v -480 -640 0
v -576 -672 0
v -608 -672 0
v -608 -640 0
v -576 -640 0
v -608 -672 0
v -640 -672 0
v -640 -640 0
v -608 -640 0
v -640 -672 0
v -672 -672 0
v -672 -640 0
v -640 -640 0
v -864 -672 0
v -896 -672 0
v -896 -640 0
v -864 -640 0
v -896 -672 0
v -928 -672 0
v -928 -640 0
v -896 -640 0
v -928 -672 0
v -960 -672 0
v -960 -640 0
v -928 -640 0
v -416 -704 0
v -448 -704 0
v -448 -672 0
v -416 -672 0
v -448 -704 0
v -480 -704 0
v -480 -672 0
v -448 -672 0
v -480 -704 0
v -512 -704 0
v -512 -672 0
v -480 -672 0
v -864 -704 0
v -896 -704 0
v -896 -672 0
v -864 -672 0
v -896 -704 0
v -928 -704 0
v -928 -672 0
v -896 -672 0
v -928 -704 0
v -960 -704 0
v -960 -672 0
v -928 -672 0
v -864 -736 0
v -896 -736 0
v -896 -704 0
v -864 -704 0
v -896 -736 0
v -928 -736 0
v -928 -704 0
v -896 -704 0
v -928 -736 0
v -960 -736 0
v -960 -704 0
v -928 -704 0
v -256 -800 0
v -288 -800 0
v -288 -768 0
v -256 -768 0
v -288 -800 0
v -320 -800 0
v -320 -768 0
v -288 -768 0
v -320 -800 0
v -352 -800 0
v -352 -768 0
v -320 -768 0
v -704 -800 0
v -736 -800 0
v -736 -768 0
v -704 -768 0
v -736 -800 0
v -768 -800 0
v -768 -768 0
v -736 -768 0
v -768 -800 0
v -800 -800 0
v -800 -768 0
v -768 -768 0
v -256 -832 0
v -288 -832 0
v -288 -800 0
v -256 -800 0
v -288 -832 0
v -320 -832 0
v -320 -800 0
v -288 -800 0
v -320 -832 0
v -352 -832 0
v -352 -800 0
v -320 -800 0
v -704 -832 0
v -736 -832 0
v -736 -800 0
v -704 -800 0
v -736 -832 0
v -768 -832 0
v -768 -800 0
v -736 -800 0
v -768 -832 0
v -800 -832 0
v -800 -800 0
v -768 -800 0
v -256 -864 0
v -288 -864 0
v -288 -832 0
v -256 -832 0
v -288 -864 0
v -320 -864 0
v -320 -832 0
v -288 -832 0
v -320 -864 0
v -352 -864 0
v -352 -832 0
v -320 -832 0
v -512 -864 0
v -544 -864 0
v -544 -832 0
v -512 -832 0
v -544 -864 0
v -576 -864 0
v -576 -832 0
v -544 -832 0
v -576 -864 0
v -608 -864 0
v -608 -832 0
v -576 -832 0
v -704 -864 0
v -736 -864 0
v -736 -832 0
v -704 -832 0
v -736 -864 0
v -768 -864 0
v -768 -832 0
v -736 -832 0
v -768 -864 0
v -800 -864 0
v -800 -832 0
v -768 -832 0
v -512 -896 0
v -544 -896 0
v -544 -864 0
v -512 -864 0
v -544 -896 0
v -576 -896 0
v -576 -864 0
v -544 -864 0
v -576 -896 0
v -608 -896 0
v -608 -864 0
v -576 -864 0
v -864 -896 0
v -896 -896 0
v -896 -864 0
v -864 -864 0
v -896 -896 0
v -928 -896 0
v -928 -864 0
v -896 -864 0
v -928 -896 0
v -960 -896 0
v -960 -864 0
v -928 -864 0
v -512 -928 0
v -544 -928 0
v -544 -896 0
v -512 -896 0
v -544 -928 0
v -576 -928 0
v -576 -896 0
v -544 -896 0
v -576 -928 0
v -608 -928 0
v -608 -896 0
v -576 -896 0
v -864 -928 0
v -896 -928 0
v -896 -896 0
v -864 -896 0
v -896 -928 0
v -928 -928 0
v -928 -896 0
v -896 -896 0
v -928 -928 0
v -960 -928 0
v -960 -896 0
v -928 -896 0
v -864 -960 0
v -896 -960 0
v -896 -928 0
v -864 -928 0
v -896 -960 0
v -928 -960 0
v -928 -928 0
v -896 -928 0
v -928 -960 0
v -960 -960 0
v -960 -928 0
v -928 -928 0

# Texture cooridinates (Count = 32)
vt 0.4615385 0.6153846
vt 0.5384616 0.6153846
vt 0.5384616 0.6923077
vt 0.4615385 0.6923077
vt 0.6153846 0.6153846
vt 0.6153846 0.6923077
vt 0.6923077 0.6153846
vt 0.6923077 0.6923077
vt 0.7692308 0.2307692
vt 0.8461539 0.2307692
vt 0.8461539 0.3076923
vt 0.7692308 0.3076923
vt 0.9230769 0.2307692
vt 0.9230769 0.3076923
vt 1 0.2307692
vt 1 0.3076923
vt 0.4615385 0.5384616
vt 0.5384616 0.5384616
vt 0.6153846 0.5384616
vt 0.6923077 0.5384616
vt 0.7692308 0.1538461
vt 0.8461539 0.1538461
vt 0.9230769 0.1538461
vt 1 0.1538461
vt 0.4615385 0.4615384
vt 0.5384616 0.4615384
vt 0.6153846 0.4615384
vt 0.6923077 0.4615384
vt 0.7692308 0.07692307
vt 0.8461539 0.07692307
vt 0.9230769 0.07692307
vt 1 0.07692307

# Normal
vn 0 0 -1

# Mesh description
g Island2WestJungle2_mesh_0005

# Faces
f 1/1/1 2/2/1 3/3/1 4/4/1
f 5/2/1 6/5/1 7/6/1 8/3/1
f 9/5/1 10/7/1 11/8/1 12/6/1
f 13/9/1 14/10/1 15/11/1 16/12/1
f 17/10/1 18/13/1 19/14/1 20/11/1
f 21/13/1 22/15/1 23/16/1 24/14/1
f 25/17/1 26/18/1 27/2/1 28/1/1
f 29/18/1 30/19/1 31/5/1 32/2/1
f 33/19/1 34/20/1 35/7/1 36/5/1
f 37/21/1 38/22/1 39/10/1 40/9/1
f 41/22/1 42/23/1 43/13/1 44/10/1
f 45/23/1 46/24/1 47/15/1 48/13/1
f 49/25/1 50/26/1 51/18/1 52/17/1
f 53/26/1 54/27/1 55/19/1 56/18/1
f 57/27/1 58/28/1 59/20/1 60/19/1
f 61/29/1 62/30/1 63/22/1 64/21/1
f 65/30/1 66/31/1 67/23/1 68/22/1
f 69/31/1 70/32/1 71/24/1 72/23/1
f 73/1/1 74/2/1 75/3/1 76/4/1
f 77/2/1 78/5/1 79/6/1 80/3/1
f 81/5/1 82/7/1 83/8/1 84/6/1
f 85/1/1 86/2/1 87/3/1 88/4/1
f 89/2/1 90/5/1 91/6/1 92/3/1
f 93/5/1 94/7/1 95/8/1 96/6/1
f 97/17/1 98/18/1 99/2/1 100/1/1
f 101/18/1 102/19/1 103/5/1 104/2/1
f 105/19/1 106/20/1 107/7/1 108/5/1
f 109/9/1 110/10/1 111/11/1 112/12/1
f 113/10/1 114/13/1 115/14/1 116/11/1
f 117/13/1 118/15/1 119/16/1 120/14/1
f 121/17/1 122/18/1 123/2/1 124/1/1
f 125/18/1 126/19/1 127/5/1 128/2/1
f 129/19/1 130/20/1 131/7/1 132/5/1
f 133/25/1 134/26/1 135/18/1 136/17/1
f 137/26/1 138/27/1 139/19/1 140/18/1
f 141/27/1 142/28/1 143/20/1 144/19/1
f 145/21/1 146/22/1 147/10/1 148/9/1
f 149/22/1 150/23/1 151/13/1 152/10/1
f 153/23/1 154/24/1 155/15/1 156/13/1
f 157/25/1 158/26/1 159/18/1 160/17/1
f 161/26/1 162/27/1 163/19/1 164/18/1
f 165/27/1 166/28/1 167/20/1 168/19/1
f 169/29/1 170/30/1 171/22/1 172/21/1
f 173/30/1 174/31/1 175/23/1 176/22/1
f 177/31/1 178/32/1 179/24/1 180/23/1
f 181/1/1 182/2/1 183/3/1 184/4/1
f 185/2/1 186/5/1 187/6/1 188/3/1
f 189/5/1 190/7/1 191/8/1 192/6/1
f 193/9/1 194/10/1 195/11/1 196/12/1
f 197/10/1 198/13/1 199/14/1 200/11/1
f 201/13/1 202/15/1 203/16/1 204/14/1
f 205/17/1 206/18/1 207/2/1 208/1/1
f 209/18/1 210/19/1 211/5/1 212/2/1
f 213/19/1 214/20/1 215/7/1 216/5/1
f 217/21/1 218/22/1 219/10/1 220/9/1
f 221/22/1 222/23/1 223/13/1 224/10/1
f 225/23/1 226/24/1 227/15/1 228/13/1
f 229/25/1 230/26/1 231/18/1 232/17/1
f 233/26/1 234/27/1 235/19/1 236/18/1
f 237/27/1 238/28/1 239/20/1 240/19/1
f 241/1/1 242/2/1 243/3/1 244/4/1
f 245/2/1 246/5/1 247/6/1 248/3/1
f 249/5/1 250/7/1 251/8/1 252/6/1
f 253/29/1 254/30/1 255/22/1 256/21/1
f 257/30/1 258/31/1 259/23/1 260/22/1
f 261/31/1 262/32/1 263/24/1 264/23/1
f 265/17/1 266/18/1 267/2/1 268/1/1
f 269/18/1 270/19/1 271/5/1 272/2/1
f 273/19/1 274/20/1 275/7/1 276/5/1
f 277/25/1 278/26/1 279/18/1 280/17/1
f 281/26/1 282/27/1 283/19/1 284/18/1
f 285/27/1 286/28/1 287/20/1 288/19/1
f 289/9/1 290/10/1 291/11/1 292/12/1
f 293/10/1 294/13/1 295/14/1 296/11/1
f 297/13/1 298/15/1 299/16/1 300/14/1
f 301/1/1 302/2/1 303/3/1 304/4/1
f 305/2/1 306/5/1 307/6/1 308/3/1
f 309/5/1 310/7/1 311/8/1 312/6/1
f 313/21/1 314/22/1 315/10/1 316/9/1
f 317/22/1 318/23/1 319/13/1 320/10/1
f 321/23/1 322/24/1 323/15/1 324/13/1
f 325/17/1 326/18/1 327/2/1 328/1/1
f 329/18/1 330/19/1 331/5/1 332/2/1
f 333/19/1 334/20/1 335/7/1 336/5/1
f 337/29/1 338/30/1 339/22/1 340/21/1
f 341/30/1 342/31/1 343/23/1 344/22/1
f 345/31/1 346/32/1 347/24/1 348/23/1
f 349/1/1 350/2/1 351/3/1 352/4/1
f 353/2/1 354/5/1 355/6/1 356/3/1
f 357/5/1 358/7/1 359/8/1 360/6/1
f 361/25/1 362/26/1 363/18/1 364/17/1
f 365/26/1 366/27/1 367/19/1 368/18/1
f 369/27/1 370/28/1 371/20/1 372/19/1
f 373/17/1 374/18/1 375/2/1 376/1/1
f 377/18/1 378/19/1 379/5/1 380/2/1
f 381/19/1 382/20/1 383/7/1 384/5/1
f 385/1/1 386/2/1 387/3/1 388/4/1
f 389/2/1 390/5/1 391/6/1 392/3/1
f 393/5/1 394/7/1 395/8/1 396/6/1
f 397/25/1 398/26/1 399/18/1 400/17/1
f 401/26/1 402/27/1 403/19/1 404/18/1
f 405/27/1 406/28/1 407/20/1 408/19/1
f 409/17/1 410/18/1 411/2/1 412/1/1
f 413/18/1 414/19/1 415/5/1 416/2/1
f 417/19/1 418/20/1 419/7/1 420/5/1
f 421/25/1 422/26/1 423/18/1 424/17/1
f 425/26/1 426/27/1 427/19/1 428/18/1
f 429/27/1 430/28/1 431/20/1 432/19/1

