# Tiled2Unity generated file. Do not modify by hand.
# Wavefront file for 'Island2WestJungle2_mesh_0004.obj'

# Vertices (Count = 208)
v -896 -192 0
v -928 -192 0
v -928 -160 0
v -896 -160 0
v -928 -192 0
v -960 -192 0
v -960 -160 0
v -928 -160 0
v -960 -192 0
v -992 -192 0
v -992 -160 0
v -960 -160 0
v -672 -224 0
v -704 -224 0
v -704 -192 0
v -672 -192 0
v -896 -224 0
v -928 -224 0
v -928 -192 0
v -896 -192 0
v -928 -224 0
v -960 -224 0
v -960 -192 0
v -928 -192 0
v -960 -224 0
v -992 -224 0
v -992 -192 0
v -960 -192 0
v -800 -288 0
v -832 -288 0
v -832 -256 0
v -800 -256 0
v -832 -288 0
v -864 -288 0
v -864 -256 0
v -832 -256 0
v -864 -288 0
v -896 -288 0
v -896 -256 0
v -864 -256 0
v -800 -320 0
v -832 -320 0
v -832 -288 0
v -800 -288 0
v -832 -320 0
v -864 -320 0
v -864 -288 0
v -832 -288 0
v -864 -320 0
v -896 -320 0
v -896 -288 0
v -864 -288 0
v -608 -352 0
v -640 -352 0
v -640 -320 0
v -608 -320 0
v -640 -352 0
v -672 -352 0
v -672 -320 0
v -640 -320 0
v -672 -352 0
v -704 -352 0
v -704 -320 0
v -672 -320 0
v -480 -384 0
v -512 -384 0
v -512 -352 0
v -480 -352 0
v -608 -384 0
v -640 -384 0
v -640 -352 0
v -608 -352 0
v -640 -384 0
v -672 -384 0
v -672 -352 0
v -640 -352 0
v -672 -384 0
v -704 -384 0
v -704 -352 0
v -672 -352 0
v -576 -704 0
v -608 -704 0
v -608 -672 0
v -576 -672 0
v -608 -704 0
v -640 -704 0
v -640 -672 0
v -608 -672 0
v -640 -704 0
v -672 -704 0
v -672 -672 0
v -640 -672 0
v -448 -736 0
v -480 -736 0
v -480 -704 0
v -448 -704 0
v -576 -736 0
v -608 -736 0
v -608 -704 0
v -576 -704 0
v -608 -736 0
v -640 -736 0
v -640 -704 0
v -608 -704 0
v -640 -736 0
v -672 -736 0
v -672 -704 0
v -640 -704 0
v -864 -768 0
v -896 -768 0
v -896 -736 0
v -864 -736 0
v -896 -768 0
v -928 -768 0
v -928 -736 0
v -896 -736 0
v -928 -768 0
v -960 -768 0
v -960 -736 0
v -928 -736 0
v -864 -800 0
v -896 -800 0
v -896 -768 0
v -864 -768 0
v -896 -800 0
v -928 -800 0
v -928 -768 0
v -896 -768 0
v -928 -800 0
v -960 -800 0
v -960 -768 0
v -928 -768 0
v -288 -896 0
v -320 -896 0
v -320 -864 0
v -288 -864 0
v -704 -896 0
v -736 -896 0
v -736 -864 0
v -704 -864 0
v -736 -896 0
v -768 -896 0
v -768 -864 0
v -736 -864 0
v -768 -896 0
v -800 -896 0
v -800 -864 0
v -768 -864 0
v -704 -928 0
v -736 -928 0
v -736 -896 0
v -704 -896 0
v -736 -928 0
v -768 -928 0
v -768 -896 0
v -736 -896 0
v -768 -928 0
v -800 -928 0
v -800 -896 0
v -768 -896 0
v -512 -960 0
v -544 -960 0
v -544 -928 0
v -512 -928 0
v -544 -960 0
v -576 -960 0
v -576 -928 0
v -544 -928 0
v -576 -960 0
v -608 -960 0
v -608 -928 0
v -576 -928 0
v -864 -960 0
v -896 -960 0
v -896 -928 0
v -864 -928 0
v -896 -960 0
v -928 -960 0
v -928 -928 0
v -896 -928 0
v -928 -960 0
v -960 -960 0
v -960 -928 0
v -928 -928 0
v -512 -992 0
v -544 -992 0
v -544 -960 0
v -512 -960 0
v -544 -992 0
v -576 -992 0
v -576 -960 0
v -544 -960 0
v -576 -992 0
v -608 -992 0
v -608 -960 0
v -576 -960 0
v -864 -992 0
v -896 -992 0
v -896 -960 0
v -864 -960 0
v -896 -992 0
v -928 -992 0
v -928 -960 0
v -896 -960 0
v -928 -992 0
v -960 -992 0
v -960 -960 0
v -928 -960 0

# Texture cooridinates (Count = 16)
vt 0.4615385 0.3846154
vt 0.5384616 0.3846154
vt 0.5384616 0.4615384
vt 0.4615385 0.4615384
vt 0.6153846 0.3846154
vt 0.6153846 0.4615384
vt 0.6923077 0.3846154
vt 0.6923077 0.4615384
vt 0.8461539 0
vt 0.9230769 0
vt 0.9230769 0.07692307
vt 0.8461539 0.07692307
vt 0.4615385 0.3076923
vt 0.5384616 0.3076923
vt 0.6153846 0.3076923
vt 0.6923077 0.3076923

# Normal
vn 0 0 -1

# Mesh description
g Island2WestJungle2_mesh_0004

# Faces
f 1/1/1 2/2/1 3/3/1 4/4/1
f 5/2/1 6/5/1 7/6/1 8/3/1
f 9/5/1 10/7/1 11/8/1 12/6/1
f 13/9/1 14/10/1 15/11/1 16/12/1
f 17/13/1 18/14/1 19/2/1 20/1/1
f 21/14/1 22/15/1 23/5/1 24/2/1
f 25/15/1 26/16/1 27/7/1 28/5/1
f 29/1/1 30/2/1 31/3/1 32/4/1
f 33/2/1 34/5/1 35/6/1 36/3/1
f 37/5/1 38/7/1 39/8/1 40/6/1
f 41/13/1 42/14/1 43/2/1 44/1/1
f 45/14/1 46/15/1 47/5/1 48/2/1
f 49/15/1 50/16/1 51/7/1 52/5/1
f 53/1/1 54/2/1 55/3/1 56/4/1
f 57/2/1 58/5/1 59/6/1 60/3/1
f 61/5/1 62/7/1 63/8/1 64/6/1
f 65/9/1 66/10/1 67/11/1 68/12/1
f 69/13/1 70/14/1 71/2/1 72/1/1
f 73/14/1 74/15/1 75/5/1 76/2/1
f 77/15/1 78/16/1 79/7/1 80/5/1
f 81/1/1 82/2/1 83/3/1 84/4/1
f 85/2/1 86/5/1 87/6/1 88/3/1
f 89/5/1 90/7/1 91/8/1 92/6/1
f 93/9/1 94/10/1 95/11/1 96/12/1
f 97/13/1 98/14/1 99/2/1 100/1/1
f 101/14/1 102/15/1 103/5/1 104/2/1
f 105/15/1 106/16/1 107/7/1 108/5/1
f 109/1/1 110/2/1 111/3/1 112/4/1
f 113/2/1 114/5/1 115/6/1 116/3/1
f 117/5/1 118/7/1 119/8/1 120/6/1
f 121/13/1 122/14/1 123/2/1 124/1/1
f 125/14/1 126/15/1 127/5/1 128/2/1
f 129/15/1 130/16/1 131/7/1 132/5/1
f 133/9/1 134/10/1 135/11/1 136/12/1
f 137/1/1 138/2/1 139/3/1 140/4/1
f 141/2/1 142/5/1 143/6/1 144/3/1
f 145/5/1 146/7/1 147/8/1 148/6/1
f 149/13/1 150/14/1 151/2/1 152/1/1
f 153/14/1 154/15/1 155/5/1 156/2/1
f 157/15/1 158/16/1 159/7/1 160/5/1
f 161/1/1 162/2/1 163/3/1 164/4/1
f 165/2/1 166/5/1 167/6/1 168/3/1
f 169/5/1 170/7/1 171/8/1 172/6/1
f 173/1/1 174/2/1 175/3/1 176/4/1
f 177/2/1 178/5/1 179/6/1 180/3/1
f 181/5/1 182/7/1 183/8/1 184/6/1
f 185/13/1 186/14/1 187/2/1 188/1/1
f 189/14/1 190/15/1 191/5/1 192/2/1
f 193/15/1 194/16/1 195/7/1 196/5/1
f 197/13/1 198/14/1 199/2/1 200/1/1
f 201/14/1 202/15/1 203/5/1 204/2/1
f 205/15/1 206/16/1 207/7/1 208/5/1

