# Tiled2Unity generated file. Do not modify by hand.
# Wavefront file for 'EastOutercave_mesh_0006.obj'

# Vertices (Count = 72)
v -480 -96 0
v -512 -96 0
v -512 -64 0
v -480 -64 0
v -512 -96 0
v -544 -96 0
v -544 -64 0
v -512 -64 0
v -544 -96 0
v -576 -96 0
v -576 -64 0
v -544 -64 0
v -576 -96 0
v -608 -96 0
v -608 -64 0
v -576 -64 0
v -608 -96 0
v -640 -96 0
v -640 -64 0
v -608 -64 0
v -640 -96 0
v -672 -96 0
v -672 -64 0
v -640 -64 0
v -96 -128 0
v -128 -128 0
v -128 -96 0
v -96 -96 0
v -480 -128 0
v -512 -128 0
v -512 -96 0
v -480 -96 0
v -512 -128 0
v -544 -128 0
v -544 -96 0
v -512 -96 0
v -96 -160 0
v -128 -160 0
v -128 -128 0
v -96 -128 0
v -480 -160 0
v -512 -160 0
v -512 -128 0
v -480 -128 0
v -512 -160 0
v -544 -160 0
v -544 -128 0
v -512 -128 0
v -96 -192 0
v -128 -192 0
v -128 -160 0
v -96 -160 0
v -480 -192 0
v -512 -192 0
v -512 -160 0
v -480 -160 0
v -512 -192 0
v -544 -192 0
v -544 -160 0
v -512 -160 0
v -32 -224 0
v -64 -224 0
v -64 -192 0
v -32 -192 0
v -64 -224 0
v -96 -224 0
v -96 -192 0
v -64 -192 0
v -96 -224 0
v -128 -224 0
v -128 -192 0
v -96 -192 0

# Texture cooridinates (Count = 28)
vt 0.5 0.4444444
vt 0.5833333 0.4444444
vt 0.5833333 0.5555556
vt 0.5 0.5555556
vt 0.75 0.7777778
vt 0.8333333 0.7777778
vt 0.8333333 0.8888889
vt 0.75 0.8888889
vt 0.08333334 0.3333333
vt 0.1666667 0.3333333
vt 0.1666667 0.4444444
vt 0.08333334 0.4444444
vt 0.25 0.3333333
vt 0.25 0.4444444
vt 0.5833333 0.7777778
vt 0.6666667 0.7777778
vt 0.6666667 0.8888889
vt 0.5833333 0.8888889
vt 0.08333334 0.2222222
vt 0.1666667 0.2222222
vt 0.25 0.2222222
vt 0.08333334 0.1111111
vt 0.1666667 0.1111111
vt 0.25 0.1111111
vt 0.5 0.6666666
vt 0.5833333 0.6666666
vt 0.5 0.7777778
vt 0.6666667 0.6666666

# Normal
vn 0 0 -1

# Mesh description
g EastOutercave_mesh_0006

# Faces
f 1/1/1 2/2/1 3/3/1 4/4/1
f 5/1/1 6/2/1 7/3/1 8/4/1
f 9/1/1 10/2/1 11/3/1 12/4/1
f 13/1/1 14/2/1 15/3/1 16/4/1
f 17/1/1 18/2/1 19/3/1 20/4/1
f 21/1/1 22/2/1 23/3/1 24/4/1
f 25/5/1 26/6/1 27/7/1 28/8/1
f 29/9/1 30/10/1 31/11/1 32/12/1
f 33/10/1 34/13/1 35/14/1 36/11/1
f 37/15/1 38/16/1 39/17/1 40/18/1
f 41/19/1 42/20/1 43/10/1 44/9/1
f 45/20/1 46/21/1 47/13/1 48/10/1
f 49/15/1 50/16/1 51/17/1 52/18/1
f 53/22/1 54/23/1 55/20/1 56/19/1
f 57/23/1 58/24/1 59/21/1 60/20/1
f 61/25/1 62/26/1 63/15/1 64/27/1
f 65/25/1 66/26/1 67/15/1 68/27/1
f 69/26/1 70/28/1 71/16/1 72/15/1

