# Tiled2Unity generated file. Do not modify by hand.
# Wavefront file for 'Island2EastForest_mesh_0004.obj'

# Vertices (Count = 472)
v -224 -352 0
v -256 -352 0
v -256 -320 0
v -224 -320 0
v -256 -352 0
v -288 -352 0
v -288 -320 0
v -256 -320 0
v -288 -352 0
v -320 -352 0
v -320 -320 0
v -288 -320 0
v -320 -352 0
v -352 -352 0
v -352 -320 0
v -320 -320 0
v -352 -352 0
v -384 -352 0
v -384 -320 0
v -352 -320 0
v -384 -352 0
v -416 -352 0
v -416 -320 0
v -384 -320 0
v -416 -352 0
v -448 -352 0
v -448 -320 0
v -416 -320 0
v -448 -352 0
v -480 -352 0
v -480 -320 0
v -448 -320 0
v -480 -352 0
v -512 -352 0
v -512 -320 0
v -480 -320 0
v -160 -384 0
v -192 -384 0
v -192 -352 0
v -160 -352 0
v -192 -384 0
v -224 -384 0
v -224 -352 0
v -192 -352 0
v -224 -384 0
v -256 -384 0
v -256 -352 0
v -224 -352 0
v -256 -384 0
v -288 -384 0
v -288 -352 0
v -256 -352 0
v -288 -384 0
v -320 -384 0
v -320 -352 0
v -288 -352 0
v -320 -384 0
v -352 -384 0
v -352 -352 0
v -320 -352 0
v -352 -384 0
v -384 -384 0
v -384 -352 0
v -352 -352 0
v -384 -384 0
v -416 -384 0
v -416 -352 0
v -384 -352 0
v -416 -384 0
v -448 -384 0
v -448 -352 0
v -416 -352 0
v -448 -384 0
v -480 -384 0
v -480 -352 0
v -448 -352 0
v -480 -384 0
v -512 -384 0
v -512 -352 0
v -480 -352 0
v -512 -384 0
v -544 -384 0
v -544 -352 0
v -512 -352 0
v -640 -384 0
v -672 -384 0
v -672 -352 0
v -640 -352 0
v -672 -384 0
v -704 -384 0
v -704 -352 0
v -672 -352 0
v -704 -384 0
v -736 -384 0
v -736 -352 0
v -704 -352 0
v -736 -384 0
v -768 -384 0
v -768 -352 0
v -736 -352 0
v -768 -384 0
v -800 -384 0
v -800 -352 0
v -768 -352 0
v -800 -384 0
v -832 -384 0
v -832 -352 0
v -800 -352 0
v -128 -416 0
v -160 -416 0
v -160 -384 0
v -128 -384 0
v -160 -416 0
v -192 -416 0
v -192 -384 0
v -160 -384 0
v -192 -416 0
v -224 -416 0
v -224 -384 0
v -192 -384 0
v -224 -416 0
v -256 -416 0
v -256 -384 0
v -224 -384 0
v -256 -416 0
v -288 -416 0
v -288 -384 0
v -256 -384 0
v -288 -416 0
v -320 -416 0
v -320 -384 0
v -288 -384 0
v -320 -416 0
v -352 -416 0
v -352 -384 0
v -320 -384 0
v -352 -416 0
v -384 -416 0
v -384 -384 0
v -352 -384 0
v -384 -416 0
v -416 -416 0
v -416 -384 0
v -384 -384 0
v -416 -416 0
v -448 -416 0
v -448 -384 0
v -416 -384 0
v -448 -416 0
v -480 -416 0
v -480 -384 0
v -448 -384 0
v -480 -416 0
v -512 -416 0
v -512 -384 0
v -480 -384 0
v -512 -416 0
v -544 -416 0
v -544 -384 0
v -512 -384 0
v -608 -416 0
v -640 -416 0
v -640 -384 0
v -608 -384 0
v -640 -416 0
v -672 -416 0
v -672 -384 0
v -640 -384 0
v -672 -416 0
v -704 -416 0
v -704 -384 0
v -672 -384 0
v -704 -416 0
v -736 -416 0
v -736 -384 0
v -704 -384 0
v -736 -416 0
v -768 -416 0
v -768 -384 0
v -736 -384 0
v -768 -416 0
v -800 -416 0
v -800 -384 0
v -768 -384 0
v -800 -416 0
v -832 -416 0
v -832 -384 0
v -800 -384 0
v -32 -448 0
v -64 -448 0
v -64 -416 0
v -32 -416 0
v -64 -448 0
v -96 -448 0
v -96 -416 0
v -64 -416 0
v -96 -448 0
v -128 -448 0
v -128 -416 0
v -96 -416 0
v -128 -448 0
v -160 -448 0
v -160 -416 0
v -128 -416 0
v -160 -448 0
v -192 -448 0
v -192 -416 0
v -160 -416 0
v -192 -448 0
v -224 -448 0
v -224 -416 0
v -192 -416 0
v -224 -448 0
v -256 -448 0
v -256 -416 0
v -224 -416 0
v -256 -448 0
v -288 -448 0
v -288 -416 0
v -256 -416 0
v -288 -448 0
v -320 -448 0
v -320 -416 0
v -288 -416 0
v -416 -448 0
v -448 -448 0
v -448 -416 0
v -416 -416 0
v -448 -448 0
v -480 -448 0
v -480 -416 0
v -448 -416 0
v -480 -448 0
v -512 -448 0
v -512 -416 0
v -480 -416 0
v -512 -448 0
v -544 -448 0
v -544 -416 0
v -512 -416 0
v -544 -448 0
v -576 -448 0
v -576 -416 0
v -544 -416 0
v -576 -448 0
v -608 -448 0
v -608 -416 0
v -576 -416 0
v -608 -448 0
v -640 -448 0
v -640 -416 0
v -608 -416 0
v -640 -448 0
v -672 -448 0
v -672 -416 0
v -640 -416 0
v -672 -448 0
v -704 -448 0
v -704 -416 0
v -672 -416 0
v -704 -448 0
v -736 -448 0
v -736 -416 0
v -704 -416 0
v -736 -448 0
v -768 -448 0
v -768 -416 0
v -736 -416 0
v -768 -448 0
v -800 -448 0
v -800 -416 0
v -768 -416 0
v -800 -448 0
v -832 -448 0
v -832 -416 0
v -800 -416 0
v -832 -448 0
v -864 -448 0
v -864 -416 0
v -832 -416 0
v -32 -480 0
v -64 -480 0
v -64 -448 0
v -32 -448 0
v -64 -480 0
v -96 -480 0
v -96 -448 0
v -64 -448 0
v -96 -480 0
v -128 -480 0
v -128 -448 0
v -96 -448 0
v -128 -480 0
v -160 -480 0
v -160 -448 0
v -128 -448 0
v -160 -480 0
v -192 -480 0
v -192 -448 0
v -160 -448 0
v -192 -480 0
v -224 -480 0
v -224 -448 0
v -192 -448 0
v -224 -480 0
v -256 -480 0
v -256 -448 0
v -224 -448 0
v -448 -480 0
v -480 -480 0
v -480 -448 0
v -448 -448 0
v -480 -480 0
v -512 -480 0
v -512 -448 0
v -480 -448 0
v -512 -480 0
v -544 -480 0
v -544 -448 0
v -512 -448 0
v -544 -480 0
v -576 -480 0
v -576 -448 0
v -544 -448 0
v -576 -480 0
v -608 -480 0
v -608 -448 0
v -576 -448 0
v -608 -480 0
v -640 -480 0
v -640 -448 0
v -608 -448 0
v -640 -480 0
v -672 -480 0
v -672 -448 0
v -640 -448 0
v -672 -480 0
v -704 -480 0
v -704 -448 0
v -672 -448 0
v -736 -480 0
v -768 -480 0
v -768 -448 0
v -736 -448 0
v -768 -480 0
v -800 -480 0
v -800 -448 0
v -768 -448 0
v -800 -480 0
v -832 -480 0
v -832 -448 0
v -800 -448 0
v -832 -480 0
v -864 -480 0
v -864 -448 0
v -832 -448 0
v -864 -480 0
v -896 -480 0
v -896 -448 0
v -864 -448 0
v -32 -512 0
v -64 -512 0
v -64 -480 0
v -32 -480 0
v -64 -512 0
v -96 -512 0
v -96 -480 0
v -64 -480 0
v -96 -512 0
v -128 -512 0
v -128 -480 0
v -96 -480 0
v -128 -512 0
v -160 -512 0
v -160 -480 0
v -128 -480 0
v -160 -512 0
v -192 -512 0
v -192 -480 0
v -160 -480 0
v -192 -512 0
v -224 -512 0
v -224 -480 0
v -192 -480 0
v -480 -512 0
v -512 -512 0
v -512 -480 0
v -480 -480 0
v -512 -512 0
v -544 -512 0
v -544 -480 0
v -512 -480 0
v -544 -512 0
v -576 -512 0
v -576 -480 0
v -544 -480 0
v -576 -512 0
v -608 -512 0
v -608 -480 0
v -576 -480 0
v -608 -512 0
v -640 -512 0
v -640 -480 0
v -608 -480 0
v -640 -512 0
v -672 -512 0
v -672 -480 0
v -640 -480 0
v -672 -512 0
v -704 -512 0
v -704 -480 0
v -672 -480 0
v -736 -512 0
v -768 -512 0
v -768 -480 0
v -736 -480 0
v -768 -512 0
v -800 -512 0
v -800 -480 0
v -768 -480 0
v -800 -512 0
v -832 -512 0
v -832 -480 0
v -800 -480 0
v -832 -512 0
v -864 -512 0
v -864 -480 0
v -832 -480 0
v -864 -512 0
v -896 -512 0
v -896 -480 0
v -864 -480 0
v -480 -544 0
v -512 -544 0
v -512 -512 0
v -480 -512 0
v -512 -544 0
v -544 -544 0
v -544 -512 0
v -512 -512 0
v -544 -544 0
v -576 -544 0
v -576 -512 0
v -544 -512 0
v -576 -544 0
v -608 -544 0
v -608 -512 0
v -576 -512 0
v -608 -544 0
v -640 -544 0
v -640 -512 0
v -608 -512 0
v -640 -544 0
v -672 -544 0
v -672 -512 0
v -640 -512 0
v -768 -544 0
v -800 -544 0
v -800 -512 0
v -768 -512 0
v -800 -544 0
v -832 -544 0
v -832 -512 0
v -800 -512 0
v -832 -544 0
v -864 -544 0
v -864 -512 0
v -832 -512 0
v -864 -544 0
v -896 -544 0
v -896 -512 0
v -864 -512 0

# Texture cooridinates (Count = 26)
vt 0 0.90625
vt 0.03125 0.90625
vt 0.03125 0.9375
vt 0 0.9375
vt 0.0625 0.90625
vt 0.0625 0.9375
vt 0.09375 0.90625
vt 0.09375 0.9375
vt 0.09375 0.96875
vt 0.0625 0.96875
vt 0.03125 0.875
vt 0.0625 0.875
vt 0 0.8125
vt 0.03125 0.8125
vt 0.03125 0.84375
vt 0 0.84375
vt 0.0625 0.8125
vt 0.0625 0.84375
vt 0.09375 0.8125
vt 0.09375 0.84375
vt 0.03125 0.96875
vt 0.0625 1
vt 0.03125 1
vt 0.09375 1
vt 0.09375 0.875
vt 0 0.875

# Normal
vn 0 0 -1

# Mesh description
g Island2EastForest_mesh_0004

# Faces
f 1/1/1 2/2/1 3/3/1 4/4/1
f 5/2/1 6/5/1 7/6/1 8/3/1
f 9/2/1 10/5/1 11/6/1 12/3/1
f 13/2/1 14/5/1 15/6/1 16/3/1
f 17/2/1 18/5/1 19/6/1 20/3/1
f 21/2/1 22/5/1 23/6/1 24/3/1
f 25/2/1 26/5/1 27/6/1 28/3/1
f 29/2/1 30/5/1 31/6/1 32/3/1
f 33/5/1 34/7/1 35/8/1 36/6/1
f 37/1/1 38/2/1 39/3/1 40/4/1
f 41/2/1 42/5/1 43/6/1 44/3/1
f 45/6/1 46/8/1 47/9/1 48/10/1
f 49/11/1 50/12/1 51/5/1 52/2/1
f 53/13/1 54/14/1 55/15/1 56/16/1
f 57/14/1 58/17/1 59/18/1 60/15/1
f 61/13/1 62/14/1 63/15/1 64/16/1
f 65/17/1 66/19/1 67/20/1 68/18/1
f 69/14/1 70/17/1 71/18/1 72/15/1
f 73/17/1 74/19/1 75/20/1 76/18/1
f 77/3/1 78/6/1 79/10/1 80/21/1
f 81/5/1 82/7/1 83/8/1 84/6/1
f 85/1/1 86/2/1 87/3/1 88/4/1
f 89/2/1 90/5/1 91/6/1 92/3/1
f 93/2/1 94/5/1 95/6/1 96/3/1
f 97/2/1 98/5/1 99/6/1 100/3/1
f 101/2/1 102/5/1 103/6/1 104/3/1
f 105/5/1 106/7/1 107/8/1 108/6/1
f 109/1/1 110/2/1 111/3/1 112/4/1
f 113/6/1 114/8/1 115/9/1 116/10/1
f 117/11/1 118/12/1 119/5/1 120/2/1
f 121/13/1 122/14/1 123/15/1 124/16/1
f 125/11/1 126/12/1 127/5/1 128/2/1
f 129/21/1 130/10/1 131/22/1 132/23/1
f 133/15/1 134/18/1 135/12/1 136/11/1
f 137/15/1 138/18/1 139/12/1 140/11/1
f 141/15/1 142/18/1 143/12/1 144/11/1
f 145/10/1 146/9/1 147/24/1 148/22/1
f 149/17/1 150/19/1 151/20/1 152/18/1
f 153/13/1 154/14/1 155/15/1 156/16/1
f 157/12/1 158/25/1 159/7/1 160/5/1
f 161/1/1 162/2/1 163/3/1 164/4/1
f 165/6/1 166/8/1 167/9/1 168/10/1
f 169/13/1 170/14/1 171/15/1 172/16/1
f 173/17/1 174/19/1 175/20/1 176/18/1
f 177/13/1 178/14/1 179/15/1 180/16/1
f 181/17/1 182/19/1 183/20/1 184/18/1
f 185/12/1 186/25/1 187/7/1 188/5/1
f 189/2/1 190/5/1 191/6/1 192/3/1
f 193/2/1 194/5/1 195/6/1 196/3/1
f 197/2/1 198/5/1 199/6/1 200/3/1
f 201/6/1 202/8/1 203/9/1 204/10/1
f 205/13/1 206/14/1 207/15/1 208/16/1
f 209/14/1 210/17/1 211/18/1 212/15/1
f 213/21/1 214/10/1 215/22/1 216/23/1
f 217/15/1 218/18/1 219/12/1 220/11/1
f 221/18/1 222/20/1 223/25/1 224/12/1
f 225/16/1 226/15/1 227/11/1 228/26/1
f 229/10/1 230/9/1 231/24/1 232/22/1
f 233/13/1 234/14/1 235/15/1 236/16/1
f 237/3/1 238/6/1 239/10/1 240/21/1
f 241/5/1 242/7/1 243/8/1 244/6/1
f 245/1/1 246/2/1 247/3/1 248/4/1
f 249/6/1 250/8/1 251/9/1 252/10/1
f 253/11/1 254/12/1 255/5/1 256/2/1
f 257/21/1 258/10/1 259/22/1 260/23/1
f 261/15/1 262/18/1 263/12/1 264/11/1
f 265/10/1 266/9/1 267/24/1 268/22/1
f 269/13/1 270/14/1 271/15/1 272/16/1
f 273/3/1 274/6/1 275/10/1 276/21/1
f 277/5/1 278/7/1 279/8/1 280/6/1
f 281/11/1 282/12/1 283/5/1 284/2/1
f 285/11/1 286/12/1 287/5/1 288/2/1
f 289/11/1 290/12/1 291/5/1 292/2/1
f 293/13/1 294/14/1 295/15/1 296/16/1
f 297/17/1 298/19/1 299/20/1 300/18/1
f 301/21/1 302/10/1 303/22/1 304/23/1
f 305/18/1 306/20/1 307/25/1 308/12/1
f 309/16/1 310/15/1 311/11/1 312/26/1
f 313/10/1 314/9/1 315/24/1 316/22/1
f 317/14/1 318/17/1 319/18/1 320/15/1
f 321/3/1 322/6/1 323/10/1 324/21/1
f 325/6/1 326/8/1 327/9/1 328/10/1
f 329/17/1 330/19/1 331/20/1 332/18/1
f 333/17/1 334/19/1 335/20/1 336/18/1
f 337/12/1 338/25/1 339/7/1 340/5/1
f 341/26/1 342/11/1 343/2/1 344/1/1
f 345/11/1 346/12/1 347/5/1 348/2/1
f 349/14/1 350/17/1 351/18/1 352/15/1
f 353/3/1 354/6/1 355/10/1 356/21/1
f 357/5/1 358/7/1 359/8/1 360/6/1
f 361/15/1 362/18/1 363/12/1 364/11/1
f 365/15/1 366/18/1 367/12/1 368/11/1
f 369/15/1 370/18/1 371/12/1 372/11/1
f 373/15/1 374/18/1 375/12/1 376/11/1
f 377/15/1 378/18/1 379/12/1 380/11/1
f 381/18/1 382/20/1 383/25/1 384/12/1
f 385/26/1 386/11/1 387/2/1 388/1/1
f 389/14/1 390/17/1 391/18/1 392/15/1
f 393/11/1 394/12/1 395/5/1 396/2/1
f 397/11/1 398/12/1 399/5/1 400/2/1
f 401/14/1 402/17/1 403/18/1 404/15/1
f 405/21/1 406/10/1 407/22/1 408/23/1
f 409/18/1 410/20/1 411/25/1 412/12/1
f 413/16/1 414/15/1 415/11/1 416/26/1
f 417/10/1 418/9/1 419/24/1 420/22/1
f 421/11/1 422/12/1 423/5/1 424/2/1
f 425/11/1 426/12/1 427/5/1 428/2/1
f 429/12/1 430/25/1 431/7/1 432/5/1
f 433/16/1 434/15/1 435/11/1 436/26/1
f 437/15/1 438/18/1 439/12/1 440/11/1
f 441/15/1 442/18/1 443/12/1 444/11/1
f 445/15/1 446/18/1 447/12/1 448/11/1
f 449/15/1 450/18/1 451/12/1 452/11/1
f 453/18/1 454/20/1 455/25/1 456/12/1
f 457/16/1 458/15/1 459/11/1 460/26/1
f 461/15/1 462/18/1 463/12/1 464/11/1
f 465/15/1 466/18/1 467/12/1 468/11/1
f 469/18/1 470/20/1 471/25/1 472/12/1

