# Tiled2Unity generated file. Do not modify by hand.
# Wavefront file for 'Island2EastForest_mesh_0003.obj'

# Vertices (Count = 144)
v -800 -224 0
v -832 -224 0
v -832 -192 0
v -800 -192 0
v -832 -224 0
v -864 -224 0
v -864 -192 0
v -832 -192 0
v -864 -224 0
v -896 -224 0
v -896 -192 0
v -864 -192 0
v -800 -256 0
v -832 -256 0
v -832 -224 0
v -800 -224 0
v -832 -256 0
v -864 -256 0
v -864 -224 0
v -832 -224 0
v -864 -256 0
v -896 -256 0
v -896 -224 0
v -864 -224 0
v -352 -640 0
v -384 -640 0
v -384 -608 0
v -352 -608 0
v -384 -640 0
v -416 -640 0
v -416 -608 0
v -384 -608 0
v -416 -640 0
v -448 -640 0
v -448 -608 0
v -416 -608 0
v -128 -672 0
v -160 -672 0
v -160 -640 0
v -128 -640 0
v -160 -672 0
v -192 -672 0
v -192 -640 0
v -160 -640 0
v -192 -672 0
v -224 -672 0
v -224 -640 0
v -192 -640 0
v -352 -672 0
v -384 -672 0
v -384 -640 0
v -352 -640 0
v -384 -672 0
v -416 -672 0
v -416 -640 0
v -384 -640 0
v -416 -672 0
v -448 -672 0
v -448 -640 0
v -416 -640 0
v -128 -704 0
v -160 -704 0
v -160 -672 0
v -128 -672 0
v -160 -704 0
v -192 -704 0
v -192 -672 0
v -160 -672 0
v -192 -704 0
v -224 -704 0
v -224 -672 0
v -192 -672 0
v -672 -832 0
v -704 -832 0
v -704 -800 0
v -672 -800 0
v -704 -832 0
v -736 -832 0
v -736 -800 0
v -704 -800 0
v -736 -832 0
v -768 -832 0
v -768 -800 0
v -736 -800 0
v -672 -864 0
v -704 -864 0
v -704 -832 0
v -672 -832 0
v -704 -864 0
v -736 -864 0
v -736 -832 0
v -704 -832 0
v -736 -864 0
v -768 -864 0
v -768 -832 0
v -736 -832 0
v -256 -928 0
v -288 -928 0
v -288 -896 0
v -256 -896 0
v -288 -928 0
v -320 -928 0
v -320 -896 0
v -288 -896 0
v -320 -928 0
v -352 -928 0
v -352 -896 0
v -320 -896 0
v -608 -928 0
v -640 -928 0
v -640 -896 0
v -608 -896 0
v -640 -928 0
v -672 -928 0
v -672 -896 0
v -640 -896 0
v -672 -928 0
v -704 -928 0
v -704 -896 0
v -672 -896 0
v -256 -960 0
v -288 -960 0
v -288 -928 0
v -256 -928 0
v -288 -960 0
v -320 -960 0
v -320 -928 0
v -288 -928 0
v -320 -960 0
v -352 -960 0
v -352 -928 0
v -320 -928 0
v -608 -960 0
v -640 -960 0
v -640 -928 0
v -608 -928 0
v -640 -960 0
v -672 -960 0
v -672 -928 0
v -640 -928 0
v -672 -960 0
v -704 -960 0
v -704 -928 0
v -672 -928 0

# Texture cooridinates (Count = 12)
vt 0.5 0.9375
vt 0.53125 0.9375
vt 0.53125 0.96875
vt 0.5 0.96875
vt 0.5625 0.9375
vt 0.5625 0.96875
vt 0.59375 0.9375
vt 0.59375 0.96875
vt 0.5 0.90625
vt 0.53125 0.90625
vt 0.5625 0.90625
vt 0.59375 0.90625

# Normal
vn 0 0 -1

# Mesh description
g Island2EastForest_mesh_0003

# Faces
f 1/1/1 2/2/1 3/3/1 4/4/1
f 5/2/1 6/5/1 7/6/1 8/3/1
f 9/5/1 10/7/1 11/8/1 12/6/1
f 13/9/1 14/10/1 15/2/1 16/1/1
f 17/10/1 18/11/1 19/5/1 20/2/1
f 21/11/1 22/12/1 23/7/1 24/5/1
f 25/1/1 26/2/1 27/3/1 28/4/1
f 29/2/1 30/5/1 31/6/1 32/3/1
f 33/5/1 34/7/1 35/8/1 36/6/1
f 37/1/1 38/2/1 39/3/1 40/4/1
f 41/2/1 42/5/1 43/6/1 44/3/1
f 45/5/1 46/7/1 47/8/1 48/6/1
f 49/9/1 50/10/1 51/2/1 52/1/1
f 53/10/1 54/11/1 55/5/1 56/2/1
f 57/11/1 58/12/1 59/7/1 60/5/1
f 61/9/1 62/10/1 63/2/1 64/1/1
f 65/10/1 66/11/1 67/5/1 68/2/1
f 69/11/1 70/12/1 71/7/1 72/5/1
f 73/1/1 74/2/1 75/3/1 76/4/1
f 77/2/1 78/5/1 79/6/1 80/3/1
f 81/5/1 82/7/1 83/8/1 84/6/1
f 85/9/1 86/10/1 87/2/1 88/1/1
f 89/10/1 90/11/1 91/5/1 92/2/1
f 93/11/1 94/12/1 95/7/1 96/5/1
f 97/1/1 98/2/1 99/3/1 100/4/1
f 101/2/1 102/5/1 103/6/1 104/3/1
f 105/5/1 106/7/1 107/8/1 108/6/1
f 109/1/1 110/2/1 111/3/1 112/4/1
f 113/2/1 114/5/1 115/6/1 116/3/1
f 117/5/1 118/7/1 119/8/1 120/6/1
f 121/9/1 122/10/1 123/2/1 124/1/1
f 125/10/1 126/11/1 127/5/1 128/2/1
f 129/11/1 130/12/1 131/7/1 132/5/1
f 133/9/1 134/10/1 135/2/1 136/1/1
f 137/10/1 138/11/1 139/5/1 140/2/1
f 141/11/1 142/12/1 143/7/1 144/5/1

