# Tiled2Unity generated file. Do not modify by hand.
# Wavefront file for 'NorthInnerCaveBoss_mesh_0002.obj'

# Vertices (Count = 404)
v -32 -64 0
v -64 -64 0
v -64 -32 0
v -32 -32 0
v -64 -64 0
v -96 -64 0
v -96 -32 0
v -64 -32 0
v -96 -64 0
v -128 -64 0
v -128 -32 0
v -96 -32 0
v -128 -64 0
v -160 -64 0
v -160 -32 0
v -128 -32 0
v -160 -64 0
v -192 -64 0
v -192 -32 0
v -160 -32 0
v -192 -64 0
v -224 -64 0
v -224 -32 0
v -192 -32 0
v -224 -64 0
v -256 -64 0
v -256 -32 0
v -224 -32 0
v -256 -64 0
v -288 -64 0
v -288 -32 0
v -256 -32 0
v -288 -64 0
v -320 -64 0
v -320 -32 0
v -288 -32 0
v -320 -64 0
v -352 -64 0
v -352 -32 0
v -320 -32 0
v -352 -64 0
v -384 -64 0
v -384 -32 0
v -352 -32 0
v -384 -64 0
v -416 -64 0
v -416 -32 0
v -384 -32 0
v -416 -64 0
v -448 -64 0
v -448 -32 0
v -416 -32 0
v -448 -64 0
v -480 -64 0
v -480 -32 0
v -448 -32 0
v -480 -64 0
v -512 -64 0
v -512 -32 0
v -480 -32 0
v -32 -96 0
v -64 -96 0
v -64 -64 0
v -32 -64 0
v -64 -96 0
v -96 -96 0
v -96 -64 0
v -64 -64 0
v -96 -96 0
v -128 -96 0
v -128 -64 0
v -96 -64 0
v -128 -96 0
v -160 -96 0
v -160 -64 0
v -128 -64 0
v -160 -96 0
v -192 -96 0
v -192 -64 0
v -160 -64 0
v -192 -96 0
v -224 -96 0
v -224 -64 0
v -192 -64 0
v -224 -96 0
v -256 -96 0
v -256 -64 0
v -224 -64 0
v -256 -96 0
v -288 -96 0
v -288 -64 0
v -256 -64 0
v -288 -96 0
v -320 -96 0
v -320 -64 0
v -288 -64 0
v -320 -96 0
v -352 -96 0
v -352 -64 0
v -320 -64 0
v -352 -96 0
v -384 -96 0
v -384 -64 0
v -352 -64 0
v -384 -96 0
v -416 -96 0
v -416 -64 0
v -384 -64 0
v -416 -96 0
v -448 -96 0
v -448 -64 0
v -416 -64 0
v -448 -96 0
v -480 -96 0
v -480 -64 0
v -448 -64 0
v -480 -96 0
v -512 -96 0
v -512 -64 0
v -480 -64 0
v -32 -128 0
v -64 -128 0
v -64 -96 0
v -32 -96 0
v -64 -128 0
v -96 -128 0
v -96 -96 0
v -64 -96 0
v -96 -128 0
v -128 -128 0
v -128 -96 0
v -96 -96 0
v -128 -128 0
v -160 -128 0
v -160 -96 0
v -128 -96 0
v -160 -128 0
v -192 -128 0
v -192 -96 0
v -160 -96 0
v -192 -128 0
v -224 -128 0
v -224 -96 0
v -192 -96 0
v -224 -128 0
v -256 -128 0
v -256 -96 0
v -224 -96 0
v -256 -128 0
v -288 -128 0
v -288 -96 0
v -256 -96 0
v -288 -128 0
v -320 -128 0
v -320 -96 0
v -288 -96 0
v -320 -128 0
v -352 -128 0
v -352 -96 0
v -320 -96 0
v -352 -128 0
v -384 -128 0
v -384 -96 0
v -352 -96 0
v -384 -128 0
v -416 -128 0
v -416 -96 0
v -384 -96 0
v -416 -128 0
v -448 -128 0
v -448 -96 0
v -416 -96 0
v -448 -128 0
v -480 -128 0
v -480 -96 0
v -448 -96 0
v -480 -128 0
v -512 -128 0
v -512 -96 0
v -480 -96 0
v -32 -160 0
v -64 -160 0
v -64 -128 0
v -32 -128 0
v -64 -160 0
v -96 -160 0
v -96 -128 0
v -64 -128 0
v -96 -160 0
v -128 -160 0
v -128 -128 0
v -96 -128 0
v -128 -160 0
v -160 -160 0
v -160 -128 0
v -128 -128 0
v -160 -160 0
v -192 -160 0
v -192 -128 0
v -160 -128 0
v -192 -160 0
v -224 -160 0
v -224 -128 0
v -192 -128 0
v -224 -160 0
v -256 -160 0
v -256 -128 0
v -224 -128 0
v -256 -160 0
v -288 -160 0
v -288 -128 0
v -256 -128 0
v -288 -160 0
v -320 -160 0
v -320 -128 0
v -288 -128 0
v -320 -160 0
v -352 -160 0
v -352 -128 0
v -320 -128 0
v -352 -160 0
v -384 -160 0
v -384 -128 0
v -352 -128 0
v -384 -160 0
v -416 -160 0
v -416 -128 0
v -384 -128 0
v -416 -160 0
v -448 -160 0
v -448 -128 0
v -416 -128 0
v -448 -160 0
v -480 -160 0
v -480 -128 0
v -448 -128 0
v -480 -160 0
v -512 -160 0
v -512 -128 0
v -480 -128 0
v -32 -192 0
v -64 -192 0
v -64 -160 0
v -32 -160 0
v -480 -192 0
v -512 -192 0
v -512 -160 0
v -480 -160 0
v -32 -224 0
v -64 -224 0
v -64 -192 0
v -32 -192 0
v -64 -224 0
v -96 -224 0
v -96 -192 0
v -64 -192 0
v -384 -224 0
v -416 -224 0
v -416 -192 0
v -384 -192 0
v -480 -224 0
v -512 -224 0
v -512 -192 0
v -480 -192 0
v -32 -256 0
v -64 -256 0
v -64 -224 0
v -32 -224 0
v -480 -256 0
v -512 -256 0
v -512 -224 0
v -480 -224 0
v -32 -288 0
v -64 -288 0
v -64 -256 0
v -32 -256 0
v -288 -288 0
v -320 -288 0
v -320 -256 0
v -288 -256 0
v -480 -288 0
v -512 -288 0
v -512 -256 0
v -480 -256 0
v -32 -320 0
v -64 -320 0
v -64 -288 0
v -32 -288 0
v -416 -320 0
v -448 -320 0
v -448 -288 0
v -416 -288 0
v -480 -320 0
v -512 -320 0
v -512 -288 0
v -480 -288 0
v -32 -352 0
v -64 -352 0
v -64 -320 0
v -32 -320 0
v -480 -352 0
v -512 -352 0
v -512 -320 0
v -480 -320 0
v -32 -384 0
v -64 -384 0
v -64 -352 0
v -32 -352 0
v -96 -384 0
v -128 -384 0
v -128 -352 0
v -96 -352 0
v -480 -384 0
v -512 -384 0
v -512 -352 0
v -480 -352 0
v -32 -416 0
v -64 -416 0
v -64 -384 0
v -32 -384 0
v -416 -416 0
v -448 -416 0
v -448 -384 0
v -416 -384 0
v -480 -416 0
v -512 -416 0
v -512 -384 0
v -480 -384 0
v -32 -448 0
v -64 -448 0
v -64 -416 0
v -32 -416 0
v -96 -448 0
v -128 -448 0
v -128 -416 0
v -96 -416 0
v -480 -448 0
v -512 -448 0
v -512 -416 0
v -480 -416 0
v -32 -480 0
v -64 -480 0
v -64 -448 0
v -32 -448 0
v -480 -480 0
v -512 -480 0
v -512 -448 0
v -480 -448 0
v -32 -512 0
v -64 -512 0
v -64 -480 0
v -32 -480 0
v -64 -512 0
v -96 -512 0
v -96 -480 0
v -64 -480 0
v -96 -512 0
v -128 -512 0
v -128 -480 0
v -96 -480 0
v -128 -512 0
v -160 -512 0
v -160 -480 0
v -128 -480 0
v -160 -512 0
v -192 -512 0
v -192 -480 0
v -160 -480 0
v -192 -512 0
v -224 -512 0
v -224 -480 0
v -192 -480 0
v -224 -512 0
v -256 -512 0
v -256 -480 0
v -224 -480 0
v -288 -512 0
v -320 -512 0
v -320 -480 0
v -288 -480 0
v -320 -512 0
v -352 -512 0
v -352 -480 0
v -320 -480 0
v -352 -512 0
v -384 -512 0
v -384 -480 0
v -352 -480 0
v -384 -512 0
v -416 -512 0
v -416 -480 0
v -384 -480 0
v -416 -512 0
v -448 -512 0
v -448 -480 0
v -416 -480 0
v -448 -512 0
v -480 -512 0
v -480 -480 0
v -448 -480 0
v -480 -512 0
v -512 -512 0
v -512 -480 0
v -480 -480 0

# Texture cooridinates (Count = 34)
vt 0.3333333 0.7777778
vt 0.4166667 0.7777778
vt 0.4166667 0.8888889
vt 0.3333333 0.8888889
vt 0.08333334 0.6666666
vt 0.1666667 0.6666666
vt 0.1666667 0.7777778
vt 0.08333334 0.7777778
vt 0.25 0.7777778
vt 0.25 0.8888889
vt 0.3333333 0.6666666
vt 0.4166667 0.6666666
vt 0.08333334 0.5555556
vt 0.1666667 0.5555556
vt 0.25 0.6666666
vt 0.3333333 0.5555556
vt 0.4166667 0.5555556
vt 0.08333334 0.4444444
vt 0.1666667 0.4444444
vt 0.25 0.5555556
vt 0.1666667 0.8888889
vt 0 0.7777778
vt 0.08333334 0.8888889
vt 0 0.8888889
vt 0 0
vt 0.08333334 0
vt 0.08333334 0.1111111
vt 0 0.1111111
vt 0.4166667 1
vt 0.3333333 1
vt 0.1666667 1
vt 0.08333334 1
vt 0.25 1
vt 0 1

# Normal
vn 0 0 -1

# Mesh description
g NorthInnerCaveBoss_mesh_0002

# Faces
f 1/1/1 2/2/1 3/3/1 4/4/1
f 5/5/1 6/6/1 7/7/1 8/8/1
f 9/5/1 10/6/1 11/7/1 12/8/1
f 13/5/1 14/6/1 15/7/1 16/8/1
f 17/5/1 18/6/1 19/7/1 20/8/1
f 21/5/1 22/6/1 23/7/1 24/8/1
f 25/5/1 26/6/1 27/7/1 28/8/1
f 29/5/1 30/6/1 31/7/1 32/8/1
f 33/5/1 34/6/1 35/7/1 36/8/1
f 37/5/1 38/6/1 39/7/1 40/8/1
f 41/5/1 42/6/1 43/7/1 44/8/1
f 45/5/1 46/6/1 47/7/1 48/8/1
f 49/5/1 50/6/1 51/7/1 52/8/1
f 53/5/1 54/6/1 55/7/1 56/8/1
f 57/9/1 58/1/1 59/4/1 60/10/1
f 61/11/1 62/12/1 63/2/1 64/1/1
f 65/13/1 66/14/1 67/6/1 68/5/1
f 69/13/1 70/14/1 71/6/1 72/5/1
f 73/13/1 74/14/1 75/6/1 76/5/1
f 77/13/1 78/14/1 79/6/1 80/5/1
f 81/13/1 82/14/1 83/6/1 84/5/1
f 85/13/1 86/14/1 87/6/1 88/5/1
f 89/13/1 90/14/1 91/6/1 92/5/1
f 93/13/1 94/14/1 95/6/1 96/5/1
f 97/13/1 98/14/1 99/6/1 100/5/1
f 101/13/1 102/14/1 103/6/1 104/5/1
f 105/13/1 106/14/1 107/6/1 108/5/1
f 109/13/1 110/14/1 111/6/1 112/5/1
f 113/13/1 114/14/1 115/6/1 116/5/1
f 117/15/1 118/11/1 119/1/1 120/9/1
f 121/11/1 122/12/1 123/2/1 124/1/1
f 125/13/1 126/14/1 127/6/1 128/5/1
f 129/13/1 130/14/1 131/6/1 132/5/1
f 133/13/1 134/14/1 135/6/1 136/5/1
f 137/13/1 138/14/1 139/6/1 140/5/1
f 141/13/1 142/14/1 143/6/1 144/5/1
f 145/13/1 146/14/1 147/6/1 148/5/1
f 149/13/1 150/14/1 151/6/1 152/5/1
f 153/13/1 154/14/1 155/6/1 156/5/1
f 157/13/1 158/14/1 159/6/1 160/5/1
f 161/13/1 162/14/1 163/6/1 164/5/1
f 165/13/1 166/14/1 167/6/1 168/5/1
f 169/13/1 170/14/1 171/6/1 172/5/1
f 173/13/1 174/14/1 175/6/1 176/5/1
f 177/15/1 178/11/1 179/1/1 180/9/1
f 181/16/1 182/17/1 183/12/1 184/11/1
f 185/18/1 186/19/1 187/14/1 188/13/1
f 189/18/1 190/19/1 191/14/1 192/13/1
f 193/18/1 194/19/1 195/14/1 196/13/1
f 197/18/1 198/19/1 199/14/1 200/13/1
f 201/18/1 202/19/1 203/14/1 204/13/1
f 205/18/1 206/19/1 207/14/1 208/13/1
f 209/18/1 210/19/1 211/14/1 212/13/1
f 213/18/1 214/19/1 215/14/1 216/13/1
f 217/18/1 218/19/1 219/14/1 220/13/1
f 221/18/1 222/19/1 223/14/1 224/13/1
f 225/18/1 226/19/1 227/14/1 228/13/1
f 229/18/1 230/19/1 231/14/1 232/13/1
f 233/18/1 234/19/1 235/14/1 236/13/1
f 237/20/1 238/16/1 239/11/1 240/15/1
f 241/7/1 242/9/1 243/10/1 244/21/1
f 245/22/1 246/8/1 247/23/1 248/24/1
f 249/7/1 250/9/1 251/10/1 252/21/1
f 253/25/1 254/26/1 255/27/1 256/28/1
f 257/25/1 258/26/1 259/27/1 260/28/1
f 261/22/1 262/8/1 263/23/1 264/24/1
f 265/7/1 266/9/1 267/10/1 268/21/1
f 269/22/1 270/8/1 271/23/1 272/24/1
f 273/7/1 274/9/1 275/10/1 276/21/1
f 277/25/1 278/26/1 279/27/1 280/28/1
f 281/22/1 282/8/1 283/23/1 284/24/1
f 285/7/1 286/9/1 287/10/1 288/21/1
f 289/25/1 290/26/1 291/27/1 292/28/1
f 293/22/1 294/8/1 295/23/1 296/24/1
f 297/7/1 298/9/1 299/10/1 300/21/1
f 301/22/1 302/8/1 303/23/1 304/24/1
f 305/7/1 306/9/1 307/10/1 308/21/1
f 309/25/1 310/26/1 311/27/1 312/28/1
f 313/22/1 314/8/1 315/23/1 316/24/1
f 317/7/1 318/9/1 319/10/1 320/21/1
f 321/25/1 322/26/1 323/27/1 324/28/1
f 325/22/1 326/8/1 327/23/1 328/24/1
f 329/7/1 330/9/1 331/10/1 332/21/1
f 333/25/1 334/26/1 335/27/1 336/28/1
f 337/22/1 338/8/1 339/23/1 340/24/1
f 341/7/1 342/9/1 343/10/1 344/21/1
f 345/22/1 346/8/1 347/23/1 348/24/1
f 349/4/1 350/3/1 351/29/1 352/30/1
f 353/23/1 354/21/1 355/31/1 356/32/1
f 357/23/1 358/21/1 359/31/1 360/32/1
f 361/23/1 362/21/1 363/31/1 364/32/1
f 365/23/1 366/21/1 367/31/1 368/32/1
f 369/23/1 370/21/1 371/31/1 372/32/1
f 373/21/1 374/10/1 375/33/1 376/31/1
f 377/24/1 378/23/1 379/32/1 380/34/1
f 381/23/1 382/21/1 383/31/1 384/32/1
f 385/23/1 386/21/1 387/31/1 388/32/1
f 389/23/1 390/21/1 391/31/1 392/32/1
f 393/23/1 394/21/1 395/31/1 396/32/1
f 397/23/1 398/21/1 399/31/1 400/32/1
f 401/10/1 402/4/1 403/30/1 404/33/1

