# Tiled2Unity generated file. Do not modify by hand.
# Wavefront file for 'WestInnercave_mesh_0003.obj'

# Vertices (Count = 448)
v -256 -192 0
v -288 -192 0
v -288 -160 0
v -256 -160 0
v -288 -192 0
v -320 -192 0
v -320 -160 0
v -288 -160 0
v -320 -192 0
v -352 -192 0
v -352 -160 0
v -320 -160 0
v -352 -192 0
v -384 -192 0
v -384 -160 0
v -352 -160 0
v -384 -192 0
v -416 -192 0
v -416 -160 0
v -384 -160 0
v -864 -192 0
v -896 -192 0
v -896 -160 0
v -864 -160 0
v -896 -192 0
v -928 -192 0
v -928 -160 0
v -896 -160 0
v -928 -192 0
v -960 -192 0
v -960 -160 0
v -928 -160 0
v -960 -192 0
v -992 -192 0
v -992 -160 0
v -960 -160 0
v -256 -224 0
v -288 -224 0
v -288 -192 0
v -256 -192 0
v -288 -224 0
v -320 -224 0
v -320 -192 0
v -288 -192 0
v -320 -224 0
v -352 -224 0
v -352 -192 0
v -320 -192 0
v -352 -224 0
v -384 -224 0
v -384 -192 0
v -352 -192 0
v -384 -224 0
v -416 -224 0
v -416 -192 0
v -384 -192 0
v -864 -224 0
v -896 -224 0
v -896 -192 0
v -864 -192 0
v -896 -224 0
v -928 -224 0
v -928 -192 0
v -896 -192 0
v -928 -224 0
v -960 -224 0
v -960 -192 0
v -928 -192 0
v -960 -224 0
v -992 -224 0
v -992 -192 0
v -960 -192 0
v -256 -256 0
v -288 -256 0
v -288 -224 0
v -256 -224 0
v -288 -256 0
v -320 -256 0
v -320 -224 0
v -288 -224 0
v -320 -256 0
v -352 -256 0
v -352 -224 0
v -320 -224 0
v -352 -256 0
v -384 -256 0
v -384 -224 0
v -352 -224 0
v -384 -256 0
v -416 -256 0
v -416 -224 0
v -384 -224 0
v -416 -256 0
v -448 -256 0
v -448 -224 0
v -416 -224 0
v -864 -256 0
v -896 -256 0
v -896 -224 0
v -864 -224 0
v -896 -256 0
v -928 -256 0
v -928 -224 0
v -896 -224 0
v -928 -256 0
v -960 -256 0
v -960 -224 0
v -928 -224 0
v -960 -256 0
v -992 -256 0
v -992 -224 0
v -960 -224 0
v -256 -288 0
v -288 -288 0
v -288 -256 0
v -256 -256 0
v -288 -288 0
v -320 -288 0
v -320 -256 0
v -288 -256 0
v -320 -288 0
v -352 -288 0
v -352 -256 0
v -320 -256 0
v -352 -288 0
v -384 -288 0
v -384 -256 0
v -352 -256 0
v -384 -288 0
v -416 -288 0
v -416 -256 0
v -384 -256 0
v -416 -288 0
v -448 -288 0
v -448 -256 0
v -416 -256 0
v -320 -320 0
v -352 -320 0
v -352 -288 0
v -320 -288 0
v -352 -320 0
v -384 -320 0
v -384 -288 0
v -352 -288 0
v -384 -320 0
v -416 -320 0
v -416 -288 0
v -384 -288 0
v -416 -320 0
v -448 -320 0
v -448 -288 0
v -416 -288 0
v -128 -672 0
v -160 -672 0
v -160 -640 0
v -128 -640 0
v -160 -672 0
v -192 -672 0
v -192 -640 0
v -160 -640 0
v -192 -672 0
v -224 -672 0
v -224 -640 0
v -192 -640 0
v -128 -704 0
v -160 -704 0
v -160 -672 0
v -128 -672 0
v -160 -704 0
v -192 -704 0
v -192 -672 0
v -160 -672 0
v -192 -704 0
v -224 -704 0
v -224 -672 0
v -192 -672 0
v -128 -736 0
v -160 -736 0
v -160 -704 0
v -128 -704 0
v -160 -736 0
v -192 -736 0
v -192 -704 0
v -160 -704 0
v -192 -736 0
v -224 -736 0
v -224 -704 0
v -192 -704 0
v -352 -736 0
v -384 -736 0
v -384 -704 0
v -352 -704 0
v -384 -736 0
v -416 -736 0
v -416 -704 0
v -384 -704 0
v -416 -736 0
v -448 -736 0
v -448 -704 0
v -416 -704 0
v -448 -736 0
v -480 -736 0
v -480 -704 0
v -448 -704 0
v -480 -736 0
v -512 -736 0
v -512 -704 0
v -480 -704 0
v -512 -736 0
v -544 -736 0
v -544 -704 0
v -512 -704 0
v -544 -736 0
v -576 -736 0
v -576 -704 0
v -544 -704 0
v -576 -736 0
v -608 -736 0
v -608 -704 0
v -576 -704 0
v -128 -768 0
v -160 -768 0
v -160 -736 0
v -128 -736 0
v -160 -768 0
v -192 -768 0
v -192 -736 0
v -160 -736 0
v -192 -768 0
v -224 -768 0
v -224 -736 0
v -192 -736 0
v -352 -768 0
v -384 -768 0
v -384 -736 0
v -352 -736 0
v -384 -768 0
v -416 -768 0
v -416 -736 0
v -384 -736 0
v -416 -768 0
v -448 -768 0
v -448 -736 0
v -416 -736 0
v -448 -768 0
v -480 -768 0
v -480 -736 0
v -448 -736 0
v -480 -768 0
v -512 -768 0
v -512 -736 0
v -480 -736 0
v -512 -768 0
v -544 -768 0
v -544 -736 0
v -512 -736 0
v -544 -768 0
v -576 -768 0
v -576 -736 0
v -544 -736 0
v -576 -768 0
v -608 -768 0
v -608 -736 0
v -576 -736 0
v -352 -800 0
v -384 -800 0
v -384 -768 0
v -352 -768 0
v -384 -800 0
v -416 -800 0
v -416 -768 0
v -384 -768 0
v -416 -800 0
v -448 -800 0
v -448 -768 0
v -416 -768 0
v -448 -800 0
v -480 -800 0
v -480 -768 0
v -448 -768 0
v -480 -800 0
v -512 -800 0
v -512 -768 0
v -480 -768 0
v -512 -800 0
v -544 -800 0
v -544 -768 0
v -512 -768 0
v -928 -800 0
v -960 -800 0
v -960 -768 0
v -928 -768 0
v -864 -832 0
v -896 -832 0
v -896 -800 0
v -864 -800 0
v -896 -832 0
v -928 -832 0
v -928 -800 0
v -896 -800 0
v -928 -832 0
v -960 -832 0
v -960 -800 0
v -928 -800 0
v -864 -864 0
v -896 -864 0
v -896 -832 0
v -864 -832 0
v -896 -864 0
v -928 -864 0
v -928 -832 0
v -896 -832 0
v -928 -864 0
v -960 -864 0
v -960 -832 0
v -928 -832 0
v -960 -864 0
v -992 -864 0
v -992 -832 0
v -960 -832 0
v -864 -896 0
v -896 -896 0
v -896 -864 0
v -864 -864 0
v -896 -896 0
v -928 -896 0
v -928 -864 0
v -896 -864 0
v -928 -896 0
v -960 -896 0
v -960 -864 0
v -928 -864 0
v -960 -896 0
v -992 -896 0
v -992 -864 0
v -960 -864 0
v -864 -928 0
v -896 -928 0
v -896 -896 0
v -864 -896 0
v -896 -928 0
v -928 -928 0
v -928 -896 0
v -896 -896 0
v -928 -928 0
v -960 -928 0
v -960 -896 0
v -928 -896 0
v -960 -928 0
v -992 -928 0
v -992 -896 0
v -960 -896 0
v -352 -960 0
v -384 -960 0
v -384 -928 0
v -352 -928 0
v -384 -960 0
v -416 -960 0
v -416 -928 0
v -384 -928 0
v -416 -960 0
v -448 -960 0
v -448 -928 0
v -416 -928 0
v -448 -960 0
v -480 -960 0
v -480 -928 0
v -448 -928 0
v -480 -960 0
v -512 -960 0
v -512 -928 0
v -480 -928 0
v -512 -960 0
v -544 -960 0
v -544 -928 0
v -512 -928 0
v -544 -960 0
v -576 -960 0
v -576 -928 0
v -544 -928 0
v -576 -960 0
v -608 -960 0
v -608 -928 0
v -576 -928 0
v -608 -960 0
v -640 -960 0
v -640 -928 0
v -608 -928 0
v -896 -960 0
v -928 -960 0
v -928 -928 0
v -896 -928 0
v -928 -960 0
v -960 -960 0
v -960 -928 0
v -928 -928 0
v -960 -960 0
v -992 -960 0
v -992 -928 0
v -960 -928 0
v -352 -992 0
v -384 -992 0
v -384 -960 0
v -352 -960 0
v -384 -992 0
v -416 -992 0
v -416 -960 0
v -384 -960 0
v -416 -992 0
v -448 -992 0
v -448 -960 0
v -416 -960 0
v -448 -992 0
v -480 -992 0
v -480 -960 0
v -448 -960 0
v -480 -992 0
v -512 -992 0
v -512 -960 0
v -480 -960 0
v -512 -992 0
v -544 -992 0
v -544 -960 0
v -512 -960 0
v -544 -992 0
v -576 -992 0
v -576 -960 0
v -544 -960 0
v -576 -992 0
v -608 -992 0
v -608 -960 0
v -576 -960 0
v -608 -992 0
v -640 -992 0
v -640 -960 0
v -608 -960 0
v -896 -992 0
v -928 -992 0
v -928 -960 0
v -896 -960 0
v -928 -992 0
v -960 -992 0
v -960 -960 0
v -928 -960 0
v -960 -992 0
v -992 -992 0
v -992 -960 0
v -960 -960 0

# Texture cooridinates (Count = 26)
vt 0 0.90625
vt 0.03125 0.90625
vt 0.03125 0.9375
vt 0 0.9375
vt 0.0625 0.90625
vt 0.0625 0.9375
vt 0.09375 0.90625
vt 0.09375 0.9375
vt 0 0.875
vt 0.03125 0.875
vt 0.0625 0.8125
vt 0.09375 0.8125
vt 0.09375 0.84375
vt 0.0625 0.84375
vt 0.03125 0.8125
vt 0.03125 0.84375
vt 0.0625 0.875
vt 0.09375 0.875
vt 0.0625 0.96875
vt 0.03125 0.96875
vt 0 0.84375
vt 0.09375 0.96875
vt 0.09375 1
vt 0.0625 1
vt 0 0.8125
vt 0.03125 1

# Normal
vn 0 0 -1

# Mesh description
g WestInnercave_mesh_0003

# Faces
f 1/1/1 2/2/1 3/3/1 4/4/1
f 5/2/1 6/5/1 7/6/1 8/3/1
f 9/2/1 10/5/1 11/6/1 12/3/1
f 13/2/1 14/5/1 15/6/1 16/3/1
f 17/5/1 18/7/1 19/8/1 20/6/1
f 21/9/1 22/10/1 23/2/1 24/1/1
f 25/11/1 26/12/1 27/13/1 28/14/1
f 29/15/1 30/11/1 31/14/1 32/16/1
f 33/17/1 34/18/1 35/7/1 36/5/1
f 37/9/1 38/10/1 39/2/1 40/1/1
f 41/11/1 42/12/1 43/13/1 44/14/1
f 45/15/1 46/11/1 47/14/1 48/16/1
f 49/15/1 50/11/1 51/14/1 52/16/1
f 53/17/1 54/18/1 55/7/1 56/5/1
f 57/9/1 58/10/1 59/2/1 60/1/1
f 61/15/1 62/11/1 63/14/1 64/16/1
f 65/10/1 66/17/1 67/5/1 68/2/1
f 69/17/1 70/18/1 71/7/1 72/5/1
f 73/9/1 74/10/1 75/2/1 76/1/1
f 77/10/1 78/17/1 79/5/1 80/2/1
f 81/11/1 82/12/1 83/13/1 84/14/1
f 85/11/1 86/12/1 87/13/1 88/14/1
f 89/3/1 90/6/1 91/19/1 92/20/1
f 93/5/1 94/7/1 95/8/1 96/6/1
f 97/21/1 98/16/1 99/10/1 100/9/1
f 101/16/1 102/14/1 103/17/1 104/10/1
f 105/16/1 106/14/1 107/17/1 108/10/1
f 109/14/1 110/13/1 111/18/1 112/17/1
f 113/21/1 114/16/1 115/10/1 116/9/1
f 117/16/1 118/14/1 119/17/1 120/10/1
f 121/19/1 122/22/1 123/23/1 124/24/1
f 125/25/1 126/15/1 127/16/1 128/21/1
f 129/11/1 130/12/1 131/13/1 132/14/1
f 133/17/1 134/18/1 135/7/1 136/5/1
f 137/21/1 138/16/1 139/10/1 140/9/1
f 141/16/1 142/14/1 143/17/1 144/10/1
f 145/16/1 146/14/1 147/17/1 148/10/1
f 149/14/1 150/13/1 151/18/1 152/17/1
f 153/1/1 154/2/1 155/3/1 156/4/1
f 157/2/1 158/5/1 159/6/1 160/3/1
f 161/5/1 162/7/1 163/8/1 164/6/1
f 165/9/1 166/10/1 167/2/1 168/1/1
f 169/15/1 170/11/1 171/14/1 172/16/1
f 173/17/1 174/18/1 175/7/1 176/5/1
f 177/9/1 178/10/1 179/2/1 180/1/1
f 181/25/1 182/15/1 183/16/1 184/21/1
f 185/17/1 186/18/1 187/7/1 188/5/1
f 189/1/1 190/2/1 191/3/1 192/4/1
f 193/2/1 194/5/1 195/6/1 196/3/1
f 197/2/1 198/5/1 199/6/1 200/3/1
f 201/2/1 202/5/1 203/6/1 204/3/1
f 205/6/1 206/8/1 207/22/1 208/19/1
f 209/11/1 210/12/1 211/13/1 212/14/1
f 213/15/1 214/11/1 215/14/1 216/16/1
f 217/17/1 218/18/1 219/7/1 220/5/1
f 221/21/1 222/16/1 223/10/1 224/9/1
f 225/16/1 226/14/1 227/17/1 228/10/1
f 229/14/1 230/13/1 231/18/1 232/17/1
f 233/9/1 234/10/1 235/2/1 236/1/1
f 237/10/1 238/17/1 239/5/1 240/2/1
f 241/15/1 242/11/1 243/14/1 244/16/1
f 245/10/1 246/17/1 247/5/1 248/2/1
f 249/11/1 250/12/1 251/13/1 252/14/1
f 253/20/1 254/19/1 255/24/1 256/26/1
f 257/16/1 258/14/1 259/17/1 260/10/1
f 261/14/1 262/13/1 263/18/1 264/17/1
f 265/21/1 266/16/1 267/10/1 268/9/1
f 269/16/1 270/14/1 271/17/1 272/10/1
f 273/16/1 274/14/1 275/17/1 276/10/1
f 277/16/1 278/14/1 279/17/1 280/10/1
f 281/16/1 282/14/1 283/17/1 284/10/1
f 285/14/1 286/13/1 287/18/1 288/17/1
f 289/1/1 290/2/1 291/3/1 292/4/1
f 293/1/1 294/2/1 295/3/1 296/4/1
f 297/2/1 298/5/1 299/6/1 300/3/1
f 301/6/1 302/8/1 303/22/1 304/19/1
f 305/9/1 306/10/1 307/2/1 308/1/1
f 309/25/1 310/15/1 311/16/1 312/21/1
f 313/15/1 314/11/1 315/14/1 316/16/1
f 317/10/1 318/17/1 319/5/1 320/2/1
f 321/9/1 322/10/1 323/2/1 324/1/1
f 325/25/1 326/15/1 327/16/1 328/21/1
f 329/10/1 330/17/1 331/5/1 332/2/1
f 333/11/1 334/12/1 335/13/1 336/14/1
f 337/21/1 338/16/1 339/10/1 340/9/1
f 341/19/1 342/22/1 343/23/1 344/24/1
f 345/25/1 346/15/1 347/16/1 348/21/1
f 349/15/1 350/11/1 351/14/1 352/16/1
f 353/9/1 354/10/1 355/2/1 356/1/1
f 357/15/1 358/11/1 359/14/1 360/16/1
f 361/25/1 362/15/1 363/16/1 364/21/1
f 365/3/1 366/6/1 367/19/1 368/20/1
f 369/2/1 370/5/1 371/6/1 372/3/1
f 373/2/1 374/5/1 375/6/1 376/3/1
f 377/2/1 378/5/1 379/6/1 380/3/1
f 381/2/1 382/5/1 383/6/1 384/3/1
f 385/5/1 386/7/1 387/8/1 388/6/1
f 389/9/1 390/10/1 391/2/1 392/1/1
f 393/25/1 394/15/1 395/16/1 396/21/1
f 397/20/1 398/19/1 399/24/1 400/26/1
f 401/21/1 402/16/1 403/10/1 404/9/1
f 405/19/1 406/22/1 407/23/1 408/24/1
f 409/10/1 410/17/1 411/5/1 412/2/1
f 413/10/1 414/17/1 415/5/1 416/2/1
f 417/15/1 418/11/1 419/14/1 420/16/1
f 421/10/1 422/17/1 423/5/1 424/2/1
f 425/11/1 426/12/1 427/13/1 428/14/1
f 429/25/1 430/15/1 431/16/1 432/21/1
f 433/17/1 434/18/1 435/7/1 436/5/1
f 437/21/1 438/16/1 439/10/1 440/9/1
f 441/16/1 442/14/1 443/17/1 444/10/1
f 445/14/1 446/13/1 447/18/1 448/17/1

