# Tiled2Unity generated file. Do not modify by hand.
# Wavefront file for 'WestInnercave_mesh_0002.obj'

# Vertices (Count = 976)
v -32 -96 0
v -64 -96 0
v -64 -64 0
v -32 -64 0
v -64 -96 0
v -96 -96 0
v -96 -64 0
v -64 -64 0
v -96 -96 0
v -128 -96 0
v -128 -64 0
v -96 -64 0
v -128 -96 0
v -160 -96 0
v -160 -64 0
v -128 -64 0
v -160 -96 0
v -192 -96 0
v -192 -64 0
v -160 -64 0
v -192 -96 0
v -224 -96 0
v -224 -64 0
v -192 -64 0
v -224 -96 0
v -256 -96 0
v -256 -64 0
v -224 -64 0
v -256 -96 0
v -288 -96 0
v -288 -64 0
v -256 -64 0
v -288 -96 0
v -320 -96 0
v -320 -64 0
v -288 -64 0
v -320 -96 0
v -352 -96 0
v -352 -64 0
v -320 -64 0
v -352 -96 0
v -384 -96 0
v -384 -64 0
v -352 -64 0
v -384 -96 0
v -416 -96 0
v -416 -64 0
v -384 -64 0
v -416 -96 0
v -448 -96 0
v -448 -64 0
v -416 -64 0
v -448 -96 0
v -480 -96 0
v -480 -64 0
v -448 -64 0
v -480 -96 0
v -512 -96 0
v -512 -64 0
v -480 -64 0
v -512 -96 0
v -544 -96 0
v -544 -64 0
v -512 -64 0
v -544 -96 0
v -576 -96 0
v -576 -64 0
v -544 -64 0
v -576 -96 0
v -608 -96 0
v -608 -64 0
v -576 -64 0
v -608 -96 0
v -640 -96 0
v -640 -64 0
v -608 -64 0
v -672 -96 0
v -704 -96 0
v -704 -64 0
v -672 -64 0
v -704 -96 0
v -736 -96 0
v -736 -64 0
v -704 -64 0
v -736 -96 0
v -768 -96 0
v -768 -64 0
v -736 -64 0
v -768 -96 0
v -800 -96 0
v -800 -64 0
v -768 -64 0
v -800 -96 0
v -832 -96 0
v -832 -64 0
v -800 -64 0
v -832 -96 0
v -864 -96 0
v -864 -64 0
v -832 -64 0
v -864 -96 0
v -896 -96 0
v -896 -64 0
v -864 -64 0
v -896 -96 0
v -928 -96 0
v -928 -64 0
v -896 -64 0
v -928 -96 0
v -960 -96 0
v -960 -64 0
v -928 -64 0
v -960 -96 0
v -992 -96 0
v -992 -64 0
v -960 -64 0
v -32 -128 0
v -64 -128 0
v -64 -96 0
v -32 -96 0
v -64 -128 0
v -96 -128 0
v -96 -96 0
v -64 -96 0
v -96 -128 0
v -128 -128 0
v -128 -96 0
v -96 -96 0
v -128 -128 0
v -160 -128 0
v -160 -96 0
v -128 -96 0
v -160 -128 0
v -192 -128 0
v -192 -96 0
v -160 -96 0
v -192 -128 0
v -224 -128 0
v -224 -96 0
v -192 -96 0
v -224 -128 0
v -256 -128 0
v -256 -96 0
v -224 -96 0
v -256 -128 0
v -288 -128 0
v -288 -96 0
v -256 -96 0
v -288 -128 0
v -320 -128 0
v -320 -96 0
v -288 -96 0
v -320 -128 0
v -352 -128 0
v -352 -96 0
v -320 -96 0
v -352 -128 0
v -384 -128 0
v -384 -96 0
v -352 -96 0
v -384 -128 0
v -416 -128 0
v -416 -96 0
v -384 -96 0
v -416 -128 0
v -448 -128 0
v -448 -96 0
v -416 -96 0
v -448 -128 0
v -480 -128 0
v -480 -96 0
v -448 -96 0
v -480 -128 0
v -512 -128 0
v -512 -96 0
v -480 -96 0
v -512 -128 0
v -544 -128 0
v -544 -96 0
v -512 -96 0
v -544 -128 0
v -576 -128 0
v -576 -96 0
v -544 -96 0
v -576 -128 0
v -608 -128 0
v -608 -96 0
v -576 -96 0
v -608 -128 0
v -640 -128 0
v -640 -96 0
v -608 -96 0
v -672 -128 0
v -704 -128 0
v -704 -96 0
v -672 -96 0
v -704 -128 0
v -736 -128 0
v -736 -96 0
v -704 -96 0
v -736 -128 0
v -768 -128 0
v -768 -96 0
v -736 -96 0
v -768 -128 0
v -800 -128 0
v -800 -96 0
v -768 -96 0
v -800 -128 0
v -832 -128 0
v -832 -96 0
v -800 -96 0
v -832 -128 0
v -864 -128 0
v -864 -96 0
v -832 -96 0
v -864 -128 0
v -896 -128 0
v -896 -96 0
v -864 -96 0
v -896 -128 0
v -928 -128 0
v -928 -96 0
v -896 -96 0
v -928 -128 0
v -960 -128 0
v -960 -96 0
v -928 -96 0
v -960 -128 0
v -992 -128 0
v -992 -96 0
v -960 -96 0
v -32 -160 0
v -64 -160 0
v -64 -128 0
v -32 -128 0
v -64 -160 0
v -96 -160 0
v -96 -128 0
v -64 -128 0
v -96 -160 0
v -128 -160 0
v -128 -128 0
v -96 -128 0
v -128 -160 0
v -160 -160 0
v -160 -128 0
v -128 -128 0
v -160 -160 0
v -192 -160 0
v -192 -128 0
v -160 -128 0
v -192 -160 0
v -224 -160 0
v -224 -128 0
v -192 -128 0
v -224 -160 0
v -256 -160 0
v -256 -128 0
v -224 -128 0
v -256 -160 0
v -288 -160 0
v -288 -128 0
v -256 -128 0
v -288 -160 0
v -320 -160 0
v -320 -128 0
v -288 -128 0
v -320 -160 0
v -352 -160 0
v -352 -128 0
v -320 -128 0
v -352 -160 0
v -384 -160 0
v -384 -128 0
v -352 -128 0
v -384 -160 0
v -416 -160 0
v -416 -128 0
v -384 -128 0
v -416 -160 0
v -448 -160 0
v -448 -128 0
v -416 -128 0
v -448 -160 0
v -480 -160 0
v -480 -128 0
v -448 -128 0
v -480 -160 0
v -512 -160 0
v -512 -128 0
v -480 -128 0
v -512 -160 0
v -544 -160 0
v -544 -128 0
v -512 -128 0
v -544 -160 0
v -576 -160 0
v -576 -128 0
v -544 -128 0
v -576 -160 0
v -608 -160 0
v -608 -128 0
v -576 -128 0
v -608 -160 0
v -640 -160 0
v -640 -128 0
v -608 -128 0
v -672 -160 0
v -704 -160 0
v -704 -128 0
v -672 -128 0
v -704 -160 0
v -736 -160 0
v -736 -128 0
v -704 -128 0
v -736 -160 0
v -768 -160 0
v -768 -128 0
v -736 -128 0
v -768 -160 0
v -800 -160 0
v -800 -128 0
v -768 -128 0
v -800 -160 0
v -832 -160 0
v -832 -128 0
v -800 -128 0
v -832 -160 0
v -864 -160 0
v -864 -128 0
v -832 -128 0
v -864 -160 0
v -896 -160 0
v -896 -128 0
v -864 -128 0
v -896 -160 0
v -928 -160 0
v -928 -128 0
v -896 -128 0
v -928 -160 0
v -960 -160 0
v -960 -128 0
v -928 -128 0
v -960 -160 0
v -992 -160 0
v -992 -128 0
v -960 -128 0
v -128 -192 0
v -160 -192 0
v -160 -160 0
v -128 -160 0
v -160 -224 0
v -192 -224 0
v -192 -192 0
v -160 -192 0
v -608 -224 0
v -640 -224 0
v -640 -192 0
v -608 -192 0
v -640 -224 0
v -672 -224 0
v -672 -192 0
v -640 -192 0
v -672 -224 0
v -704 -224 0
v -704 -192 0
v -672 -192 0
v -704 -224 0
v -736 -224 0
v -736 -192 0
v -704 -192 0
v -608 -256 0
v -640 -256 0
v -640 -224 0
v -608 -224 0
v -640 -256 0
v -672 -256 0
v -672 -224 0
v -640 -224 0
v -672 -256 0
v -704 -256 0
v -704 -224 0
v -672 -224 0
v -768 -256 0
v -800 -256 0
v -800 -224 0
v -768 -224 0
v -832 -352 0
v -864 -352 0
v -864 -320 0
v -832 -320 0
v -864 -352 0
v -896 -352 0
v -896 -320 0
v -864 -320 0
v -32 -384 0
v -64 -384 0
v -64 -352 0
v -32 -352 0
v -64 -384 0
v -96 -384 0
v -96 -352 0
v -64 -352 0
v -96 -384 0
v -128 -384 0
v -128 -352 0
v -96 -352 0
v -128 -384 0
v -160 -384 0
v -160 -352 0
v -128 -352 0
v -160 -384 0
v -192 -384 0
v -192 -352 0
v -160 -352 0
v -224 -384 0
v -256 -384 0
v -256 -352 0
v -224 -352 0
v -256 -384 0
v -288 -384 0
v -288 -352 0
v -256 -352 0
v -288 -384 0
v -320 -384 0
v -320 -352 0
v -288 -352 0
v -320 -384 0
v -352 -384 0
v -352 -352 0
v -320 -352 0
v -352 -384 0
v -384 -384 0
v -384 -352 0
v -352 -352 0
v -512 -384 0
v -544 -384 0
v -544 -352 0
v -512 -352 0
v -544 -384 0
v -576 -384 0
v -576 -352 0
v -544 -352 0
v -576 -384 0
v -608 -384 0
v -608 -352 0
v -576 -352 0
v -608 -384 0
v -640 -384 0
v -640 -352 0
v -608 -352 0
v -640 -384 0
v -672 -384 0
v -672 -352 0
v -640 -352 0
v -672 -384 0
v -704 -384 0
v -704 -352 0
v -672 -352 0
v -704 -384 0
v -736 -384 0
v -736 -352 0
v -704 -352 0
v -736 -384 0
v -768 -384 0
v -768 -352 0
v -736 -352 0
v -832 -384 0
v -864 -384 0
v -864 -352 0
v -832 -352 0
v -864 -384 0
v -896 -384 0
v -896 -352 0
v -864 -352 0
v -32 -416 0
v -64 -416 0
v -64 -384 0
v -32 -384 0
v -64 -416 0
v -96 -416 0
v -96 -384 0
v -64 -384 0
v -96 -416 0
v -128 -416 0
v -128 -384 0
v -96 -384 0
v -128 -416 0
v -160 -416 0
v -160 -384 0
v -128 -384 0
v -160 -416 0
v -192 -416 0
v -192 -384 0
v -160 -384 0
v -224 -416 0
v -256 -416 0
v -256 -384 0
v -224 -384 0
v -256 -416 0
v -288 -416 0
v -288 -384 0
v -256 -384 0
v -288 -416 0
v -320 -416 0
v -320 -384 0
v -288 -384 0
v -320 -416 0
v -352 -416 0
v -352 -384 0
v -320 -384 0
v -352 -416 0
v -384 -416 0
v -384 -384 0
v -352 -384 0
v -512 -416 0
v -544 -416 0
v -544 -384 0
v -512 -384 0
v -544 -416 0
v -576 -416 0
v -576 -384 0
v -544 -384 0
v -576 -416 0
v -608 -416 0
v -608 -384 0
v -576 -384 0
v -608 -416 0
v -640 -416 0
v -640 -384 0
v -608 -384 0
v -640 -416 0
v -672 -416 0
v -672 -384 0
v -640 -384 0
v -672 -416 0
v -704 -416 0
v -704 -384 0
v -672 -384 0
v -704 -416 0
v -736 -416 0
v -736 -384 0
v -704 -384 0
v -736 -416 0
v -768 -416 0
v -768 -384 0
v -736 -384 0
v -32 -448 0
v -64 -448 0
v -64 -416 0
v -32 -416 0
v -64 -448 0
v -96 -448 0
v -96 -416 0
v -64 -416 0
v -96 -448 0
v -128 -448 0
v -128 -416 0
v -96 -416 0
v -128 -448 0
v -160 -448 0
v -160 -416 0
v -128 -416 0
v -160 -448 0
v -192 -448 0
v -192 -416 0
v -160 -416 0
v -224 -448 0
v -256 -448 0
v -256 -416 0
v -224 -416 0
v -256 -448 0
v -288 -448 0
v -288 -416 0
v -256 -416 0
v -288 -448 0
v -320 -448 0
v -320 -416 0
v -288 -416 0
v -320 -448 0
v -352 -448 0
v -352 -416 0
v -320 -416 0
v -352 -448 0
v -384 -448 0
v -384 -416 0
v -352 -416 0
v -128 -480 0
v -160 -480 0
v -160 -448 0
v -128 -448 0
v -128 -512 0
v -160 -512 0
v -160 -480 0
v -128 -480 0
v -96 -544 0
v -128 -544 0
v -128 -512 0
v -96 -512 0
v -128 -544 0
v -160 -544 0
v -160 -512 0
v -128 -512 0
v -128 -576 0
v -160 -576 0
v -160 -544 0
v -128 -544 0
v -352 -672 0
v -384 -672 0
v -384 -640 0
v -352 -640 0
v -384 -672 0
v -416 -672 0
v -416 -640 0
v -384 -640 0
v -416 -672 0
v -448 -672 0
v -448 -640 0
v -416 -640 0
v -448 -672 0
v -480 -672 0
v -480 -640 0
v -448 -640 0
v -480 -672 0
v -512 -672 0
v -512 -640 0
v -480 -640 0
v -512 -672 0
v -544 -672 0
v -544 -640 0
v -512 -640 0
v -544 -672 0
v -576 -672 0
v -576 -640 0
v -544 -640 0
v -576 -672 0
v -608 -672 0
v -608 -640 0
v -576 -640 0
v -608 -672 0
v -640 -672 0
v -640 -640 0
v -608 -640 0
v -640 -672 0
v -672 -672 0
v -672 -640 0
v -640 -640 0
v -672 -672 0
v -704 -672 0
v -704 -640 0
v -672 -640 0
v -704 -672 0
v -736 -672 0
v -736 -640 0
v -704 -640 0
v -736 -672 0
v -768 -672 0
v -768 -640 0
v -736 -640 0
v -768 -672 0
v -800 -672 0
v -800 -640 0
v -768 -640 0
v -800 -672 0
v -832 -672 0
v -832 -640 0
v -800 -640 0
v -832 -672 0
v -864 -672 0
v -864 -640 0
v -832 -640 0
v -864 -672 0
v -896 -672 0
v -896 -640 0
v -864 -640 0
v -896 -672 0
v -928 -672 0
v -928 -640 0
v -896 -640 0
v -928 -672 0
v -960 -672 0
v -960 -640 0
v -928 -640 0
v -960 -672 0
v -992 -672 0
v -992 -640 0
v -960 -640 0
v -32 -704 0
v -64 -704 0
v -64 -672 0
v -32 -672 0
v -352 -704 0
v -384 -704 0
v -384 -672 0
v -352 -672 0
v -384 -704 0
v -416 -704 0
v -416 -672 0
v -384 -672 0
v -416 -704 0
v -448 -704 0
v -448 -672 0
v -416 -672 0
v -448 -704 0
v -480 -704 0
v -480 -672 0
v -448 -672 0
v -480 -704 0
v -512 -704 0
v -512 -672 0
v -480 -672 0
v -512 -704 0
v -544 -704 0
v -544 -672 0
v -512 -672 0
v -544 -704 0
v -576 -704 0
v -576 -672 0
v -544 -672 0
v -576 -704 0
v -608 -704 0
v -608 -672 0
v -576 -672 0
v -608 -704 0
v -640 -704 0
v -640 -672 0
v -608 -672 0
v -640 -704 0
v -672 -704 0
v -672 -672 0
v -640 -672 0
v -672 -704 0
v -704 -704 0
v -704 -672 0
v -672 -672 0
v -704 -704 0
v -736 -704 0
v -736 -672 0
v -704 -672 0
v -736 -704 0
v -768 -704 0
v -768 -672 0
v -736 -672 0
v -768 -704 0
v -800 -704 0
v -800 -672 0
v -768 -672 0
v -800 -704 0
v -832 -704 0
v -832 -672 0
v -800 -672 0
v -832 -704 0
v -864 -704 0
v -864 -672 0
v -832 -672 0
v -864 -704 0
v -896 -704 0
v -896 -672 0
v -864 -672 0
v -896 -704 0
v -928 -704 0
v -928 -672 0
v -896 -672 0
v -928 -704 0
v -960 -704 0
v -960 -672 0
v -928 -672 0
v -960 -704 0
v -992 -704 0
v -992 -672 0
v -960 -672 0
v -960 -736 0
v -992 -736 0
v -992 -704 0
v -960 -704 0
v -928 -768 0
v -960 -768 0
v -960 -736 0
v -928 -736 0
v -960 -768 0
v -992 -768 0
v -992 -736 0
v -960 -736 0
v -64 -800 0
v -96 -800 0
v -96 -768 0
v -64 -768 0
v -960 -800 0
v -992 -800 0
v -992 -768 0
v -960 -768 0
v -960 -832 0
v -992 -832 0
v -992 -800 0
v -960 -800 0
v -160 -896 0
v -192 -896 0
v -192 -864 0
v -160 -864 0
v -192 -896 0
v -224 -896 0
v -224 -864 0
v -192 -864 0
v -224 -896 0
v -256 -896 0
v -256 -864 0
v -224 -864 0
v -256 -896 0
v -288 -896 0
v -288 -864 0
v -256 -864 0
v -288 -896 0
v -320 -896 0
v -320 -864 0
v -288 -864 0
v -320 -896 0
v -352 -896 0
v -352 -864 0
v -320 -864 0
v -352 -896 0
v -384 -896 0
v -384 -864 0
v -352 -864 0
v -384 -896 0
v -416 -896 0
v -416 -864 0
v -384 -864 0
v -416 -896 0
v -448 -896 0
v -448 -864 0
v -416 -864 0
v -448 -896 0
v -480 -896 0
v -480 -864 0
v -448 -864 0
v -480 -896 0
v -512 -896 0
v -512 -864 0
v -480 -864 0
v -512 -896 0
v -544 -896 0
v -544 -864 0
v -512 -864 0
v -544 -896 0
v -576 -896 0
v -576 -864 0
v -544 -864 0
v -576 -896 0
v -608 -896 0
v -608 -864 0
v -576 -864 0
v -608 -896 0
v -640 -896 0
v -640 -864 0
v -608 -864 0
v -640 -896 0
v -672 -896 0
v -672 -864 0
v -640 -864 0
v -672 -896 0
v -704 -896 0
v -704 -864 0
v -672 -864 0
v -704 -896 0
v -736 -896 0
v -736 -864 0
v -704 -864 0
v -736 -896 0
v -768 -896 0
v -768 -864 0
v -736 -864 0
v -768 -896 0
v -800 -896 0
v -800 -864 0
v -768 -864 0
v -800 -896 0
v -832 -896 0
v -832 -864 0
v -800 -864 0
v -64 -928 0
v -96 -928 0
v -96 -896 0
v -64 -896 0
v -160 -928 0
v -192 -928 0
v -192 -896 0
v -160 -896 0
v -192 -928 0
v -224 -928 0
v -224 -896 0
v -192 -896 0
v -224 -928 0
v -256 -928 0
v -256 -896 0
v -224 -896 0
v -256 -928 0
v -288 -928 0
v -288 -896 0
v -256 -896 0
v -288 -928 0
v -320 -928 0
v -320 -896 0
v -288 -896 0
v -320 -928 0
v -352 -928 0
v -352 -896 0
v -320 -896 0
v -352 -928 0
v -384 -928 0
v -384 -896 0
v -352 -896 0
v -384 -928 0
v -416 -928 0
v -416 -896 0
v -384 -896 0
v -416 -928 0
v -448 -928 0
v -448 -896 0
v -416 -896 0
v -448 -928 0
v -480 -928 0
v -480 -896 0
v -448 -896 0
v -480 -928 0
v -512 -928 0
v -512 -896 0
v -480 -896 0
v -512 -928 0
v -544 -928 0
v -544 -896 0
v -512 -896 0
v -544 -928 0
v -576 -928 0
v -576 -896 0
v -544 -896 0
v -576 -928 0
v -608 -928 0
v -608 -896 0
v -576 -896 0
v -608 -928 0
v -640 -928 0
v -640 -896 0
v -608 -896 0
v -640 -928 0
v -672 -928 0
v -672 -896 0
v -640 -896 0
v -672 -928 0
v -704 -928 0
v -704 -896 0
v -672 -896 0
v -704 -928 0
v -736 -928 0
v -736 -896 0
v -704 -896 0
v -736 -928 0
v -768 -928 0
v -768 -896 0
v -736 -896 0
v -768 -928 0
v -800 -928 0
v -800 -896 0
v -768 -896 0
v -800 -928 0
v -832 -928 0
v -832 -896 0
v -800 -896 0
v -64 -960 0
v -96 -960 0
v -96 -928 0
v -64 -928 0
v -64 -992 0
v -96 -992 0
v -96 -960 0
v -64 -960 0

# Texture cooridinates (Count = 34)
vt 0.3333333 0.6666666
vt 0.4166667 0.6666666
vt 0.4166667 0.7777778
vt 0.3333333 0.7777778
vt 0.08333334 0.5555556
vt 0.1666667 0.5555556
vt 0.1666667 0.6666666
vt 0.08333334 0.6666666
vt 0.25 0.6666666
vt 0.25 0.7777778
vt 0.08333334 0.3333333
vt 0.1666667 0.3333333
vt 0.1666667 0.4444444
vt 0.08333334 0.4444444
vt 0.25 0.3333333
vt 0.25 0.4444444
vt 0.08333334 0.2222222
vt 0.1666667 0.2222222
vt 0.25 0.2222222
vt 0.3333333 0.5555556
vt 0.4166667 0.5555556
vt 0.25 0.5555556
vt 0.08333334 0.1111111
vt 0.1666667 0.1111111
vt 0.25 0.1111111
vt 0.08333334 0
vt 0.1666667 0
vt 0 0.5555556
vt 0 0.6666666
vt 0 0.4444444
vt 0 0.7777778
vt 0.08333334 0.7777778
vt 0.08333334 0.8888889
vt 0 0.8888889

# Normal
vn 0 0 -1

# Mesh description
g WestInnercave_mesh_0002

# Faces
f 1/1/1 2/2/1 3/3/1 4/4/1
f 5/5/1 6/6/1 7/7/1 8/8/1
f 9/5/1 10/6/1 11/7/1 12/8/1
f 13/5/1 14/6/1 15/7/1 16/8/1
f 17/5/1 18/6/1 19/7/1 20/8/1
f 21/5/1 22/6/1 23/7/1 24/8/1
f 25/5/1 26/6/1 27/7/1 28/8/1
f 29/5/1 30/6/1 31/7/1 32/8/1
f 33/5/1 34/6/1 35/7/1 36/8/1
f 37/5/1 38/6/1 39/7/1 40/8/1
f 41/5/1 42/6/1 43/7/1 44/8/1
f 45/5/1 46/6/1 47/7/1 48/8/1
f 49/5/1 50/6/1 51/7/1 52/8/1
f 53/5/1 54/6/1 55/7/1 56/8/1
f 57/5/1 58/6/1 59/7/1 60/8/1
f 61/5/1 62/6/1 63/7/1 64/8/1
f 65/5/1 66/6/1 67/7/1 68/8/1
f 69/5/1 70/6/1 71/7/1 72/8/1
f 73/9/1 74/1/1 75/4/1 76/10/1
f 77/1/1 78/2/1 79/3/1 80/4/1
f 81/5/1 82/6/1 83/7/1 84/8/1
f 85/5/1 86/6/1 87/7/1 88/8/1
f 89/5/1 90/6/1 91/7/1 92/8/1
f 93/5/1 94/6/1 95/7/1 96/8/1
f 97/9/1 98/1/1 99/4/1 100/10/1
f 101/1/1 102/2/1 103/3/1 104/4/1
f 105/11/1 106/12/1 107/13/1 108/14/1
f 109/12/1 110/15/1 111/16/1 112/13/1
f 113/9/1 114/1/1 115/4/1 116/10/1
f 117/1/1 118/2/1 119/3/1 120/4/1
f 121/5/1 122/6/1 123/7/1 124/8/1
f 125/5/1 126/6/1 127/7/1 128/8/1
f 129/5/1 130/6/1 131/7/1 132/8/1
f 133/5/1 134/6/1 135/7/1 136/8/1
f 137/5/1 138/6/1 139/7/1 140/8/1
f 141/5/1 142/6/1 143/7/1 144/8/1
f 145/5/1 146/6/1 147/7/1 148/8/1
f 149/5/1 150/6/1 151/7/1 152/8/1
f 153/5/1 154/6/1 155/7/1 156/8/1
f 157/5/1 158/6/1 159/7/1 160/8/1
f 161/5/1 162/6/1 163/7/1 164/8/1
f 165/5/1 166/6/1 167/7/1 168/8/1
f 169/5/1 170/6/1 171/7/1 172/8/1
f 173/5/1 174/6/1 175/7/1 176/8/1
f 177/5/1 178/6/1 179/7/1 180/8/1
f 181/5/1 182/6/1 183/7/1 184/8/1
f 185/5/1 186/6/1 187/7/1 188/8/1
f 189/9/1 190/1/1 191/4/1 192/10/1
f 193/1/1 194/2/1 195/3/1 196/4/1
f 197/5/1 198/6/1 199/7/1 200/8/1
f 201/5/1 202/6/1 203/7/1 204/8/1
f 205/5/1 206/6/1 207/7/1 208/8/1
f 209/5/1 210/6/1 211/7/1 212/8/1
f 213/9/1 214/1/1 215/4/1 216/10/1
f 217/1/1 218/2/1 219/3/1 220/4/1
f 221/17/1 222/18/1 223/12/1 224/11/1
f 225/18/1 226/19/1 227/15/1 228/12/1
f 229/9/1 230/1/1 231/4/1 232/10/1
f 233/20/1 234/21/1 235/2/1 236/1/1
f 237/14/1 238/13/1 239/6/1 240/5/1
f 241/14/1 242/13/1 243/6/1 244/5/1
f 245/14/1 246/13/1 247/6/1 248/5/1
f 249/14/1 250/13/1 251/6/1 252/5/1
f 253/14/1 254/13/1 255/6/1 256/5/1
f 257/14/1 258/13/1 259/6/1 260/5/1
f 261/14/1 262/13/1 263/6/1 264/5/1
f 265/14/1 266/13/1 267/6/1 268/5/1
f 269/14/1 270/13/1 271/6/1 272/5/1
f 273/14/1 274/13/1 275/6/1 276/5/1
f 277/14/1 278/13/1 279/6/1 280/5/1
f 281/14/1 282/13/1 283/6/1 284/5/1
f 285/14/1 286/13/1 287/6/1 288/5/1
f 289/14/1 290/13/1 291/6/1 292/5/1
f 293/14/1 294/13/1 295/6/1 296/5/1
f 297/14/1 298/13/1 299/6/1 300/5/1
f 301/14/1 302/13/1 303/6/1 304/5/1
f 305/22/1 306/20/1 307/1/1 308/9/1
f 309/20/1 310/21/1 311/2/1 312/1/1
f 313/14/1 314/13/1 315/6/1 316/5/1
f 317/14/1 318/13/1 319/6/1 320/5/1
f 321/14/1 322/13/1 323/6/1 324/5/1
f 325/14/1 326/13/1 327/6/1 328/5/1
f 329/22/1 330/20/1 331/1/1 332/9/1
f 333/20/1 334/21/1 335/2/1 336/1/1
f 337/23/1 338/24/1 339/18/1 340/17/1
f 341/24/1 342/25/1 343/19/1 344/18/1
f 345/22/1 346/20/1 347/1/1 348/9/1
f 349/26/1 350/27/1 351/24/1 352/23/1
f 353/26/1 354/27/1 355/24/1 356/23/1
f 357/28/1 358/5/1 359/8/1 360/29/1
f 361/5/1 362/6/1 363/7/1 364/8/1
f 365/6/1 366/22/1 367/9/1 368/7/1
f 369/26/1 370/27/1 371/24/1 372/23/1
f 373/30/1 374/14/1 375/5/1 376/28/1
f 377/14/1 378/13/1 379/6/1 380/5/1
f 381/13/1 382/16/1 383/22/1 384/6/1
f 385/26/1 386/27/1 387/24/1 388/23/1
f 389/28/1 390/5/1 391/8/1 392/29/1
f 393/6/1 394/22/1 395/9/1 396/7/1
f 397/1/1 398/2/1 399/3/1 400/4/1
f 401/5/1 402/6/1 403/7/1 404/8/1
f 405/5/1 406/6/1 407/7/1 408/8/1
f 409/5/1 410/6/1 411/7/1 412/8/1
f 413/9/1 414/1/1 415/4/1 416/10/1
f 417/1/1 418/2/1 419/3/1 420/4/1
f 421/5/1 422/6/1 423/7/1 424/8/1
f 425/5/1 426/6/1 427/7/1 428/8/1
f 429/5/1 430/6/1 431/7/1 432/8/1
f 433/6/1 434/22/1 435/9/1 436/7/1
f 437/1/1 438/2/1 439/3/1 440/4/1
f 441/5/1 442/6/1 443/7/1 444/8/1
f 445/5/1 446/6/1 447/7/1 448/8/1
f 449/5/1 450/6/1 451/7/1 452/8/1
f 453/5/1 454/6/1 455/7/1 456/8/1
f 457/5/1 458/6/1 459/7/1 460/8/1
f 461/5/1 462/6/1 463/7/1 464/8/1
f 465/6/1 466/22/1 467/9/1 468/7/1
f 469/30/1 470/14/1 471/5/1 472/28/1
f 473/13/1 474/16/1 475/22/1 476/6/1
f 477/1/1 478/2/1 479/3/1 480/4/1
f 481/5/1 482/6/1 483/7/1 484/8/1
f 485/5/1 486/6/1 487/7/1 488/8/1
f 489/5/1 490/6/1 491/7/1 492/8/1
f 493/9/1 494/1/1 495/4/1 496/10/1
f 497/1/1 498/2/1 499/3/1 500/4/1
f 501/5/1 502/6/1 503/7/1 504/8/1
f 505/5/1 506/6/1 507/7/1 508/8/1
f 509/5/1 510/6/1 511/7/1 512/8/1
f 513/6/1 514/22/1 515/9/1 516/7/1
f 517/20/1 518/21/1 519/2/1 520/1/1
f 521/14/1 522/13/1 523/6/1 524/5/1
f 525/14/1 526/13/1 527/6/1 528/5/1
f 529/14/1 530/13/1 531/6/1 532/5/1
f 533/14/1 534/13/1 535/6/1 536/5/1
f 537/14/1 538/13/1 539/6/1 540/5/1
f 541/14/1 542/13/1 543/6/1 544/5/1
f 545/13/1 546/16/1 547/22/1 548/6/1
f 549/20/1 550/21/1 551/2/1 552/1/1
f 553/14/1 554/13/1 555/6/1 556/5/1
f 557/14/1 558/13/1 559/6/1 560/5/1
f 561/14/1 562/13/1 563/6/1 564/5/1
f 565/22/1 566/20/1 567/1/1 568/9/1
f 569/20/1 570/21/1 571/2/1 572/1/1
f 573/14/1 574/13/1 575/6/1 576/5/1
f 577/14/1 578/13/1 579/6/1 580/5/1
f 581/14/1 582/13/1 583/6/1 584/5/1
f 585/13/1 586/16/1 587/22/1 588/6/1
f 589/26/1 590/27/1 591/24/1 592/23/1
f 593/26/1 594/27/1 595/24/1 596/23/1
f 597/26/1 598/27/1 599/24/1 600/23/1
f 601/26/1 602/27/1 603/24/1 604/23/1
f 605/26/1 606/27/1 607/24/1 608/23/1
f 609/28/1 610/5/1 611/8/1 612/29/1
f 613/5/1 614/6/1 615/7/1 616/8/1
f 617/5/1 618/6/1 619/7/1 620/8/1
f 621/5/1 622/6/1 623/7/1 624/8/1
f 625/5/1 626/6/1 627/7/1 628/8/1
f 629/5/1 630/6/1 631/7/1 632/8/1
f 633/5/1 634/6/1 635/7/1 636/8/1
f 637/5/1 638/6/1 639/7/1 640/8/1
f 641/5/1 642/6/1 643/7/1 644/8/1
f 645/5/1 646/6/1 647/7/1 648/8/1
f 649/5/1 650/6/1 651/7/1 652/8/1
f 653/5/1 654/6/1 655/7/1 656/8/1
f 657/5/1 658/6/1 659/7/1 660/8/1
f 661/5/1 662/6/1 663/7/1 664/8/1
f 665/5/1 666/6/1 667/7/1 668/8/1
f 669/5/1 670/6/1 671/7/1 672/8/1
f 673/5/1 674/6/1 675/7/1 676/8/1
f 677/5/1 678/6/1 679/7/1 680/8/1
f 681/5/1 682/6/1 683/7/1 684/8/1
f 685/9/1 686/1/1 687/4/1 688/10/1
f 689/26/1 690/27/1 691/24/1 692/23/1
f 693/30/1 694/14/1 695/5/1 696/28/1
f 697/14/1 698/13/1 699/6/1 700/5/1
f 701/14/1 702/13/1 703/6/1 704/5/1
f 705/14/1 706/13/1 707/6/1 708/5/1
f 709/14/1 710/13/1 711/6/1 712/5/1
f 713/14/1 714/13/1 715/6/1 716/5/1
f 717/14/1 718/13/1 719/6/1 720/5/1
f 721/14/1 722/13/1 723/6/1 724/5/1
f 725/14/1 726/13/1 727/6/1 728/5/1
f 729/14/1 730/13/1 731/6/1 732/5/1
f 733/14/1 734/13/1 735/6/1 736/5/1
f 737/14/1 738/13/1 739/6/1 740/5/1
f 741/14/1 742/13/1 743/6/1 744/5/1
f 745/14/1 746/13/1 747/6/1 748/5/1
f 749/14/1 750/13/1 751/6/1 752/5/1
f 753/14/1 754/13/1 755/6/1 756/5/1
f 757/14/1 758/13/1 759/6/1 760/5/1
f 761/14/1 762/13/1 763/6/1 764/5/1
f 765/14/1 766/13/1 767/6/1 768/5/1
f 769/22/1 770/20/1 771/1/1 772/9/1
f 773/31/1 774/32/1 775/33/1 776/34/1
f 777/26/1 778/27/1 779/24/1 780/23/1
f 781/29/1 782/8/1 783/32/1 784/31/1
f 785/26/1 786/27/1 787/24/1 788/23/1
f 789/28/1 790/5/1 791/8/1 792/29/1
f 793/30/1 794/14/1 795/5/1 796/28/1
f 797/28/1 798/5/1 799/8/1 800/29/1
f 801/5/1 802/6/1 803/7/1 804/8/1
f 805/5/1 806/6/1 807/7/1 808/8/1
f 809/5/1 810/6/1 811/7/1 812/8/1
f 813/5/1 814/6/1 815/7/1 816/8/1
f 817/5/1 818/6/1 819/7/1 820/8/1
f 821/5/1 822/6/1 823/7/1 824/8/1
f 825/5/1 826/6/1 827/7/1 828/8/1
f 829/5/1 830/6/1 831/7/1 832/8/1
f 833/5/1 834/6/1 835/7/1 836/8/1
f 837/5/1 838/6/1 839/7/1 840/8/1
f 841/5/1 842/6/1 843/7/1 844/8/1
f 845/5/1 846/6/1 847/7/1 848/8/1
f 849/5/1 850/6/1 851/7/1 852/8/1
f 853/5/1 854/6/1 855/7/1 856/8/1
f 857/5/1 858/6/1 859/7/1 860/8/1
f 861/5/1 862/6/1 863/7/1 864/8/1
f 865/5/1 866/6/1 867/7/1 868/8/1
f 869/5/1 870/6/1 871/7/1 872/8/1
f 873/5/1 874/6/1 875/7/1 876/8/1
f 877/6/1 878/22/1 879/9/1 880/7/1
f 881/26/1 882/27/1 883/24/1 884/23/1
f 885/30/1 886/14/1 887/5/1 888/28/1
f 889/14/1 890/13/1 891/6/1 892/5/1
f 893/14/1 894/13/1 895/6/1 896/5/1
f 897/14/1 898/13/1 899/6/1 900/5/1
f 901/14/1 902/13/1 903/6/1 904/5/1
f 905/14/1 906/13/1 907/6/1 908/5/1
f 909/14/1 910/13/1 911/6/1 912/5/1
f 913/14/1 914/13/1 915/6/1 916/5/1
f 917/14/1 918/13/1 919/6/1 920/5/1
f 921/14/1 922/13/1 923/6/1 924/5/1
f 925/14/1 926/13/1 927/6/1 928/5/1
f 929/14/1 930/13/1 931/6/1 932/5/1
f 933/14/1 934/13/1 935/6/1 936/5/1
f 937/14/1 938/13/1 939/6/1 940/5/1
f 941/14/1 942/13/1 943/6/1 944/5/1
f 945/14/1 946/13/1 947/6/1 948/5/1
f 949/14/1 950/13/1 951/6/1 952/5/1
f 953/14/1 954/13/1 955/6/1 956/5/1
f 957/14/1 958/13/1 959/6/1 960/5/1
f 961/14/1 962/13/1 963/6/1 964/5/1
f 965/13/1 966/16/1 967/22/1 968/6/1
f 969/26/1 970/27/1 971/24/1 972/23/1
f 973/26/1 974/27/1 975/24/1 976/23/1

