# Tiled2Unity generated file. Do not modify by hand.
# Wavefront file for 'samalsettlement_mesh_0007.obj'

# Vertices (Count = 112)
v -448 -704 0
v -480 -704 0
v -480 -672 0
v -448 -672 0
v -480 -704 0
v -512 -704 0
v -512 -672 0
v -480 -672 0
v -896 -704 0
v -928 -704 0
v -928 -672 0
v -896 -672 0
v -928 -704 0
v -960 -704 0
v -960 -672 0
v -928 -672 0
v -448 -736 0
v -480 -736 0
v -480 -704 0
v -448 -704 0
v -480 -736 0
v -512 -736 0
v -512 -704 0
v -480 -704 0
v -896 -736 0
v -928 -736 0
v -928 -704 0
v -896 -704 0
v -928 -736 0
v -960 -736 0
v -960 -704 0
v -928 -704 0
v -1088 -896 0
v -1120 -896 0
v -1120 -864 0
v -1088 -864 0
v -1120 -896 0
v -1152 -896 0
v -1152 -864 0
v -1120 -864 0
v -1088 -928 0
v -1120 -928 0
v -1120 -896 0
v -1088 -896 0
v -1120 -928 0
v -1152 -928 0
v -1152 -896 0
v -1120 -896 0
v -416 -1088 0
v -448 -1088 0
v -448 -1056 0
v -416 -1056 0
v -448 -1088 0
v -480 -1088 0
v -480 -1056 0
v -448 -1056 0
v -416 -1120 0
v -448 -1120 0
v -448 -1088 0
v -416 -1088 0
v -448 -1120 0
v -480 -1120 0
v -480 -1088 0
v -448 -1088 0
v -1184 -1216 0
v -1216 -1216 0
v -1216 -1184 0
v -1184 -1184 0
v -1216 -1216 0
v -1248 -1216 0
v -1248 -1184 0
v -1216 -1184 0
v -1184 -1248 0
v -1216 -1248 0
v -1216 -1216 0
v -1184 -1216 0
v -1216 -1248 0
v -1248 -1248 0
v -1248 -1216 0
v -1216 -1216 0
v -672 -1344 0
v -704 -1344 0
v -704 -1312 0
v -672 -1312 0
v -704 -1344 0
v -736 -1344 0
v -736 -1312 0
v -704 -1312 0
v -672 -1376 0
v -704 -1376 0
v -704 -1344 0
v -672 -1344 0
v -704 -1376 0
v -736 -1376 0
v -736 -1344 0
v -704 -1344 0
v -1088 -1440 0
v -1120 -1440 0
v -1120 -1408 0
v -1088 -1408 0
v -1120 -1440 0
v -1152 -1440 0
v -1152 -1408 0
v -1120 -1408 0
v -1088 -1472 0
v -1120 -1472 0
v -1120 -1440 0
v -1088 -1440 0
v -1120 -1472 0
v -1152 -1472 0
v -1152 -1440 0
v -1120 -1440 0

# Texture cooridinates (Count = 9)
vt 0.75 0.3125
vt 0.78125 0.3125
vt 0.78125 0.34375
vt 0.75 0.34375
vt 0.8125 0.3125
vt 0.8125 0.34375
vt 0.75 0.28125
vt 0.78125 0.28125
vt 0.8125 0.28125

# Normal
vn 0 0 -1

# Mesh description
g samalsettlement_mesh_0007

# Faces
f 1/1/1 2/2/1 3/3/1 4/4/1
f 5/2/1 6/5/1 7/6/1 8/3/1
f 9/1/1 10/2/1 11/3/1 12/4/1
f 13/2/1 14/5/1 15/6/1 16/3/1
f 17/7/1 18/8/1 19/2/1 20/1/1
f 21/8/1 22/9/1 23/5/1 24/2/1
f 25/7/1 26/8/1 27/2/1 28/1/1
f 29/8/1 30/9/1 31/5/1 32/2/1
f 33/1/1 34/2/1 35/3/1 36/4/1
f 37/2/1 38/5/1 39/6/1 40/3/1
f 41/7/1 42/8/1 43/2/1 44/1/1
f 45/8/1 46/9/1 47/5/1 48/2/1
f 49/1/1 50/2/1 51/3/1 52/4/1
f 53/2/1 54/5/1 55/6/1 56/3/1
f 57/7/1 58/8/1 59/2/1 60/1/1
f 61/8/1 62/9/1 63/5/1 64/2/1
f 65/1/1 66/2/1 67/3/1 68/4/1
f 69/2/1 70/5/1 71/6/1 72/3/1
f 73/7/1 74/8/1 75/2/1 76/1/1
f 77/8/1 78/9/1 79/5/1 80/2/1
f 81/1/1 82/2/1 83/3/1 84/4/1
f 85/2/1 86/5/1 87/6/1 88/3/1
f 89/7/1 90/8/1 91/2/1 92/1/1
f 93/8/1 94/9/1 95/5/1 96/2/1
f 97/1/1 98/2/1 99/3/1 100/4/1
f 101/2/1 102/5/1 103/6/1 104/3/1
f 105/7/1 106/8/1 107/2/1 108/1/1
f 109/8/1 110/9/1 111/5/1 112/2/1

