# Tiled2Unity generated file. Do not modify by hand.
# Wavefront file for 'samalsettlement_mesh_0006.obj'

# Vertices (Count = 724)
v -736 -352 0
v -768 -352 0
v -768 -320 0
v -736 -320 0
v -768 -352 0
v -800 -352 0
v -800 -320 0
v -768 -320 0
v -800 -352 0
v -832 -352 0
v -832 -320 0
v -800 -320 0
v -832 -352 0
v -864 -352 0
v -864 -320 0
v -832 -320 0
v -864 -352 0
v -896 -352 0
v -896 -320 0
v -864 -320 0
v -320 -384 0
v -352 -384 0
v -352 -352 0
v -320 -352 0
v -352 -384 0
v -384 -384 0
v -384 -352 0
v -352 -352 0
v -384 -384 0
v -416 -384 0
v -416 -352 0
v -384 -352 0
v -416 -384 0
v -448 -384 0
v -448 -352 0
v -416 -352 0
v -448 -384 0
v -480 -384 0
v -480 -352 0
v -448 -352 0
v -736 -384 0
v -768 -384 0
v -768 -352 0
v -736 -352 0
v -768 -384 0
v -800 -384 0
v -800 -352 0
v -768 -352 0
v -800 -384 0
v -832 -384 0
v -832 -352 0
v -800 -352 0
v -832 -384 0
v -864 -384 0
v -864 -352 0
v -832 -352 0
v -864 -384 0
v -896 -384 0
v -896 -352 0
v -864 -352 0
v -320 -416 0
v -352 -416 0
v -352 -384 0
v -320 -384 0
v -352 -416 0
v -384 -416 0
v -384 -384 0
v -352 -384 0
v -384 -416 0
v -416 -416 0
v -416 -384 0
v -384 -384 0
v -416 -416 0
v -448 -416 0
v -448 -384 0
v -416 -384 0
v -448 -416 0
v -480 -416 0
v -480 -384 0
v -448 -384 0
v -736 -416 0
v -768 -416 0
v -768 -384 0
v -736 -384 0
v -768 -416 0
v -800 -416 0
v -800 -384 0
v -768 -384 0
v -800 -416 0
v -832 -416 0
v -832 -384 0
v -800 -384 0
v -832 -416 0
v -864 -416 0
v -864 -384 0
v -832 -384 0
v -864 -416 0
v -896 -416 0
v -896 -384 0
v -864 -384 0
v -320 -448 0
v -352 -448 0
v -352 -416 0
v -320 -416 0
v -352 -448 0
v -384 -448 0
v -384 -416 0
v -352 -416 0
v -384 -448 0
v -416 -448 0
v -416 -416 0
v -384 -416 0
v -416 -448 0
v -448 -448 0
v -448 -416 0
v -416 -416 0
v -448 -448 0
v -480 -448 0
v -480 -416 0
v -448 -416 0
v -736 -448 0
v -768 -448 0
v -768 -416 0
v -736 -416 0
v -768 -448 0
v -800 -448 0
v -800 -416 0
v -768 -416 0
v -800 -448 0
v -832 -448 0
v -832 -416 0
v -800 -416 0
v -832 -448 0
v -864 -448 0
v -864 -416 0
v -832 -416 0
v -864 -448 0
v -896 -448 0
v -896 -416 0
v -864 -416 0
v -320 -480 0
v -352 -480 0
v -352 -448 0
v -320 -448 0
v -352 -480 0
v -384 -480 0
v -384 -448 0
v -352 -448 0
v -384 -480 0
v -416 -480 0
v -416 -448 0
v -384 -448 0
v -416 -480 0
v -448 -480 0
v -448 -448 0
v -416 -448 0
v -448 -480 0
v -480 -480 0
v -480 -448 0
v -448 -448 0
v -1024 -640 0
v -1056 -640 0
v -1056 -608 0
v -1024 -608 0
v -1056 -640 0
v -1088 -640 0
v -1088 -608 0
v -1056 -608 0
v -1088 -640 0
v -1120 -640 0
v -1120 -608 0
v -1088 -608 0
v -1120 -640 0
v -1152 -640 0
v -1152 -608 0
v -1120 -608 0
v -1152 -640 0
v -1184 -640 0
v -1184 -608 0
v -1152 -608 0
v -1024 -672 0
v -1056 -672 0
v -1056 -640 0
v -1024 -640 0
v -1056 -672 0
v -1088 -672 0
v -1088 -640 0
v -1056 -640 0
v -1088 -672 0
v -1120 -672 0
v -1120 -640 0
v -1088 -640 0
v -1120 -672 0
v -1152 -672 0
v -1152 -640 0
v -1120 -640 0
v -1152 -672 0
v -1184 -672 0
v -1184 -640 0
v -1152 -640 0
v -224 -704 0
v -256 -704 0
v -256 -672 0
v -224 -672 0
v -256 -704 0
v -288 -704 0
v -288 -672 0
v -256 -672 0
v -288 -704 0
v -320 -704 0
v -320 -672 0
v -288 -672 0
v -320 -704 0
v -352 -704 0
v -352 -672 0
v -320 -672 0
v -352 -704 0
v -384 -704 0
v -384 -672 0
v -352 -672 0
v -1024 -704 0
v -1056 -704 0
v -1056 -672 0
v -1024 -672 0
v -1056 -704 0
v -1088 -704 0
v -1088 -672 0
v -1056 -672 0
v -1088 -704 0
v -1120 -704 0
v -1120 -672 0
v -1088 -672 0
v -1120 -704 0
v -1152 -704 0
v -1152 -672 0
v -1120 -672 0
v -1152 -704 0
v -1184 -704 0
v -1184 -672 0
v -1152 -672 0
v -224 -736 0
v -256 -736 0
v -256 -704 0
v -224 -704 0
v -256 -736 0
v -288 -736 0
v -288 -704 0
v -256 -704 0
v -288 -736 0
v -320 -736 0
v -320 -704 0
v -288 -704 0
v -320 -736 0
v -352 -736 0
v -352 -704 0
v -320 -704 0
v -352 -736 0
v -384 -736 0
v -384 -704 0
v -352 -704 0
v -1024 -736 0
v -1056 -736 0
v -1056 -704 0
v -1024 -704 0
v -1056 -736 0
v -1088 -736 0
v -1088 -704 0
v -1056 -704 0
v -1088 -736 0
v -1120 -736 0
v -1120 -704 0
v -1088 -704 0
v -1120 -736 0
v -1152 -736 0
v -1152 -704 0
v -1120 -704 0
v -1152 -736 0
v -1184 -736 0
v -1184 -704 0
v -1152 -704 0
v -224 -768 0
v -256 -768 0
v -256 -736 0
v -224 -736 0
v -256 -768 0
v -288 -768 0
v -288 -736 0
v -256 -736 0
v -288 -768 0
v -320 -768 0
v -320 -736 0
v -288 -736 0
v -320 -768 0
v -352 -768 0
v -352 -736 0
v -320 -736 0
v -352 -768 0
v -384 -768 0
v -384 -736 0
v -352 -736 0
v -224 -800 0
v -256 -800 0
v -256 -768 0
v -224 -768 0
v -256 -800 0
v -288 -800 0
v -288 -768 0
v -256 -768 0
v -288 -800 0
v -320 -800 0
v -320 -768 0
v -288 -768 0
v -320 -800 0
v -352 -800 0
v -352 -768 0
v -320 -768 0
v -352 -800 0
v -384 -800 0
v -384 -768 0
v -352 -768 0
v -1344 -864 0
v -1376 -864 0
v -1376 -832 0
v -1344 -832 0
v -1280 -896 0
v -1312 -896 0
v -1312 -864 0
v -1280 -864 0
v -1312 -896 0
v -1344 -896 0
v -1344 -864 0
v -1312 -864 0
v -1344 -896 0
v -1376 -896 0
v -1376 -864 0
v -1344 -864 0
v -1376 -896 0
v -1408 -896 0
v -1408 -864 0
v -1376 -864 0
v -1408 -896 0
v -1440 -896 0
v -1440 -864 0
v -1408 -864 0
v -1280 -928 0
v -1312 -928 0
v -1312 -896 0
v -1280 -896 0
v -1312 -928 0
v -1344 -928 0
v -1344 -896 0
v -1312 -896 0
v -1344 -928 0
v -1376 -928 0
v -1376 -896 0
v -1344 -896 0
v -1376 -928 0
v -1408 -928 0
v -1408 -896 0
v -1376 -896 0
v -1408 -928 0
v -1440 -928 0
v -1440 -896 0
v -1408 -896 0
v -1280 -960 0
v -1312 -960 0
v -1312 -928 0
v -1280 -928 0
v -1312 -960 0
v -1344 -960 0
v -1344 -928 0
v -1312 -928 0
v -1344 -960 0
v -1376 -960 0
v -1376 -928 0
v -1344 -928 0
v -1376 -960 0
v -1408 -960 0
v -1408 -928 0
v -1376 -928 0
v -1408 -960 0
v -1440 -960 0
v -1440 -928 0
v -1408 -928 0
v -1280 -992 0
v -1312 -992 0
v -1312 -960 0
v -1280 -960 0
v -1312 -992 0
v -1344 -992 0
v -1344 -960 0
v -1312 -960 0
v -1344 -992 0
v -1376 -992 0
v -1376 -960 0
v -1344 -960 0
v -1376 -992 0
v -1408 -992 0
v -1408 -960 0
v -1376 -960 0
v -1408 -992 0
v -1440 -992 0
v -1440 -960 0
v -1408 -960 0
v -224 -1088 0
v -256 -1088 0
v -256 -1056 0
v -224 -1056 0
v -256 -1088 0
v -288 -1088 0
v -288 -1056 0
v -256 -1056 0
v -288 -1088 0
v -320 -1088 0
v -320 -1056 0
v -288 -1056 0
v -320 -1088 0
v -352 -1088 0
v -352 -1056 0
v -320 -1056 0
v -352 -1088 0
v -384 -1088 0
v -384 -1056 0
v -352 -1056 0
v -224 -1120 0
v -256 -1120 0
v -256 -1088 0
v -224 -1088 0
v -256 -1120 0
v -288 -1120 0
v -288 -1088 0
v -256 -1088 0
v -288 -1120 0
v -320 -1120 0
v -320 -1088 0
v -288 -1088 0
v -320 -1120 0
v -352 -1120 0
v -352 -1088 0
v -320 -1088 0
v -352 -1120 0
v -384 -1120 0
v -384 -1088 0
v -352 -1088 0
v -1280 -1120 0
v -1312 -1120 0
v -1312 -1088 0
v -1280 -1088 0
v -1312 -1120 0
v -1344 -1120 0
v -1344 -1088 0
v -1312 -1088 0
v -1344 -1120 0
v -1376 -1120 0
v -1376 -1088 0
v -1344 -1088 0
v -1376 -1120 0
v -1408 -1120 0
v -1408 -1088 0
v -1376 -1088 0
v -1408 -1120 0
v -1440 -1120 0
v -1440 -1088 0
v -1408 -1088 0
v -224 -1152 0
v -256 -1152 0
v -256 -1120 0
v -224 -1120 0
v -256 -1152 0
v -288 -1152 0
v -288 -1120 0
v -256 -1120 0
v -288 -1152 0
v -320 -1152 0
v -320 -1120 0
v -288 -1120 0
v -320 -1152 0
v -352 -1152 0
v -352 -1120 0
v -320 -1120 0
v -352 -1152 0
v -384 -1152 0
v -384 -1120 0
v -352 -1120 0
v -1280 -1152 0
v -1312 -1152 0
v -1312 -1120 0
v -1280 -1120 0
v -1312 -1152 0
v -1344 -1152 0
v -1344 -1120 0
v -1312 -1120 0
v -1344 -1152 0
v -1376 -1152 0
v -1376 -1120 0
v -1344 -1120 0
v -1376 -1152 0
v -1408 -1152 0
v -1408 -1120 0
v -1376 -1120 0
v -1408 -1152 0
v -1440 -1152 0
v -1440 -1120 0
v -1408 -1120 0
v -224 -1184 0
v -256 -1184 0
v -256 -1152 0
v -224 -1152 0
v -256 -1184 0
v -288 -1184 0
v -288 -1152 0
v -256 -1152 0
v -288 -1184 0
v -320 -1184 0
v -320 -1152 0
v -288 -1152 0
v -320 -1184 0
v -352 -1184 0
v -352 -1152 0
v -320 -1152 0
v -352 -1184 0
v -384 -1184 0
v -384 -1152 0
v -352 -1152 0
v -1280 -1184 0
v -1312 -1184 0
v -1312 -1152 0
v -1280 -1152 0
v -1312 -1184 0
v -1344 -1184 0
v -1344 -1152 0
v -1312 -1152 0
v -1344 -1184 0
v -1376 -1184 0
v -1376 -1152 0
v -1344 -1152 0
v -1376 -1184 0
v -1408 -1184 0
v -1408 -1152 0
v -1376 -1152 0
v -1408 -1184 0
v -1440 -1184 0
v -1440 -1152 0
v -1408 -1152 0
v -1280 -1216 0
v -1312 -1216 0
v -1312 -1184 0
v -1280 -1184 0
v -1312 -1216 0
v -1344 -1216 0
v -1344 -1184 0
v -1312 -1184 0
v -1344 -1216 0
v -1376 -1216 0
v -1376 -1184 0
v -1344 -1184 0
v -1376 -1216 0
v -1408 -1216 0
v -1408 -1184 0
v -1376 -1184 0
v -1408 -1216 0
v -1440 -1216 0
v -1440 -1184 0
v -1408 -1184 0
v -512 -1344 0
v -544 -1344 0
v -544 -1312 0
v -512 -1312 0
v -544 -1344 0
v -576 -1344 0
v -576 -1312 0
v -544 -1312 0
v -576 -1344 0
v -608 -1344 0
v -608 -1312 0
v -576 -1312 0
v -608 -1344 0
v -640 -1344 0
v -640 -1312 0
v -608 -1312 0
v -640 -1344 0
v -672 -1344 0
v -672 -1312 0
v -640 -1312 0
v -512 -1376 0
v -544 -1376 0
v -544 -1344 0
v -512 -1344 0
v -544 -1376 0
v -576 -1376 0
v -576 -1344 0
v -544 -1344 0
v -576 -1376 0
v -608 -1376 0
v -608 -1344 0
v -576 -1344 0
v -608 -1376 0
v -640 -1376 0
v -640 -1344 0
v -608 -1344 0
v -640 -1376 0
v -672 -1376 0
v -672 -1344 0
v -640 -1344 0
v -1184 -1376 0
v -1216 -1376 0
v -1216 -1344 0
v -1184 -1344 0
v -1216 -1376 0
v -1248 -1376 0
v -1248 -1344 0
v -1216 -1344 0
v -1248 -1376 0
v -1280 -1376 0
v -1280 -1344 0
v -1248 -1344 0
v -1280 -1376 0
v -1312 -1376 0
v -1312 -1344 0
v -1280 -1344 0
v -1312 -1376 0
v -1344 -1376 0
v -1344 -1344 0
v -1312 -1344 0
v -512 -1408 0
v -544 -1408 0
v -544 -1376 0
v -512 -1376 0
v -544 -1408 0
v -576 -1408 0
v -576 -1376 0
v -544 -1376 0
v -576 -1408 0
v -608 -1408 0
v -608 -1376 0
v -576 -1376 0
v -608 -1408 0
v -640 -1408 0
v -640 -1376 0
v -608 -1376 0
v -640 -1408 0
v -672 -1408 0
v -672 -1376 0
v -640 -1376 0
v -1184 -1408 0
v -1216 -1408 0
v -1216 -1376 0
v -1184 -1376 0
v -1216 -1408 0
v -1248 -1408 0
v -1248 -1376 0
v -1216 -1376 0
v -1248 -1408 0
v -1280 -1408 0
v -1280 -1376 0
v -1248 -1376 0
v -1280 -1408 0
v -1312 -1408 0
v -1312 -1376 0
v -1280 -1376 0
v -1312 -1408 0
v -1344 -1408 0
v -1344 -1376 0
v -1312 -1376 0
v -512 -1440 0
v -544 -1440 0
v -544 -1408 0
v -512 -1408 0
v -544 -1440 0
v -576 -1440 0
v -576 -1408 0
v -544 -1408 0
v -576 -1440 0
v -608 -1440 0
v -608 -1408 0
v -576 -1408 0
v -608 -1440 0
v -640 -1440 0
v -640 -1408 0
v -608 -1408 0
v -640 -1440 0
v -672 -1440 0
v -672 -1408 0
v -640 -1408 0
v -1184 -1440 0
v -1216 -1440 0
v -1216 -1408 0
v -1184 -1408 0
v -1216 -1440 0
v -1248 -1440 0
v -1248 -1408 0
v -1216 -1408 0
v -1248 -1440 0
v -1280 -1440 0
v -1280 -1408 0
v -1248 -1408 0
v -1280 -1440 0
v -1312 -1440 0
v -1312 -1408 0
v -1280 -1408 0
v -1312 -1440 0
v -1344 -1440 0
v -1344 -1408 0
v -1312 -1408 0
v -1184 -1472 0
v -1216 -1472 0
v -1216 -1440 0
v -1184 -1440 0
v -1216 -1472 0
v -1248 -1472 0
v -1248 -1440 0
v -1216 -1440 0
v -1248 -1472 0
v -1280 -1472 0
v -1280 -1440 0
v -1248 -1440 0
v -1280 -1472 0
v -1312 -1472 0
v -1312 -1440 0
v -1280 -1440 0
v -1312 -1472 0
v -1344 -1472 0
v -1344 -1440 0
v -1312 -1440 0

# Texture cooridinates (Count = 34)
vt 0.125 0.9375
vt 0.1875 0.9375
vt 0.1875 1
vt 0.125 1
vt 0.25 0.9375
vt 0.25 1
vt 0.3125 0.9375
vt 0.3125 1
vt 0.375 0.9375
vt 0.375 1
vt 0.4375 0.9375
vt 0.4375 1
vt 0.125 0.875
vt 0.1875 0.875
vt 0.25 0.875
vt 0.3125 0.875
vt 0.375 0.875
vt 0.4375 0.875
vt 0.125 0.8125
vt 0.1875 0.8125
vt 0.25 0.8125
vt 0.3125 0.8125
vt 0.375 0.8125
vt 0.4375 0.8125
vt 0.125 0.75
vt 0.1875 0.75
vt 0.25 0.75
vt 0.3125 0.75
vt 0.375 0.75
vt 0.4375 0.75
vt 0.25 0.6875
vt 0.3125 0.6875
vt 0.25 0.625
vt 0.3125 0.625

# Normal
vn 0 0 -1

# Mesh description
g samalsettlement_mesh_0006

# Faces
f 1/1/1 2/2/1 3/3/1 4/4/1
f 5/2/1 6/5/1 7/6/1 8/3/1
f 9/5/1 10/7/1 11/8/1 12/6/1
f 13/7/1 14/9/1 15/10/1 16/8/1
f 17/9/1 18/11/1 19/12/1 20/10/1
f 21/1/1 22/2/1 23/3/1 24/4/1
f 25/2/1 26/5/1 27/6/1 28/3/1
f 29/5/1 30/7/1 31/8/1 32/6/1
f 33/7/1 34/9/1 35/10/1 36/8/1
f 37/9/1 38/11/1 39/12/1 40/10/1
f 41/13/1 42/14/1 43/2/1 44/1/1
f 45/14/1 46/15/1 47/5/1 48/2/1
f 49/15/1 50/16/1 51/7/1 52/5/1
f 53/16/1 54/17/1 55/9/1 56/7/1
f 57/17/1 58/18/1 59/11/1 60/9/1
f 61/13/1 62/14/1 63/2/1 64/1/1
f 65/14/1 66/15/1 67/5/1 68/2/1
f 69/15/1 70/16/1 71/7/1 72/5/1
f 73/16/1 74/17/1 75/9/1 76/7/1
f 77/17/1 78/18/1 79/11/1 80/9/1
f 81/19/1 82/20/1 83/14/1 84/13/1
f 85/20/1 86/21/1 87/15/1 88/14/1
f 89/21/1 90/22/1 91/16/1 92/15/1
f 93/22/1 94/23/1 95/17/1 96/16/1
f 97/23/1 98/24/1 99/18/1 100/17/1
f 101/19/1 102/20/1 103/14/1 104/13/1
f 105/20/1 106/21/1 107/15/1 108/14/1
f 109/21/1 110/22/1 111/16/1 112/15/1
f 113/22/1 114/23/1 115/17/1 116/16/1
f 117/23/1 118/24/1 119/18/1 120/17/1
f 121/25/1 122/26/1 123/20/1 124/19/1
f 125/26/1 126/27/1 127/21/1 128/20/1
f 129/27/1 130/28/1 131/22/1 132/21/1
f 133/28/1 134/29/1 135/23/1 136/22/1
f 137/29/1 138/30/1 139/24/1 140/23/1
f 141/25/1 142/26/1 143/20/1 144/19/1
f 145/26/1 146/27/1 147/21/1 148/20/1
f 149/27/1 150/28/1 151/22/1 152/21/1
f 153/28/1 154/29/1 155/23/1 156/22/1
f 157/29/1 158/30/1 159/24/1 160/23/1
f 161/1/1 162/2/1 163/3/1 164/4/1
f 165/2/1 166/5/1 167/6/1 168/3/1
f 169/5/1 170/7/1 171/8/1 172/6/1
f 173/7/1 174/9/1 175/10/1 176/8/1
f 177/9/1 178/11/1 179/12/1 180/10/1
f 181/13/1 182/14/1 183/2/1 184/1/1
f 185/14/1 186/15/1 187/5/1 188/2/1
f 189/15/1 190/16/1 191/7/1 192/5/1
f 193/16/1 194/17/1 195/9/1 196/7/1
f 197/17/1 198/18/1 199/11/1 200/9/1
f 201/1/1 202/2/1 203/3/1 204/4/1
f 205/2/1 206/5/1 207/6/1 208/3/1
f 209/5/1 210/7/1 211/8/1 212/6/1
f 213/7/1 214/9/1 215/10/1 216/8/1
f 217/9/1 218/11/1 219/12/1 220/10/1
f 221/19/1 222/20/1 223/14/1 224/13/1
f 225/20/1 226/21/1 227/15/1 228/14/1
f 229/21/1 230/22/1 231/16/1 232/15/1
f 233/22/1 234/23/1 235/17/1 236/16/1
f 237/23/1 238/24/1 239/18/1 240/17/1
f 241/13/1 242/14/1 243/2/1 244/1/1
f 245/14/1 246/15/1 247/5/1 248/2/1
f 249/15/1 250/16/1 251/7/1 252/5/1
f 253/16/1 254/17/1 255/9/1 256/7/1
f 257/17/1 258/18/1 259/11/1 260/9/1
f 261/25/1 262/26/1 263/20/1 264/19/1
f 265/26/1 266/27/1 267/21/1 268/20/1
f 269/27/1 270/28/1 271/22/1 272/21/1
f 273/28/1 274/29/1 275/23/1 276/22/1
f 277/29/1 278/30/1 279/24/1 280/23/1
f 281/19/1 282/20/1 283/14/1 284/13/1
f 285/20/1 286/21/1 287/15/1 288/14/1
f 289/21/1 290/22/1 291/16/1 292/15/1
f 293/22/1 294/23/1 295/17/1 296/16/1
f 297/23/1 298/24/1 299/18/1 300/17/1
f 301/25/1 302/26/1 303/20/1 304/19/1
f 305/26/1 306/27/1 307/21/1 308/20/1
f 309/27/1 310/28/1 311/22/1 312/21/1
f 313/28/1 314/29/1 315/23/1 316/22/1
f 317/29/1 318/30/1 319/24/1 320/23/1
f 321/31/1 322/32/1 323/28/1 324/27/1
f 325/1/1 326/2/1 327/3/1 328/4/1
f 329/2/1 330/5/1 331/6/1 332/3/1
f 333/33/1 334/34/1 335/32/1 336/31/1
f 337/7/1 338/9/1 339/10/1 340/8/1
f 341/9/1 342/11/1 343/12/1 344/10/1
f 345/13/1 346/14/1 347/2/1 348/1/1
f 349/14/1 350/15/1 351/5/1 352/2/1
f 353/15/1 354/16/1 355/7/1 356/5/1
f 357/16/1 358/17/1 359/9/1 360/7/1
f 361/17/1 362/18/1 363/11/1 364/9/1
f 365/19/1 366/20/1 367/14/1 368/13/1
f 369/20/1 370/21/1 371/15/1 372/14/1
f 373/21/1 374/22/1 375/16/1 376/15/1
f 377/22/1 378/23/1 379/17/1 380/16/1
f 381/23/1 382/24/1 383/18/1 384/17/1
f 385/25/1 386/26/1 387/20/1 388/19/1
f 389/26/1 390/27/1 391/21/1 392/20/1
f 393/27/1 394/28/1 395/22/1 396/21/1
f 397/28/1 398/29/1 399/23/1 400/22/1
f 401/29/1 402/30/1 403/24/1 404/23/1
f 405/1/1 406/2/1 407/3/1 408/4/1
f 409/2/1 410/5/1 411/6/1 412/3/1
f 413/5/1 414/7/1 415/8/1 416/6/1
f 417/7/1 418/9/1 419/10/1 420/8/1
f 421/9/1 422/11/1 423/12/1 424/10/1
f 425/13/1 426/14/1 427/2/1 428/1/1
f 429/14/1 430/15/1 431/5/1 432/2/1
f 433/15/1 434/16/1 435/7/1 436/5/1
f 437/16/1 438/17/1 439/9/1 440/7/1
f 441/17/1 442/18/1 443/11/1 444/9/1
f 445/1/1 446/2/1 447/3/1 448/4/1
f 449/2/1 450/5/1 451/6/1 452/3/1
f 453/5/1 454/7/1 455/8/1 456/6/1
f 457/7/1 458/9/1 459/10/1 460/8/1
f 461/9/1 462/11/1 463/12/1 464/10/1
f 465/19/1 466/20/1 467/14/1 468/13/1
f 469/20/1 470/21/1 471/15/1 472/14/1
f 473/21/1 474/22/1 475/16/1 476/15/1
f 477/22/1 478/23/1 479/17/1 480/16/1
f 481/23/1 482/24/1 483/18/1 484/17/1
f 485/13/1 486/14/1 487/2/1 488/1/1
f 489/14/1 490/15/1 491/5/1 492/2/1
f 493/15/1 494/16/1 495/7/1 496/5/1
f 497/16/1 498/17/1 499/9/1 500/7/1
f 501/17/1 502/18/1 503/11/1 504/9/1
f 505/25/1 506/26/1 507/20/1 508/19/1
f 509/26/1 510/27/1 511/21/1 512/20/1
f 513/27/1 514/28/1 515/22/1 516/21/1
f 517/28/1 518/29/1 519/23/1 520/22/1
f 521/29/1 522/30/1 523/24/1 524/23/1
f 525/19/1 526/20/1 527/14/1 528/13/1
f 529/20/1 530/21/1 531/15/1 532/14/1
f 533/21/1 534/22/1 535/16/1 536/15/1
f 537/22/1 538/23/1 539/17/1 540/16/1
f 541/23/1 542/24/1 543/18/1 544/17/1
f 545/25/1 546/26/1 547/20/1 548/19/1
f 549/26/1 550/27/1 551/21/1 552/20/1
f 553/27/1 554/28/1 555/22/1 556/21/1
f 557/28/1 558/29/1 559/23/1 560/22/1
f 561/29/1 562/30/1 563/24/1 564/23/1
f 565/1/1 566/2/1 567/3/1 568/4/1
f 569/2/1 570/5/1 571/6/1 572/3/1
f 573/5/1 574/7/1 575/8/1 576/6/1
f 577/7/1 578/9/1 579/10/1 580/8/1
f 581/9/1 582/11/1 583/12/1 584/10/1
f 585/13/1 586/14/1 587/2/1 588/1/1
f 589/14/1 590/15/1 591/5/1 592/2/1
f 593/15/1 594/16/1 595/7/1 596/5/1
f 597/16/1 598/17/1 599/9/1 600/7/1
f 601/17/1 602/18/1 603/11/1 604/9/1
f 605/1/1 606/2/1 607/3/1 608/4/1
f 609/2/1 610/5/1 611/6/1 612/3/1
f 613/5/1 614/7/1 615/8/1 616/6/1
f 617/7/1 618/9/1 619/10/1 620/8/1
f 621/9/1 622/11/1 623/12/1 624/10/1
f 625/19/1 626/20/1 627/14/1 628/13/1
f 629/20/1 630/21/1 631/15/1 632/14/1
f 633/21/1 634/22/1 635/16/1 636/15/1
f 637/22/1 638/23/1 639/17/1 640/16/1
f 641/23/1 642/24/1 643/18/1 644/17/1
f 645/13/1 646/14/1 647/2/1 648/1/1
f 649/14/1 650/15/1 651/5/1 652/2/1
f 653/15/1 654/16/1 655/7/1 656/5/1
f 657/16/1 658/17/1 659/9/1 660/7/1
f 661/17/1 662/18/1 663/11/1 664/9/1
f 665/25/1 666/26/1 667/20/1 668/19/1
f 669/26/1 670/27/1 671/21/1 672/20/1
f 673/27/1 674/28/1 675/22/1 676/21/1
f 677/28/1 678/29/1 679/23/1 680/22/1
f 681/29/1 682/30/1 683/24/1 684/23/1
f 685/19/1 686/20/1 687/14/1 688/13/1
f 689/20/1 690/21/1 691/15/1 692/14/1
f 693/21/1 694/22/1 695/16/1 696/15/1
f 697/22/1 698/23/1 699/17/1 700/16/1
f 701/23/1 702/24/1 703/18/1 704/17/1
f 705/25/1 706/26/1 707/20/1 708/19/1
f 709/26/1 710/27/1 711/21/1 712/20/1
f 713/27/1 714/28/1 715/22/1 716/21/1
f 717/28/1 718/29/1 719/23/1 720/22/1
f 721/29/1 722/30/1 723/24/1 724/23/1

