# Tiled2Unity generated file. Do not modify by hand.
# Wavefront file for 'midDavao_mesh_0005.obj'

# Vertices (Count = 576)
v -352 -192 0
v -384 -192 0
v -384 -160 0
v -352 -160 0
v -384 -192 0
v -416 -192 0
v -416 -160 0
v -384 -160 0
v -416 -192 0
v -448 -192 0
v -448 -160 0
v -416 -160 0
v -1408 -192 0
v -1440 -192 0
v -1440 -160 0
v -1408 -160 0
v -1440 -192 0
v -1472 -192 0
v -1472 -160 0
v -1440 -160 0
v -1472 -192 0
v -1504 -192 0
v -1504 -160 0
v -1472 -160 0
v -352 -224 0
v -384 -224 0
v -384 -192 0
v -352 -192 0
v -384 -224 0
v -416 -224 0
v -416 -192 0
v -384 -192 0
v -416 -224 0
v -448 -224 0
v -448 -192 0
v -416 -192 0
v -1408 -224 0
v -1440 -224 0
v -1440 -192 0
v -1408 -192 0
v -1440 -224 0
v -1472 -224 0
v -1472 -192 0
v -1440 -192 0
v -1472 -224 0
v -1504 -224 0
v -1504 -192 0
v -1472 -192 0
v -352 -256 0
v -384 -256 0
v -384 -224 0
v -352 -224 0
v -384 -256 0
v -416 -256 0
v -416 -224 0
v -384 -224 0
v -416 -256 0
v -448 -256 0
v -448 -224 0
v -416 -224 0
v -1408 -256 0
v -1440 -256 0
v -1440 -224 0
v -1408 -224 0
v -1440 -256 0
v -1472 -256 0
v -1472 -224 0
v -1440 -224 0
v -1472 -256 0
v -1504 -256 0
v -1504 -224 0
v -1472 -224 0
v -64 -320 0
v -96 -320 0
v -96 -288 0
v -64 -288 0
v -96 -320 0
v -128 -320 0
v -128 -288 0
v -96 -288 0
v -128 -320 0
v -160 -320 0
v -160 -288 0
v -128 -288 0
v -1216 -320 0
v -1248 -320 0
v -1248 -288 0
v -1216 -288 0
v -1248 -320 0
v -1280 -320 0
v -1280 -288 0
v -1248 -288 0
v -1280 -320 0
v -1312 -320 0
v -1312 -288 0
v -1280 -288 0
v -64 -352 0
v -96 -352 0
v -96 -320 0
v -64 -320 0
v -96 -352 0
v -128 -352 0
v -128 -320 0
v -96 -320 0
v -128 -352 0
v -160 -352 0
v -160 -320 0
v -128 -320 0
v -1216 -352 0
v -1248 -352 0
v -1248 -320 0
v -1216 -320 0
v -1248 -352 0
v -1280 -352 0
v -1280 -320 0
v -1248 -320 0
v -1280 -352 0
v -1312 -352 0
v -1312 -320 0
v -1280 -320 0
v -64 -384 0
v -96 -384 0
v -96 -352 0
v -64 -352 0
v -96 -384 0
v -128 -384 0
v -128 -352 0
v -96 -352 0
v -128 -384 0
v -160 -384 0
v -160 -352 0
v -128 -352 0
v -1216 -384 0
v -1248 -384 0
v -1248 -352 0
v -1216 -352 0
v -1248 -384 0
v -1280 -384 0
v -1280 -352 0
v -1248 -352 0
v -1280 -384 0
v -1312 -384 0
v -1312 -352 0
v -1280 -352 0
v -192 -512 0
v -224 -512 0
v -224 -480 0
v -192 -480 0
v -224 -512 0
v -256 -512 0
v -256 -480 0
v -224 -480 0
v -256 -512 0
v -288 -512 0
v -288 -480 0
v -256 -480 0
v -192 -544 0
v -224 -544 0
v -224 -512 0
v -192 -512 0
v -224 -544 0
v -256 -544 0
v -256 -512 0
v -224 -512 0
v -256 -544 0
v -288 -544 0
v -288 -512 0
v -256 -512 0
v -192 -576 0
v -224 -576 0
v -224 -544 0
v -192 -544 0
v -224 -576 0
v -256 -576 0
v -256 -544 0
v -224 -544 0
v -256 -576 0
v -288 -576 0
v -288 -544 0
v -256 -544 0
v -1056 -768 0
v -1088 -768 0
v -1088 -736 0
v -1056 -736 0
v -1088 -768 0
v -1120 -768 0
v -1120 -736 0
v -1088 -736 0
v -1120 -768 0
v -1152 -768 0
v -1152 -736 0
v -1120 -736 0
v -1056 -800 0
v -1088 -800 0
v -1088 -768 0
v -1056 -768 0
v -1088 -800 0
v -1120 -800 0
v -1120 -768 0
v -1088 -768 0
v -1120 -800 0
v -1152 -800 0
v -1152 -768 0
v -1120 -768 0
v -1056 -832 0
v -1088 -832 0
v -1088 -800 0
v -1056 -800 0
v -1088 -832 0
v -1120 -832 0
v -1120 -800 0
v -1088 -800 0
v -1120 -832 0
v -1152 -832 0
v -1152 -800 0
v -1120 -800 0
v -96 -960 0
v -128 -960 0
v -128 -928 0
v -96 -928 0
v -128 -960 0
v -160 -960 0
v -160 -928 0
v -128 -928 0
v -160 -960 0
v -192 -960 0
v -192 -928 0
v -160 -928 0
v -96 -992 0
v -128 -992 0
v -128 -960 0
v -96 -960 0
v -128 -992 0
v -160 -992 0
v -160 -960 0
v -128 -960 0
v -160 -992 0
v -192 -992 0
v -192 -960 0
v -160 -960 0
v -1184 -992 0
v -1216 -992 0
v -1216 -960 0
v -1184 -960 0
v -1216 -992 0
v -1248 -992 0
v -1248 -960 0
v -1216 -960 0
v -1248 -992 0
v -1280 -992 0
v -1280 -960 0
v -1248 -960 0
v -96 -1024 0
v -128 -1024 0
v -128 -992 0
v -96 -992 0
v -128 -1024 0
v -160 -1024 0
v -160 -992 0
v -128 -992 0
v -160 -1024 0
v -192 -1024 0
v -192 -992 0
v -160 -992 0
v -1184 -1024 0
v -1216 -1024 0
v -1216 -992 0
v -1184 -992 0
v -1216 -1024 0
v -1248 -1024 0
v -1248 -992 0
v -1216 -992 0
v -1248 -1024 0
v -1280 -1024 0
v -1280 -992 0
v -1248 -992 0
v -224 -1056 0
v -256 -1056 0
v -256 -1024 0
v -224 -1024 0
v -256 -1056 0
v -288 -1056 0
v -288 -1024 0
v -256 -1024 0
v -288 -1056 0
v -320 -1056 0
v -320 -1024 0
v -288 -1024 0
v -1184 -1056 0
v -1216 -1056 0
v -1216 -1024 0
v -1184 -1024 0
v -1216 -1056 0
v -1248 -1056 0
v -1248 -1024 0
v -1216 -1024 0
v -1248 -1056 0
v -1280 -1056 0
v -1280 -1024 0
v -1248 -1024 0
v -224 -1088 0
v -256 -1088 0
v -256 -1056 0
v -224 -1056 0
v -256 -1088 0
v -288 -1088 0
v -288 -1056 0
v -256 -1056 0
v -288 -1088 0
v -320 -1088 0
v -320 -1056 0
v -288 -1056 0
v -224 -1120 0
v -256 -1120 0
v -256 -1088 0
v -224 -1088 0
v -256 -1120 0
v -288 -1120 0
v -288 -1088 0
v -256 -1088 0
v -288 -1120 0
v -320 -1120 0
v -320 -1088 0
v -288 -1088 0
v -1408 -1120 0
v -1440 -1120 0
v -1440 -1088 0
v -1408 -1088 0
v -1440 -1120 0
v -1472 -1120 0
v -1472 -1088 0
v -1440 -1088 0
v -1472 -1120 0
v -1504 -1120 0
v -1504 -1088 0
v -1472 -1088 0
v -1408 -1152 0
v -1440 -1152 0
v -1440 -1120 0
v -1408 -1120 0
v -1440 -1152 0
v -1472 -1152 0
v -1472 -1120 0
v -1440 -1120 0
v -1472 -1152 0
v -1504 -1152 0
v -1504 -1120 0
v -1472 -1120 0
v -1408 -1184 0
v -1440 -1184 0
v -1440 -1152 0
v -1408 -1152 0
v -1440 -1184 0
v -1472 -1184 0
v -1472 -1152 0
v -1440 -1152 0
v -1472 -1184 0
v -1504 -1184 0
v -1504 -1152 0
v -1472 -1152 0
v -32 -1280 0
v -64 -1280 0
v -64 -1248 0
v -32 -1248 0
v -64 -1280 0
v -96 -1280 0
v -96 -1248 0
v -64 -1248 0
v -96 -1280 0
v -128 -1280 0
v -128 -1248 0
v -96 -1248 0
v -1120 -1280 0
v -1152 -1280 0
v -1152 -1248 0
v -1120 -1248 0
v -1152 -1280 0
v -1184 -1280 0
v -1184 -1248 0
v -1152 -1248 0
v -1184 -1280 0
v -1216 -1280 0
v -1216 -1248 0
v -1184 -1248 0
v -32 -1312 0
v -64 -1312 0
v -64 -1280 0
v -32 -1280 0
v -64 -1312 0
v -96 -1312 0
v -96 -1280 0
v -64 -1280 0
v -96 -1312 0
v -128 -1312 0
v -128 -1280 0
v -96 -1280 0
v -1120 -1312 0
v -1152 -1312 0
v -1152 -1280 0
v -1120 -1280 0
v -1152 -1312 0
v -1184 -1312 0
v -1184 -1280 0
v -1152 -1280 0
v -1184 -1312 0
v -1216 -1312 0
v -1216 -1280 0
v -1184 -1280 0
v -32 -1344 0
v -64 -1344 0
v -64 -1312 0
v -32 -1312 0
v -64 -1344 0
v -96 -1344 0
v -96 -1312 0
v -64 -1312 0
v -96 -1344 0
v -128 -1344 0
v -128 -1312 0
v -96 -1312 0
v -1120 -1344 0
v -1152 -1344 0
v -1152 -1312 0
v -1120 -1312 0
v -1152 -1344 0
v -1184 -1344 0
v -1184 -1312 0
v -1152 -1312 0
v -1184 -1344 0
v -1216 -1344 0
v -1216 -1312 0
v -1184 -1312 0
v -1408 -1440 0
v -1440 -1440 0
v -1440 -1408 0
v -1408 -1408 0
v -1440 -1440 0
v -1472 -1440 0
v -1472 -1408 0
v -1440 -1408 0
v -1472 -1440 0
v -1504 -1440 0
v -1504 -1408 0
v -1472 -1408 0
v -192 -1472 0
v -224 -1472 0
v -224 -1440 0
v -192 -1440 0
v -224 -1472 0
v -256 -1472 0
v -256 -1440 0
v -224 -1440 0
v -256 -1472 0
v -288 -1472 0
v -288 -1440 0
v -256 -1440 0
v -1408 -1472 0
v -1440 -1472 0
v -1440 -1440 0
v -1408 -1440 0
v -1440 -1472 0
v -1472 -1472 0
v -1472 -1440 0
v -1440 -1440 0
v -1472 -1472 0
v -1504 -1472 0
v -1504 -1440 0
v -1472 -1440 0
v -192 -1504 0
v -224 -1504 0
v -224 -1472 0
v -192 -1472 0
v -224 -1504 0
v -256 -1504 0
v -256 -1472 0
v -224 -1472 0
v -256 -1504 0
v -288 -1504 0
v -288 -1472 0
v -256 -1472 0
v -1408 -1504 0
v -1440 -1504 0
v -1440 -1472 0
v -1408 -1472 0
v -1440 -1504 0
v -1472 -1504 0
v -1472 -1472 0
v -1440 -1472 0
v -1472 -1504 0
v -1504 -1504 0
v -1504 -1472 0
v -1472 -1472 0
v -192 -1536 0
v -224 -1536 0
v -224 -1504 0
v -192 -1504 0
v -224 -1536 0
v -256 -1536 0
v -256 -1504 0
v -224 -1504 0
v -256 -1536 0
v -288 -1536 0
v -288 -1504 0
v -256 -1504 0
v -64 -1568 0
v -96 -1568 0
v -96 -1536 0
v -64 -1536 0
v -96 -1568 0
v -128 -1568 0
v -128 -1536 0
v -96 -1536 0
v -128 -1568 0
v -160 -1568 0
v -160 -1536 0
v -128 -1536 0
v -1056 -1568 0
v -1088 -1568 0
v -1088 -1536 0
v -1056 -1536 0
v -1088 -1568 0
v -1120 -1568 0
v -1120 -1536 0
v -1088 -1536 0
v -1120 -1568 0
v -1152 -1568 0
v -1152 -1536 0
v -1120 -1536 0
v -64 -1600 0
v -96 -1600 0
v -96 -1568 0
v -64 -1568 0
v -96 -1600 0
v -128 -1600 0
v -128 -1568 0
v -96 -1568 0
v -128 -1600 0
v -160 -1600 0
v -160 -1568 0
v -128 -1568 0
v -1056 -1600 0
v -1088 -1600 0
v -1088 -1568 0
v -1056 -1568 0
v -1088 -1600 0
v -1120 -1600 0
v -1120 -1568 0
v -1088 -1568 0
v -1120 -1600 0
v -1152 -1600 0
v -1152 -1568 0
v -1120 -1568 0
v -64 -1632 0
v -96 -1632 0
v -96 -1600 0
v -64 -1600 0
v -96 -1632 0
v -128 -1632 0
v -128 -1600 0
v -96 -1600 0
v -128 -1632 0
v -160 -1632 0
v -160 -1600 0
v -128 -1600 0
v -1056 -1632 0
v -1088 -1632 0
v -1088 -1600 0
v -1056 -1600 0
v -1088 -1632 0
v -1120 -1632 0
v -1120 -1600 0
v -1088 -1600 0
v -1120 -1632 0
v -1152 -1632 0
v -1152 -1600 0
v -1120 -1600 0

# Texture cooridinates (Count = 16)
vt 0 0.6666666
vt 0.1666667 0.6666666
vt 0.1666667 1
vt 0 1
vt 0.3333333 0.6666666
vt 0.3333333 1
vt 0.5 0.6666666
vt 0.5 1
vt 0 0.3333333
vt 0.1666667 0.3333333
vt 0.3333333 0.3333333
vt 0.5 0.3333333
vt 0 0
vt 0.1666667 0
vt 0.3333333 0
vt 0.5 0

# Normal
vn 0 0 -1

# Mesh description
g midDavao_mesh_0005

# Faces
f 1/1/1 2/2/1 3/3/1 4/4/1
f 5/2/1 6/5/1 7/6/1 8/3/1
f 9/5/1 10/7/1 11/8/1 12/6/1
f 13/1/1 14/2/1 15/3/1 16/4/1
f 17/2/1 18/5/1 19/6/1 20/3/1
f 21/5/1 22/7/1 23/8/1 24/6/1
f 25/9/1 26/10/1 27/2/1 28/1/1
f 29/10/1 30/11/1 31/5/1 32/2/1
f 33/11/1 34/12/1 35/7/1 36/5/1
f 37/9/1 38/10/1 39/2/1 40/1/1
f 41/10/1 42/11/1 43/5/1 44/2/1
f 45/11/1 46/12/1 47/7/1 48/5/1
f 49/13/1 50/14/1 51/10/1 52/9/1
f 53/14/1 54/15/1 55/11/1 56/10/1
f 57/15/1 58/16/1 59/12/1 60/11/1
f 61/13/1 62/14/1 63/10/1 64/9/1
f 65/14/1 66/15/1 67/11/1 68/10/1
f 69/15/1 70/16/1 71/12/1 72/11/1
f 73/1/1 74/2/1 75/3/1 76/4/1
f 77/2/1 78/5/1 79/6/1 80/3/1
f 81/5/1 82/7/1 83/8/1 84/6/1
f 85/1/1 86/2/1 87/3/1 88/4/1
f 89/2/1 90/5/1 91/6/1 92/3/1
f 93/5/1 94/7/1 95/8/1 96/6/1
f 97/9/1 98/10/1 99/2/1 100/1/1
f 101/10/1 102/11/1 103/5/1 104/2/1
f 105/11/1 106/12/1 107/7/1 108/5/1
f 109/9/1 110/10/1 111/2/1 112/1/1
f 113/10/1 114/11/1 115/5/1 116/2/1
f 117/11/1 118/12/1 119/7/1 120/5/1
f 121/13/1 122/14/1 123/10/1 124/9/1
f 125/14/1 126/15/1 127/11/1 128/10/1
f 129/15/1 130/16/1 131/12/1 132/11/1
f 133/13/1 134/14/1 135/10/1 136/9/1
f 137/14/1 138/15/1 139/11/1 140/10/1
f 141/15/1 142/16/1 143/12/1 144/11/1
f 145/1/1 146/2/1 147/3/1 148/4/1
f 149/2/1 150/5/1 151/6/1 152/3/1
f 153/5/1 154/7/1 155/8/1 156/6/1
f 157/9/1 158/10/1 159/2/1 160/1/1
f 161/10/1 162/11/1 163/5/1 164/2/1
f 165/11/1 166/12/1 167/7/1 168/5/1
f 169/13/1 170/14/1 171/10/1 172/9/1
f 173/14/1 174/15/1 175/11/1 176/10/1
f 177/15/1 178/16/1 179/12/1 180/11/1
f 181/1/1 182/2/1 183/3/1 184/4/1
f 185/2/1 186/5/1 187/6/1 188/3/1
f 189/5/1 190/7/1 191/8/1 192/6/1
f 193/9/1 194/10/1 195/2/1 196/1/1
f 197/10/1 198/11/1 199/5/1 200/2/1
f 201/11/1 202/12/1 203/7/1 204/5/1
f 205/13/1 206/14/1 207/10/1 208/9/1
f 209/14/1 210/15/1 211/11/1 212/10/1
f 213/15/1 214/16/1 215/12/1 216/11/1
f 217/1/1 218/2/1 219/3/1 220/4/1
f 221/2/1 222/5/1 223/6/1 224/3/1
f 225/5/1 226/7/1 227/8/1 228/6/1
f 229/9/1 230/10/1 231/2/1 232/1/1
f 233/10/1 234/11/1 235/5/1 236/2/1
f 237/11/1 238/12/1 239/7/1 240/5/1
f 241/1/1 242/2/1 243/3/1 244/4/1
f 245/2/1 246/5/1 247/6/1 248/3/1
f 249/5/1 250/7/1 251/8/1 252/6/1
f 253/13/1 254/14/1 255/10/1 256/9/1
f 257/14/1 258/15/1 259/11/1 260/10/1
f 261/15/1 262/16/1 263/12/1 264/11/1
f 265/9/1 266/10/1 267/2/1 268/1/1
f 269/10/1 270/11/1 271/5/1 272/2/1
f 273/11/1 274/12/1 275/7/1 276/5/1
f 277/1/1 278/2/1 279/3/1 280/4/1
f 281/2/1 282/5/1 283/6/1 284/3/1
f 285/5/1 286/7/1 287/8/1 288/6/1
f 289/13/1 290/14/1 291/10/1 292/9/1
f 293/14/1 294/15/1 295/11/1 296/10/1
f 297/15/1 298/16/1 299/12/1 300/11/1
f 301/9/1 302/10/1 303/2/1 304/1/1
f 305/10/1 306/11/1 307/5/1 308/2/1
f 309/11/1 310/12/1 311/7/1 312/5/1
f 313/13/1 314/14/1 315/10/1 316/9/1
f 317/14/1 318/15/1 319/11/1 320/10/1
f 321/15/1 322/16/1 323/12/1 324/11/1
f 325/1/1 326/2/1 327/3/1 328/4/1
f 329/2/1 330/5/1 331/6/1 332/3/1
f 333/5/1 334/7/1 335/8/1 336/6/1
f 337/9/1 338/10/1 339/2/1 340/1/1
f 341/10/1 342/11/1 343/5/1 344/2/1
f 345/11/1 346/12/1 347/7/1 348/5/1
f 349/13/1 350/14/1 351/10/1 352/9/1
f 353/14/1 354/15/1 355/11/1 356/10/1
f 357/15/1 358/16/1 359/12/1 360/11/1
f 361/1/1 362/2/1 363/3/1 364/4/1
f 365/2/1 366/5/1 367/6/1 368/3/1
f 369/5/1 370/7/1 371/8/1 372/6/1
f 373/1/1 374/2/1 375/3/1 376/4/1
f 377/2/1 378/5/1 379/6/1 380/3/1
f 381/5/1 382/7/1 383/8/1 384/6/1
f 385/9/1 386/10/1 387/2/1 388/1/1
f 389/10/1 390/11/1 391/5/1 392/2/1
f 393/11/1 394/12/1 395/7/1 396/5/1
f 397/9/1 398/10/1 399/2/1 400/1/1
f 401/10/1 402/11/1 403/5/1 404/2/1
f 405/11/1 406/12/1 407/7/1 408/5/1
f 409/13/1 410/14/1 411/10/1 412/9/1
f 413/14/1 414/15/1 415/11/1 416/10/1
f 417/15/1 418/16/1 419/12/1 420/11/1
f 421/13/1 422/14/1 423/10/1 424/9/1
f 425/14/1 426/15/1 427/11/1 428/10/1
f 429/15/1 430/16/1 431/12/1 432/11/1
f 433/1/1 434/2/1 435/3/1 436/4/1
f 437/2/1 438/5/1 439/6/1 440/3/1
f 441/5/1 442/7/1 443/8/1 444/6/1
f 445/1/1 446/2/1 447/3/1 448/4/1
f 449/2/1 450/5/1 451/6/1 452/3/1
f 453/5/1 454/7/1 455/8/1 456/6/1
f 457/9/1 458/10/1 459/2/1 460/1/1
f 461/10/1 462/11/1 463/5/1 464/2/1
f 465/11/1 466/12/1 467/7/1 468/5/1
f 469/9/1 470/10/1 471/2/1 472/1/1
f 473/10/1 474/11/1 475/5/1 476/2/1
f 477/11/1 478/12/1 479/7/1 480/5/1
f 481/13/1 482/14/1 483/10/1 484/9/1
f 485/14/1 486/15/1 487/11/1 488/10/1
f 489/15/1 490/16/1 491/12/1 492/11/1
f 493/13/1 494/14/1 495/10/1 496/9/1
f 497/14/1 498/15/1 499/11/1 500/10/1
f 501/15/1 502/16/1 503/12/1 504/11/1
f 505/1/1 506/2/1 507/3/1 508/4/1
f 509/2/1 510/5/1 511/6/1 512/3/1
f 513/5/1 514/7/1 515/8/1 516/6/1
f 517/1/1 518/2/1 519/3/1 520/4/1
f 521/2/1 522/5/1 523/6/1 524/3/1
f 525/5/1 526/7/1 527/8/1 528/6/1
f 529/9/1 530/10/1 531/2/1 532/1/1
f 533/10/1 534/11/1 535/5/1 536/2/1
f 537/11/1 538/12/1 539/7/1 540/5/1
f 541/9/1 542/10/1 543/2/1 544/1/1
f 545/10/1 546/11/1 547/5/1 548/2/1
f 549/11/1 550/12/1 551/7/1 552/5/1
f 553/13/1 554/14/1 555/10/1 556/9/1
f 557/14/1 558/15/1 559/11/1 560/10/1
f 561/15/1 562/16/1 563/12/1 564/11/1
f 565/13/1 566/14/1 567/10/1 568/9/1
f 569/14/1 570/15/1 571/11/1 572/10/1
f 573/15/1 574/16/1 575/12/1 576/11/1

