# Tiled2Unity generated file. Do not modify by hand.
# Wavefront file for 'midDavao_mesh_0006.obj'

# Vertices (Count = 576)
v -1024 -448 0
v -1056 -448 0
v -1056 -416 0
v -1024 -416 0
v -1056 -448 0
v -1088 -448 0
v -1088 -416 0
v -1056 -416 0
v -1088 -448 0
v -1120 -448 0
v -1120 -416 0
v -1088 -416 0
v -1024 -480 0
v -1056 -480 0
v -1056 -448 0
v -1024 -448 0
v -1056 -480 0
v -1088 -480 0
v -1088 -448 0
v -1056 -448 0
v -1088 -480 0
v -1120 -480 0
v -1120 -448 0
v -1088 -448 0
v -1120 -480 0
v -1152 -480 0
v -1152 -448 0
v -1120 -448 0
v -1152 -480 0
v -1184 -480 0
v -1184 -448 0
v -1152 -448 0
v -1184 -480 0
v -1216 -480 0
v -1216 -448 0
v -1184 -448 0
v -1216 -480 0
v -1248 -480 0
v -1248 -448 0
v -1216 -448 0
v -1248 -480 0
v -1280 -480 0
v -1280 -448 0
v -1248 -448 0
v -1280 -480 0
v -1312 -480 0
v -1312 -448 0
v -1280 -448 0
v -1312 -480 0
v -1344 -480 0
v -1344 -448 0
v -1312 -448 0
v -1024 -512 0
v -1056 -512 0
v -1056 -480 0
v -1024 -480 0
v -1056 -512 0
v -1088 -512 0
v -1088 -480 0
v -1056 -480 0
v -1088 -512 0
v -1120 -512 0
v -1120 -480 0
v -1088 -480 0
v -1120 -512 0
v -1152 -512 0
v -1152 -480 0
v -1120 -480 0
v -1152 -512 0
v -1184 -512 0
v -1184 -480 0
v -1152 -480 0
v -1184 -512 0
v -1216 -512 0
v -1216 -480 0
v -1184 -480 0
v -1216 -512 0
v -1248 -512 0
v -1248 -480 0
v -1216 -480 0
v -1248 -512 0
v -1280 -512 0
v -1280 -480 0
v -1248 -480 0
v -1280 -512 0
v -1312 -512 0
v -1312 -480 0
v -1280 -480 0
v -1312 -512 0
v -1344 -512 0
v -1344 -480 0
v -1312 -480 0
v -1344 -512 0
v -1376 -512 0
v -1376 -480 0
v -1344 -480 0
v -1376 -512 0
v -1408 -512 0
v -1408 -480 0
v -1376 -480 0
v -1408 -512 0
v -1440 -512 0
v -1440 -480 0
v -1408 -480 0
v -1056 -544 0
v -1088 -544 0
v -1088 -512 0
v -1056 -512 0
v -1088 -544 0
v -1120 -544 0
v -1120 -512 0
v -1088 -512 0
v -1120 -544 0
v -1152 -544 0
v -1152 -512 0
v -1120 -512 0
v -1152 -544 0
v -1184 -544 0
v -1184 -512 0
v -1152 -512 0
v -1184 -544 0
v -1216 -544 0
v -1216 -512 0
v -1184 -512 0
v -1216 -544 0
v -1248 -544 0
v -1248 -512 0
v -1216 -512 0
v -1248 -544 0
v -1280 -544 0
v -1280 -512 0
v -1248 -512 0
v -1280 -544 0
v -1312 -544 0
v -1312 -512 0
v -1280 -512 0
v -1312 -544 0
v -1344 -544 0
v -1344 -512 0
v -1312 -512 0
v -1344 -544 0
v -1376 -544 0
v -1376 -512 0
v -1344 -512 0
v -1376 -544 0
v -1408 -544 0
v -1408 -512 0
v -1376 -512 0
v -1408 -544 0
v -1440 -544 0
v -1440 -512 0
v -1408 -512 0
v -1280 -576 0
v -1312 -576 0
v -1312 -544 0
v -1280 -544 0
v -1312 -576 0
v -1344 -576 0
v -1344 -544 0
v -1312 -544 0
v -1344 -576 0
v -1376 -576 0
v -1376 -544 0
v -1344 -544 0
v -1376 -576 0
v -1408 -576 0
v -1408 -544 0
v -1376 -544 0
v -1408 -576 0
v -1440 -576 0
v -1440 -544 0
v -1408 -544 0
v -1344 -608 0
v -1376 -608 0
v -1376 -576 0
v -1344 -576 0
v -1376 -608 0
v -1408 -608 0
v -1408 -576 0
v -1376 -576 0
v -1408 -608 0
v -1440 -608 0
v -1440 -576 0
v -1408 -576 0
v -32 -640 0
v -64 -640 0
v -64 -608 0
v -32 -608 0
v -64 -640 0
v -96 -640 0
v -96 -608 0
v -64 -608 0
v -96 -640 0
v -128 -640 0
v -128 -608 0
v -96 -608 0
v -1312 -640 0
v -1344 -640 0
v -1344 -608 0
v -1312 -608 0
v -1344 -640 0
v -1376 -640 0
v -1376 -608 0
v -1344 -608 0
v -1376 -640 0
v -1408 -640 0
v -1408 -608 0
v -1376 -608 0
v -1408 -640 0
v -1440 -640 0
v -1440 -608 0
v -1408 -608 0
v -32 -672 0
v -64 -672 0
v -64 -640 0
v -32 -640 0
v -64 -672 0
v -96 -672 0
v -96 -640 0
v -64 -640 0
v -96 -672 0
v -128 -672 0
v -128 -640 0
v -96 -640 0
v -128 -672 0
v -160 -672 0
v -160 -640 0
v -128 -640 0
v -160 -672 0
v -192 -672 0
v -192 -640 0
v -160 -640 0
v -192 -672 0
v -224 -672 0
v -224 -640 0
v -192 -640 0
v -224 -672 0
v -256 -672 0
v -256 -640 0
v -224 -640 0
v -1312 -672 0
v -1344 -672 0
v -1344 -640 0
v -1312 -640 0
v -1344 -672 0
v -1376 -672 0
v -1376 -640 0
v -1344 -640 0
v -1376 -672 0
v -1408 -672 0
v -1408 -640 0
v -1376 -640 0
v -1408 -672 0
v -1440 -672 0
v -1440 -640 0
v -1408 -640 0
v -32 -704 0
v -64 -704 0
v -64 -672 0
v -32 -672 0
v -64 -704 0
v -96 -704 0
v -96 -672 0
v -64 -672 0
v -96 -704 0
v -128 -704 0
v -128 -672 0
v -96 -672 0
v -128 -704 0
v -160 -704 0
v -160 -672 0
v -128 -672 0
v -160 -704 0
v -192 -704 0
v -192 -672 0
v -160 -672 0
v -192 -704 0
v -224 -704 0
v -224 -672 0
v -192 -672 0
v -224 -704 0
v -256 -704 0
v -256 -672 0
v -224 -672 0
v -1280 -704 0
v -1312 -704 0
v -1312 -672 0
v -1280 -672 0
v -1312 -704 0
v -1344 -704 0
v -1344 -672 0
v -1312 -672 0
v -1344 -704 0
v -1376 -704 0
v -1376 -672 0
v -1344 -672 0
v -1376 -704 0
v -1408 -704 0
v -1408 -672 0
v -1376 -672 0
v -32 -736 0
v -64 -736 0
v -64 -704 0
v -32 -704 0
v -64 -736 0
v -96 -736 0
v -96 -704 0
v -64 -704 0
v -96 -736 0
v -128 -736 0
v -128 -704 0
v -96 -704 0
v -128 -736 0
v -160 -736 0
v -160 -704 0
v -128 -704 0
v -160 -736 0
v -192 -736 0
v -192 -704 0
v -160 -704 0
v -192 -736 0
v -224 -736 0
v -224 -704 0
v -192 -704 0
v -224 -736 0
v -256 -736 0
v -256 -704 0
v -224 -704 0
v -1280 -736 0
v -1312 -736 0
v -1312 -704 0
v -1280 -704 0
v -1312 -736 0
v -1344 -736 0
v -1344 -704 0
v -1312 -704 0
v -1344 -736 0
v -1376 -736 0
v -1376 -704 0
v -1344 -704 0
v -1376 -736 0
v -1408 -736 0
v -1408 -704 0
v -1376 -704 0
v -32 -768 0
v -64 -768 0
v -64 -736 0
v -32 -736 0
v -64 -768 0
v -96 -768 0
v -96 -736 0
v -64 -736 0
v -96 -768 0
v -128 -768 0
v -128 -736 0
v -96 -736 0
v -128 -768 0
v -160 -768 0
v -160 -736 0
v -128 -736 0
v -160 -768 0
v -192 -768 0
v -192 -736 0
v -160 -736 0
v -192 -768 0
v -224 -768 0
v -224 -736 0
v -192 -736 0
v -1280 -768 0
v -1312 -768 0
v -1312 -736 0
v -1280 -736 0
v -1312 -768 0
v -1344 -768 0
v -1344 -736 0
v -1312 -736 0
v -1344 -768 0
v -1376 -768 0
v -1376 -736 0
v -1344 -736 0
v -1376 -768 0
v -1408 -768 0
v -1408 -736 0
v -1376 -736 0
v -1408 -768 0
v -1440 -768 0
v -1440 -736 0
v -1408 -736 0
v -1440 -768 0
v -1472 -768 0
v -1472 -736 0
v -1440 -736 0
v -1472 -768 0
v -1504 -768 0
v -1504 -736 0
v -1472 -736 0
v -32 -800 0
v -64 -800 0
v -64 -768 0
v -32 -768 0
v -64 -800 0
v -96 -800 0
v -96 -768 0
v -64 -768 0
v -96 -800 0
v -128 -800 0
v -128 -768 0
v -96 -768 0
v -1280 -800 0
v -1312 -800 0
v -1312 -768 0
v -1280 -768 0
v -1312 -800 0
v -1344 -800 0
v -1344 -768 0
v -1312 -768 0
v -1344 -800 0
v -1376 -800 0
v -1376 -768 0
v -1344 -768 0
v -1376 -800 0
v -1408 -800 0
v -1408 -768 0
v -1376 -768 0
v -1408 -800 0
v -1440 -800 0
v -1440 -768 0
v -1408 -768 0
v -1440 -800 0
v -1472 -800 0
v -1472 -768 0
v -1440 -768 0
v -1472 -800 0
v -1504 -800 0
v -1504 -768 0
v -1472 -768 0
v -1504 -800 0
v -1536 -800 0
v -1536 -768 0
v -1504 -768 0
v -1536 -800 0
v -1568 -800 0
v -1568 -768 0
v -1536 -768 0
v -32 -832 0
v -64 -832 0
v -64 -800 0
v -32 -800 0
v -64 -832 0
v -96 -832 0
v -96 -800 0
v -64 -800 0
v -96 -832 0
v -128 -832 0
v -128 -800 0
v -96 -800 0
v -1312 -832 0
v -1344 -832 0
v -1344 -800 0
v -1312 -800 0
v -1344 -832 0
v -1376 -832 0
v -1376 -800 0
v -1344 -800 0
v -1376 -832 0
v -1408 -832 0
v -1408 -800 0
v -1376 -800 0
v -1408 -832 0
v -1440 -832 0
v -1440 -800 0
v -1408 -800 0
v -1440 -832 0
v -1472 -832 0
v -1472 -800 0
v -1440 -800 0
v -1472 -832 0
v -1504 -832 0
v -1504 -800 0
v -1472 -800 0
v -1504 -832 0
v -1536 -832 0
v -1536 -800 0
v -1504 -800 0
v -1536 -832 0
v -1568 -832 0
v -1568 -800 0
v -1536 -800 0
v -1568 -832 0
v -1600 -832 0
v -1600 -800 0
v -1568 -800 0
v -1408 -864 0
v -1440 -864 0
v -1440 -832 0
v -1408 -832 0
v -1440 -864 0
v -1472 -864 0
v -1472 -832 0
v -1440 -832 0
v -1472 -864 0
v -1504 -864 0
v -1504 -832 0
v -1472 -832 0
v -1504 -864 0
v -1536 -864 0
v -1536 -832 0
v -1504 -832 0
v -1536 -864 0
v -1568 -864 0
v -1568 -832 0
v -1536 -832 0
v -1568 -864 0
v -1600 -864 0
v -1600 -832 0
v -1568 -832 0
v -1472 -896 0
v -1504 -896 0
v -1504 -864 0
v -1472 -864 0
v -1504 -896 0
v -1536 -896 0
v -1536 -864 0
v -1504 -864 0
v -1536 -896 0
v -1568 -896 0
v -1568 -864 0
v -1536 -864 0
v -1568 -896 0
v -1600 -896 0
v -1600 -864 0
v -1568 -864 0
v -1600 -896 0
v -1632 -896 0
v -1632 -864 0
v -1600 -864 0
v -1504 -928 0
v -1536 -928 0
v -1536 -896 0
v -1504 -896 0
v -1536 -928 0
v -1568 -928 0
v -1568 -896 0
v -1536 -896 0
v -1568 -928 0
v -1600 -928 0
v -1600 -896 0
v -1568 -896 0
v -1600 -928 0
v -1632 -928 0
v -1632 -896 0
v -1600 -896 0
v -1536 -960 0
v -1568 -960 0
v -1568 -928 0
v -1536 -928 0
v -1568 -960 0
v -1600 -960 0
v -1600 -928 0
v -1568 -928 0
v -1600 -960 0
v -1632 -960 0
v -1632 -928 0
v -1600 -928 0
v -1536 -992 0
v -1568 -992 0
v -1568 -960 0
v -1536 -960 0
v -1568 -992 0
v -1600 -992 0
v -1600 -960 0
v -1568 -960 0
v -1600 -992 0
v -1632 -992 0
v -1632 -960 0
v -1600 -960 0

# Texture cooridinates (Count = 26)
vt 0 0.90625
vt 0.03125 0.90625
vt 0.03125 0.9375
vt 0 0.9375
vt 0.0625 0.90625
vt 0.0625 0.9375
vt 0.09375 0.90625
vt 0.09375 0.9375
vt 0 0.875
vt 0.03125 0.875
vt 0.03125 0.8125
vt 0.0625 0.8125
vt 0.0625 0.84375
vt 0.03125 0.84375
vt 0.0625 0.96875
vt 0.03125 0.96875
vt 0 0.84375
vt 0.09375 0.96875
vt 0.09375 1
vt 0.0625 1
vt 0.09375 0.8125
vt 0.09375 0.84375
vt 0 0.8125
vt 0.0625 0.875
vt 0.09375 0.875
vt 0.03125 1

# Normal
vn 0 0 -1

# Mesh description
g midDavao_mesh_0006

# Faces
f 1/1/1 2/2/1 3/3/1 4/4/1
f 5/2/1 6/5/1 7/6/1 8/3/1
f 9/5/1 10/7/1 11/8/1 12/6/1
f 13/9/1 14/10/1 15/2/1 16/1/1
f 17/11/1 18/12/1 19/13/1 20/14/1
f 21/3/1 22/6/1 23/15/1 24/16/1
f 25/2/1 26/5/1 27/6/1 28/3/1
f 29/2/1 30/5/1 31/6/1 32/3/1
f 33/2/1 34/5/1 35/6/1 36/3/1
f 37/2/1 38/5/1 39/6/1 40/3/1
f 41/2/1 42/5/1 43/6/1 44/3/1
f 45/2/1 46/5/1 47/6/1 48/3/1
f 49/5/1 50/7/1 51/8/1 52/6/1
f 53/17/1 54/14/1 55/10/1 56/9/1
f 57/15/1 58/18/1 59/19/1 60/20/1
f 61/12/1 62/21/1 63/22/1 64/13/1
f 65/12/1 66/21/1 67/22/1 68/13/1
f 69/23/1 70/11/1 71/14/1 72/17/1
f 73/23/1 74/11/1 75/14/1 76/17/1
f 77/10/1 78/24/1 79/5/1 80/2/1
f 81/12/1 82/21/1 83/22/1 84/13/1
f 85/23/1 86/11/1 87/14/1 88/17/1
f 89/3/1 90/6/1 91/15/1 92/16/1
f 93/2/1 94/5/1 95/6/1 96/3/1
f 97/2/1 98/5/1 99/6/1 100/3/1
f 101/5/1 102/7/1 103/8/1 104/6/1
f 105/17/1 106/14/1 107/10/1 108/9/1
f 109/14/1 110/13/1 111/24/1 112/10/1
f 113/14/1 114/13/1 115/24/1 116/10/1
f 117/14/1 118/13/1 119/24/1 120/10/1
f 121/14/1 122/13/1 123/24/1 124/10/1
f 125/14/1 126/13/1 127/24/1 128/10/1
f 129/14/1 130/13/1 131/24/1 132/10/1
f 133/15/1 134/18/1 135/19/1 136/20/1
f 137/23/1 138/11/1 139/14/1 140/17/1
f 141/23/1 142/11/1 143/14/1 144/17/1
f 145/10/1 146/24/1 147/5/1 148/2/1
f 149/24/1 150/25/1 151/7/1 152/5/1
f 153/17/1 154/14/1 155/10/1 156/9/1
f 157/14/1 158/13/1 159/24/1 160/10/1
f 161/15/1 162/18/1 163/19/1 164/20/1
f 165/10/1 166/24/1 167/5/1 168/2/1
f 169/24/1 170/25/1 171/7/1 172/5/1
f 173/9/1 174/10/1 175/2/1 176/1/1
f 177/11/1 178/12/1 179/13/1 180/14/1
f 181/24/1 182/25/1 183/7/1 184/5/1
f 185/2/1 186/5/1 187/6/1 188/3/1
f 189/2/1 190/5/1 191/6/1 192/3/1
f 193/5/1 194/7/1 195/8/1 196/6/1
f 197/1/1 198/2/1 199/3/1 200/4/1
f 201/6/1 202/8/1 203/18/1 204/15/1
f 205/10/1 206/24/1 207/5/1 208/2/1
f 209/24/1 210/25/1 211/7/1 212/5/1
f 213/11/1 214/12/1 215/13/1 216/14/1
f 217/23/1 218/11/1 219/14/1 220/17/1
f 221/3/1 222/6/1 223/15/1 224/16/1
f 225/2/1 226/5/1 227/6/1 228/3/1
f 229/2/1 230/5/1 231/6/1 232/3/1
f 233/2/1 234/5/1 235/6/1 236/3/1
f 237/5/1 238/7/1 239/8/1 240/6/1
f 241/9/1 242/10/1 243/2/1 244/1/1
f 245/10/1 246/24/1 247/5/1 248/2/1
f 249/16/1 250/15/1 251/20/1 252/26/1
f 253/13/1 254/22/1 255/25/1 256/24/1
f 257/12/1 258/21/1 259/22/1 260/13/1
f 261/23/1 262/11/1 263/14/1 264/17/1
f 265/23/1 266/11/1 267/14/1 268/17/1
f 269/10/1 270/24/1 271/5/1 272/2/1
f 273/23/1 274/11/1 275/14/1 276/17/1
f 277/11/1 278/12/1 279/13/1 280/14/1
f 281/24/1 282/25/1 283/7/1 284/5/1
f 285/1/1 286/2/1 287/3/1 288/4/1
f 289/6/1 290/8/1 291/18/1 292/15/1
f 293/10/1 294/24/1 295/5/1 296/2/1
f 297/24/1 298/25/1 299/7/1 300/5/1
f 301/23/1 302/11/1 303/14/1 304/17/1
f 305/10/1 306/24/1 307/5/1 308/2/1
f 309/10/1 310/24/1 311/5/1 312/2/1
f 313/23/1 314/11/1 315/14/1 316/17/1
f 317/12/1 318/21/1 319/22/1 320/13/1
f 321/16/1 322/15/1 323/20/1 324/26/1
f 325/13/1 326/22/1 327/25/1 328/24/1
f 329/9/1 330/10/1 331/2/1 332/1/1
f 333/10/1 334/24/1 335/5/1 336/2/1
f 337/10/1 338/24/1 339/5/1 340/2/1
f 341/24/1 342/25/1 343/7/1 344/5/1
f 345/10/1 346/24/1 347/5/1 348/2/1
f 349/23/1 350/11/1 351/14/1 352/17/1
f 353/16/1 354/15/1 355/20/1 356/26/1
f 357/14/1 358/13/1 359/24/1 360/10/1
f 361/14/1 362/13/1 363/24/1 364/10/1
f 365/13/1 366/22/1 367/25/1 368/24/1
f 369/9/1 370/10/1 371/2/1 372/1/1
f 373/23/1 374/11/1 375/14/1 376/17/1
f 377/10/1 378/24/1 379/5/1 380/2/1
f 381/3/1 382/6/1 383/15/1 384/16/1
f 385/2/1 386/5/1 387/6/1 388/3/1
f 389/2/1 390/5/1 391/6/1 392/3/1
f 393/5/1 394/7/1 395/8/1 396/6/1
f 397/10/1 398/24/1 399/5/1 400/2/1
f 401/11/1 402/12/1 403/13/1 404/14/1
f 405/24/1 406/25/1 407/7/1 408/5/1
f 409/17/1 410/14/1 411/10/1 412/9/1
f 413/15/1 414/18/1 415/19/1 416/20/1
f 417/23/1 418/11/1 419/14/1 420/17/1
f 421/12/1 422/21/1 423/22/1 424/13/1
f 425/10/1 426/24/1 427/5/1 428/2/1
f 429/10/1 430/24/1 431/5/1 432/2/1
f 433/3/1 434/6/1 435/15/1 436/16/1
f 437/2/1 438/5/1 439/6/1 440/3/1
f 441/5/1 442/7/1 443/8/1 444/6/1
f 445/14/1 446/13/1 447/24/1 448/10/1
f 449/14/1 450/13/1 451/24/1 452/10/1
f 453/13/1 454/22/1 455/25/1 456/24/1
f 457/17/1 458/14/1 459/10/1 460/9/1
f 461/14/1 462/13/1 463/24/1 464/10/1
f 465/14/1 466/13/1 467/24/1 468/10/1
f 469/15/1 470/18/1 471/19/1 472/20/1
f 473/12/1 474/21/1 475/22/1 476/13/1
f 477/10/1 478/24/1 479/5/1 480/2/1
f 481/23/1 482/11/1 483/14/1 484/17/1
f 485/3/1 486/6/1 487/15/1 488/16/1
f 489/5/1 490/7/1 491/8/1 492/6/1
f 493/17/1 494/14/1 495/10/1 496/9/1
f 497/14/1 498/13/1 499/24/1 500/10/1
f 501/15/1 502/18/1 503/19/1 504/20/1
f 505/10/1 506/24/1 507/5/1 508/2/1
f 509/10/1 510/24/1 511/5/1 512/2/1
f 513/24/1 514/25/1 515/7/1 516/5/1
f 517/17/1 518/14/1 519/10/1 520/9/1
f 521/15/1 522/18/1 523/19/1 524/20/1
f 525/11/1 526/12/1 527/13/1 528/14/1
f 529/3/1 530/6/1 531/15/1 532/16/1
f 533/5/1 534/7/1 535/8/1 536/6/1
f 537/17/1 538/14/1 539/10/1 540/9/1
f 541/15/1 542/18/1 543/19/1 544/20/1
f 545/10/1 546/24/1 547/5/1 548/2/1
f 549/3/1 550/6/1 551/15/1 552/16/1
f 553/9/1 554/10/1 555/2/1 556/1/1
f 557/11/1 558/12/1 559/13/1 560/14/1
f 561/23/1 562/11/1 563/14/1 564/17/1
f 565/17/1 566/14/1 567/10/1 568/9/1
f 569/14/1 570/13/1 571/24/1 572/10/1
f 573/14/1 574/13/1 575/24/1 576/10/1

