# Tiled2Unity generated file. Do not modify by hand.
# Wavefront file for 'midDavao_mesh_0007.obj'

# Vertices (Count = 492)
v -1056 -64 0
v -1088 -64 0
v -1088 -32 0
v -1056 -32 0
v -1088 -64 0
v -1120 -64 0
v -1120 -32 0
v -1088 -32 0
v -1056 -96 0
v -1088 -96 0
v -1088 -64 0
v -1056 -64 0
v -1088 -96 0
v -1120 -96 0
v -1120 -64 0
v -1088 -64 0
v -1184 -96 0
v -1216 -96 0
v -1216 -64 0
v -1184 -64 0
v -1216 -96 0
v -1248 -96 0
v -1248 -64 0
v -1216 -64 0
v -1248 -96 0
v -1280 -96 0
v -1280 -64 0
v -1248 -64 0
v -160 -128 0
v -192 -128 0
v -192 -96 0
v -160 -96 0
v -192 -128 0
v -224 -128 0
v -224 -96 0
v -192 -96 0
v -224 -128 0
v -256 -128 0
v -256 -96 0
v -224 -96 0
v -576 -128 0
v -608 -128 0
v -608 -96 0
v -576 -96 0
v -608 -128 0
v -640 -128 0
v -640 -96 0
v -608 -96 0
v -576 -160 0
v -608 -160 0
v -608 -128 0
v -576 -128 0
v -608 -160 0
v -640 -160 0
v -640 -128 0
v -608 -128 0
v -1024 -160 0
v -1056 -160 0
v -1056 -128 0
v -1024 -128 0
v -1056 -160 0
v -1088 -160 0
v -1088 -128 0
v -1056 -128 0
v -1024 -192 0
v -1056 -192 0
v -1056 -160 0
v -1024 -160 0
v -1056 -192 0
v -1088 -192 0
v -1088 -160 0
v -1056 -160 0
v -512 -224 0
v -544 -224 0
v -544 -192 0
v -512 -192 0
v -544 -224 0
v -576 -224 0
v -576 -192 0
v -544 -192 0
v -512 -256 0
v -544 -256 0
v -544 -224 0
v -512 -224 0
v -544 -256 0
v -576 -256 0
v -576 -224 0
v -544 -224 0
v -1024 -256 0
v -1056 -256 0
v -1056 -224 0
v -1024 -224 0
v -1056 -256 0
v -1088 -256 0
v -1088 -224 0
v -1056 -224 0
v -1024 -288 0
v -1056 -288 0
v -1056 -256 0
v -1024 -256 0
v -1056 -288 0
v -1088 -288 0
v -1088 -256 0
v -1056 -256 0
v -1408 -320 0
v -1440 -320 0
v -1440 -288 0
v -1408 -288 0
v -1440 -320 0
v -1472 -320 0
v -1472 -288 0
v -1440 -288 0
v -1472 -320 0
v -1504 -320 0
v -1504 -288 0
v -1472 -288 0
v -320 -384 0
v -352 -384 0
v -352 -352 0
v -320 -352 0
v -352 -384 0
v -384 -384 0
v -384 -352 0
v -352 -352 0
v -384 -384 0
v -416 -384 0
v -416 -352 0
v -384 -352 0
v -480 -416 0
v -512 -416 0
v -512 -384 0
v -480 -384 0
v -512 -416 0
v -544 -416 0
v -544 -384 0
v -512 -384 0
v -480 -448 0
v -512 -448 0
v -512 -416 0
v -480 -416 0
v -512 -448 0
v -544 -448 0
v -544 -416 0
v -512 -416 0
v -896 -512 0
v -928 -512 0
v -928 -480 0
v -896 -480 0
v -928 -512 0
v -960 -512 0
v -960 -480 0
v -928 -480 0
v -480 -544 0
v -512 -544 0
v -512 -512 0
v -480 -512 0
v -512 -544 0
v -544 -544 0
v -544 -512 0
v -512 -512 0
v -896 -544 0
v -928 -544 0
v -928 -512 0
v -896 -512 0
v -928 -544 0
v -960 -544 0
v -960 -512 0
v -928 -512 0
v -480 -576 0
v -512 -576 0
v -512 -544 0
v -480 -544 0
v -512 -576 0
v -544 -576 0
v -544 -544 0
v -512 -544 0
v -1536 -608 0
v -1568 -608 0
v -1568 -576 0
v -1536 -576 0
v -1568 -608 0
v -1600 -608 0
v -1600 -576 0
v -1568 -576 0
v -1600 -608 0
v -1632 -608 0
v -1632 -576 0
v -1600 -576 0
v -448 -672 0
v -480 -672 0
v -480 -640 0
v -448 -640 0
v -480 -672 0
v -512 -672 0
v -512 -640 0
v -480 -640 0
v -864 -672 0
v -896 -672 0
v -896 -640 0
v -864 -640 0
v -896 -672 0
v -928 -672 0
v -928 -640 0
v -896 -640 0
v -448 -704 0
v -480 -704 0
v -480 -672 0
v -448 -672 0
v -480 -704 0
v -512 -704 0
v -512 -672 0
v -480 -672 0
v -864 -704 0
v -896 -704 0
v -896 -672 0
v -864 -672 0
v -896 -704 0
v -928 -704 0
v -928 -672 0
v -896 -672 0
v -416 -800 0
v -448 -800 0
v -448 -768 0
v -416 -768 0
v -448 -800 0
v -480 -800 0
v -480 -768 0
v -448 -768 0
v -416 -832 0
v -448 -832 0
v -448 -800 0
v -416 -800 0
v -448 -832 0
v -480 -832 0
v -480 -800 0
v -448 -800 0
v -864 -832 0
v -896 -832 0
v -896 -800 0
v -864 -800 0
v -896 -832 0
v -928 -832 0
v -928 -800 0
v -896 -800 0
v -864 -864 0
v -896 -864 0
v -896 -832 0
v -864 -832 0
v -896 -864 0
v -928 -864 0
v -928 -832 0
v -896 -832 0
v -416 -960 0
v -448 -960 0
v -448 -928 0
v -416 -928 0
v -448 -960 0
v -480 -960 0
v -480 -928 0
v -448 -928 0
v -864 -960 0
v -896 -960 0
v -896 -928 0
v -864 -928 0
v -896 -960 0
v -928 -960 0
v -928 -928 0
v -896 -928 0
v -416 -992 0
v -448 -992 0
v -448 -960 0
v -416 -960 0
v -448 -992 0
v -480 -992 0
v -480 -960 0
v -448 -960 0
v -864 -992 0
v -896 -992 0
v -896 -960 0
v -864 -960 0
v -896 -992 0
v -928 -992 0
v -928 -960 0
v -896 -960 0
v -416 -1088 0
v -448 -1088 0
v -448 -1056 0
v -416 -1056 0
v -448 -1088 0
v -480 -1088 0
v -480 -1056 0
v -448 -1056 0
v -416 -1120 0
v -448 -1120 0
v -448 -1088 0
v -416 -1088 0
v -448 -1120 0
v -480 -1120 0
v -480 -1088 0
v -448 -1088 0
v -864 -1120 0
v -896 -1120 0
v -896 -1088 0
v -864 -1088 0
v -896 -1120 0
v -928 -1120 0
v -928 -1088 0
v -896 -1088 0
v -864 -1152 0
v -896 -1152 0
v -896 -1120 0
v -864 -1120 0
v -896 -1152 0
v -928 -1152 0
v -928 -1120 0
v -896 -1120 0
v -832 -1216 0
v -864 -1216 0
v -864 -1184 0
v -832 -1184 0
v -864 -1216 0
v -896 -1216 0
v -896 -1184 0
v -864 -1184 0
v -1312 -1216 0
v -1344 -1216 0
v -1344 -1184 0
v -1312 -1184 0
v -1344 -1216 0
v -1376 -1216 0
v -1376 -1184 0
v -1344 -1184 0
v -1376 -1216 0
v -1408 -1216 0
v -1408 -1184 0
v -1376 -1184 0
v -224 -1248 0
v -256 -1248 0
v -256 -1216 0
v -224 -1216 0
v -256 -1248 0
v -288 -1248 0
v -288 -1216 0
v -256 -1216 0
v -288 -1248 0
v -320 -1248 0
v -320 -1216 0
v -288 -1216 0
v -416 -1248 0
v -448 -1248 0
v -448 -1216 0
v -416 -1216 0
v -448 -1248 0
v -480 -1248 0
v -480 -1216 0
v -448 -1216 0
v -832 -1248 0
v -864 -1248 0
v -864 -1216 0
v -832 -1216 0
v -864 -1248 0
v -896 -1248 0
v -896 -1216 0
v -864 -1216 0
v -416 -1280 0
v -448 -1280 0
v -448 -1248 0
v -416 -1248 0
v -448 -1280 0
v -480 -1280 0
v -480 -1248 0
v -448 -1248 0
v -832 -1344 0
v -864 -1344 0
v -864 -1312 0
v -832 -1312 0
v -864 -1344 0
v -896 -1344 0
v -896 -1312 0
v -864 -1312 0
v -480 -1376 0
v -512 -1376 0
v -512 -1344 0
v -480 -1344 0
v -512 -1376 0
v -544 -1376 0
v -544 -1344 0
v -512 -1344 0
v -832 -1376 0
v -864 -1376 0
v -864 -1344 0
v -832 -1344 0
v -864 -1376 0
v -896 -1376 0
v -896 -1344 0
v -864 -1344 0
v -480 -1408 0
v -512 -1408 0
v -512 -1376 0
v -480 -1376 0
v -512 -1408 0
v -544 -1408 0
v -544 -1376 0
v -512 -1376 0
v -544 -1472 0
v -576 -1472 0
v -576 -1440 0
v -544 -1440 0
v -576 -1472 0
v -608 -1472 0
v -608 -1440 0
v -576 -1440 0
v -864 -1472 0
v -896 -1472 0
v -896 -1440 0
v -864 -1440 0
v -896 -1472 0
v -928 -1472 0
v -928 -1440 0
v -896 -1440 0
v -544 -1504 0
v -576 -1504 0
v -576 -1472 0
v -544 -1472 0
v -576 -1504 0
v -608 -1504 0
v -608 -1472 0
v -576 -1472 0
v -864 -1504 0
v -896 -1504 0
v -896 -1472 0
v -864 -1472 0
v -896 -1504 0
v -928 -1504 0
v -928 -1472 0
v -896 -1472 0
v -352 -1536 0
v -384 -1536 0
v -384 -1504 0
v -352 -1504 0
v -384 -1536 0
v -416 -1536 0
v -416 -1504 0
v -384 -1504 0
v -416 -1536 0
v -448 -1536 0
v -448 -1504 0
v -416 -1504 0
v -1248 -1536 0
v -1280 -1536 0
v -1280 -1504 0
v -1248 -1504 0
v -1280 -1536 0
v -1312 -1536 0
v -1312 -1504 0
v -1280 -1504 0
v -1312 -1536 0
v -1344 -1536 0
v -1344 -1504 0
v -1312 -1504 0
v -608 -1568 0
v -640 -1568 0
v -640 -1536 0
v -608 -1536 0
v -640 -1568 0
v -672 -1568 0
v -672 -1536 0
v -640 -1536 0
v -928 -1568 0
v -960 -1568 0
v -960 -1536 0
v -928 -1536 0
v -960 -1568 0
v -992 -1568 0
v -992 -1536 0
v -960 -1536 0
v -608 -1600 0
v -640 -1600 0
v -640 -1568 0
v -608 -1568 0
v -640 -1600 0
v -672 -1600 0
v -672 -1568 0
v -640 -1568 0
v -928 -1600 0
v -960 -1600 0
v -960 -1568 0
v -928 -1568 0
v -960 -1600 0
v -992 -1600 0
v -992 -1568 0
v -960 -1568 0

# Texture cooridinates (Count = 17)
vt 0.6923077 0.4615384
vt 0.7692308 0.4615384
vt 0.7692308 0.5384616
vt 0.6923077 0.5384616
vt 0.8461539 0.4615384
vt 0.8461539 0.5384616
vt 0.6923077 0.3846154
vt 0.7692308 0.3846154
vt 0.8461539 0.3846154
vt 0 0.4615384
vt 0.07692308 0.4615384
vt 0.07692308 0.5384616
vt 0 0.5384616
vt 0.1538462 0.4615384
vt 0.1538462 0.5384616
vt 0.2307692 0.4615384
vt 0.2307692 0.5384616

# Normal
vn 0 0 -1

# Mesh description
g midDavao_mesh_0007

# Faces
f 1/1/1 2/2/1 3/3/1 4/4/1
f 5/2/1 6/5/1 7/6/1 8/3/1
f 9/7/1 10/8/1 11/2/1 12/1/1
f 13/8/1 14/9/1 15/5/1 16/2/1
f 17/10/1 18/11/1 19/12/1 20/13/1
f 21/11/1 22/14/1 23/15/1 24/12/1
f 25/14/1 26/16/1 27/17/1 28/15/1
f 29/10/1 30/11/1 31/12/1 32/13/1
f 33/11/1 34/14/1 35/15/1 36/12/1
f 37/14/1 38/16/1 39/17/1 40/15/1
f 41/1/1 42/2/1 43/3/1 44/4/1
f 45/2/1 46/5/1 47/6/1 48/3/1
f 49/7/1 50/8/1 51/2/1 52/1/1
f 53/8/1 54/9/1 55/5/1 56/2/1
f 57/1/1 58/2/1 59/3/1 60/4/1
f 61/2/1 62/5/1 63/6/1 64/3/1
f 65/7/1 66/8/1 67/2/1 68/1/1
f 69/8/1 70/9/1 71/5/1 72/2/1
f 73/1/1 74/2/1 75/3/1 76/4/1
f 77/2/1 78/5/1 79/6/1 80/3/1
f 81/7/1 82/8/1 83/2/1 84/1/1
f 85/8/1 86/9/1 87/5/1 88/2/1
f 89/1/1 90/2/1 91/3/1 92/4/1
f 93/2/1 94/5/1 95/6/1 96/3/1
f 97/7/1 98/8/1 99/2/1 100/1/1
f 101/8/1 102/9/1 103/5/1 104/2/1
f 105/10/1 106/11/1 107/12/1 108/13/1
f 109/11/1 110/14/1 111/15/1 112/12/1
f 113/14/1 114/16/1 115/17/1 116/15/1
f 117/10/1 118/11/1 119/12/1 120/13/1
f 121/11/1 122/14/1 123/15/1 124/12/1
f 125/14/1 126/16/1 127/17/1 128/15/1
f 129/1/1 130/2/1 131/3/1 132/4/1
f 133/2/1 134/5/1 135/6/1 136/3/1
f 137/7/1 138/8/1 139/2/1 140/1/1
f 141/8/1 142/9/1 143/5/1 144/2/1
f 145/1/1 146/2/1 147/3/1 148/4/1
f 149/2/1 150/5/1 151/6/1 152/3/1
f 153/1/1 154/2/1 155/3/1 156/4/1
f 157/2/1 158/5/1 159/6/1 160/3/1
f 161/7/1 162/8/1 163/2/1 164/1/1
f 165/8/1 166/9/1 167/5/1 168/2/1
f 169/7/1 170/8/1 171/2/1 172/1/1
f 173/8/1 174/9/1 175/5/1 176/2/1
f 177/10/1 178/11/1 179/12/1 180/13/1
f 181/11/1 182/14/1 183/15/1 184/12/1
f 185/14/1 186/16/1 187/17/1 188/15/1
f 189/1/1 190/2/1 191/3/1 192/4/1
f 193/2/1 194/5/1 195/6/1 196/3/1
f 197/1/1 198/2/1 199/3/1 200/4/1
f 201/2/1 202/5/1 203/6/1 204/3/1
f 205/7/1 206/8/1 207/2/1 208/1/1
f 209/8/1 210/9/1 211/5/1 212/2/1
f 213/7/1 214/8/1 215/2/1 216/1/1
f 217/8/1 218/9/1 219/5/1 220/2/1
f 221/1/1 222/2/1 223/3/1 224/4/1
f 225/2/1 226/5/1 227/6/1 228/3/1
f 229/7/1 230/8/1 231/2/1 232/1/1
f 233/8/1 234/9/1 235/5/1 236/2/1
f 237/1/1 238/2/1 239/3/1 240/4/1
f 241/2/1 242/5/1 243/6/1 244/3/1
f 245/7/1 246/8/1 247/2/1 248/1/1
f 249/8/1 250/9/1 251/5/1 252/2/1
f 253/1/1 254/2/1 255/3/1 256/4/1
f 257/2/1 258/5/1 259/6/1 260/3/1
f 261/1/1 262/2/1 263/3/1 264/4/1
f 265/2/1 266/5/1 267/6/1 268/3/1
f 269/7/1 270/8/1 271/2/1 272/1/1
f 273/8/1 274/9/1 275/5/1 276/2/1
f 277/7/1 278/8/1 279/2/1 280/1/1
f 281/8/1 282/9/1 283/5/1 284/2/1
f 285/1/1 286/2/1 287/3/1 288/4/1
f 289/2/1 290/5/1 291/6/1 292/3/1
f 293/7/1 294/8/1 295/2/1 296/1/1
f 297/8/1 298/9/1 299/5/1 300/2/1
f 301/1/1 302/2/1 303/3/1 304/4/1
f 305/2/1 306/5/1 307/6/1 308/3/1
f 309/7/1 310/8/1 311/2/1 312/1/1
f 313/8/1 314/9/1 315/5/1 316/2/1
f 317/1/1 318/2/1 319/3/1 320/4/1
f 321/2/1 322/5/1 323/6/1 324/3/1
f 325/10/1 326/11/1 327/12/1 328/13/1
f 329/11/1 330/14/1 331/15/1 332/12/1
f 333/14/1 334/16/1 335/17/1 336/15/1
f 337/10/1 338/11/1 339/12/1 340/13/1
f 341/11/1 342/14/1 343/15/1 344/12/1
f 345/14/1 346/16/1 347/17/1 348/15/1
f 349/1/1 350/2/1 351/3/1 352/4/1
f 353/2/1 354/5/1 355/6/1 356/3/1
f 357/7/1 358/8/1 359/2/1 360/1/1
f 361/8/1 362/9/1 363/5/1 364/2/1
f 365/7/1 366/8/1 367/2/1 368/1/1
f 369/8/1 370/9/1 371/5/1 372/2/1
f 373/1/1 374/2/1 375/3/1 376/4/1
f 377/2/1 378/5/1 379/6/1 380/3/1
f 381/1/1 382/2/1 383/3/1 384/4/1
f 385/2/1 386/5/1 387/6/1 388/3/1
f 389/7/1 390/8/1 391/2/1 392/1/1
f 393/8/1 394/9/1 395/5/1 396/2/1
f 397/7/1 398/8/1 399/2/1 400/1/1
f 401/8/1 402/9/1 403/5/1 404/2/1
f 405/1/1 406/2/1 407/3/1 408/4/1
f 409/2/1 410/5/1 411/6/1 412/3/1
f 413/1/1 414/2/1 415/3/1 416/4/1
f 417/2/1 418/5/1 419/6/1 420/3/1
f 421/7/1 422/8/1 423/2/1 424/1/1
f 425/8/1 426/9/1 427/5/1 428/2/1
f 429/7/1 430/8/1 431/2/1 432/1/1
f 433/8/1 434/9/1 435/5/1 436/2/1
f 437/10/1 438/11/1 439/12/1 440/13/1
f 441/11/1 442/14/1 443/15/1 444/12/1
f 445/14/1 446/16/1 447/17/1 448/15/1
f 449/10/1 450/11/1 451/12/1 452/13/1
f 453/11/1 454/14/1 455/15/1 456/12/1
f 457/14/1 458/16/1 459/17/1 460/15/1
f 461/1/1 462/2/1 463/3/1 464/4/1
f 465/2/1 466/5/1 467/6/1 468/3/1
f 469/1/1 470/2/1 471/3/1 472/4/1
f 473/2/1 474/5/1 475/6/1 476/3/1
f 477/7/1 478/8/1 479/2/1 480/1/1
f 481/8/1 482/9/1 483/5/1 484/2/1
f 485/7/1 486/8/1 487/2/1 488/1/1
f 489/8/1 490/9/1 491/5/1 492/2/1

