# Tiled2Unity generated file. Do not modify by hand.
# Wavefront file for 'WestInnercave2_mesh_0002.obj'

# Vertices (Count = 380)
v 0 -64 0
v -32 -64 0
v -32 -32 0
v 0 -32 0
v -32 -64 0
v -64 -64 0
v -64 -32 0
v -32 -32 0
v -64 -64 0
v -96 -64 0
v -96 -32 0
v -64 -32 0
v -96 -64 0
v -128 -64 0
v -128 -32 0
v -96 -32 0
v -128 -64 0
v -160 -64 0
v -160 -32 0
v -128 -32 0
v -160 -64 0
v -192 -64 0
v -192 -32 0
v -160 -32 0
v -192 -64 0
v -224 -64 0
v -224 -32 0
v -192 -32 0
v -224 -64 0
v -256 -64 0
v -256 -32 0
v -224 -32 0
v -256 -64 0
v -288 -64 0
v -288 -32 0
v -256 -32 0
v -288 -64 0
v -320 -64 0
v -320 -32 0
v -288 -32 0
v -384 -64 0
v -416 -64 0
v -416 -32 0
v -384 -32 0
v -416 -64 0
v -448 -64 0
v -448 -32 0
v -416 -32 0
v -448 -64 0
v -480 -64 0
v -480 -32 0
v -448 -32 0
v -480 -64 0
v -512 -64 0
v -512 -32 0
v -480 -32 0
v -512 -64 0
v -544 -64 0
v -544 -32 0
v -512 -32 0
v -544 -64 0
v -576 -64 0
v -576 -32 0
v -544 -32 0
v -576 -64 0
v -608 -64 0
v -608 -32 0
v -576 -32 0
v -608 -64 0
v -640 -64 0
v -640 -32 0
v -608 -32 0
v 0 -96 0
v -32 -96 0
v -32 -64 0
v 0 -64 0
v -32 -96 0
v -64 -96 0
v -64 -64 0
v -32 -64 0
v -64 -96 0
v -96 -96 0
v -96 -64 0
v -64 -64 0
v -96 -96 0
v -128 -96 0
v -128 -64 0
v -96 -64 0
v -128 -96 0
v -160 -96 0
v -160 -64 0
v -128 -64 0
v -160 -96 0
v -192 -96 0
v -192 -64 0
v -160 -64 0
v -192 -96 0
v -224 -96 0
v -224 -64 0
v -192 -64 0
v -224 -96 0
v -256 -96 0
v -256 -64 0
v -224 -64 0
v -256 -96 0
v -288 -96 0
v -288 -64 0
v -256 -64 0
v -288 -96 0
v -320 -96 0
v -320 -64 0
v -288 -64 0
v -384 -96 0
v -416 -96 0
v -416 -64 0
v -384 -64 0
v -416 -96 0
v -448 -96 0
v -448 -64 0
v -416 -64 0
v -448 -96 0
v -480 -96 0
v -480 -64 0
v -448 -64 0
v -480 -96 0
v -512 -96 0
v -512 -64 0
v -480 -64 0
v -512 -96 0
v -544 -96 0
v -544 -64 0
v -512 -64 0
v -544 -96 0
v -576 -96 0
v -576 -64 0
v -544 -64 0
v -576 -96 0
v -608 -96 0
v -608 -64 0
v -576 -64 0
v -608 -96 0
v -640 -96 0
v -640 -64 0
v -608 -64 0
v 0 -128 0
v -32 -128 0
v -32 -96 0
v 0 -96 0
v -32 -128 0
v -64 -128 0
v -64 -96 0
v -32 -96 0
v -64 -128 0
v -96 -128 0
v -96 -96 0
v -64 -96 0
v -96 -128 0
v -128 -128 0
v -128 -96 0
v -96 -96 0
v -128 -128 0
v -160 -128 0
v -160 -96 0
v -128 -96 0
v -160 -128 0
v -192 -128 0
v -192 -96 0
v -160 -96 0
v -192 -128 0
v -224 -128 0
v -224 -96 0
v -192 -96 0
v -224 -128 0
v -256 -128 0
v -256 -96 0
v -224 -96 0
v -256 -128 0
v -288 -128 0
v -288 -96 0
v -256 -96 0
v -288 -128 0
v -320 -128 0
v -320 -96 0
v -288 -96 0
v -384 -128 0
v -416 -128 0
v -416 -96 0
v -384 -96 0
v -416 -128 0
v -448 -128 0
v -448 -96 0
v -416 -96 0
v -448 -128 0
v -480 -128 0
v -480 -96 0
v -448 -96 0
v -480 -128 0
v -512 -128 0
v -512 -96 0
v -480 -96 0
v -512 -128 0
v -544 -128 0
v -544 -96 0
v -512 -96 0
v -544 -128 0
v -576 -128 0
v -576 -96 0
v -544 -96 0
v -576 -128 0
v -608 -128 0
v -608 -96 0
v -576 -96 0
v -608 -128 0
v -640 -128 0
v -640 -96 0
v -608 -96 0
v -64 -160 0
v -96 -160 0
v -96 -128 0
v -64 -128 0
v -192 -192 0
v -224 -192 0
v -224 -160 0
v -192 -160 0
v -480 -192 0
v -512 -192 0
v -512 -160 0
v -480 -160 0
v -576 -192 0
v -608 -192 0
v -608 -160 0
v -576 -160 0
v -96 -448 0
v -128 -448 0
v -128 -416 0
v -96 -416 0
v -128 -448 0
v -160 -448 0
v -160 -416 0
v -128 -416 0
v -160 -448 0
v -192 -448 0
v -192 -416 0
v -160 -416 0
v -192 -448 0
v -224 -448 0
v -224 -416 0
v -192 -416 0
v -224 -448 0
v -256 -448 0
v -256 -416 0
v -224 -416 0
v -256 -448 0
v -288 -448 0
v -288 -416 0
v -256 -416 0
v -288 -448 0
v -320 -448 0
v -320 -416 0
v -288 -416 0
v -320 -448 0
v -352 -448 0
v -352 -416 0
v -320 -416 0
v -352 -448 0
v -384 -448 0
v -384 -416 0
v -352 -416 0
v -384 -448 0
v -416 -448 0
v -416 -416 0
v -384 -416 0
v -416 -448 0
v -448 -448 0
v -448 -416 0
v -416 -416 0
v -448 -448 0
v -480 -448 0
v -480 -416 0
v -448 -416 0
v -480 -448 0
v -512 -448 0
v -512 -416 0
v -480 -416 0
v -512 -448 0
v -544 -448 0
v -544 -416 0
v -512 -416 0
v -544 -448 0
v -576 -448 0
v -576 -416 0
v -544 -416 0
v -96 -480 0
v -128 -480 0
v -128 -448 0
v -96 -448 0
v -128 -480 0
v -160 -480 0
v -160 -448 0
v -128 -448 0
v -160 -480 0
v -192 -480 0
v -192 -448 0
v -160 -448 0
v -192 -480 0
v -224 -480 0
v -224 -448 0
v -192 -448 0
v -224 -480 0
v -256 -480 0
v -256 -448 0
v -224 -448 0
v -256 -480 0
v -288 -480 0
v -288 -448 0
v -256 -448 0
v -288 -480 0
v -320 -480 0
v -320 -448 0
v -288 -448 0
v -320 -480 0
v -352 -480 0
v -352 -448 0
v -320 -448 0
v -352 -480 0
v -384 -480 0
v -384 -448 0
v -352 -448 0
v -384 -480 0
v -416 -480 0
v -416 -448 0
v -384 -448 0
v -416 -480 0
v -448 -480 0
v -448 -448 0
v -416 -448 0
v -448 -480 0
v -480 -480 0
v -480 -448 0
v -448 -448 0
v -480 -480 0
v -512 -480 0
v -512 -448 0
v -480 -448 0
v -512 -480 0
v -544 -480 0
v -544 -448 0
v -512 -448 0
v -544 -480 0
v -576 -480 0
v -576 -448 0
v -544 -448 0
v -256 -512 0
v -288 -512 0
v -288 -480 0
v -256 -480 0
v -416 -512 0
v -448 -512 0
v -448 -480 0
v -416 -480 0
v -512 -512 0
v -544 -512 0
v -544 -480 0
v -512 -480 0
v -256 -544 0
v -288 -544 0
v -288 -512 0
v -256 -512 0
v -416 -544 0
v -448 -544 0
v -448 -512 0
v -416 -512 0
v -512 -544 0
v -544 -544 0
v -544 -512 0
v -512 -512 0
v -64 -608 0
v -96 -608 0
v -96 -576 0
v -64 -576 0

# Texture cooridinates (Count = 27)
vt 0.3333333 0.6666666
vt 0.4166667 0.6666666
vt 0.4166667 0.7777778
vt 0.3333333 0.7777778
vt 0.08333334 0.5555556
vt 0.1666667 0.5555556
vt 0.1666667 0.6666666
vt 0.08333334 0.6666666
vt 0.25 0.6666666
vt 0.25 0.7777778
vt 0.5 0.5555556
vt 0.5833333 0.5555556
vt 0.5833333 0.6666666
vt 0.5 0.6666666
vt 0.3333333 0.5555556
vt 0.4166667 0.5555556
vt 0.08333334 0.4444444
vt 0.1666667 0.4444444
vt 0.25 0.5555556
vt 0.08333334 0
vt 0.1666667 0
vt 0.1666667 0.1111111
vt 0.08333334 0.1111111
vt 0 0.5555556
vt 0 0.6666666
vt 0 0.4444444
vt 0.25 0.4444444

# Normal
vn 0 0 -1

# Mesh description
g WestInnercave2_mesh_0002

# Faces
f 1/1/1 2/2/1 3/3/1 4/4/1
f 5/5/1 6/6/1 7/7/1 8/8/1
f 9/5/1 10/6/1 11/7/1 12/8/1
f 13/5/1 14/6/1 15/7/1 16/8/1
f 17/5/1 18/6/1 19/7/1 20/8/1
f 21/5/1 22/6/1 23/7/1 24/8/1
f 25/5/1 26/6/1 27/7/1 28/8/1
f 29/5/1 30/6/1 31/7/1 32/8/1
f 33/5/1 34/6/1 35/7/1 36/8/1
f 37/9/1 38/1/1 39/4/1 40/10/1
f 41/1/1 42/2/1 43/3/1 44/4/1
f 45/11/1 46/12/1 47/13/1 48/14/1
f 49/11/1 50/12/1 51/13/1 52/14/1
f 53/11/1 54/12/1 55/13/1 56/14/1
f 57/11/1 58/12/1 59/13/1 60/14/1
f 61/11/1 62/12/1 63/13/1 64/14/1
f 65/11/1 66/12/1 67/13/1 68/14/1
f 69/9/1 70/1/1 71/4/1 72/10/1
f 73/1/1 74/2/1 75/3/1 76/4/1
f 77/5/1 78/6/1 79/7/1 80/8/1
f 81/5/1 82/6/1 83/7/1 84/8/1
f 85/5/1 86/6/1 87/7/1 88/8/1
f 89/5/1 90/6/1 91/7/1 92/8/1
f 93/5/1 94/6/1 95/7/1 96/8/1
f 97/5/1 98/6/1 99/7/1 100/8/1
f 101/5/1 102/6/1 103/7/1 104/8/1
f 105/5/1 106/6/1 107/7/1 108/8/1
f 109/9/1 110/1/1 111/4/1 112/10/1
f 113/1/1 114/2/1 115/3/1 116/4/1
f 117/11/1 118/12/1 119/13/1 120/14/1
f 121/11/1 122/12/1 123/13/1 124/14/1
f 125/11/1 126/12/1 127/13/1 128/14/1
f 129/11/1 130/12/1 131/13/1 132/14/1
f 133/11/1 134/12/1 135/13/1 136/14/1
f 137/11/1 138/12/1 139/13/1 140/14/1
f 141/9/1 142/1/1 143/4/1 144/10/1
f 145/15/1 146/16/1 147/2/1 148/1/1
f 149/17/1 150/18/1 151/6/1 152/5/1
f 153/17/1 154/18/1 155/6/1 156/5/1
f 157/17/1 158/18/1 159/6/1 160/5/1
f 161/17/1 162/18/1 163/6/1 164/5/1
f 165/17/1 166/18/1 167/6/1 168/5/1
f 169/17/1 170/18/1 171/6/1 172/5/1
f 173/17/1 174/18/1 175/6/1 176/5/1
f 177/17/1 178/18/1 179/6/1 180/5/1
f 181/19/1 182/15/1 183/1/1 184/9/1
f 185/15/1 186/16/1 187/2/1 188/1/1
f 189/17/1 190/18/1 191/6/1 192/5/1
f 193/17/1 194/18/1 195/6/1 196/5/1
f 197/17/1 198/18/1 199/6/1 200/5/1
f 201/17/1 202/18/1 203/6/1 204/5/1
f 205/17/1 206/18/1 207/6/1 208/5/1
f 209/17/1 210/18/1 211/6/1 212/5/1
f 213/19/1 214/15/1 215/1/1 216/9/1
f 217/20/1 218/21/1 219/22/1 220/23/1
f 221/20/1 222/21/1 223/22/1 224/23/1
f 225/20/1 226/21/1 227/22/1 228/23/1
f 229/20/1 230/21/1 231/22/1 232/23/1
f 233/24/1 234/5/1 235/8/1 236/25/1
f 237/5/1 238/6/1 239/7/1 240/8/1
f 241/5/1 242/6/1 243/7/1 244/8/1
f 245/5/1 246/6/1 247/7/1 248/8/1
f 249/5/1 250/6/1 251/7/1 252/8/1
f 253/5/1 254/6/1 255/7/1 256/8/1
f 257/5/1 258/6/1 259/7/1 260/8/1
f 261/5/1 262/6/1 263/7/1 264/8/1
f 265/5/1 266/6/1 267/7/1 268/8/1
f 269/5/1 270/6/1 271/7/1 272/8/1
f 273/5/1 274/6/1 275/7/1 276/8/1
f 277/5/1 278/6/1 279/7/1 280/8/1
f 281/5/1 282/6/1 283/7/1 284/8/1
f 285/5/1 286/6/1 287/7/1 288/8/1
f 289/6/1 290/19/1 291/9/1 292/7/1
f 293/26/1 294/17/1 295/5/1 296/24/1
f 297/17/1 298/18/1 299/6/1 300/5/1
f 301/17/1 302/18/1 303/6/1 304/5/1
f 305/17/1 306/18/1 307/6/1 308/5/1
f 309/17/1 310/18/1 311/6/1 312/5/1
f 313/17/1 314/18/1 315/6/1 316/5/1
f 317/17/1 318/18/1 319/6/1 320/5/1
f 321/17/1 322/18/1 323/6/1 324/5/1
f 325/17/1 326/18/1 327/6/1 328/5/1
f 329/17/1 330/18/1 331/6/1 332/5/1
f 333/17/1 334/18/1 335/6/1 336/5/1
f 337/17/1 338/18/1 339/6/1 340/5/1
f 341/17/1 342/18/1 343/6/1 344/5/1
f 345/17/1 346/18/1 347/6/1 348/5/1
f 349/18/1 350/27/1 351/19/1 352/6/1
f 353/20/1 354/21/1 355/22/1 356/23/1
f 357/20/1 358/21/1 359/22/1 360/23/1
f 361/20/1 362/21/1 363/22/1 364/23/1
f 365/20/1 366/21/1 367/22/1 368/23/1
f 369/20/1 370/21/1 371/22/1 372/23/1
f 373/20/1 374/21/1 375/22/1 376/23/1
f 377/20/1 378/21/1 379/22/1 380/23/1

