# Tiled2Unity generated file. Do not modify by hand.
# Wavefront file for 'WestInnercave2_mesh_0003.obj'

# Vertices (Count = 420)
v -256 -224 0
v -288 -224 0
v -288 -192 0
v -256 -192 0
v -288 -224 0
v -320 -224 0
v -320 -192 0
v -288 -192 0
v -320 -224 0
v -352 -224 0
v -352 -192 0
v -320 -192 0
v -32 -256 0
v -64 -256 0
v -64 -224 0
v -32 -224 0
v -64 -256 0
v -96 -256 0
v -96 -224 0
v -64 -224 0
v -96 -256 0
v -128 -256 0
v -128 -224 0
v -96 -224 0
v -128 -256 0
v -160 -256 0
v -160 -224 0
v -128 -224 0
v -160 -256 0
v -192 -256 0
v -192 -224 0
v -160 -224 0
v -192 -256 0
v -224 -256 0
v -224 -224 0
v -192 -224 0
v -224 -256 0
v -256 -256 0
v -256 -224 0
v -224 -224 0
v -256 -256 0
v -288 -256 0
v -288 -224 0
v -256 -224 0
v -288 -256 0
v -320 -256 0
v -320 -224 0
v -288 -224 0
v -320 -256 0
v -352 -256 0
v -352 -224 0
v -320 -224 0
v -416 -256 0
v -448 -256 0
v -448 -224 0
v -416 -224 0
v -448 -256 0
v -480 -256 0
v -480 -224 0
v -448 -224 0
v -480 -256 0
v -512 -256 0
v -512 -224 0
v -480 -224 0
v -512 -256 0
v -544 -256 0
v -544 -224 0
v -512 -224 0
v -544 -256 0
v -576 -256 0
v -576 -224 0
v -544 -224 0
v -576 -256 0
v -608 -256 0
v -608 -224 0
v -576 -224 0
v -32 -288 0
v -64 -288 0
v -64 -256 0
v -32 -256 0
v -64 -288 0
v -96 -288 0
v -96 -256 0
v -64 -256 0
v -96 -288 0
v -128 -288 0
v -128 -256 0
v -96 -256 0
v -128 -288 0
v -160 -288 0
v -160 -256 0
v -128 -256 0
v -160 -288 0
v -192 -288 0
v -192 -256 0
v -160 -256 0
v -192 -288 0
v -224 -288 0
v -224 -256 0
v -192 -256 0
v -224 -288 0
v -256 -288 0
v -256 -256 0
v -224 -256 0
v -256 -288 0
v -288 -288 0
v -288 -256 0
v -256 -256 0
v -288 -288 0
v -320 -288 0
v -320 -256 0
v -288 -256 0
v -320 -288 0
v -352 -288 0
v -352 -256 0
v -320 -256 0
v -416 -288 0
v -448 -288 0
v -448 -256 0
v -416 -256 0
v -448 -288 0
v -480 -288 0
v -480 -256 0
v -448 -256 0
v -480 -288 0
v -512 -288 0
v -512 -256 0
v -480 -256 0
v -512 -288 0
v -544 -288 0
v -544 -256 0
v -512 -256 0
v -544 -288 0
v -576 -288 0
v -576 -256 0
v -544 -256 0
v -576 -288 0
v -608 -288 0
v -608 -256 0
v -576 -256 0
v -32 -320 0
v -64 -320 0
v -64 -288 0
v -32 -288 0
v -64 -320 0
v -96 -320 0
v -96 -288 0
v -64 -288 0
v -96 -320 0
v -128 -320 0
v -128 -288 0
v -96 -288 0
v -128 -320 0
v -160 -320 0
v -160 -288 0
v -128 -288 0
v -160 -320 0
v -192 -320 0
v -192 -288 0
v -160 -288 0
v -192 -320 0
v -224 -320 0
v -224 -288 0
v -192 -288 0
v -224 -320 0
v -256 -320 0
v -256 -288 0
v -224 -288 0
v -256 -320 0
v -288 -320 0
v -288 -288 0
v -256 -288 0
v -288 -320 0
v -320 -320 0
v -320 -288 0
v -288 -288 0
v -320 -320 0
v -352 -320 0
v -352 -288 0
v -320 -288 0
v -416 -320 0
v -448 -320 0
v -448 -288 0
v -416 -288 0
v -448 -320 0
v -480 -320 0
v -480 -288 0
v -448 -288 0
v -480 -320 0
v -512 -320 0
v -512 -288 0
v -480 -288 0
v -512 -320 0
v -544 -320 0
v -544 -288 0
v -512 -288 0
v -544 -320 0
v -576 -320 0
v -576 -288 0
v -544 -288 0
v -576 -320 0
v -608 -320 0
v -608 -288 0
v -576 -288 0
v -608 -320 0
v -640 -320 0
v -640 -288 0
v -608 -288 0
v 0 -352 0
v -32 -352 0
v -32 -320 0
v 0 -320 0
v -32 -352 0
v -64 -352 0
v -64 -320 0
v -32 -320 0
v -64 -352 0
v -96 -352 0
v -96 -320 0
v -64 -320 0
v -96 -352 0
v -128 -352 0
v -128 -320 0
v -96 -320 0
v -128 -352 0
v -160 -352 0
v -160 -320 0
v -128 -320 0
v -160 -352 0
v -192 -352 0
v -192 -320 0
v -160 -320 0
v -192 -352 0
v -224 -352 0
v -224 -320 0
v -192 -320 0
v -224 -352 0
v -256 -352 0
v -256 -320 0
v -224 -320 0
v -256 -352 0
v -288 -352 0
v -288 -320 0
v -256 -320 0
v -416 -352 0
v -448 -352 0
v -448 -320 0
v -416 -320 0
v -448 -352 0
v -480 -352 0
v -480 -320 0
v -448 -320 0
v -480 -352 0
v -512 -352 0
v -512 -320 0
v -480 -320 0
v -512 -352 0
v -544 -352 0
v -544 -320 0
v -512 -320 0
v -544 -352 0
v -576 -352 0
v -576 -320 0
v -544 -320 0
v -576 -352 0
v -608 -352 0
v -608 -320 0
v -576 -320 0
v -608 -352 0
v -640 -352 0
v -640 -320 0
v -608 -320 0
v 0 -384 0
v -32 -384 0
v -32 -352 0
v 0 -352 0
v -32 -384 0
v -64 -384 0
v -64 -352 0
v -32 -352 0
v -64 -384 0
v -96 -384 0
v -96 -352 0
v -64 -352 0
v -96 -384 0
v -128 -384 0
v -128 -352 0
v -96 -352 0
v -128 -384 0
v -160 -384 0
v -160 -352 0
v -128 -352 0
v -160 -384 0
v -192 -384 0
v -192 -352 0
v -160 -352 0
v -192 -384 0
v -224 -384 0
v -224 -352 0
v -192 -352 0
v -224 -384 0
v -256 -384 0
v -256 -352 0
v -224 -352 0
v -256 -384 0
v -288 -384 0
v -288 -352 0
v -256 -352 0
v -512 -384 0
v -544 -384 0
v -544 -352 0
v -512 -352 0
v -544 -384 0
v -576 -384 0
v -576 -352 0
v -544 -352 0
v -576 -384 0
v -608 -384 0
v -608 -352 0
v -576 -352 0
v -608 -384 0
v -640 -384 0
v -640 -352 0
v -608 -352 0
v 0 -416 0
v -32 -416 0
v -32 -384 0
v 0 -384 0
v -32 -416 0
v -64 -416 0
v -64 -384 0
v -32 -384 0
v -64 -416 0
v -96 -416 0
v -96 -384 0
v -64 -384 0
v -96 -416 0
v -128 -416 0
v -128 -384 0
v -96 -384 0
v 0 -448 0
v -32 -448 0
v -32 -416 0
v 0 -416 0
v -32 -448 0
v -64 -448 0
v -64 -416 0
v -32 -416 0
v -64 -448 0
v -96 -448 0
v -96 -416 0
v -64 -416 0
v 0 -480 0
v -32 -480 0
v -32 -448 0
v 0 -448 0
v -32 -480 0
v -64 -480 0
v -64 -448 0
v -32 -448 0
v -64 -480 0
v -96 -480 0
v -96 -448 0
v -64 -448 0
v -288 -608 0
v -320 -608 0
v -320 -576 0
v -288 -576 0
v -320 -608 0
v -352 -608 0
v -352 -576 0
v -320 -576 0
v -352 -608 0
v -384 -608 0
v -384 -576 0
v -352 -576 0
v -384 -608 0
v -416 -608 0
v -416 -576 0
v -384 -576 0
v -416 -608 0
v -448 -608 0
v -448 -576 0
v -416 -576 0
v -448 -608 0
v -480 -608 0
v -480 -576 0
v -448 -576 0
v -480 -608 0
v -512 -608 0
v -512 -576 0
v -480 -576 0
v -288 -640 0
v -320 -640 0
v -320 -608 0
v -288 -608 0
v -320 -640 0
v -352 -640 0
v -352 -608 0
v -320 -608 0
v -352 -640 0
v -384 -640 0
v -384 -608 0
v -352 -608 0
v -384 -640 0
v -416 -640 0
v -416 -608 0
v -384 -608 0
v -416 -640 0
v -448 -640 0
v -448 -608 0
v -416 -608 0
v -448 -640 0
v -480 -640 0
v -480 -608 0
v -448 -608 0
v -480 -640 0
v -512 -640 0
v -512 -608 0
v -480 -608 0

# Texture cooridinates (Count = 26)
vt 0 0.90625
vt 0.03125 0.90625
vt 0.03125 0.9375
vt 0 0.9375
vt 0.0625 0.90625
vt 0.0625 0.9375
vt 0.09375 0.90625
vt 0.09375 0.9375
vt 0.09375 0.96875
vt 0.0625 0.96875
vt 0.0625 0.8125
vt 0.09375 0.8125
vt 0.09375 0.84375
vt 0.0625 0.84375
vt 0.0625 0.875
vt 0.09375 0.875
vt 0 0.875
vt 0.03125 0.875
vt 0.03125 0.8125
vt 0.03125 0.84375
vt 0 0.8125
vt 0 0.84375
vt 0.03125 0.96875
vt 0.0625 1
vt 0.03125 1
vt 0.09375 1

# Normal
vn 0 0 -1

# Mesh description
g WestInnercave2_mesh_0003

# Faces
f 1/1/1 2/2/1 3/3/1 4/4/1
f 5/2/1 6/5/1 7/6/1 8/3/1
f 9/5/1 10/7/1 11/8/1 12/6/1
f 13/1/1 14/2/1 15/3/1 16/4/1
f 17/2/1 18/5/1 19/6/1 20/3/1
f 21/2/1 22/5/1 23/6/1 24/3/1
f 25/2/1 26/5/1 27/6/1 28/3/1
f 29/2/1 30/5/1 31/6/1 32/3/1
f 33/2/1 34/5/1 35/6/1 36/3/1
f 37/2/1 38/5/1 39/6/1 40/3/1
f 41/6/1 42/8/1 43/9/1 44/10/1
f 45/11/1 46/12/1 47/13/1 48/14/1
f 49/15/1 50/16/1 51/7/1 52/5/1
f 53/1/1 54/2/1 55/3/1 56/4/1
f 57/2/1 58/5/1 59/6/1 60/3/1
f 61/2/1 62/5/1 63/6/1 64/3/1
f 65/2/1 66/5/1 67/6/1 68/3/1
f 69/2/1 70/5/1 71/6/1 72/3/1
f 73/5/1 74/7/1 75/8/1 76/6/1
f 77/17/1 78/18/1 79/2/1 80/1/1
f 81/19/1 82/11/1 83/14/1 84/20/1
f 85/21/1 86/19/1 87/20/1 88/22/1
f 89/18/1 90/15/1 91/5/1 92/2/1
f 93/18/1 94/15/1 95/5/1 96/2/1
f 97/21/1 98/19/1 99/20/1 100/22/1
f 101/19/1 102/11/1 103/14/1 104/20/1
f 105/19/1 106/11/1 107/14/1 108/20/1
f 109/18/1 110/15/1 111/5/1 112/2/1
f 113/15/1 114/16/1 115/7/1 116/5/1
f 117/17/1 118/18/1 119/2/1 120/1/1
f 121/18/1 122/15/1 123/5/1 124/2/1
f 125/11/1 126/12/1 127/13/1 128/14/1
f 129/18/1 130/15/1 131/5/1 132/2/1
f 133/21/1 134/19/1 135/20/1 136/22/1
f 137/15/1 138/16/1 139/7/1 140/5/1
f 141/17/1 142/18/1 143/2/1 144/1/1
f 145/18/1 146/15/1 147/5/1 148/2/1
f 149/21/1 150/19/1 151/20/1 152/22/1
f 153/11/1 154/12/1 155/13/1 156/14/1
f 157/18/1 158/15/1 159/5/1 160/2/1
f 161/19/1 162/11/1 163/14/1 164/20/1
f 165/11/1 166/12/1 167/13/1 168/14/1
f 169/23/1 170/10/1 171/24/1 172/25/1
f 173/20/1 174/14/1 175/15/1 176/18/1
f 177/14/1 178/13/1 179/16/1 180/15/1
f 181/17/1 182/18/1 183/2/1 184/1/1
f 185/18/1 186/15/1 187/5/1 188/2/1
f 189/11/1 190/12/1 191/13/1 192/14/1
f 193/19/1 194/11/1 195/14/1 196/20/1
f 197/11/1 198/12/1 199/13/1 200/14/1
f 201/3/1 202/6/1 203/10/1 204/23/1
f 205/5/1 206/7/1 207/8/1 208/6/1
f 209/2/1 210/5/1 211/6/1 212/3/1
f 213/6/1 214/8/1 215/9/1 216/10/1
f 217/11/1 218/12/1 219/13/1 220/14/1
f 221/21/1 222/19/1 223/20/1 224/22/1
f 225/19/1 226/11/1 227/14/1 228/20/1
f 229/19/1 230/11/1 231/14/1 232/20/1
f 233/21/1 234/19/1 235/20/1 236/22/1
f 237/19/1 238/11/1 239/14/1 240/20/1
f 241/15/1 242/16/1 243/7/1 244/5/1
f 245/22/1 246/20/1 247/18/1 248/17/1
f 249/20/1 250/14/1 251/15/1 252/18/1
f 253/20/1 254/14/1 255/15/1 256/18/1
f 257/10/1 258/9/1 259/26/1 260/24/1
f 261/18/1 262/15/1 263/5/1 264/2/1
f 265/21/1 266/19/1 267/20/1 268/22/1
f 269/15/1 270/16/1 271/7/1 272/5/1
f 273/21/1 274/19/1 275/20/1 276/22/1
f 277/21/1 278/19/1 279/20/1 280/22/1
f 281/19/1 282/11/1 283/14/1 284/20/1
f 285/23/1 286/10/1 287/24/1 288/25/1
f 289/20/1 290/14/1 291/15/1 292/18/1
f 293/20/1 294/14/1 295/15/1 296/18/1
f 297/20/1 298/14/1 299/15/1 300/18/1
f 301/20/1 302/14/1 303/15/1 304/18/1
f 305/14/1 306/13/1 307/16/1 308/15/1
f 309/22/1 310/20/1 311/18/1 312/17/1
f 313/20/1 314/14/1 315/15/1 316/18/1
f 317/20/1 318/14/1 319/15/1 320/18/1
f 321/14/1 322/13/1 323/16/1 324/15/1
f 325/18/1 326/15/1 327/5/1 328/2/1
f 329/18/1 330/15/1 331/5/1 332/2/1
f 333/21/1 334/19/1 335/20/1 336/22/1
f 337/15/1 338/16/1 339/7/1 340/5/1
f 341/21/1 342/19/1 343/20/1 344/22/1
f 345/19/1 346/11/1 347/14/1 348/20/1
f 349/19/1 350/11/1 351/14/1 352/20/1
f 353/20/1 354/14/1 355/15/1 356/18/1
f 357/20/1 358/14/1 359/15/1 360/18/1
f 361/20/1 362/14/1 363/15/1 364/18/1
f 365/1/1 366/2/1 367/3/1 368/4/1
f 369/2/1 370/5/1 371/6/1 372/3/1
f 373/2/1 374/5/1 375/6/1 376/3/1
f 377/2/1 378/5/1 379/6/1 380/3/1
f 381/2/1 382/5/1 383/6/1 384/3/1
f 385/2/1 386/5/1 387/6/1 388/3/1
f 389/5/1 390/7/1 391/8/1 392/6/1
f 393/17/1 394/18/1 395/2/1 396/1/1
f 397/19/1 398/11/1 399/14/1 400/20/1
f 401/19/1 402/11/1 403/14/1 404/20/1
f 405/21/1 406/19/1 407/20/1 408/22/1
f 409/18/1 410/15/1 411/5/1 412/2/1
f 413/11/1 414/12/1 415/13/1 416/14/1
f 417/15/1 418/16/1 419/7/1 420/5/1

