# Tiled2Unity generated file. Do not modify by hand.
# Wavefront file for 'island2WestJungle_mesh_0002.obj'

# Vertices (Count = 480)
v -96 -128 0
v -128 -128 0
v -128 -96 0
v -96 -96 0
v -128 -128 0
v -160 -128 0
v -160 -96 0
v -128 -96 0
v -160 -128 0
v -192 -128 0
v -192 -96 0
v -160 -96 0
v -96 -160 0
v -128 -160 0
v -128 -128 0
v -96 -128 0
v -128 -160 0
v -160 -160 0
v -160 -128 0
v -128 -128 0
v -160 -160 0
v -192 -160 0
v -192 -128 0
v -160 -128 0
v -288 -160 0
v -320 -160 0
v -320 -128 0
v -288 -128 0
v -320 -160 0
v -352 -160 0
v -352 -128 0
v -320 -128 0
v -352 -160 0
v -384 -160 0
v -384 -128 0
v -352 -128 0
v -96 -192 0
v -128 -192 0
v -128 -160 0
v -96 -160 0
v -128 -192 0
v -160 -192 0
v -160 -160 0
v -128 -160 0
v -160 -192 0
v -192 -192 0
v -192 -160 0
v -160 -160 0
v -288 -192 0
v -320 -192 0
v -320 -160 0
v -288 -160 0
v -320 -192 0
v -352 -192 0
v -352 -160 0
v -320 -160 0
v -352 -192 0
v -384 -192 0
v -384 -160 0
v -352 -160 0
v -480 -192 0
v -512 -192 0
v -512 -160 0
v -480 -160 0
v -512 -192 0
v -544 -192 0
v -544 -160 0
v -512 -160 0
v -544 -192 0
v -576 -192 0
v -576 -160 0
v -544 -160 0
v -288 -224 0
v -320 -224 0
v -320 -192 0
v -288 -192 0
v -320 -224 0
v -352 -224 0
v -352 -192 0
v -320 -192 0
v -352 -224 0
v -384 -224 0
v -384 -192 0
v -352 -192 0
v -480 -224 0
v -512 -224 0
v -512 -192 0
v -480 -192 0
v -512 -224 0
v -544 -224 0
v -544 -192 0
v -512 -192 0
v -544 -224 0
v -576 -224 0
v -576 -192 0
v -544 -192 0
v -768 -224 0
v -800 -224 0
v -800 -192 0
v -768 -192 0
v -800 -224 0
v -832 -224 0
v -832 -192 0
v -800 -192 0
v -832 -224 0
v -864 -224 0
v -864 -192 0
v -832 -192 0
v -480 -256 0
v -512 -256 0
v -512 -224 0
v -480 -224 0
v -512 -256 0
v -544 -256 0
v -544 -224 0
v -512 -224 0
v -544 -256 0
v -576 -256 0
v -576 -224 0
v -544 -224 0
v -768 -256 0
v -800 -256 0
v -800 -224 0
v -768 -224 0
v -800 -256 0
v -832 -256 0
v -832 -224 0
v -800 -224 0
v -832 -256 0
v -864 -256 0
v -864 -224 0
v -832 -224 0
v -768 -288 0
v -800 -288 0
v -800 -256 0
v -768 -256 0
v -800 -288 0
v -832 -288 0
v -832 -256 0
v -800 -256 0
v -832 -288 0
v -864 -288 0
v -864 -256 0
v -832 -256 0
v -224 -320 0
v -256 -320 0
v -256 -288 0
v -224 -288 0
v -256 -320 0
v -288 -320 0
v -288 -288 0
v -256 -288 0
v -288 -320 0
v -320 -320 0
v -320 -288 0
v -288 -288 0
v -224 -352 0
v -256 -352 0
v -256 -320 0
v -224 -320 0
v -256 -352 0
v -288 -352 0
v -288 -320 0
v -256 -320 0
v -288 -352 0
v -320 -352 0
v -320 -320 0
v -288 -320 0
v -224 -384 0
v -256 -384 0
v -256 -352 0
v -224 -352 0
v -256 -384 0
v -288 -384 0
v -288 -352 0
v -256 -352 0
v -288 -384 0
v -320 -384 0
v -320 -352 0
v -288 -352 0
v -544 -384 0
v -576 -384 0
v -576 -352 0
v -544 -352 0
v -576 -384 0
v -608 -384 0
v -608 -352 0
v -576 -352 0
v -608 -384 0
v -640 -384 0
v -640 -352 0
v -608 -352 0
v -224 -416 0
v -256 -416 0
v -256 -384 0
v -224 -384 0
v -256 -416 0
v -288 -416 0
v -288 -384 0
v -256 -384 0
v -288 -416 0
v -320 -416 0
v -320 -384 0
v -288 -384 0
v -544 -416 0
v -576 -416 0
v -576 -384 0
v -544 -384 0
v -576 -416 0
v -608 -416 0
v -608 -384 0
v -576 -384 0
v -608 -416 0
v -640 -416 0
v -640 -384 0
v -608 -384 0
v -544 -448 0
v -576 -448 0
v -576 -416 0
v -544 -416 0
v -576 -448 0
v -608 -448 0
v -608 -416 0
v -576 -416 0
v -608 -448 0
v -640 -448 0
v -640 -416 0
v -608 -416 0
v -640 -512 0
v -672 -512 0
v -672 -480 0
v -640 -480 0
v -672 -512 0
v -704 -512 0
v -704 -480 0
v -672 -480 0
v -704 -512 0
v -736 -512 0
v -736 -480 0
v -704 -480 0
v -640 -544 0
v -672 -544 0
v -672 -512 0
v -640 -512 0
v -672 -544 0
v -704 -544 0
v -704 -512 0
v -672 -512 0
v -704 -544 0
v -736 -544 0
v -736 -512 0
v -704 -512 0
v -640 -576 0
v -672 -576 0
v -672 -544 0
v -640 -544 0
v -672 -576 0
v -704 -576 0
v -704 -544 0
v -672 -544 0
v -704 -576 0
v -736 -576 0
v -736 -544 0
v -704 -544 0
v -192 -672 0
v -224 -672 0
v -224 -640 0
v -192 -640 0
v -224 -672 0
v -256 -672 0
v -256 -640 0
v -224 -640 0
v -256 -672 0
v -288 -672 0
v -288 -640 0
v -256 -640 0
v -192 -704 0
v -224 -704 0
v -224 -672 0
v -192 -672 0
v -224 -704 0
v -256 -704 0
v -256 -672 0
v -224 -672 0
v -256 -704 0
v -288 -704 0
v -288 -672 0
v -256 -672 0
v -864 -704 0
v -896 -704 0
v -896 -672 0
v -864 -672 0
v -896 -704 0
v -928 -704 0
v -928 -672 0
v -896 -672 0
v -928 -704 0
v -960 -704 0
v -960 -672 0
v -928 -672 0
v -192 -736 0
v -224 -736 0
v -224 -704 0
v -192 -704 0
v -224 -736 0
v -256 -736 0
v -256 -704 0
v -224 -704 0
v -256 -736 0
v -288 -736 0
v -288 -704 0
v -256 -704 0
v -864 -736 0
v -896 -736 0
v -896 -704 0
v -864 -704 0
v -896 -736 0
v -928 -736 0
v -928 -704 0
v -896 -704 0
v -928 -736 0
v -960 -736 0
v -960 -704 0
v -928 -704 0
v -864 -768 0
v -896 -768 0
v -896 -736 0
v -864 -736 0
v -896 -768 0
v -928 -768 0
v -928 -736 0
v -896 -736 0
v -928 -768 0
v -960 -768 0
v -960 -736 0
v -928 -736 0
v -96 -832 0
v -128 -832 0
v -128 -800 0
v -96 -800 0
v -128 -832 0
v -160 -832 0
v -160 -800 0
v -128 -800 0
v -160 -832 0
v -192 -832 0
v -192 -800 0
v -160 -800 0
v -96 -864 0
v -128 -864 0
v -128 -832 0
v -96 -832 0
v -128 -864 0
v -160 -864 0
v -160 -832 0
v -128 -832 0
v -160 -864 0
v -192 -864 0
v -192 -832 0
v -160 -832 0
v -448 -864 0
v -480 -864 0
v -480 -832 0
v -448 -832 0
v -480 -864 0
v -512 -864 0
v -512 -832 0
v -480 -832 0
v -512 -864 0
v -544 -864 0
v -544 -832 0
v -512 -832 0
v -96 -896 0
v -128 -896 0
v -128 -864 0
v -96 -864 0
v -128 -896 0
v -160 -896 0
v -160 -864 0
v -128 -864 0
v -160 -896 0
v -192 -896 0
v -192 -864 0
v -160 -864 0
v -256 -896 0
v -288 -896 0
v -288 -864 0
v -256 -864 0
v -288 -896 0
v -320 -896 0
v -320 -864 0
v -288 -864 0
v -320 -896 0
v -352 -896 0
v -352 -864 0
v -320 -864 0
v -448 -896 0
v -480 -896 0
v -480 -864 0
v -448 -864 0
v -480 -896 0
v -512 -896 0
v -512 -864 0
v -480 -864 0
v -512 -896 0
v -544 -896 0
v -544 -864 0
v -512 -864 0
v -736 -896 0
v -768 -896 0
v -768 -864 0
v -736 -864 0
v -768 -896 0
v -800 -896 0
v -800 -864 0
v -768 -864 0
v -800 -896 0
v -832 -896 0
v -832 -864 0
v -800 -864 0
v -256 -928 0
v -288 -928 0
v -288 -896 0
v -256 -896 0
v -288 -928 0
v -320 -928 0
v -320 -896 0
v -288 -896 0
v -320 -928 0
v -352 -928 0
v -352 -896 0
v -320 -896 0
v -448 -928 0
v -480 -928 0
v -480 -896 0
v -448 -896 0
v -480 -928 0
v -512 -928 0
v -512 -896 0
v -480 -896 0
v -512 -928 0
v -544 -928 0
v -544 -896 0
v -512 -896 0
v -736 -928 0
v -768 -928 0
v -768 -896 0
v -736 -896 0
v -768 -928 0
v -800 -928 0
v -800 -896 0
v -768 -896 0
v -800 -928 0
v -832 -928 0
v -832 -896 0
v -800 -896 0
v -256 -960 0
v -288 -960 0
v -288 -928 0
v -256 -928 0
v -288 -960 0
v -320 -960 0
v -320 -928 0
v -288 -928 0
v -320 -960 0
v -352 -960 0
v -352 -928 0
v -320 -928 0
v -736 -960 0
v -768 -960 0
v -768 -928 0
v -736 -928 0
v -768 -960 0
v -800 -960 0
v -800 -928 0
v -768 -928 0
v -800 -960 0
v -832 -960 0
v -832 -928 0
v -800 -928 0

# Texture cooridinates (Count = 16)
vt 0 0.6666666
vt 0.1666667 0.6666666
vt 0.1666667 1
vt 0 1
vt 0.3333333 0.6666666
vt 0.3333333 1
vt 0.5 0.6666666
vt 0.5 1
vt 0 0.3333333
vt 0.1666667 0.3333333
vt 0.3333333 0.3333333
vt 0.5 0.3333333
vt 0 0
vt 0.1666667 0
vt 0.3333333 0
vt 0.5 0

# Normal
vn 0 0 -1

# Mesh description
g island2WestJungle_mesh_0002

# Faces
f 1/1/1 2/2/1 3/3/1 4/4/1
f 5/2/1 6/5/1 7/6/1 8/3/1
f 9/5/1 10/7/1 11/8/1 12/6/1
f 13/9/1 14/10/1 15/2/1 16/1/1
f 17/10/1 18/11/1 19/5/1 20/2/1
f 21/11/1 22/12/1 23/7/1 24/5/1
f 25/1/1 26/2/1 27/3/1 28/4/1
f 29/2/1 30/5/1 31/6/1 32/3/1
f 33/5/1 34/7/1 35/8/1 36/6/1
f 37/13/1 38/14/1 39/10/1 40/9/1
f 41/14/1 42/15/1 43/11/1 44/10/1
f 45/15/1 46/16/1 47/12/1 48/11/1
f 49/9/1 50/10/1 51/2/1 52/1/1
f 53/10/1 54/11/1 55/5/1 56/2/1
f 57/11/1 58/12/1 59/7/1 60/5/1
f 61/1/1 62/2/1 63/3/1 64/4/1
f 65/2/1 66/5/1 67/6/1 68/3/1
f 69/5/1 70/7/1 71/8/1 72/6/1
f 73/13/1 74/14/1 75/10/1 76/9/1
f 77/14/1 78/15/1 79/11/1 80/10/1
f 81/15/1 82/16/1 83/12/1 84/11/1
f 85/9/1 86/10/1 87/2/1 88/1/1
f 89/10/1 90/11/1 91/5/1 92/2/1
f 93/11/1 94/12/1 95/7/1 96/5/1
f 97/1/1 98/2/1 99/3/1 100/4/1
f 101/2/1 102/5/1 103/6/1 104/3/1
f 105/5/1 106/7/1 107/8/1 108/6/1
f 109/13/1 110/14/1 111/10/1 112/9/1
f 113/14/1 114/15/1 115/11/1 116/10/1
f 117/15/1 118/16/1 119/12/1 120/11/1
f 121/9/1 122/10/1 123/2/1 124/1/1
f 125/10/1 126/11/1 127/5/1 128/2/1
f 129/11/1 130/12/1 131/7/1 132/5/1
f 133/13/1 134/14/1 135/10/1 136/9/1
f 137/14/1 138/15/1 139/11/1 140/10/1
f 141/15/1 142/16/1 143/12/1 144/11/1
f 145/1/1 146/2/1 147/3/1 148/4/1
f 149/2/1 150/5/1 151/6/1 152/3/1
f 153/5/1 154/7/1 155/8/1 156/6/1
f 157/1/1 158/2/1 159/3/1 160/4/1
f 161/2/1 162/5/1 163/6/1 164/3/1
f 165/5/1 166/7/1 167/8/1 168/6/1
f 169/9/1 170/10/1 171/2/1 172/1/1
f 173/10/1 174/11/1 175/5/1 176/2/1
f 177/11/1 178/12/1 179/7/1 180/5/1
f 181/1/1 182/2/1 183/3/1 184/4/1
f 185/2/1 186/5/1 187/6/1 188/3/1
f 189/5/1 190/7/1 191/8/1 192/6/1
f 193/13/1 194/14/1 195/10/1 196/9/1
f 197/14/1 198/15/1 199/11/1 200/10/1
f 201/15/1 202/16/1 203/12/1 204/11/1
f 205/9/1 206/10/1 207/2/1 208/1/1
f 209/10/1 210/11/1 211/5/1 212/2/1
f 213/11/1 214/12/1 215/7/1 216/5/1
f 217/13/1 218/14/1 219/10/1 220/9/1
f 221/14/1 222/15/1 223/11/1 224/10/1
f 225/15/1 226/16/1 227/12/1 228/11/1
f 229/1/1 230/2/1 231/3/1 232/4/1
f 233/2/1 234/5/1 235/6/1 236/3/1
f 237/5/1 238/7/1 239/8/1 240/6/1
f 241/9/1 242/10/1 243/2/1 244/1/1
f 245/10/1 246/11/1 247/5/1 248/2/1
f 249/11/1 250/12/1 251/7/1 252/5/1
f 253/13/1 254/14/1 255/10/1 256/9/1
f 257/14/1 258/15/1 259/11/1 260/10/1
f 261/15/1 262/16/1 263/12/1 264/11/1
f 265/1/1 266/2/1 267/3/1 268/4/1
f 269/2/1 270/5/1 271/6/1 272/3/1
f 273/5/1 274/7/1 275/8/1 276/6/1
f 277/9/1 278/10/1 279/2/1 280/1/1
f 281/10/1 282/11/1 283/5/1 284/2/1
f 285/11/1 286/12/1 287/7/1 288/5/1
f 289/1/1 290/2/1 291/3/1 292/4/1
f 293/2/1 294/5/1 295/6/1 296/3/1
f 297/5/1 298/7/1 299/8/1 300/6/1
f 301/13/1 302/14/1 303/10/1 304/9/1
f 305/14/1 306/15/1 307/11/1 308/10/1
f 309/15/1 310/16/1 311/12/1 312/11/1
f 313/9/1 314/10/1 315/2/1 316/1/1
f 317/10/1 318/11/1 319/5/1 320/2/1
f 321/11/1 322/12/1 323/7/1 324/5/1
f 325/13/1 326/14/1 327/10/1 328/9/1
f 329/14/1 330/15/1 331/11/1 332/10/1
f 333/15/1 334/16/1 335/12/1 336/11/1
f 337/1/1 338/2/1 339/3/1 340/4/1
f 341/2/1 342/5/1 343/6/1 344/3/1
f 345/5/1 346/7/1 347/8/1 348/6/1
f 349/9/1 350/10/1 351/2/1 352/1/1
f 353/10/1 354/11/1 355/5/1 356/2/1
f 357/11/1 358/12/1 359/7/1 360/5/1
f 361/1/1 362/2/1 363/3/1 364/4/1
f 365/2/1 366/5/1 367/6/1 368/3/1
f 369/5/1 370/7/1 371/8/1 372/6/1
f 373/13/1 374/14/1 375/10/1 376/9/1
f 377/14/1 378/15/1 379/11/1 380/10/1
f 381/15/1 382/16/1 383/12/1 384/11/1
f 385/1/1 386/2/1 387/3/1 388/4/1
f 389/2/1 390/5/1 391/6/1 392/3/1
f 393/5/1 394/7/1 395/8/1 396/6/1
f 397/9/1 398/10/1 399/2/1 400/1/1
f 401/10/1 402/11/1 403/5/1 404/2/1
f 405/11/1 406/12/1 407/7/1 408/5/1
f 409/1/1 410/2/1 411/3/1 412/4/1
f 413/2/1 414/5/1 415/6/1 416/3/1
f 417/5/1 418/7/1 419/8/1 420/6/1
f 421/9/1 422/10/1 423/2/1 424/1/1
f 425/10/1 426/11/1 427/5/1 428/2/1
f 429/11/1 430/12/1 431/7/1 432/5/1
f 433/13/1 434/14/1 435/10/1 436/9/1
f 437/14/1 438/15/1 439/11/1 440/10/1
f 441/15/1 442/16/1 443/12/1 444/11/1
f 445/9/1 446/10/1 447/2/1 448/1/1
f 449/10/1 450/11/1 451/5/1 452/2/1
f 453/11/1 454/12/1 455/7/1 456/5/1
f 457/13/1 458/14/1 459/10/1 460/9/1
f 461/14/1 462/15/1 463/11/1 464/10/1
f 465/15/1 466/16/1 467/12/1 468/11/1
f 469/13/1 470/14/1 471/10/1 472/9/1
f 473/14/1 474/15/1 475/11/1 476/10/1
f 477/15/1 478/16/1 479/12/1 480/11/1

