# Tiled2Unity generated file. Do not modify by hand.
# Wavefront file for 'palawan_mesh_0006.obj'

# Vertices (Count = 52)
v -1600 -512 0
v -1632 -512 0
v -1632 -480 0
v -1600 -480 0
v -704 -864 0
v -736 -864 0
v -736 -832 0
v -704 -832 0
v -864 -896 0
v -896 -896 0
v -896 -864 0
v -864 -864 0
v -448 -960 0
v -480 -960 0
v -480 -928 0
v -448 -928 0
v -704 -960 0
v -736 -960 0
v -736 -928 0
v -704 -928 0
v -896 -960 0
v -928 -960 0
v -928 -928 0
v -896 -928 0
v -288 -1152 0
v -320 -1152 0
v -320 -1120 0
v -288 -1120 0
v -32 -1184 0
v -64 -1184 0
v -64 -1152 0
v -32 -1152 0
v -416 -1216 0
v -448 -1216 0
v -448 -1184 0
v -416 -1184 0
v -1536 -1216 0
v -1568 -1216 0
v -1568 -1184 0
v -1536 -1184 0
v -768 -1408 0
v -800 -1408 0
v -800 -1376 0
v -768 -1376 0
v -928 -1536 0
v -960 -1536 0
v -960 -1504 0
v -928 -1504 0
v -736 -1568 0
v -768 -1568 0
v -768 -1536 0
v -736 -1536 0

# Texture cooridinates (Count = 6)
vt 0.9375 0.5
vt 0.96875 0.5
vt 0.96875 0.53125
vt 0.9375 0.53125
vt 0.90625 0.5
vt 0.90625 0.53125

# Normal
vn 0 0 -1

# Mesh description
g palawan_mesh_0006

# Faces
f 1/1/1 2/2/1 3/3/1 4/4/1
f 5/5/1 6/1/1 7/4/1 8/6/1
f 9/5/1 10/1/1 11/4/1 12/6/1
f 13/1/1 14/2/1 15/3/1 16/4/1
f 17/1/1 18/2/1 19/3/1 20/4/1
f 21/1/1 22/2/1 23/3/1 24/4/1
f 25/5/1 26/1/1 27/4/1 28/6/1
f 29/1/1 30/2/1 31/3/1 32/4/1
f 33/1/1 34/2/1 35/3/1 36/4/1
f 37/1/1 38/2/1 39/3/1 40/4/1
f 41/1/1 42/2/1 43/3/1 44/4/1
f 45/1/1 46/2/1 47/3/1 48/4/1
f 49/1/1 50/2/1 51/3/1 52/4/1

