# Tiled2Unity generated file. Do not modify by hand.
# Wavefront file for 'palawan_mesh_0004.obj'

# Vertices (Count = 972)
v -32 -288 0
v -64 -288 0
v -64 -256 0
v -32 -256 0
v -64 -288 0
v -96 -288 0
v -96 -256 0
v -64 -256 0
v -96 -288 0
v -128 -288 0
v -128 -256 0
v -96 -256 0
v -32 -320 0
v -64 -320 0
v -64 -288 0
v -32 -288 0
v -64 -320 0
v -96 -320 0
v -96 -288 0
v -64 -288 0
v -96 -320 0
v -128 -320 0
v -128 -288 0
v -96 -288 0
v -32 -352 0
v -64 -352 0
v -64 -320 0
v -32 -320 0
v -64 -352 0
v -96 -352 0
v -96 -320 0
v -64 -320 0
v -96 -352 0
v -128 -352 0
v -128 -320 0
v -96 -320 0
v -128 -448 0
v -160 -448 0
v -160 -416 0
v -128 -416 0
v -192 -448 0
v -224 -448 0
v -224 -416 0
v -192 -416 0
v -224 -576 0
v -256 -576 0
v -256 -544 0
v -224 -544 0
v -288 -576 0
v -320 -576 0
v -320 -544 0
v -288 -544 0
v -64 -640 0
v -96 -640 0
v -96 -608 0
v -64 -608 0
v -128 -640 0
v -160 -640 0
v -160 -608 0
v -128 -608 0
v -1504 -640 0
v -1536 -640 0
v -1536 -608 0
v -1504 -608 0
v -1536 -640 0
v -1568 -640 0
v -1568 -608 0
v -1536 -608 0
v -1568 -640 0
v -1600 -640 0
v -1600 -608 0
v -1568 -608 0
v -1504 -672 0
v -1536 -672 0
v -1536 -640 0
v -1504 -640 0
v -1536 -672 0
v -1568 -672 0
v -1568 -640 0
v -1536 -640 0
v -1568 -672 0
v -1600 -672 0
v -1600 -640 0
v -1568 -640 0
v -288 -704 0
v -320 -704 0
v -320 -672 0
v -288 -672 0
v -1504 -704 0
v -1536 -704 0
v -1536 -672 0
v -1504 -672 0
v -1536 -704 0
v -1568 -704 0
v -1568 -672 0
v -1536 -672 0
v -1568 -704 0
v -1600 -704 0
v -1600 -672 0
v -1568 -672 0
v -32 -768 0
v -64 -768 0
v -64 -736 0
v -32 -736 0
v -64 -768 0
v -96 -768 0
v -96 -736 0
v -64 -736 0
v -96 -768 0
v -128 -768 0
v -128 -736 0
v -96 -736 0
v -32 -800 0
v -64 -800 0
v -64 -768 0
v -32 -768 0
v -64 -800 0
v -96 -800 0
v -96 -768 0
v -64 -768 0
v -96 -800 0
v -128 -800 0
v -128 -768 0
v -96 -768 0
v -160 -800 0
v -192 -800 0
v -192 -768 0
v -160 -768 0
v -192 -800 0
v -224 -800 0
v -224 -768 0
v -192 -768 0
v -224 -800 0
v -256 -800 0
v -256 -768 0
v -224 -768 0
v -1536 -800 0
v -1568 -800 0
v -1568 -768 0
v -1536 -768 0
v -1568 -800 0
v -1600 -800 0
v -1600 -768 0
v -1568 -768 0
v -1600 -800 0
v -1632 -800 0
v -1632 -768 0
v -1600 -768 0
v -32 -832 0
v -64 -832 0
v -64 -800 0
v -32 -800 0
v -64 -832 0
v -96 -832 0
v -96 -800 0
v -64 -800 0
v -96 -832 0
v -128 -832 0
v -128 -800 0
v -96 -800 0
v -160 -832 0
v -192 -832 0
v -192 -800 0
v -160 -800 0
v -192 -832 0
v -224 -832 0
v -224 -800 0
v -192 -800 0
v -224 -832 0
v -256 -832 0
v -256 -800 0
v -224 -800 0
v -1536 -832 0
v -1568 -832 0
v -1568 -800 0
v -1536 -800 0
v -1568 -832 0
v -1600 -832 0
v -1600 -800 0
v -1568 -800 0
v -1600 -832 0
v -1632 -832 0
v -1632 -800 0
v -1600 -800 0
v -160 -864 0
v -192 -864 0
v -192 -832 0
v -160 -832 0
v -192 -864 0
v -224 -864 0
v -224 -832 0
v -192 -832 0
v -224 -864 0
v -256 -864 0
v -256 -832 0
v -224 -832 0
v -320 -864 0
v -352 -864 0
v -352 -832 0
v -320 -832 0
v -352 -864 0
v -384 -864 0
v -384 -832 0
v -352 -832 0
v -384 -864 0
v -416 -864 0
v -416 -832 0
v -384 -832 0
v -1536 -864 0
v -1568 -864 0
v -1568 -832 0
v -1536 -832 0
v -1568 -864 0
v -1600 -864 0
v -1600 -832 0
v -1568 -832 0
v -1600 -864 0
v -1632 -864 0
v -1632 -832 0
v -1600 -832 0
v -320 -896 0
v -352 -896 0
v -352 -864 0
v -320 -864 0
v -352 -896 0
v -384 -896 0
v -384 -864 0
v -352 -864 0
v -384 -896 0
v -416 -896 0
v -416 -864 0
v -384 -864 0
v -32 -928 0
v -64 -928 0
v -64 -896 0
v -32 -896 0
v -64 -928 0
v -96 -928 0
v -96 -896 0
v -64 -896 0
v -96 -928 0
v -128 -928 0
v -128 -896 0
v -96 -896 0
v -320 -928 0
v -352 -928 0
v -352 -896 0
v -320 -896 0
v -352 -928 0
v -384 -928 0
v -384 -896 0
v -352 -896 0
v -384 -928 0
v -416 -928 0
v -416 -896 0
v -384 -896 0
v -1376 -928 0
v -1408 -928 0
v -1408 -896 0
v -1376 -896 0
v -1408 -928 0
v -1440 -928 0
v -1440 -896 0
v -1408 -896 0
v -1440 -928 0
v -1472 -928 0
v -1472 -896 0
v -1440 -896 0
v -32 -960 0
v -64 -960 0
v -64 -928 0
v -32 -928 0
v -64 -960 0
v -96 -960 0
v -96 -928 0
v -64 -928 0
v -96 -960 0
v -128 -960 0
v -128 -928 0
v -96 -928 0
v -1376 -960 0
v -1408 -960 0
v -1408 -928 0
v -1376 -928 0
v -1408 -960 0
v -1440 -960 0
v -1440 -928 0
v -1408 -928 0
v -1440 -960 0
v -1472 -960 0
v -1472 -928 0
v -1440 -928 0
v -32 -992 0
v -64 -992 0
v -64 -960 0
v -32 -960 0
v -64 -992 0
v -96 -992 0
v -96 -960 0
v -64 -960 0
v -96 -992 0
v -128 -992 0
v -128 -960 0
v -96 -960 0
v -1216 -992 0
v -1248 -992 0
v -1248 -960 0
v -1216 -960 0
v -1248 -992 0
v -1280 -992 0
v -1280 -960 0
v -1248 -960 0
v -1280 -992 0
v -1312 -992 0
v -1312 -960 0
v -1280 -960 0
v -1376 -992 0
v -1408 -992 0
v -1408 -960 0
v -1376 -960 0
v -1408 -992 0
v -1440 -992 0
v -1440 -960 0
v -1408 -960 0
v -1440 -992 0
v -1472 -992 0
v -1472 -960 0
v -1440 -960 0
v -1216 -1024 0
v -1248 -1024 0
v -1248 -992 0
v -1216 -992 0
v -1248 -1024 0
v -1280 -1024 0
v -1280 -992 0
v -1248 -992 0
v -1280 -1024 0
v -1312 -1024 0
v -1312 -992 0
v -1280 -992 0
v -1216 -1056 0
v -1248 -1056 0
v -1248 -1024 0
v -1216 -1024 0
v -1248 -1056 0
v -1280 -1056 0
v -1280 -1024 0
v -1248 -1024 0
v -1280 -1056 0
v -1312 -1056 0
v -1312 -1024 0
v -1280 -1024 0
v -128 -1088 0
v -160 -1088 0
v -160 -1056 0
v -128 -1056 0
v -160 -1088 0
v -192 -1088 0
v -192 -1056 0
v -160 -1056 0
v -192 -1088 0
v -224 -1088 0
v -224 -1056 0
v -192 -1056 0
v -128 -1120 0
v -160 -1120 0
v -160 -1088 0
v -128 -1088 0
v -160 -1120 0
v -192 -1120 0
v -192 -1088 0
v -160 -1088 0
v -192 -1120 0
v -224 -1120 0
v -224 -1088 0
v -192 -1088 0
v -128 -1152 0
v -160 -1152 0
v -160 -1120 0
v -128 -1120 0
v -160 -1152 0
v -192 -1152 0
v -192 -1120 0
v -160 -1120 0
v -192 -1152 0
v -224 -1152 0
v -224 -1120 0
v -192 -1120 0
v -1120 -1152 0
v -1152 -1152 0
v -1152 -1120 0
v -1120 -1120 0
v -1152 -1152 0
v -1184 -1152 0
v -1184 -1120 0
v -1152 -1120 0
v -1184 -1152 0
v -1216 -1152 0
v -1216 -1120 0
v -1184 -1120 0
v -1120 -1184 0
v -1152 -1184 0
v -1152 -1152 0
v -1120 -1152 0
v -1152 -1184 0
v -1184 -1184 0
v -1184 -1152 0
v -1152 -1152 0
v -1184 -1184 0
v -1216 -1184 0
v -1216 -1152 0
v -1184 -1152 0
v -1120 -1216 0
v -1152 -1216 0
v -1152 -1184 0
v -1120 -1184 0
v -1152 -1216 0
v -1184 -1216 0
v -1184 -1184 0
v -1152 -1184 0
v -1184 -1216 0
v -1216 -1216 0
v -1216 -1184 0
v -1184 -1184 0
v -96 -1248 0
v -128 -1248 0
v -128 -1216 0
v -96 -1216 0
v -128 -1248 0
v -160 -1248 0
v -160 -1216 0
v -128 -1216 0
v -160 -1248 0
v -192 -1248 0
v -192 -1216 0
v -160 -1216 0
v -96 -1280 0
v -128 -1280 0
v -128 -1248 0
v -96 -1248 0
v -128 -1280 0
v -160 -1280 0
v -160 -1248 0
v -128 -1248 0
v -160 -1280 0
v -192 -1280 0
v -192 -1248 0
v -160 -1248 0
v -1376 -1280 0
v -1408 -1280 0
v -1408 -1248 0
v -1376 -1248 0
v -1408 -1280 0
v -1440 -1280 0
v -1440 -1248 0
v -1408 -1248 0
v -1440 -1280 0
v -1472 -1280 0
v -1472 -1248 0
v -1440 -1248 0
v -96 -1312 0
v -128 -1312 0
v -128 -1280 0
v -96 -1280 0
v -128 -1312 0
v -160 -1312 0
v -160 -1280 0
v -128 -1280 0
v -160 -1312 0
v -192 -1312 0
v -192 -1280 0
v -160 -1280 0
v -1376 -1312 0
v -1408 -1312 0
v -1408 -1280 0
v -1376 -1280 0
v -1408 -1312 0
v -1440 -1312 0
v -1440 -1280 0
v -1408 -1280 0
v -1440 -1312 0
v -1472 -1312 0
v -1472 -1280 0
v -1440 -1280 0
v -64 -1344 0
v -96 -1344 0
v -96 -1312 0
v -64 -1312 0
v -1376 -1344 0
v -1408 -1344 0
v -1408 -1312 0
v -1376 -1312 0
v -1408 -1344 0
v -1440 -1344 0
v -1440 -1312 0
v -1408 -1312 0
v -1440 -1344 0
v -1472 -1344 0
v -1472 -1312 0
v -1440 -1312 0
v -256 -1376 0
v -288 -1376 0
v -288 -1344 0
v -256 -1344 0
v -288 -1376 0
v -320 -1376 0
v -320 -1344 0
v -288 -1344 0
v -320 -1376 0
v -352 -1376 0
v -352 -1344 0
v -320 -1344 0
v -1376 -1376 0
v -1408 -1376 0
v -1408 -1344 0
v -1376 -1344 0
v -256 -1408 0
v -288 -1408 0
v -288 -1376 0
v -256 -1376 0
v -288 -1408 0
v -320 -1408 0
v -320 -1376 0
v -288 -1376 0
v -320 -1408 0
v -352 -1408 0
v -352 -1376 0
v -320 -1376 0
v -384 -1408 0
v -416 -1408 0
v -416 -1376 0
v -384 -1376 0
v -704 -1408 0
v -736 -1408 0
v -736 -1376 0
v -704 -1376 0
v -128 -1440 0
v -160 -1440 0
v -160 -1408 0
v -128 -1408 0
v -160 -1440 0
v -192 -1440 0
v -192 -1408 0
v -160 -1408 0
v -192 -1440 0
v -224 -1440 0
v -224 -1408 0
v -192 -1408 0
v -256 -1440 0
v -288 -1440 0
v -288 -1408 0
v -256 -1408 0
v -288 -1440 0
v -320 -1440 0
v -320 -1408 0
v -288 -1408 0
v -320 -1440 0
v -352 -1440 0
v -352 -1408 0
v -320 -1408 0
v -128 -1472 0
v -160 -1472 0
v -160 -1440 0
v -128 -1440 0
v -160 -1472 0
v -192 -1472 0
v -192 -1440 0
v -160 -1440 0
v -192 -1472 0
v -224 -1472 0
v -224 -1440 0
v -192 -1440 0
v -128 -1504 0
v -160 -1504 0
v -160 -1472 0
v -128 -1472 0
v -160 -1504 0
v -192 -1504 0
v -192 -1472 0
v -160 -1472 0
v -192 -1504 0
v -224 -1504 0
v -224 -1472 0
v -192 -1472 0
v -1408 -1536 0
v -1440 -1536 0
v -1440 -1504 0
v -1408 -1504 0
v -1440 -1536 0
v -1472 -1536 0
v -1472 -1504 0
v -1440 -1504 0
v -1472 -1536 0
v -1504 -1536 0
v -1504 -1504 0
v -1472 -1504 0
v -1376 -1568 0
v -1408 -1568 0
v -1408 -1536 0
v -1376 -1536 0
v -1408 -1568 0
v -1440 -1568 0
v -1440 -1536 0
v -1408 -1536 0
v -1440 -1568 0
v -1472 -1568 0
v -1472 -1536 0
v -1440 -1536 0
v -1472 -1568 0
v -1504 -1568 0
v -1504 -1536 0
v -1472 -1536 0
v -1408 -1600 0
v -1440 -1600 0
v -1440 -1568 0
v -1408 -1568 0
v -1440 -1600 0
v -1472 -1600 0
v -1472 -1568 0
v -1440 -1568 0
v -1472 -1600 0
v -1504 -1600 0
v -1504 -1568 0
v -1472 -1568 0
v -64 -1696 0
v -96 -1696 0
v -96 -1664 0
v -64 -1664 0
v -96 -1696 0
v -128 -1696 0
v -128 -1664 0
v -96 -1664 0
v -128 -1696 0
v -160 -1696 0
v -160 -1664 0
v -128 -1664 0
v -64 -1728 0
v -96 -1728 0
v -96 -1696 0
v -64 -1696 0
v -96 -1728 0
v -128 -1728 0
v -128 -1696 0
v -96 -1696 0
v -128 -1728 0
v -160 -1728 0
v -160 -1696 0
v -128 -1696 0
v -224 -1728 0
v -256 -1728 0
v -256 -1696 0
v -224 -1696 0
v -256 -1728 0
v -288 -1728 0
v -288 -1696 0
v -256 -1696 0
v -288 -1728 0
v -320 -1728 0
v -320 -1696 0
v -288 -1696 0
v -64 -1760 0
v -96 -1760 0
v -96 -1728 0
v -64 -1728 0
v -96 -1760 0
v -128 -1760 0
v -128 -1728 0
v -96 -1728 0
v -128 -1760 0
v -160 -1760 0
v -160 -1728 0
v -128 -1728 0
v -224 -1760 0
v -256 -1760 0
v -256 -1728 0
v -224 -1728 0
v -256 -1760 0
v -288 -1760 0
v -288 -1728 0
v -256 -1728 0
v -288 -1760 0
v -320 -1760 0
v -320 -1728 0
v -288 -1728 0
v -224 -1792 0
v -256 -1792 0
v -256 -1760 0
v -224 -1760 0
v -256 -1792 0
v -288 -1792 0
v -288 -1760 0
v -256 -1760 0
v -288 -1792 0
v -320 -1792 0
v -320 -1760 0
v -288 -1760 0
v -288 -2016 0
v -320 -2016 0
v -320 -1984 0
v -288 -1984 0
v -320 -2016 0
v -352 -2016 0
v -352 -1984 0
v -320 -1984 0
v -352 -2016 0
v -384 -2016 0
v -384 -1984 0
v -352 -1984 0
v -576 -2016 0
v -608 -2016 0
v -608 -1984 0
v -576 -1984 0
v -608 -2016 0
v -640 -2016 0
v -640 -1984 0
v -608 -1984 0
v -640 -2016 0
v -672 -2016 0
v -672 -1984 0
v -640 -1984 0
v -1184 -2016 0
v -1216 -2016 0
v -1216 -1984 0
v -1184 -1984 0
v -1216 -2016 0
v -1248 -2016 0
v -1248 -1984 0
v -1216 -1984 0
v -1248 -2016 0
v -1280 -2016 0
v -1280 -1984 0
v -1248 -1984 0
v -64 -2048 0
v -96 -2048 0
v -96 -2016 0
v -64 -2016 0
v -96 -2048 0
v -128 -2048 0
v -128 -2016 0
v -96 -2016 0
v -128 -2048 0
v -160 -2048 0
v -160 -2016 0
v -128 -2016 0
v -288 -2048 0
v -320 -2048 0
v -320 -2016 0
v -288 -2016 0
v -320 -2048 0
v -352 -2048 0
v -352 -2016 0
v -320 -2016 0
v -352 -2048 0
v -384 -2048 0
v -384 -2016 0
v -352 -2016 0
v -576 -2048 0
v -608 -2048 0
v -608 -2016 0
v -576 -2016 0
v -608 -2048 0
v -640 -2048 0
v -640 -2016 0
v -608 -2016 0
v -640 -2048 0
v -672 -2048 0
v -672 -2016 0
v -640 -2016 0
v -1184 -2048 0
v -1216 -2048 0
v -1216 -2016 0
v -1184 -2016 0
v -1216 -2048 0
v -1248 -2048 0
v -1248 -2016 0
v -1216 -2016 0
v -1248 -2048 0
v -1280 -2048 0
v -1280 -2016 0
v -1248 -2016 0
v -64 -2080 0
v -96 -2080 0
v -96 -2048 0
v -64 -2048 0
v -96 -2080 0
v -128 -2080 0
v -128 -2048 0
v -96 -2048 0
v -128 -2080 0
v -160 -2080 0
v -160 -2048 0
v -128 -2048 0
v -288 -2080 0
v -320 -2080 0
v -320 -2048 0
v -288 -2048 0
v -320 -2080 0
v -352 -2080 0
v -352 -2048 0
v -320 -2048 0
v -352 -2080 0
v -384 -2080 0
v -384 -2048 0
v -352 -2048 0
v -576 -2080 0
v -608 -2080 0
v -608 -2048 0
v -576 -2048 0
v -608 -2080 0
v -640 -2080 0
v -640 -2048 0
v -608 -2048 0
v -640 -2080 0
v -672 -2080 0
v -672 -2048 0
v -640 -2048 0
v -1184 -2080 0
v -1216 -2080 0
v -1216 -2048 0
v -1184 -2048 0
v -1216 -2080 0
v -1248 -2080 0
v -1248 -2048 0
v -1216 -2048 0
v -1248 -2080 0
v -1280 -2080 0
v -1280 -2048 0
v -1248 -2048 0
v -64 -2112 0
v -96 -2112 0
v -96 -2080 0
v -64 -2080 0
v -96 -2112 0
v -128 -2112 0
v -128 -2080 0
v -96 -2080 0
v -128 -2112 0
v -160 -2112 0
v -160 -2080 0
v -128 -2080 0
v -384 -2176 0
v -416 -2176 0
v -416 -2144 0
v -384 -2144 0
v -416 -2176 0
v -448 -2176 0
v -448 -2144 0
v -416 -2144 0
v -448 -2176 0
v -480 -2176 0
v -480 -2144 0
v -448 -2144 0
v -128 -2208 0
v -160 -2208 0
v -160 -2176 0
v -128 -2176 0
v -160 -2208 0
v -192 -2208 0
v -192 -2176 0
v -160 -2176 0
v -192 -2208 0
v -224 -2208 0
v -224 -2176 0
v -192 -2176 0
v -384 -2208 0
v -416 -2208 0
v -416 -2176 0
v -384 -2176 0
v -416 -2208 0
v -448 -2208 0
v -448 -2176 0
v -416 -2176 0
v -448 -2208 0
v -480 -2208 0
v -480 -2176 0
v -448 -2176 0
v -1088 -2208 0
v -1120 -2208 0
v -1120 -2176 0
v -1088 -2176 0
v -1120 -2208 0
v -1152 -2208 0
v -1152 -2176 0
v -1120 -2176 0
v -1152 -2208 0
v -1184 -2208 0
v -1184 -2176 0
v -1152 -2176 0
v -128 -2240 0
v -160 -2240 0
v -160 -2208 0
v -128 -2208 0
v -160 -2240 0
v -192 -2240 0
v -192 -2208 0
v -160 -2208 0
v -192 -2240 0
v -224 -2240 0
v -224 -2208 0
v -192 -2208 0
v -384 -2240 0
v -416 -2240 0
v -416 -2208 0
v -384 -2208 0
v -416 -2240 0
v -448 -2240 0
v -448 -2208 0
v -416 -2208 0
v -448 -2240 0
v -480 -2240 0
v -480 -2208 0
v -448 -2208 0
v -1088 -2240 0
v -1120 -2240 0
v -1120 -2208 0
v -1088 -2208 0
v -1120 -2240 0
v -1152 -2240 0
v -1152 -2208 0
v -1120 -2208 0
v -1152 -2240 0
v -1184 -2240 0
v -1184 -2208 0
v -1152 -2208 0
v -1408 -2240 0
v -1440 -2240 0
v -1440 -2208 0
v -1408 -2208 0
v -1440 -2240 0
v -1472 -2240 0
v -1472 -2208 0
v -1440 -2208 0
v -1472 -2240 0
v -1504 -2240 0
v -1504 -2208 0
v -1472 -2208 0
v -128 -2272 0
v -160 -2272 0
v -160 -2240 0
v -128 -2240 0
v -160 -2272 0
v -192 -2272 0
v -192 -2240 0
v -160 -2240 0
v -192 -2272 0
v -224 -2272 0
v -224 -2240 0
v -192 -2240 0
v -1088 -2272 0
v -1120 -2272 0
v -1120 -2240 0
v -1088 -2240 0
v -1120 -2272 0
v -1152 -2272 0
v -1152 -2240 0
v -1120 -2240 0
v -1152 -2272 0
v -1184 -2272 0
v -1184 -2240 0
v -1152 -2240 0
v -1408 -2272 0
v -1440 -2272 0
v -1440 -2240 0
v -1408 -2240 0
v -1440 -2272 0
v -1472 -2272 0
v -1472 -2240 0
v -1440 -2240 0
v -1472 -2272 0
v -1504 -2272 0
v -1504 -2240 0
v -1472 -2240 0

# Texture cooridinates (Count = 16)
vt 0 0.6666666
vt 0.1666667 0.6666666
vt 0.1666667 1
vt 0 1
vt 0.3333333 0.6666666
vt 0.3333333 1
vt 0.5 0.6666666
vt 0.5 1
vt 0 0.3333333
vt 0.1666667 0.3333333
vt 0.3333333 0.3333333
vt 0.5 0.3333333
vt 0 0
vt 0.1666667 0
vt 0.3333333 0
vt 0.5 0

# Normal
vn 0 0 -1

# Mesh description
g palawan_mesh_0004

# Faces
f 1/1/1 2/2/1 3/3/1 4/4/1
f 5/2/1 6/5/1 7/6/1 8/3/1
f 9/5/1 10/7/1 11/8/1 12/6/1
f 13/9/1 14/10/1 15/2/1 16/1/1
f 17/10/1 18/11/1 19/5/1 20/2/1
f 21/11/1 22/12/1 23/7/1 24/5/1
f 25/13/1 26/14/1 27/10/1 28/9/1
f 29/14/1 30/15/1 31/11/1 32/10/1
f 33/15/1 34/16/1 35/12/1 36/11/1
f 37/1/1 38/2/1 39/3/1 40/4/1
f 41/5/1 42/7/1 43/8/1 44/6/1
f 45/1/1 46/2/1 47/3/1 48/4/1
f 49/5/1 50/7/1 51/8/1 52/6/1
f 53/1/1 54/2/1 55/3/1 56/4/1
f 57/5/1 58/7/1 59/8/1 60/6/1
f 61/1/1 62/2/1 63/3/1 64/4/1
f 65/2/1 66/5/1 67/6/1 68/3/1
f 69/5/1 70/7/1 71/8/1 72/6/1
f 73/9/1 74/10/1 75/2/1 76/1/1
f 77/10/1 78/11/1 79/5/1 80/2/1
f 81/11/1 82/12/1 83/7/1 84/5/1
f 85/5/1 86/7/1 87/8/1 88/6/1
f 89/13/1 90/14/1 91/10/1 92/9/1
f 93/14/1 94/15/1 95/11/1 96/10/1
f 97/15/1 98/16/1 99/12/1 100/11/1
f 101/1/1 102/2/1 103/3/1 104/4/1
f 105/2/1 106/5/1 107/6/1 108/3/1
f 109/5/1 110/7/1 111/8/1 112/6/1
f 113/9/1 114/10/1 115/2/1 116/1/1
f 117/10/1 118/11/1 119/5/1 120/2/1
f 121/11/1 122/12/1 123/7/1 124/5/1
f 125/1/1 126/2/1 127/3/1 128/4/1
f 129/2/1 130/5/1 131/6/1 132/3/1
f 133/5/1 134/7/1 135/8/1 136/6/1
f 137/1/1 138/2/1 139/3/1 140/4/1
f 141/2/1 142/5/1 143/6/1 144/3/1
f 145/5/1 146/7/1 147/8/1 148/6/1
f 149/13/1 150/14/1 151/10/1 152/9/1
f 153/14/1 154/15/1 155/11/1 156/10/1
f 157/15/1 158/16/1 159/12/1 160/11/1
f 161/9/1 162/10/1 163/2/1 164/1/1
f 165/10/1 166/11/1 167/5/1 168/2/1
f 169/11/1 170/12/1 171/7/1 172/5/1
f 173/9/1 174/10/1 175/2/1 176/1/1
f 177/10/1 178/11/1 179/5/1 180/2/1
f 181/11/1 182/12/1 183/7/1 184/5/1
f 185/13/1 186/14/1 187/10/1 188/9/1
f 189/14/1 190/15/1 191/11/1 192/10/1
f 193/15/1 194/16/1 195/12/1 196/11/1
f 197/1/1 198/2/1 199/3/1 200/4/1
f 201/2/1 202/5/1 203/6/1 204/3/1
f 205/5/1 206/7/1 207/8/1 208/6/1
f 209/13/1 210/14/1 211/10/1 212/9/1
f 213/14/1 214/15/1 215/11/1 216/10/1
f 217/15/1 218/16/1 219/12/1 220/11/1
f 221/9/1 222/10/1 223/2/1 224/1/1
f 225/10/1 226/11/1 227/5/1 228/2/1
f 229/11/1 230/12/1 231/7/1 232/5/1
f 233/1/1 234/2/1 235/3/1 236/4/1
f 237/2/1 238/5/1 239/6/1 240/3/1
f 241/5/1 242/7/1 243/8/1 244/6/1
f 245/13/1 246/14/1 247/10/1 248/9/1
f 249/14/1 250/15/1 251/11/1 252/10/1
f 253/15/1 254/16/1 255/12/1 256/11/1
f 257/1/1 258/2/1 259/3/1 260/4/1
f 261/2/1 262/5/1 263/6/1 264/3/1
f 265/5/1 266/7/1 267/8/1 268/6/1
f 269/9/1 270/10/1 271/2/1 272/1/1
f 273/10/1 274/11/1 275/5/1 276/2/1
f 277/11/1 278/12/1 279/7/1 280/5/1
f 281/9/1 282/10/1 283/2/1 284/1/1
f 285/10/1 286/11/1 287/5/1 288/2/1
f 289/11/1 290/12/1 291/7/1 292/5/1
f 293/13/1 294/14/1 295/10/1 296/9/1
f 297/14/1 298/15/1 299/11/1 300/10/1
f 301/15/1 302/16/1 303/12/1 304/11/1
f 305/1/1 306/2/1 307/3/1 308/4/1
f 309/2/1 310/5/1 311/6/1 312/3/1
f 313/5/1 314/7/1 315/8/1 316/6/1
f 317/13/1 318/14/1 319/10/1 320/9/1
f 321/14/1 322/15/1 323/11/1 324/10/1
f 325/15/1 326/16/1 327/12/1 328/11/1
f 329/9/1 330/10/1 331/2/1 332/1/1
f 333/10/1 334/11/1 335/5/1 336/2/1
f 337/11/1 338/12/1 339/7/1 340/5/1
f 341/13/1 342/14/1 343/10/1 344/9/1
f 345/14/1 346/15/1 347/11/1 348/10/1
f 349/15/1 350/16/1 351/12/1 352/11/1
f 353/1/1 354/2/1 355/3/1 356/4/1
f 357/2/1 358/5/1 359/6/1 360/3/1
f 361/5/1 362/7/1 363/8/1 364/6/1
f 365/9/1 366/10/1 367/2/1 368/1/1
f 369/10/1 370/11/1 371/5/1 372/2/1
f 373/11/1 374/12/1 375/7/1 376/5/1
f 377/13/1 378/14/1 379/10/1 380/9/1
f 381/14/1 382/15/1 383/11/1 384/10/1
f 385/15/1 386/16/1 387/12/1 388/11/1
f 389/1/1 390/2/1 391/3/1 392/4/1
f 393/2/1 394/5/1 395/6/1 396/3/1
f 397/5/1 398/7/1 399/8/1 400/6/1
f 401/9/1 402/10/1 403/2/1 404/1/1
f 405/10/1 406/11/1 407/5/1 408/2/1
f 409/11/1 410/12/1 411/7/1 412/5/1
f 413/13/1 414/14/1 415/10/1 416/9/1
f 417/14/1 418/15/1 419/11/1 420/10/1
f 421/15/1 422/16/1 423/12/1 424/11/1
f 425/1/1 426/2/1 427/3/1 428/4/1
f 429/2/1 430/5/1 431/6/1 432/3/1
f 433/5/1 434/7/1 435/8/1 436/6/1
f 437/9/1 438/10/1 439/2/1 440/1/1
f 441/10/1 442/11/1 443/5/1 444/2/1
f 445/11/1 446/12/1 447/7/1 448/5/1
f 449/1/1 450/2/1 451/3/1 452/4/1
f 453/2/1 454/5/1 455/6/1 456/3/1
f 457/5/1 458/7/1 459/8/1 460/6/1
f 461/13/1 462/14/1 463/10/1 464/9/1
f 465/14/1 466/15/1 467/11/1 468/10/1
f 469/15/1 470/16/1 471/12/1 472/11/1
f 473/9/1 474/10/1 475/2/1 476/1/1
f 477/10/1 478/11/1 479/5/1 480/2/1
f 481/11/1 482/12/1 483/7/1 484/5/1
f 485/1/1 486/2/1 487/3/1 488/4/1
f 489/13/1 490/14/1 491/10/1 492/9/1
f 493/14/1 494/15/1 495/11/1 496/10/1
f 497/15/1 498/16/1 499/12/1 500/11/1
f 501/1/1 502/2/1 503/3/1 504/4/1
f 505/2/1 506/5/1 507/6/1 508/3/1
f 509/5/1 510/7/1 511/8/1 512/6/1
f 513/1/1 514/2/1 515/3/1 516/4/1
f 517/9/1 518/10/1 519/2/1 520/1/1
f 521/10/1 522/11/1 523/5/1 524/2/1
f 525/11/1 526/12/1 527/7/1 528/5/1
f 529/1/1 530/2/1 531/3/1 532/4/1
f 533/5/1 534/7/1 535/8/1 536/6/1
f 537/1/1 538/2/1 539/3/1 540/4/1
f 541/2/1 542/5/1 543/6/1 544/3/1
f 545/5/1 546/7/1 547/8/1 548/6/1
f 549/13/1 550/14/1 551/10/1 552/9/1
f 553/14/1 554/15/1 555/11/1 556/10/1
f 557/15/1 558/16/1 559/12/1 560/11/1
f 561/9/1 562/10/1 563/2/1 564/1/1
f 565/10/1 566/11/1 567/5/1 568/2/1
f 569/11/1 570/12/1 571/7/1 572/5/1
f 573/13/1 574/14/1 575/10/1 576/9/1
f 577/14/1 578/15/1 579/11/1 580/10/1
f 581/15/1 582/16/1 583/12/1 584/11/1
f 585/1/1 586/2/1 587/3/1 588/4/1
f 589/2/1 590/5/1 591/6/1 592/3/1
f 593/5/1 594/7/1 595/8/1 596/6/1
f 597/5/1 598/7/1 599/8/1 600/6/1
f 601/9/1 602/10/1 603/2/1 604/1/1
f 605/10/1 606/11/1 607/5/1 608/2/1
f 609/11/1 610/12/1 611/7/1 612/5/1
f 613/13/1 614/14/1 615/10/1 616/9/1
f 617/14/1 618/15/1 619/11/1 620/10/1
f 621/15/1 622/16/1 623/12/1 624/11/1
f 625/1/1 626/2/1 627/3/1 628/4/1
f 629/2/1 630/5/1 631/6/1 632/3/1
f 633/5/1 634/7/1 635/8/1 636/6/1
f 637/9/1 638/10/1 639/2/1 640/1/1
f 641/10/1 642/11/1 643/5/1 644/2/1
f 645/11/1 646/12/1 647/7/1 648/5/1
f 649/1/1 650/2/1 651/3/1 652/4/1
f 653/2/1 654/5/1 655/6/1 656/3/1
f 657/5/1 658/7/1 659/8/1 660/6/1
f 661/13/1 662/14/1 663/10/1 664/9/1
f 665/14/1 666/15/1 667/11/1 668/10/1
f 669/15/1 670/16/1 671/12/1 672/11/1
f 673/9/1 674/10/1 675/2/1 676/1/1
f 677/10/1 678/11/1 679/5/1 680/2/1
f 681/11/1 682/12/1 683/7/1 684/5/1
f 685/13/1 686/14/1 687/10/1 688/9/1
f 689/14/1 690/15/1 691/11/1 692/10/1
f 693/15/1 694/16/1 695/12/1 696/11/1
f 697/1/1 698/2/1 699/3/1 700/4/1
f 701/2/1 702/5/1 703/6/1 704/3/1
f 705/5/1 706/7/1 707/8/1 708/6/1
f 709/1/1 710/2/1 711/3/1 712/4/1
f 713/2/1 714/5/1 715/6/1 716/3/1
f 717/5/1 718/7/1 719/8/1 720/6/1
f 721/1/1 722/2/1 723/3/1 724/4/1
f 725/2/1 726/5/1 727/6/1 728/3/1
f 729/5/1 730/7/1 731/8/1 732/6/1
f 733/1/1 734/2/1 735/3/1 736/4/1
f 737/2/1 738/5/1 739/6/1 740/3/1
f 741/5/1 742/7/1 743/8/1 744/6/1
f 745/9/1 746/10/1 747/2/1 748/1/1
f 749/10/1 750/11/1 751/5/1 752/2/1
f 753/11/1 754/12/1 755/7/1 756/5/1
f 757/9/1 758/10/1 759/2/1 760/1/1
f 761/10/1 762/11/1 763/5/1 764/2/1
f 765/11/1 766/12/1 767/7/1 768/5/1
f 769/9/1 770/10/1 771/2/1 772/1/1
f 773/10/1 774/11/1 775/5/1 776/2/1
f 777/11/1 778/12/1 779/7/1 780/5/1
f 781/9/1 782/10/1 783/2/1 784/1/1
f 785/10/1 786/11/1 787/5/1 788/2/1
f 789/11/1 790/12/1 791/7/1 792/5/1
f 793/13/1 794/14/1 795/10/1 796/9/1
f 797/14/1 798/15/1 799/11/1 800/10/1
f 801/15/1 802/16/1 803/12/1 804/11/1
f 805/13/1 806/14/1 807/10/1 808/9/1
f 809/14/1 810/15/1 811/11/1 812/10/1
f 813/15/1 814/16/1 815/12/1 816/11/1
f 817/13/1 818/14/1 819/10/1 820/9/1
f 821/14/1 822/15/1 823/11/1 824/10/1
f 825/15/1 826/16/1 827/12/1 828/11/1
f 829/13/1 830/14/1 831/10/1 832/9/1
f 833/14/1 834/15/1 835/11/1 836/10/1
f 837/15/1 838/16/1 839/12/1 840/11/1
f 841/1/1 842/2/1 843/3/1 844/4/1
f 845/2/1 846/5/1 847/6/1 848/3/1
f 849/5/1 850/7/1 851/8/1 852/6/1
f 853/1/1 854/2/1 855/3/1 856/4/1
f 857/2/1 858/5/1 859/6/1 860/3/1
f 861/5/1 862/7/1 863/8/1 864/6/1
f 865/9/1 866/10/1 867/2/1 868/1/1
f 869/10/1 870/11/1 871/5/1 872/2/1
f 873/11/1 874/12/1 875/7/1 876/5/1
f 877/1/1 878/2/1 879/3/1 880/4/1
f 881/2/1 882/5/1 883/6/1 884/3/1
f 885/5/1 886/7/1 887/8/1 888/6/1
f 889/9/1 890/10/1 891/2/1 892/1/1
f 893/10/1 894/11/1 895/5/1 896/2/1
f 897/11/1 898/12/1 899/7/1 900/5/1
f 901/13/1 902/14/1 903/10/1 904/9/1
f 905/14/1 906/15/1 907/11/1 908/10/1
f 909/15/1 910/16/1 911/12/1 912/11/1
f 913/9/1 914/10/1 915/2/1 916/1/1
f 917/10/1 918/11/1 919/5/1 920/2/1
f 921/11/1 922/12/1 923/7/1 924/5/1
f 925/1/1 926/2/1 927/3/1 928/4/1
f 929/2/1 930/5/1 931/6/1 932/3/1
f 933/5/1 934/7/1 935/8/1 936/6/1
f 937/13/1 938/14/1 939/10/1 940/9/1
f 941/14/1 942/15/1 943/11/1 944/10/1
f 945/15/1 946/16/1 947/12/1 948/11/1
f 949/13/1 950/14/1 951/10/1 952/9/1
f 953/14/1 954/15/1 955/11/1 956/10/1
f 957/15/1 958/16/1 959/12/1 960/11/1
f 961/9/1 962/10/1 963/2/1 964/1/1
f 965/10/1 966/11/1 967/5/1 968/2/1
f 969/11/1 970/12/1 971/7/1 972/5/1

