# Tiled2Unity generated file. Do not modify by hand.
# Wavefront file for 'palawan_mesh_0007.obj'

# Vertices (Count = 936)
v -32 -224 0
v -64 -224 0
v -64 -192 0
v -32 -192 0
v -64 -224 0
v -96 -224 0
v -96 -192 0
v -64 -192 0
v -96 -224 0
v -128 -224 0
v -128 -192 0
v -96 -192 0
v -32 -256 0
v -64 -256 0
v -64 -224 0
v -32 -224 0
v -64 -256 0
v -96 -256 0
v -96 -224 0
v -64 -224 0
v -96 -256 0
v -128 -256 0
v -128 -224 0
v -96 -224 0
v -32 -288 0
v -64 -288 0
v -64 -256 0
v -32 -256 0
v -64 -288 0
v -96 -288 0
v -96 -256 0
v -64 -256 0
v -96 -288 0
v -128 -288 0
v -128 -256 0
v -96 -256 0
v -1504 -576 0
v -1536 -576 0
v -1536 -544 0
v -1504 -544 0
v -1536 -576 0
v -1568 -576 0
v -1568 -544 0
v -1536 -544 0
v -1568 -576 0
v -1600 -576 0
v -1600 -544 0
v -1568 -544 0
v -1504 -608 0
v -1536 -608 0
v -1536 -576 0
v -1504 -576 0
v -1536 -608 0
v -1568 -608 0
v -1568 -576 0
v -1536 -576 0
v -1568 -608 0
v -1600 -608 0
v -1600 -576 0
v -1568 -576 0
v -1504 -640 0
v -1536 -640 0
v -1536 -608 0
v -1504 -608 0
v -1536 -640 0
v -1568 -640 0
v -1568 -608 0
v -1536 -608 0
v -1568 -640 0
v -1600 -640 0
v -1600 -608 0
v -1568 -608 0
v -32 -736 0
v -64 -736 0
v -64 -704 0
v -32 -704 0
v -64 -736 0
v -96 -736 0
v -96 -704 0
v -64 -704 0
v -96 -736 0
v -128 -736 0
v -128 -704 0
v -96 -704 0
v -160 -736 0
v -192 -736 0
v -192 -704 0
v -160 -704 0
v -192 -736 0
v -224 -736 0
v -224 -704 0
v -192 -704 0
v -224 -736 0
v -256 -736 0
v -256 -704 0
v -224 -704 0
v -1536 -736 0
v -1568 -736 0
v -1568 -704 0
v -1536 -704 0
v -1568 -736 0
v -1600 -736 0
v -1600 -704 0
v -1568 -704 0
v -1600 -736 0
v -1632 -736 0
v -1632 -704 0
v -1600 -704 0
v -32 -768 0
v -64 -768 0
v -64 -736 0
v -32 -736 0
v -64 -768 0
v -96 -768 0
v -96 -736 0
v -64 -736 0
v -96 -768 0
v -128 -768 0
v -128 -736 0
v -96 -736 0
v -160 -768 0
v -192 -768 0
v -192 -736 0
v -160 -736 0
v -192 -768 0
v -224 -768 0
v -224 -736 0
v -192 -736 0
v -224 -768 0
v -256 -768 0
v -256 -736 0
v -224 -736 0
v -1536 -768 0
v -1568 -768 0
v -1568 -736 0
v -1536 -736 0
v -1568 -768 0
v -1600 -768 0
v -1600 -736 0
v -1568 -736 0
v -1600 -768 0
v -1632 -768 0
v -1632 -736 0
v -1600 -736 0
v -32 -800 0
v -64 -800 0
v -64 -768 0
v -32 -768 0
v -64 -800 0
v -96 -800 0
v -96 -768 0
v -64 -768 0
v -96 -800 0
v -128 -800 0
v -128 -768 0
v -96 -768 0
v -160 -800 0
v -192 -800 0
v -192 -768 0
v -160 -768 0
v -192 -800 0
v -224 -800 0
v -224 -768 0
v -192 -768 0
v -224 -800 0
v -256 -800 0
v -256 -768 0
v -224 -768 0
v -320 -800 0
v -352 -800 0
v -352 -768 0
v -320 -768 0
v -352 -800 0
v -384 -800 0
v -384 -768 0
v -352 -768 0
v -384 -800 0
v -416 -800 0
v -416 -768 0
v -384 -768 0
v -1536 -800 0
v -1568 -800 0
v -1568 -768 0
v -1536 -768 0
v -1568 -800 0
v -1600 -800 0
v -1600 -768 0
v -1568 -768 0
v -1600 -800 0
v -1632 -800 0
v -1632 -768 0
v -1600 -768 0
v -320 -832 0
v -352 -832 0
v -352 -800 0
v -320 -800 0
v -352 -832 0
v -384 -832 0
v -384 -800 0
v -352 -800 0
v -384 -832 0
v -416 -832 0
v -416 -800 0
v -384 -800 0
v -320 -864 0
v -352 -864 0
v -352 -832 0
v -320 -832 0
v -352 -864 0
v -384 -864 0
v -384 -832 0
v -352 -832 0
v -384 -864 0
v -416 -864 0
v -416 -832 0
v -384 -832 0
v -32 -896 0
v -64 -896 0
v -64 -864 0
v -32 -864 0
v -64 -896 0
v -96 -896 0
v -96 -864 0
v -64 -864 0
v -96 -896 0
v -128 -896 0
v -128 -864 0
v -96 -864 0
v -1376 -896 0
v -1408 -896 0
v -1408 -864 0
v -1376 -864 0
v -1408 -896 0
v -1440 -896 0
v -1440 -864 0
v -1408 -864 0
v -1440 -896 0
v -1472 -896 0
v -1472 -864 0
v -1440 -864 0
v -32 -928 0
v -64 -928 0
v -64 -896 0
v -32 -896 0
v -64 -928 0
v -96 -928 0
v -96 -896 0
v -64 -896 0
v -96 -928 0
v -128 -928 0
v -128 -896 0
v -96 -896 0
v -1376 -928 0
v -1408 -928 0
v -1408 -896 0
v -1376 -896 0
v -1408 -928 0
v -1440 -928 0
v -1440 -896 0
v -1408 -896 0
v -1440 -928 0
v -1472 -928 0
v -1472 -896 0
v -1440 -896 0
v -32 -960 0
v -64 -960 0
v -64 -928 0
v -32 -928 0
v -64 -960 0
v -96 -960 0
v -96 -928 0
v -64 -928 0
v -96 -960 0
v -128 -960 0
v -128 -928 0
v -96 -928 0
v -1216 -960 0
v -1248 -960 0
v -1248 -928 0
v -1216 -928 0
v -1248 -960 0
v -1280 -960 0
v -1280 -928 0
v -1248 -928 0
v -1280 -960 0
v -1312 -960 0
v -1312 -928 0
v -1280 -928 0
v -1376 -960 0
v -1408 -960 0
v -1408 -928 0
v -1376 -928 0
v -1408 -960 0
v -1440 -960 0
v -1440 -928 0
v -1408 -928 0
v -1440 -960 0
v -1472 -960 0
v -1472 -928 0
v -1440 -928 0
v -1216 -992 0
v -1248 -992 0
v -1248 -960 0
v -1216 -960 0
v -1248 -992 0
v -1280 -992 0
v -1280 -960 0
v -1248 -960 0
v -1280 -992 0
v -1312 -992 0
v -1312 -960 0
v -1280 -960 0
v -128 -1024 0
v -160 -1024 0
v -160 -992 0
v -128 -992 0
v -160 -1024 0
v -192 -1024 0
v -192 -992 0
v -160 -992 0
v -192 -1024 0
v -224 -1024 0
v -224 -992 0
v -192 -992 0
v -1216 -1024 0
v -1248 -1024 0
v -1248 -992 0
v -1216 -992 0
v -1248 -1024 0
v -1280 -1024 0
v -1280 -992 0
v -1248 -992 0
v -1280 -1024 0
v -1312 -1024 0
v -1312 -992 0
v -1280 -992 0
v -128 -1056 0
v -160 -1056 0
v -160 -1024 0
v -128 -1024 0
v -160 -1056 0
v -192 -1056 0
v -192 -1024 0
v -160 -1024 0
v -192 -1056 0
v -224 -1056 0
v -224 -1024 0
v -192 -1024 0
v -128 -1088 0
v -160 -1088 0
v -160 -1056 0
v -128 -1056 0
v -160 -1088 0
v -192 -1088 0
v -192 -1056 0
v -160 -1056 0
v -192 -1088 0
v -224 -1088 0
v -224 -1056 0
v -192 -1056 0
v -1120 -1088 0
v -1152 -1088 0
v -1152 -1056 0
v -1120 -1056 0
v -1152 -1088 0
v -1184 -1088 0
v -1184 -1056 0
v -1152 -1056 0
v -1184 -1088 0
v -1216 -1088 0
v -1216 -1056 0
v -1184 -1056 0
v -1120 -1120 0
v -1152 -1120 0
v -1152 -1088 0
v -1120 -1088 0
v -1152 -1120 0
v -1184 -1120 0
v -1184 -1088 0
v -1152 -1088 0
v -1184 -1120 0
v -1216 -1120 0
v -1216 -1088 0
v -1184 -1088 0
v -1120 -1152 0
v -1152 -1152 0
v -1152 -1120 0
v -1120 -1120 0
v -1152 -1152 0
v -1184 -1152 0
v -1184 -1120 0
v -1152 -1120 0
v -1184 -1152 0
v -1216 -1152 0
v -1216 -1120 0
v -1184 -1120 0
v -96 -1216 0
v -128 -1216 0
v -128 -1184 0
v -96 -1184 0
v -128 -1216 0
v -160 -1216 0
v -160 -1184 0
v -128 -1184 0
v -160 -1216 0
v -192 -1216 0
v -192 -1184 0
v -160 -1184 0
v -96 -1248 0
v -128 -1248 0
v -128 -1216 0
v -96 -1216 0
v -128 -1248 0
v -160 -1248 0
v -160 -1216 0
v -128 -1216 0
v -160 -1248 0
v -192 -1248 0
v -192 -1216 0
v -160 -1216 0
v -1376 -1248 0
v -1408 -1248 0
v -1408 -1216 0
v -1376 -1216 0
v -1408 -1248 0
v -1440 -1248 0
v -1440 -1216 0
v -1408 -1216 0
v -1440 -1248 0
v -1472 -1248 0
v -1472 -1216 0
v -1440 -1216 0
v -96 -1280 0
v -128 -1280 0
v -128 -1248 0
v -96 -1248 0
v -128 -1280 0
v -160 -1280 0
v -160 -1248 0
v -128 -1248 0
v -160 -1280 0
v -192 -1280 0
v -192 -1248 0
v -160 -1248 0
v -1376 -1280 0
v -1408 -1280 0
v -1408 -1248 0
v -1376 -1248 0
v -1408 -1280 0
v -1440 -1280 0
v -1440 -1248 0
v -1408 -1248 0
v -1440 -1280 0
v -1472 -1280 0
v -1472 -1248 0
v -1440 -1248 0
v -256 -1312 0
v -288 -1312 0
v -288 -1280 0
v -256 -1280 0
v -288 -1312 0
v -320 -1312 0
v -320 -1280 0
v -288 -1280 0
v -320 -1312 0
v -352 -1312 0
v -352 -1280 0
v -320 -1280 0
v -1376 -1312 0
v -1408 -1312 0
v -1408 -1280 0
v -1376 -1280 0
v -1408 -1312 0
v -1440 -1312 0
v -1440 -1280 0
v -1408 -1280 0
v -1440 -1312 0
v -1472 -1312 0
v -1472 -1280 0
v -1440 -1280 0
v -256 -1344 0
v -288 -1344 0
v -288 -1312 0
v -256 -1312 0
v -288 -1344 0
v -320 -1344 0
v -320 -1312 0
v -288 -1312 0
v -320 -1344 0
v -352 -1344 0
v -352 -1312 0
v -320 -1312 0
v -256 -1376 0
v -288 -1376 0
v -288 -1344 0
v -256 -1344 0
v -288 -1376 0
v -320 -1376 0
v -320 -1344 0
v -288 -1344 0
v -320 -1376 0
v -352 -1376 0
v -352 -1344 0
v -320 -1344 0
v -128 -1408 0
v -160 -1408 0
v -160 -1376 0
v -128 -1376 0
v -160 -1408 0
v -192 -1408 0
v -192 -1376 0
v -160 -1376 0
v -192 -1408 0
v -224 -1408 0
v -224 -1376 0
v -192 -1376 0
v -128 -1440 0
v -160 -1440 0
v -160 -1408 0
v -128 -1408 0
v -160 -1440 0
v -192 -1440 0
v -192 -1408 0
v -160 -1408 0
v -192 -1440 0
v -224 -1440 0
v -224 -1408 0
v -192 -1408 0
v -128 -1472 0
v -160 -1472 0
v -160 -1440 0
v -128 -1440 0
v -160 -1472 0
v -192 -1472 0
v -192 -1440 0
v -160 -1440 0
v -192 -1472 0
v -224 -1472 0
v -224 -1440 0
v -192 -1440 0
v -1408 -1472 0
v -1440 -1472 0
v -1440 -1440 0
v -1408 -1440 0
v -1440 -1472 0
v -1472 -1472 0
v -1472 -1440 0
v -1440 -1440 0
v -1472 -1472 0
v -1504 -1472 0
v -1504 -1440 0
v -1472 -1440 0
v -1408 -1504 0
v -1440 -1504 0
v -1440 -1472 0
v -1408 -1472 0
v -1440 -1504 0
v -1472 -1504 0
v -1472 -1472 0
v -1440 -1472 0
v -1472 -1504 0
v -1504 -1504 0
v -1504 -1472 0
v -1472 -1472 0
v -1408 -1536 0
v -1440 -1536 0
v -1440 -1504 0
v -1408 -1504 0
v -1440 -1536 0
v -1472 -1536 0
v -1472 -1504 0
v -1440 -1504 0
v -1472 -1536 0
v -1504 -1536 0
v -1504 -1504 0
v -1472 -1504 0
v -64 -1664 0
v -96 -1664 0
v -96 -1632 0
v -64 -1632 0
v -96 -1664 0
v -128 -1664 0
v -128 -1632 0
v -96 -1632 0
v -128 -1664 0
v -160 -1664 0
v -160 -1632 0
v -128 -1632 0
v -224 -1664 0
v -256 -1664 0
v -256 -1632 0
v -224 -1632 0
v -256 -1664 0
v -288 -1664 0
v -288 -1632 0
v -256 -1632 0
v -288 -1664 0
v -320 -1664 0
v -320 -1632 0
v -288 -1632 0
v -64 -1696 0
v -96 -1696 0
v -96 -1664 0
v -64 -1664 0
v -96 -1696 0
v -128 -1696 0
v -128 -1664 0
v -96 -1664 0
v -128 -1696 0
v -160 -1696 0
v -160 -1664 0
v -128 -1664 0
v -224 -1696 0
v -256 -1696 0
v -256 -1664 0
v -224 -1664 0
v -256 -1696 0
v -288 -1696 0
v -288 -1664 0
v -256 -1664 0
v -288 -1696 0
v -320 -1696 0
v -320 -1664 0
v -288 -1664 0
v -64 -1728 0
v -96 -1728 0
v -96 -1696 0
v -64 -1696 0
v -96 -1728 0
v -128 -1728 0
v -128 -1696 0
v -96 -1696 0
v -128 -1728 0
v -160 -1728 0
v -160 -1696 0
v -128 -1696 0
v -224 -1728 0
v -256 -1728 0
v -256 -1696 0
v -224 -1696 0
v -256 -1728 0
v -288 -1728 0
v -288 -1696 0
v -256 -1696 0
v -288 -1728 0
v -320 -1728 0
v -320 -1696 0
v -288 -1696 0
v -576 -1952 0
v -608 -1952 0
v -608 -1920 0
v -576 -1920 0
v -608 -1952 0
v -640 -1952 0
v -640 -1920 0
v -608 -1920 0
v -640 -1952 0
v -672 -1952 0
v -672 -1920 0
v -640 -1920 0
v -64 -1984 0
v -96 -1984 0
v -96 -1952 0
v -64 -1952 0
v -96 -1984 0
v -128 -1984 0
v -128 -1952 0
v -96 -1952 0
v -128 -1984 0
v -160 -1984 0
v -160 -1952 0
v -128 -1952 0
v -288 -1984 0
v -320 -1984 0
v -320 -1952 0
v -288 -1952 0
v -320 -1984 0
v -352 -1984 0
v -352 -1952 0
v -320 -1952 0
v -352 -1984 0
v -384 -1984 0
v -384 -1952 0
v -352 -1952 0
v -576 -1984 0
v -608 -1984 0
v -608 -1952 0
v -576 -1952 0
v -608 -1984 0
v -640 -1984 0
v -640 -1952 0
v -608 -1952 0
v -640 -1984 0
v -672 -1984 0
v -672 -1952 0
v -640 -1952 0
v -1184 -1984 0
v -1216 -1984 0
v -1216 -1952 0
v -1184 -1952 0
v -1216 -1984 0
v -1248 -1984 0
v -1248 -1952 0
v -1216 -1952 0
v -1248 -1984 0
v -1280 -1984 0
v -1280 -1952 0
v -1248 -1952 0
v -64 -2016 0
v -96 -2016 0
v -96 -1984 0
v -64 -1984 0
v -96 -2016 0
v -128 -2016 0
v -128 -1984 0
v -96 -1984 0
v -128 -2016 0
v -160 -2016 0
v -160 -1984 0
v -128 -1984 0
v -288 -2016 0
v -320 -2016 0
v -320 -1984 0
v -288 -1984 0
v -320 -2016 0
v -352 -2016 0
v -352 -1984 0
v -320 -1984 0
v -352 -2016 0
v -384 -2016 0
v -384 -1984 0
v -352 -1984 0
v -576 -2016 0
v -608 -2016 0
v -608 -1984 0
v -576 -1984 0
v -608 -2016 0
v -640 -2016 0
v -640 -1984 0
v -608 -1984 0
v -640 -2016 0
v -672 -2016 0
v -672 -1984 0
v -640 -1984 0
v -1184 -2016 0
v -1216 -2016 0
v -1216 -1984 0
v -1184 -1984 0
v -1216 -2016 0
v -1248 -2016 0
v -1248 -1984 0
v -1216 -1984 0
v -1248 -2016 0
v -1280 -2016 0
v -1280 -1984 0
v -1248 -1984 0
v -64 -2048 0
v -96 -2048 0
v -96 -2016 0
v -64 -2016 0
v -96 -2048 0
v -128 -2048 0
v -128 -2016 0
v -96 -2016 0
v -128 -2048 0
v -160 -2048 0
v -160 -2016 0
v -128 -2016 0
v -288 -2048 0
v -320 -2048 0
v -320 -2016 0
v -288 -2016 0
v -320 -2048 0
v -352 -2048 0
v -352 -2016 0
v -320 -2016 0
v -352 -2048 0
v -384 -2048 0
v -384 -2016 0
v -352 -2016 0
v -1184 -2048 0
v -1216 -2048 0
v -1216 -2016 0
v -1184 -2016 0
v -1216 -2048 0
v -1248 -2048 0
v -1248 -2016 0
v -1216 -2016 0
v -1248 -2048 0
v -1280 -2048 0
v -1280 -2016 0
v -1248 -2016 0
v -384 -2112 0
v -416 -2112 0
v -416 -2080 0
v -384 -2080 0
v -416 -2112 0
v -448 -2112 0
v -448 -2080 0
v -416 -2080 0
v -448 -2112 0
v -480 -2112 0
v -480 -2080 0
v -448 -2080 0
v -384 -2144 0
v -416 -2144 0
v -416 -2112 0
v -384 -2112 0
v -416 -2144 0
v -448 -2144 0
v -448 -2112 0
v -416 -2112 0
v -448 -2144 0
v -480 -2144 0
v -480 -2112 0
v -448 -2112 0
v -1088 -2144 0
v -1120 -2144 0
v -1120 -2112 0
v -1088 -2112 0
v -1120 -2144 0
v -1152 -2144 0
v -1152 -2112 0
v -1120 -2112 0
v -1152 -2144 0
v -1184 -2144 0
v -1184 -2112 0
v -1152 -2112 0
v -128 -2176 0
v -160 -2176 0
v -160 -2144 0
v -128 -2144 0
v -160 -2176 0
v -192 -2176 0
v -192 -2144 0
v -160 -2144 0
v -192 -2176 0
v -224 -2176 0
v -224 -2144 0
v -192 -2144 0
v -384 -2176 0
v -416 -2176 0
v -416 -2144 0
v -384 -2144 0
v -416 -2176 0
v -448 -2176 0
v -448 -2144 0
v -416 -2144 0
v -448 -2176 0
v -480 -2176 0
v -480 -2144 0
v -448 -2144 0
v -1088 -2176 0
v -1120 -2176 0
v -1120 -2144 0
v -1088 -2144 0
v -1120 -2176 0
v -1152 -2176 0
v -1152 -2144 0
v -1120 -2144 0
v -1152 -2176 0
v -1184 -2176 0
v -1184 -2144 0
v -1152 -2144 0
v -1408 -2176 0
v -1440 -2176 0
v -1440 -2144 0
v -1408 -2144 0
v -1440 -2176 0
v -1472 -2176 0
v -1472 -2144 0
v -1440 -2144 0
v -1472 -2176 0
v -1504 -2176 0
v -1504 -2144 0
v -1472 -2144 0
v -128 -2208 0
v -160 -2208 0
v -160 -2176 0
v -128 -2176 0
v -160 -2208 0
v -192 -2208 0
v -192 -2176 0
v -160 -2176 0
v -192 -2208 0
v -224 -2208 0
v -224 -2176 0
v -192 -2176 0
v -1088 -2208 0
v -1120 -2208 0
v -1120 -2176 0
v -1088 -2176 0
v -1120 -2208 0
v -1152 -2208 0
v -1152 -2176 0
v -1120 -2176 0
v -1152 -2208 0
v -1184 -2208 0
v -1184 -2176 0
v -1152 -2176 0
v -1408 -2208 0
v -1440 -2208 0
v -1440 -2176 0
v -1408 -2176 0
v -1440 -2208 0
v -1472 -2208 0
v -1472 -2176 0
v -1440 -2176 0
v -1472 -2208 0
v -1504 -2208 0
v -1504 -2176 0
v -1472 -2176 0
v -128 -2240 0
v -160 -2240 0
v -160 -2208 0
v -128 -2208 0
v -160 -2240 0
v -192 -2240 0
v -192 -2208 0
v -160 -2208 0
v -192 -2240 0
v -224 -2240 0
v -224 -2208 0
v -192 -2208 0
v -1408 -2240 0
v -1440 -2240 0
v -1440 -2208 0
v -1408 -2208 0
v -1440 -2240 0
v -1472 -2240 0
v -1472 -2208 0
v -1440 -2208 0
v -1472 -2240 0
v -1504 -2240 0
v -1504 -2208 0
v -1472 -2208 0

# Texture cooridinates (Count = 16)
vt 0 0.8571429
vt 0.1666667 0.8571429
vt 0.1666667 1
vt 0 1
vt 0.3333333 0.8571429
vt 0.3333333 1
vt 0.5 0.8571429
vt 0.5 1
vt 0 0.7142857
vt 0.1666667 0.7142857
vt 0.3333333 0.7142857
vt 0.5 0.7142857
vt 0 0.5714285
vt 0.1666667 0.5714285
vt 0.3333333 0.5714285
vt 0.5 0.5714285

# Normal
vn 0 0 -1

# Mesh description
g palawan_mesh_0007

# Faces
f 1/1/1 2/2/1 3/3/1 4/4/1
f 5/2/1 6/5/1 7/6/1 8/3/1
f 9/5/1 10/7/1 11/8/1 12/6/1
f 13/9/1 14/10/1 15/2/1 16/1/1
f 17/10/1 18/11/1 19/5/1 20/2/1
f 21/11/1 22/12/1 23/7/1 24/5/1
f 25/13/1 26/14/1 27/10/1 28/9/1
f 29/14/1 30/15/1 31/11/1 32/10/1
f 33/15/1 34/16/1 35/12/1 36/11/1
f 37/1/1 38/2/1 39/3/1 40/4/1
f 41/2/1 42/5/1 43/6/1 44/3/1
f 45/5/1 46/7/1 47/8/1 48/6/1
f 49/9/1 50/10/1 51/2/1 52/1/1
f 53/10/1 54/11/1 55/5/1 56/2/1
f 57/11/1 58/12/1 59/7/1 60/5/1
f 61/13/1 62/14/1 63/10/1 64/9/1
f 65/14/1 66/15/1 67/11/1 68/10/1
f 69/15/1 70/16/1 71/12/1 72/11/1
f 73/1/1 74/2/1 75/3/1 76/4/1
f 77/2/1 78/5/1 79/6/1 80/3/1
f 81/5/1 82/7/1 83/8/1 84/6/1
f 85/1/1 86/2/1 87/3/1 88/4/1
f 89/2/1 90/5/1 91/6/1 92/3/1
f 93/5/1 94/7/1 95/8/1 96/6/1
f 97/1/1 98/2/1 99/3/1 100/4/1
f 101/2/1 102/5/1 103/6/1 104/3/1
f 105/5/1 106/7/1 107/8/1 108/6/1
f 109/9/1 110/10/1 111/2/1 112/1/1
f 113/10/1 114/11/1 115/5/1 116/2/1
f 117/11/1 118/12/1 119/7/1 120/5/1
f 121/9/1 122/10/1 123/2/1 124/1/1
f 125/10/1 126/11/1 127/5/1 128/2/1
f 129/11/1 130/12/1 131/7/1 132/5/1
f 133/9/1 134/10/1 135/2/1 136/1/1
f 137/10/1 138/11/1 139/5/1 140/2/1
f 141/11/1 142/12/1 143/7/1 144/5/1
f 145/13/1 146/14/1 147/10/1 148/9/1
f 149/14/1 150/15/1 151/11/1 152/10/1
f 153/15/1 154/16/1 155/12/1 156/11/1
f 157/13/1 158/14/1 159/10/1 160/9/1
f 161/14/1 162/15/1 163/11/1 164/10/1
f 165/15/1 166/16/1 167/12/1 168/11/1
f 169/1/1 170/2/1 171/3/1 172/4/1
f 173/2/1 174/5/1 175/6/1 176/3/1
f 177/5/1 178/7/1 179/8/1 180/6/1
f 181/13/1 182/14/1 183/10/1 184/9/1
f 185/14/1 186/15/1 187/11/1 188/10/1
f 189/15/1 190/16/1 191/12/1 192/11/1
f 193/9/1 194/10/1 195/2/1 196/1/1
f 197/10/1 198/11/1 199/5/1 200/2/1
f 201/11/1 202/12/1 203/7/1 204/5/1
f 205/13/1 206/14/1 207/10/1 208/9/1
f 209/14/1 210/15/1 211/11/1 212/10/1
f 213/15/1 214/16/1 215/12/1 216/11/1
f 217/1/1 218/2/1 219/3/1 220/4/1
f 221/2/1 222/5/1 223/6/1 224/3/1
f 225/5/1 226/7/1 227/8/1 228/6/1
f 229/1/1 230/2/1 231/3/1 232/4/1
f 233/2/1 234/5/1 235/6/1 236/3/1
f 237/5/1 238/7/1 239/8/1 240/6/1
f 241/9/1 242/10/1 243/2/1 244/1/1
f 245/10/1 246/11/1 247/5/1 248/2/1
f 249/11/1 250/12/1 251/7/1 252/5/1
f 253/9/1 254/10/1 255/2/1 256/1/1
f 257/10/1 258/11/1 259/5/1 260/2/1
f 261/11/1 262/12/1 263/7/1 264/5/1
f 265/13/1 266/14/1 267/10/1 268/9/1
f 269/14/1 270/15/1 271/11/1 272/10/1
f 273/15/1 274/16/1 275/12/1 276/11/1
f 277/1/1 278/2/1 279/3/1 280/4/1
f 281/2/1 282/5/1 283/6/1 284/3/1
f 285/5/1 286/7/1 287/8/1 288/6/1
f 289/13/1 290/14/1 291/10/1 292/9/1
f 293/14/1 294/15/1 295/11/1 296/10/1
f 297/15/1 298/16/1 299/12/1 300/11/1
f 301/9/1 302/10/1 303/2/1 304/1/1
f 305/10/1 306/11/1 307/5/1 308/2/1
f 309/11/1 310/12/1 311/7/1 312/5/1
f 313/1/1 314/2/1 315/3/1 316/4/1
f 317/2/1 318/5/1 319/6/1 320/3/1
f 321/5/1 322/7/1 323/8/1 324/6/1
f 325/13/1 326/14/1 327/10/1 328/9/1
f 329/14/1 330/15/1 331/11/1 332/10/1
f 333/15/1 334/16/1 335/12/1 336/11/1
f 337/9/1 338/10/1 339/2/1 340/1/1
f 341/10/1 342/11/1 343/5/1 344/2/1
f 345/11/1 346/12/1 347/7/1 348/5/1
f 349/13/1 350/14/1 351/10/1 352/9/1
f 353/14/1 354/15/1 355/11/1 356/10/1
f 357/15/1 358/16/1 359/12/1 360/11/1
f 361/1/1 362/2/1 363/3/1 364/4/1
f 365/2/1 366/5/1 367/6/1 368/3/1
f 369/5/1 370/7/1 371/8/1 372/6/1
f 373/9/1 374/10/1 375/2/1 376/1/1
f 377/10/1 378/11/1 379/5/1 380/2/1
f 381/11/1 382/12/1 383/7/1 384/5/1
f 385/13/1 386/14/1 387/10/1 388/9/1
f 389/14/1 390/15/1 391/11/1 392/10/1
f 393/15/1 394/16/1 395/12/1 396/11/1
f 397/1/1 398/2/1 399/3/1 400/4/1
f 401/2/1 402/5/1 403/6/1 404/3/1
f 405/5/1 406/7/1 407/8/1 408/6/1
f 409/9/1 410/10/1 411/2/1 412/1/1
f 413/10/1 414/11/1 415/5/1 416/2/1
f 417/11/1 418/12/1 419/7/1 420/5/1
f 421/1/1 422/2/1 423/3/1 424/4/1
f 425/2/1 426/5/1 427/6/1 428/3/1
f 429/5/1 430/7/1 431/8/1 432/6/1
f 433/13/1 434/14/1 435/10/1 436/9/1
f 437/14/1 438/15/1 439/11/1 440/10/1
f 441/15/1 442/16/1 443/12/1 444/11/1
f 445/9/1 446/10/1 447/2/1 448/1/1
f 449/10/1 450/11/1 451/5/1 452/2/1
f 453/11/1 454/12/1 455/7/1 456/5/1
f 457/1/1 458/2/1 459/3/1 460/4/1
f 461/2/1 462/5/1 463/6/1 464/3/1
f 465/5/1 466/7/1 467/8/1 468/6/1
f 469/13/1 470/14/1 471/10/1 472/9/1
f 473/14/1 474/15/1 475/11/1 476/10/1
f 477/15/1 478/16/1 479/12/1 480/11/1
f 481/9/1 482/10/1 483/2/1 484/1/1
f 485/10/1 486/11/1 487/5/1 488/2/1
f 489/11/1 490/12/1 491/7/1 492/5/1
f 493/13/1 494/14/1 495/10/1 496/9/1
f 497/14/1 498/15/1 499/11/1 500/10/1
f 501/15/1 502/16/1 503/12/1 504/11/1
f 505/1/1 506/2/1 507/3/1 508/4/1
f 509/2/1 510/5/1 511/6/1 512/3/1
f 513/5/1 514/7/1 515/8/1 516/6/1
f 517/9/1 518/10/1 519/2/1 520/1/1
f 521/10/1 522/11/1 523/5/1 524/2/1
f 525/11/1 526/12/1 527/7/1 528/5/1
f 529/13/1 530/14/1 531/10/1 532/9/1
f 533/14/1 534/15/1 535/11/1 536/10/1
f 537/15/1 538/16/1 539/12/1 540/11/1
f 541/1/1 542/2/1 543/3/1 544/4/1
f 545/2/1 546/5/1 547/6/1 548/3/1
f 549/5/1 550/7/1 551/8/1 552/6/1
f 553/9/1 554/10/1 555/2/1 556/1/1
f 557/10/1 558/11/1 559/5/1 560/2/1
f 561/11/1 562/12/1 563/7/1 564/5/1
f 565/13/1 566/14/1 567/10/1 568/9/1
f 569/14/1 570/15/1 571/11/1 572/10/1
f 573/15/1 574/16/1 575/12/1 576/11/1
f 577/1/1 578/2/1 579/3/1 580/4/1
f 581/2/1 582/5/1 583/6/1 584/3/1
f 585/5/1 586/7/1 587/8/1 588/6/1
f 589/1/1 590/2/1 591/3/1 592/4/1
f 593/2/1 594/5/1 595/6/1 596/3/1
f 597/5/1 598/7/1 599/8/1 600/6/1
f 601/9/1 602/10/1 603/2/1 604/1/1
f 605/10/1 606/11/1 607/5/1 608/2/1
f 609/11/1 610/12/1 611/7/1 612/5/1
f 613/9/1 614/10/1 615/2/1 616/1/1
f 617/10/1 618/11/1 619/5/1 620/2/1
f 621/11/1 622/12/1 623/7/1 624/5/1
f 625/13/1 626/14/1 627/10/1 628/9/1
f 629/14/1 630/15/1 631/11/1 632/10/1
f 633/15/1 634/16/1 635/12/1 636/11/1
f 637/13/1 638/14/1 639/10/1 640/9/1
f 641/14/1 642/15/1 643/11/1 644/10/1
f 645/15/1 646/16/1 647/12/1 648/11/1
f 649/1/1 650/2/1 651/3/1 652/4/1
f 653/2/1 654/5/1 655/6/1 656/3/1
f 657/5/1 658/7/1 659/8/1 660/6/1
f 661/1/1 662/2/1 663/3/1 664/4/1
f 665/2/1 666/5/1 667/6/1 668/3/1
f 669/5/1 670/7/1 671/8/1 672/6/1
f 673/1/1 674/2/1 675/3/1 676/4/1
f 677/2/1 678/5/1 679/6/1 680/3/1
f 681/5/1 682/7/1 683/8/1 684/6/1
f 685/9/1 686/10/1 687/2/1 688/1/1
f 689/10/1 690/11/1 691/5/1 692/2/1
f 693/11/1 694/12/1 695/7/1 696/5/1
f 697/1/1 698/2/1 699/3/1 700/4/1
f 701/2/1 702/5/1 703/6/1 704/3/1
f 705/5/1 706/7/1 707/8/1 708/6/1
f 709/9/1 710/10/1 711/2/1 712/1/1
f 713/10/1 714/11/1 715/5/1 716/2/1
f 717/11/1 718/12/1 719/7/1 720/5/1
f 721/9/1 722/10/1 723/2/1 724/1/1
f 725/10/1 726/11/1 727/5/1 728/2/1
f 729/11/1 730/12/1 731/7/1 732/5/1
f 733/13/1 734/14/1 735/10/1 736/9/1
f 737/14/1 738/15/1 739/11/1 740/10/1
f 741/15/1 742/16/1 743/12/1 744/11/1
f 745/9/1 746/10/1 747/2/1 748/1/1
f 749/10/1 750/11/1 751/5/1 752/2/1
f 753/11/1 754/12/1 755/7/1 756/5/1
f 757/13/1 758/14/1 759/10/1 760/9/1
f 761/14/1 762/15/1 763/11/1 764/10/1
f 765/15/1 766/16/1 767/12/1 768/11/1
f 769/13/1 770/14/1 771/10/1 772/9/1
f 773/14/1 774/15/1 775/11/1 776/10/1
f 777/15/1 778/16/1 779/12/1 780/11/1
f 781/13/1 782/14/1 783/10/1 784/9/1
f 785/14/1 786/15/1 787/11/1 788/10/1
f 789/15/1 790/16/1 791/12/1 792/11/1
f 793/1/1 794/2/1 795/3/1 796/4/1
f 797/2/1 798/5/1 799/6/1 800/3/1
f 801/5/1 802/7/1 803/8/1 804/6/1
f 805/9/1 806/10/1 807/2/1 808/1/1
f 809/10/1 810/11/1 811/5/1 812/2/1
f 813/11/1 814/12/1 815/7/1 816/5/1
f 817/1/1 818/2/1 819/3/1 820/4/1
f 821/2/1 822/5/1 823/6/1 824/3/1
f 825/5/1 826/7/1 827/8/1 828/6/1
f 829/1/1 830/2/1 831/3/1 832/4/1
f 833/2/1 834/5/1 835/6/1 836/3/1
f 837/5/1 838/7/1 839/8/1 840/6/1
f 841/13/1 842/14/1 843/10/1 844/9/1
f 845/14/1 846/15/1 847/11/1 848/10/1
f 849/15/1 850/16/1 851/12/1 852/11/1
f 853/9/1 854/10/1 855/2/1 856/1/1
f 857/10/1 858/11/1 859/5/1 860/2/1
f 861/11/1 862/12/1 863/7/1 864/5/1
f 865/1/1 866/2/1 867/3/1 868/4/1
f 869/2/1 870/5/1 871/6/1 872/3/1
f 873/5/1 874/7/1 875/8/1 876/6/1
f 877/9/1 878/10/1 879/2/1 880/1/1
f 881/10/1 882/11/1 883/5/1 884/2/1
f 885/11/1 886/12/1 887/7/1 888/5/1
f 889/13/1 890/14/1 891/10/1 892/9/1
f 893/14/1 894/15/1 895/11/1 896/10/1
f 897/15/1 898/16/1 899/12/1 900/11/1
f 901/9/1 902/10/1 903/2/1 904/1/1
f 905/10/1 906/11/1 907/5/1 908/2/1
f 909/11/1 910/12/1 911/7/1 912/5/1
f 913/13/1 914/14/1 915/10/1 916/9/1
f 917/14/1 918/15/1 919/11/1 920/10/1
f 921/15/1 922/16/1 923/12/1 924/11/1
f 925/13/1 926/14/1 927/10/1 928/9/1
f 929/14/1 930/15/1 931/11/1 932/10/1
f 933/15/1 934/16/1 935/12/1 936/11/1

