# Tiled2Unity generated file. Do not modify by hand.
# Wavefront file for 'Island2settlemen_mesh_0003.obj'

# Vertices (Count = 192)
v -736 -288 0
v -768 -288 0
v -768 -256 0
v -736 -256 0
v -768 -288 0
v -800 -288 0
v -800 -256 0
v -768 -256 0
v -800 -288 0
v -832 -288 0
v -832 -256 0
v -800 -256 0
v -128 -320 0
v -160 -320 0
v -160 -288 0
v -128 -288 0
v -160 -320 0
v -192 -320 0
v -192 -288 0
v -160 -288 0
v -192 -320 0
v -224 -320 0
v -224 -288 0
v -192 -288 0
v -736 -320 0
v -768 -320 0
v -768 -288 0
v -736 -288 0
v -800 -320 0
v -832 -320 0
v -832 -288 0
v -800 -288 0
v -128 -352 0
v -160 -352 0
v -160 -320 0
v -128 -320 0
v -192 -352 0
v -224 -352 0
v -224 -320 0
v -192 -320 0
v -736 -352 0
v -768 -352 0
v -768 -320 0
v -736 -320 0
v -768 -352 0
v -800 -352 0
v -800 -320 0
v -768 -320 0
v -800 -352 0
v -832 -352 0
v -832 -320 0
v -800 -320 0
v -128 -384 0
v -160 -384 0
v -160 -352 0
v -128 -352 0
v -160 -384 0
v -192 -384 0
v -192 -352 0
v -160 -352 0
v -192 -384 0
v -224 -384 0
v -224 -352 0
v -192 -352 0
v -416 -448 0
v -448 -448 0
v -448 -416 0
v -416 -416 0
v -448 -448 0
v -480 -448 0
v -480 -416 0
v -448 -416 0
v -480 -448 0
v -512 -448 0
v -512 -416 0
v -480 -416 0
v -416 -480 0
v -448 -480 0
v -448 -448 0
v -416 -448 0
v -480 -480 0
v -512 -480 0
v -512 -448 0
v -480 -448 0
v -416 -512 0
v -448 -512 0
v -448 -480 0
v -416 -480 0
v -448 -512 0
v -480 -512 0
v -480 -480 0
v -448 -480 0
v -480 -512 0
v -512 -512 0
v -512 -480 0
v -480 -480 0
v -768 -544 0
v -800 -544 0
v -800 -512 0
v -768 -512 0
v -800 -544 0
v -832 -544 0
v -832 -512 0
v -800 -512 0
v -832 -544 0
v -864 -544 0
v -864 -512 0
v -832 -512 0
v -768 -576 0
v -800 -576 0
v -800 -544 0
v -768 -544 0
v -832 -576 0
v -864 -576 0
v -864 -544 0
v -832 -544 0
v -768 -608 0
v -800 -608 0
v -800 -576 0
v -768 -576 0
v -800 -608 0
v -832 -608 0
v -832 -576 0
v -800 -576 0
v -832 -608 0
v -864 -608 0
v -864 -576 0
v -832 -576 0
v -160 -736 0
v -192 -736 0
v -192 -704 0
v -160 -704 0
v -192 -736 0
v -224 -736 0
v -224 -704 0
v -192 -704 0
v -224 -736 0
v -256 -736 0
v -256 -704 0
v -224 -704 0
v -608 -736 0
v -640 -736 0
v -640 -704 0
v -608 -704 0
v -640 -736 0
v -672 -736 0
v -672 -704 0
v -640 -704 0
v -672 -736 0
v -704 -736 0
v -704 -704 0
v -672 -704 0
v -160 -768 0
v -192 -768 0
v -192 -736 0
v -160 -736 0
v -224 -768 0
v -256 -768 0
v -256 -736 0
v -224 -736 0
v -608 -768 0
v -640 -768 0
v -640 -736 0
v -608 -736 0
v -672 -768 0
v -704 -768 0
v -704 -736 0
v -672 -736 0
v -160 -800 0
v -192 -800 0
v -192 -768 0
v -160 -768 0
v -192 -800 0
v -224 -800 0
v -224 -768 0
v -192 -768 0
v -224 -800 0
v -256 -800 0
v -256 -768 0
v -224 -768 0
v -608 -800 0
v -640 -800 0
v -640 -768 0
v -608 -768 0
v -640 -800 0
v -672 -800 0
v -672 -768 0
v -640 -768 0
v -672 -800 0
v -704 -800 0
v -704 -768 0
v -672 -768 0

# Texture cooridinates (Count = 20)
vt 0 0.9375
vt 0.0625 0.9375
vt 0.0625 1
vt 0 1
vt 0.125 0.9375
vt 0.125 1
vt 0.1875 0.9375
vt 0.1875 1
vt 0 0.875
vt 0.0625 0.875
vt 0.125 0.875
vt 0.1875 0.875
vt 0 0.8125
vt 0.0625 0.8125
vt 0.5 0
vt 0.5625 0
vt 0.5625 0.0625
vt 0.5 0.0625
vt 0.125 0.8125
vt 0.1875 0.8125

# Normal
vn 0 0 -1

# Mesh description
g Island2settlemen_mesh_0003

# Faces
f 1/1/1 2/2/1 3/3/1 4/4/1
f 5/2/1 6/5/1 7/6/1 8/3/1
f 9/5/1 10/7/1 11/8/1 12/6/1
f 13/1/1 14/2/1 15/3/1 16/4/1
f 17/2/1 18/5/1 19/6/1 20/3/1
f 21/5/1 22/7/1 23/8/1 24/6/1
f 25/9/1 26/10/1 27/2/1 28/1/1
f 29/11/1 30/12/1 31/7/1 32/5/1
f 33/9/1 34/10/1 35/2/1 36/1/1
f 37/11/1 38/12/1 39/7/1 40/5/1
f 41/13/1 42/14/1 43/10/1 44/9/1
f 45/15/1 46/16/1 47/17/1 48/18/1
f 49/19/1 50/20/1 51/12/1 52/11/1
f 53/13/1 54/14/1 55/10/1 56/9/1
f 57/15/1 58/16/1 59/17/1 60/18/1
f 61/19/1 62/20/1 63/12/1 64/11/1
f 65/1/1 66/2/1 67/3/1 68/4/1
f 69/2/1 70/5/1 71/6/1 72/3/1
f 73/5/1 74/7/1 75/8/1 76/6/1
f 77/9/1 78/10/1 79/2/1 80/1/1
f 81/11/1 82/12/1 83/7/1 84/5/1
f 85/13/1 86/14/1 87/10/1 88/9/1
f 89/14/1 90/19/1 91/11/1 92/10/1
f 93/19/1 94/20/1 95/12/1 96/11/1
f 97/1/1 98/2/1 99/3/1 100/4/1
f 101/2/1 102/5/1 103/6/1 104/3/1
f 105/5/1 106/7/1 107/8/1 108/6/1
f 109/9/1 110/10/1 111/2/1 112/1/1
f 113/11/1 114/12/1 115/7/1 116/5/1
f 117/13/1 118/14/1 119/10/1 120/9/1
f 121/15/1 122/16/1 123/17/1 124/18/1
f 125/19/1 126/20/1 127/12/1 128/11/1
f 129/1/1 130/2/1 131/3/1 132/4/1
f 133/2/1 134/5/1 135/6/1 136/3/1
f 137/5/1 138/7/1 139/8/1 140/6/1
f 141/1/1 142/2/1 143/3/1 144/4/1
f 145/2/1 146/5/1 147/6/1 148/3/1
f 149/5/1 150/7/1 151/8/1 152/6/1
f 153/9/1 154/10/1 155/2/1 156/1/1
f 157/11/1 158/12/1 159/7/1 160/5/1
f 161/9/1 162/10/1 163/2/1 164/1/1
f 165/11/1 166/12/1 167/7/1 168/5/1
f 169/13/1 170/14/1 171/10/1 172/9/1
f 173/14/1 174/19/1 175/11/1 176/10/1
f 177/19/1 178/20/1 179/12/1 180/11/1
f 181/13/1 182/14/1 183/10/1 184/9/1
f 185/14/1 186/19/1 187/11/1 188/10/1
f 189/19/1 190/20/1 191/12/1 192/11/1

