# Tiled2Unity generated file. Do not modify by hand.
# Wavefront file for 'SouthJungle_mesh_0002.obj'

# Vertices (Count = 784)
v -256 -64 0
v -288 -64 0
v -288 -32 0
v -256 -32 0
v -288 -64 0
v -320 -64 0
v -320 -32 0
v -288 -32 0
v -320 -64 0
v -352 -64 0
v -352 -32 0
v -320 -32 0
v -352 -64 0
v -384 -64 0
v -384 -32 0
v -352 -32 0
v -384 -64 0
v -416 -64 0
v -416 -32 0
v -384 -32 0
v -256 -96 0
v -288 -96 0
v -288 -64 0
v -256 -64 0
v -288 -96 0
v -320 -96 0
v -320 -64 0
v -288 -64 0
v -320 -96 0
v -352 -96 0
v -352 -64 0
v -320 -64 0
v -352 -96 0
v -384 -96 0
v -384 -64 0
v -352 -64 0
v -384 -96 0
v -416 -96 0
v -416 -64 0
v -384 -64 0
v -416 -96 0
v -448 -96 0
v -448 -64 0
v -416 -64 0
v -448 -96 0
v -480 -96 0
v -480 -64 0
v -448 -64 0
v -288 -128 0
v -320 -128 0
v -320 -96 0
v -288 -96 0
v -320 -128 0
v -352 -128 0
v -352 -96 0
v -320 -96 0
v -352 -128 0
v -384 -128 0
v -384 -96 0
v -352 -96 0
v -384 -128 0
v -416 -128 0
v -416 -96 0
v -384 -96 0
v -416 -128 0
v -448 -128 0
v -448 -96 0
v -416 -96 0
v -448 -128 0
v -480 -128 0
v -480 -96 0
v -448 -96 0
v -480 -128 0
v -512 -128 0
v -512 -96 0
v -480 -96 0
v -352 -160 0
v -384 -160 0
v -384 -128 0
v -352 -128 0
v -384 -160 0
v -416 -160 0
v -416 -128 0
v -384 -128 0
v -416 -160 0
v -448 -160 0
v -448 -128 0
v -416 -128 0
v -448 -160 0
v -480 -160 0
v -480 -128 0
v -448 -128 0
v -480 -160 0
v -512 -160 0
v -512 -128 0
v -480 -128 0
v -512 -160 0
v -544 -160 0
v -544 -128 0
v -512 -128 0
v -544 -160 0
v -576 -160 0
v -576 -128 0
v -544 -128 0
v -384 -192 0
v -416 -192 0
v -416 -160 0
v -384 -160 0
v -416 -192 0
v -448 -192 0
v -448 -160 0
v -416 -160 0
v -448 -192 0
v -480 -192 0
v -480 -160 0
v -448 -160 0
v -480 -192 0
v -512 -192 0
v -512 -160 0
v -480 -160 0
v -512 -192 0
v -544 -192 0
v -544 -160 0
v -512 -160 0
v -544 -192 0
v -576 -192 0
v -576 -160 0
v -544 -160 0
v -576 -192 0
v -608 -192 0
v -608 -160 0
v -576 -160 0
v -608 -192 0
v -640 -192 0
v -640 -160 0
v -608 -160 0
v -448 -224 0
v -480 -224 0
v -480 -192 0
v -448 -192 0
v -480 -224 0
v -512 -224 0
v -512 -192 0
v -480 -192 0
v -512 -224 0
v -544 -224 0
v -544 -192 0
v -512 -192 0
v -544 -224 0
v -576 -224 0
v -576 -192 0
v -544 -192 0
v -576 -224 0
v -608 -224 0
v -608 -192 0
v -576 -192 0
v -608 -224 0
v -640 -224 0
v -640 -192 0
v -608 -192 0
v -640 -224 0
v -672 -224 0
v -672 -192 0
v -640 -192 0
v -480 -256 0
v -512 -256 0
v -512 -224 0
v -480 -224 0
v -512 -256 0
v -544 -256 0
v -544 -224 0
v -512 -224 0
v -544 -256 0
v -576 -256 0
v -576 -224 0
v -544 -224 0
v -576 -256 0
v -608 -256 0
v -608 -224 0
v -576 -224 0
v -608 -256 0
v -640 -256 0
v -640 -224 0
v -608 -224 0
v -640 -256 0
v -672 -256 0
v -672 -224 0
v -640 -224 0
v -672 -256 0
v -704 -256 0
v -704 -224 0
v -672 -224 0
v -704 -256 0
v -736 -256 0
v -736 -224 0
v -704 -224 0
v -576 -288 0
v -608 -288 0
v -608 -256 0
v -576 -256 0
v -608 -288 0
v -640 -288 0
v -640 -256 0
v -608 -256 0
v -640 -288 0
v -672 -288 0
v -672 -256 0
v -640 -256 0
v -672 -288 0
v -704 -288 0
v -704 -256 0
v -672 -256 0
v -704 -288 0
v -736 -288 0
v -736 -256 0
v -704 -256 0
v -608 -320 0
v -640 -320 0
v -640 -288 0
v -608 -288 0
v -640 -320 0
v -672 -320 0
v -672 -288 0
v -640 -288 0
v -672 -320 0
v -704 -320 0
v -704 -288 0
v -672 -288 0
v -704 -320 0
v -736 -320 0
v -736 -288 0
v -704 -288 0
v -736 -320 0
v -768 -320 0
v -768 -288 0
v -736 -288 0
v -640 -352 0
v -672 -352 0
v -672 -320 0
v -640 -320 0
v -672 -352 0
v -704 -352 0
v -704 -320 0
v -672 -320 0
v -704 -352 0
v -736 -352 0
v -736 -320 0
v -704 -320 0
v -736 -352 0
v -768 -352 0
v -768 -320 0
v -736 -320 0
v -640 -384 0
v -672 -384 0
v -672 -352 0
v -640 -352 0
v -672 -384 0
v -704 -384 0
v -704 -352 0
v -672 -352 0
v -704 -384 0
v -736 -384 0
v -736 -352 0
v -704 -352 0
v -736 -384 0
v -768 -384 0
v -768 -352 0
v -736 -352 0
v -672 -416 0
v -704 -416 0
v -704 -384 0
v -672 -384 0
v -704 -416 0
v -736 -416 0
v -736 -384 0
v -704 -384 0
v -736 -416 0
v -768 -416 0
v -768 -384 0
v -736 -384 0
v -608 -448 0
v -640 -448 0
v -640 -416 0
v -608 -416 0
v -640 -448 0
v -672 -448 0
v -672 -416 0
v -640 -416 0
v -672 -448 0
v -704 -448 0
v -704 -416 0
v -672 -416 0
v -704 -448 0
v -736 -448 0
v -736 -416 0
v -704 -416 0
v -736 -448 0
v -768 -448 0
v -768 -416 0
v -736 -416 0
v -320 -480 0
v -352 -480 0
v -352 -448 0
v -320 -448 0
v -352 -480 0
v -384 -480 0
v -384 -448 0
v -352 -448 0
v -384 -480 0
v -416 -480 0
v -416 -448 0
v -384 -448 0
v -416 -480 0
v -448 -480 0
v -448 -448 0
v -416 -448 0
v -448 -480 0
v -480 -480 0
v -480 -448 0
v -448 -448 0
v -480 -480 0
v -512 -480 0
v -512 -448 0
v -480 -448 0
v -512 -480 0
v -544 -480 0
v -544 -448 0
v -512 -448 0
v -544 -480 0
v -576 -480 0
v -576 -448 0
v -544 -448 0
v -576 -480 0
v -608 -480 0
v -608 -448 0
v -576 -448 0
v -608 -480 0
v -640 -480 0
v -640 -448 0
v -608 -448 0
v -640 -480 0
v -672 -480 0
v -672 -448 0
v -640 -448 0
v -672 -480 0
v -704 -480 0
v -704 -448 0
v -672 -448 0
v -704 -480 0
v -736 -480 0
v -736 -448 0
v -704 -448 0
v -736 -480 0
v -768 -480 0
v -768 -448 0
v -736 -448 0
v -320 -512 0
v -352 -512 0
v -352 -480 0
v -320 -480 0
v -352 -512 0
v -384 -512 0
v -384 -480 0
v -352 -480 0
v -384 -512 0
v -416 -512 0
v -416 -480 0
v -384 -480 0
v -416 -512 0
v -448 -512 0
v -448 -480 0
v -416 -480 0
v -448 -512 0
v -480 -512 0
v -480 -480 0
v -448 -480 0
v -480 -512 0
v -512 -512 0
v -512 -480 0
v -480 -480 0
v -512 -512 0
v -544 -512 0
v -544 -480 0
v -512 -480 0
v -544 -512 0
v -576 -512 0
v -576 -480 0
v -544 -480 0
v -576 -512 0
v -608 -512 0
v -608 -480 0
v -576 -480 0
v -608 -512 0
v -640 -512 0
v -640 -480 0
v -608 -480 0
v -640 -512 0
v -672 -512 0
v -672 -480 0
v -640 -480 0
v -672 -512 0
v -704 -512 0
v -704 -480 0
v -672 -480 0
v -704 -512 0
v -736 -512 0
v -736 -480 0
v -704 -480 0
v -736 -512 0
v -768 -512 0
v -768 -480 0
v -736 -480 0
v -288 -544 0
v -320 -544 0
v -320 -512 0
v -288 -512 0
v -320 -544 0
v -352 -544 0
v -352 -512 0
v -320 -512 0
v -352 -544 0
v -384 -544 0
v -384 -512 0
v -352 -512 0
v -384 -544 0
v -416 -544 0
v -416 -512 0
v -384 -512 0
v -416 -544 0
v -448 -544 0
v -448 -512 0
v -416 -512 0
v -448 -544 0
v -480 -544 0
v -480 -512 0
v -448 -512 0
v -480 -544 0
v -512 -544 0
v -512 -512 0
v -480 -512 0
v -512 -544 0
v -544 -544 0
v -544 -512 0
v -512 -512 0
v -544 -544 0
v -576 -544 0
v -576 -512 0
v -544 -512 0
v -576 -544 0
v -608 -544 0
v -608 -512 0
v -576 -512 0
v -608 -544 0
v -640 -544 0
v -640 -512 0
v -608 -512 0
v -640 -544 0
v -672 -544 0
v -672 -512 0
v -640 -512 0
v -672 -544 0
v -704 -544 0
v -704 -512 0
v -672 -512 0
v -288 -576 0
v -320 -576 0
v -320 -544 0
v -288 -544 0
v -320 -576 0
v -352 -576 0
v -352 -544 0
v -320 -544 0
v -352 -576 0
v -384 -576 0
v -384 -544 0
v -352 -544 0
v -384 -576 0
v -416 -576 0
v -416 -544 0
v -384 -544 0
v -288 -608 0
v -320 -608 0
v -320 -576 0
v -288 -576 0
v -320 -608 0
v -352 -608 0
v -352 -576 0
v -320 -576 0
v -352 -608 0
v -384 -608 0
v -384 -576 0
v -352 -576 0
v -288 -640 0
v -320 -640 0
v -320 -608 0
v -288 -608 0
v -320 -640 0
v -352 -640 0
v -352 -608 0
v -320 -608 0
v -352 -640 0
v -384 -640 0
v -384 -608 0
v -352 -608 0
v -288 -672 0
v -320 -672 0
v -320 -640 0
v -288 -640 0
v -320 -672 0
v -352 -672 0
v -352 -640 0
v -320 -640 0
v -352 -672 0
v -384 -672 0
v -384 -640 0
v -352 -640 0
v -288 -704 0
v -320 -704 0
v -320 -672 0
v -288 -672 0
v -320 -704 0
v -352 -704 0
v -352 -672 0
v -320 -672 0
v -352 -704 0
v -384 -704 0
v -384 -672 0
v -352 -672 0
v -384 -704 0
v -416 -704 0
v -416 -672 0
v -384 -672 0
v -288 -736 0
v -320 -736 0
v -320 -704 0
v -288 -704 0
v -320 -736 0
v -352 -736 0
v -352 -704 0
v -320 -704 0
v -352 -736 0
v -384 -736 0
v -384 -704 0
v -352 -704 0
v -384 -736 0
v -416 -736 0
v -416 -704 0
v -384 -704 0
v -416 -736 0
v -448 -736 0
v -448 -704 0
v -416 -704 0
v -448 -736 0
v -480 -736 0
v -480 -704 0
v -448 -704 0
v -288 -768 0
v -320 -768 0
v -320 -736 0
v -288 -736 0
v -320 -768 0
v -352 -768 0
v -352 -736 0
v -320 -736 0
v -352 -768 0
v -384 -768 0
v -384 -736 0
v -352 -736 0
v -384 -768 0
v -416 -768 0
v -416 -736 0
v -384 -736 0
v -416 -768 0
v -448 -768 0
v -448 -736 0
v -416 -736 0
v -448 -768 0
v -480 -768 0
v -480 -736 0
v -448 -736 0
v -480 -768 0
v -512 -768 0
v -512 -736 0
v -480 -736 0
v -512 -768 0
v -544 -768 0
v -544 -736 0
v -512 -736 0
v -544 -768 0
v -576 -768 0
v -576 -736 0
v -544 -736 0
v -352 -800 0
v -384 -800 0
v -384 -768 0
v -352 -768 0
v -384 -800 0
v -416 -800 0
v -416 -768 0
v -384 -768 0
v -416 -800 0
v -448 -800 0
v -448 -768 0
v -416 -768 0
v -448 -800 0
v -480 -800 0
v -480 -768 0
v -448 -768 0
v -480 -800 0
v -512 -800 0
v -512 -768 0
v -480 -768 0
v -512 -800 0
v -544 -800 0
v -544 -768 0
v -512 -768 0
v -544 -800 0
v -576 -800 0
v -576 -768 0
v -544 -768 0
v -576 -800 0
v -608 -800 0
v -608 -768 0
v -576 -768 0
v -608 -800 0
v -640 -800 0
v -640 -768 0
v -608 -768 0
v -384 -832 0
v -416 -832 0
v -416 -800 0
v -384 -800 0
v -416 -832 0
v -448 -832 0
v -448 -800 0
v -416 -800 0
v -448 -832 0
v -480 -832 0
v -480 -800 0
v -448 -800 0
v -480 -832 0
v -512 -832 0
v -512 -800 0
v -480 -800 0
v -512 -832 0
v -544 -832 0
v -544 -800 0
v -512 -800 0
v -544 -832 0
v -576 -832 0
v -576 -800 0
v -544 -800 0
v -576 -832 0
v -608 -832 0
v -608 -800 0
v -576 -800 0
v -608 -832 0
v -640 -832 0
v -640 -800 0
v -608 -800 0
v -640 -832 0
v -672 -832 0
v -672 -800 0
v -640 -800 0
v -672 -832 0
v -704 -832 0
v -704 -800 0
v -672 -800 0
v -480 -864 0
v -512 -864 0
v -512 -832 0
v -480 -832 0
v -512 -864 0
v -544 -864 0
v -544 -832 0
v -512 -832 0
v -544 -864 0
v -576 -864 0
v -576 -832 0
v -544 -832 0
v -576 -864 0
v -608 -864 0
v -608 -832 0
v -576 -832 0
v -608 -864 0
v -640 -864 0
v -640 -832 0
v -608 -832 0
v -640 -864 0
v -672 -864 0
v -672 -832 0
v -640 -832 0
v -672 -864 0
v -704 -864 0
v -704 -832 0
v -672 -832 0
v -704 -864 0
v -736 -864 0
v -736 -832 0
v -704 -832 0
v -544 -896 0
v -576 -896 0
v -576 -864 0
v -544 -864 0
v -576 -896 0
v -608 -896 0
v -608 -864 0
v -576 -864 0
v -608 -896 0
v -640 -896 0
v -640 -864 0
v -608 -864 0
v -640 -896 0
v -672 -896 0
v -672 -864 0
v -640 -864 0
v -672 -896 0
v -704 -896 0
v -704 -864 0
v -672 -864 0
v -704 -896 0
v -736 -896 0
v -736 -864 0
v -704 -864 0
v -736 -896 0
v -768 -896 0
v -768 -864 0
v -736 -864 0
v -608 -928 0
v -640 -928 0
v -640 -896 0
v -608 -896 0
v -640 -928 0
v -672 -928 0
v -672 -896 0
v -640 -896 0
v -672 -928 0
v -704 -928 0
v -704 -896 0
v -672 -896 0
v -704 -928 0
v -736 -928 0
v -736 -896 0
v -704 -896 0
v -736 -928 0
v -768 -928 0
v -768 -896 0
v -736 -896 0
v -768 -928 0
v -800 -928 0
v -800 -896 0
v -768 -896 0
v -672 -960 0
v -704 -960 0
v -704 -928 0
v -672 -928 0
v -704 -960 0
v -736 -960 0
v -736 -928 0
v -704 -928 0
v -736 -960 0
v -768 -960 0
v -768 -928 0
v -736 -928 0
v -768 -960 0
v -800 -960 0
v -800 -928 0
v -768 -928 0
v -672 -992 0
v -704 -992 0
v -704 -960 0
v -672 -960 0
v -704 -992 0
v -736 -992 0
v -736 -960 0
v -704 -960 0
v -736 -992 0
v -768 -992 0
v -768 -960 0
v -736 -960 0
v -768 -992 0
v -800 -992 0
v -800 -960 0
v -768 -960 0

# Texture cooridinates (Count = 26)
vt 0 0.875
vt 0.03125 0.875
vt 0.03125 0.90625
vt 0 0.90625
vt 0.0625 0.875
vt 0.0625 0.90625
vt 0 0.8125
vt 0.03125 0.8125
vt 0.03125 0.84375
vt 0 0.84375
vt 0.03125 0.9375
vt 0.0625 0.9375
vt 0.0625 0.96875
vt 0.03125 0.96875
vt 0.09375 0.90625
vt 0.09375 0.9375
vt 0.09375 0.96875
vt 0.09375 1
vt 0.0625 1
vt 0.0625 0.8125
vt 0.0625 0.84375
vt 0.09375 0.8125
vt 0.09375 0.84375
vt 0.09375 0.875
vt 0 0.9375
vt 0.03125 1

# Normal
vn 0 0 -1

# Mesh description
g SouthJungle_mesh_0002

# Faces
f 1/1/1 2/2/1 3/3/1 4/4/1
f 5/2/1 6/5/1 7/6/1 8/3/1
f 9/7/1 10/8/1 11/9/1 12/10/1
f 13/11/1 14/12/1 15/13/1 16/14/1
f 17/6/1 18/15/1 19/16/1 20/12/1
f 21/10/1 22/9/1 23/2/1 24/1/1
f 25/13/1 26/17/1 27/18/1 28/19/1
f 29/8/1 30/20/1 31/21/1 32/9/1
f 33/7/1 34/8/1 35/9/1 36/10/1
f 37/11/1 38/12/1 39/13/1 40/14/1
f 41/3/1 42/6/1 43/12/1 44/11/1
f 45/6/1 46/15/1 47/16/1 48/12/1
f 49/10/1 50/9/1 51/2/1 52/1/1
f 53/9/1 54/21/1 55/5/1 56/2/1
f 57/13/1 58/17/1 59/18/1 60/19/1
f 61/7/1 62/8/1 63/9/1 64/10/1
f 65/20/1 66/22/1 67/23/1 68/21/1
f 69/11/1 70/12/1 71/13/1 72/14/1
f 73/6/1 74/15/1 75/16/1 76/12/1
f 77/10/1 78/9/1 79/2/1 80/1/1
f 81/13/1 82/17/1 83/18/1 84/19/1
f 85/2/1 86/5/1 87/6/1 88/3/1
f 89/20/1 90/22/1 91/23/1 92/21/1
f 93/11/1 94/12/1 95/13/1 96/14/1
f 97/3/1 98/6/1 99/12/1 100/11/1
f 101/6/1 102/15/1 103/16/1 104/12/1
f 105/10/1 106/9/1 107/2/1 108/1/1
f 109/9/1 110/21/1 111/5/1 112/2/1
f 113/13/1 114/17/1 115/18/1 116/19/1
f 117/2/1 118/5/1 119/6/1 120/3/1
f 121/8/1 122/20/1 123/21/1 124/9/1
f 125/11/1 126/12/1 127/13/1 128/14/1
f 129/3/1 130/6/1 131/12/1 132/11/1
f 133/6/1 134/15/1 135/16/1 136/12/1
f 137/10/1 138/9/1 139/2/1 140/1/1
f 141/13/1 142/17/1 143/18/1 144/19/1
f 145/7/1 146/8/1 147/9/1 148/10/1
f 149/7/1 150/8/1 151/9/1 152/10/1
f 153/7/1 154/8/1 155/9/1 156/10/1
f 157/11/1 158/12/1 159/13/1 160/14/1
f 161/6/1 162/15/1 163/16/1 164/12/1
f 165/10/1 166/9/1 167/2/1 168/1/1
f 169/9/1 170/21/1 171/5/1 172/2/1
f 173/9/1 174/21/1 175/5/1 176/2/1
f 177/13/1 178/17/1 179/18/1 180/19/1
f 181/8/1 182/20/1 183/21/1 184/9/1
f 185/11/1 186/12/1 187/13/1 188/14/1
f 189/3/1 190/6/1 191/12/1 192/11/1
f 193/6/1 194/15/1 195/16/1 196/12/1
f 197/10/1 198/9/1 199/2/1 200/1/1
f 201/13/1 202/17/1 203/18/1 204/19/1
f 205/20/1 206/22/1 207/23/1 208/21/1
f 209/20/1 210/22/1 211/23/1 212/21/1
f 213/5/1 214/24/1 215/15/1 216/6/1
f 217/10/1 218/9/1 219/2/1 220/1/1
f 221/13/1 222/17/1 223/18/1 224/19/1
f 225/7/1 226/8/1 227/9/1 228/10/1
f 229/11/1 230/12/1 231/13/1 232/14/1
f 233/6/1 234/15/1 235/16/1 236/12/1
f 237/1/1 238/2/1 239/3/1 240/4/1
f 241/8/1 242/20/1 243/21/1 244/9/1
f 245/8/1 246/20/1 247/21/1 248/9/1
f 249/5/1 250/24/1 251/15/1 252/6/1
f 253/10/1 254/9/1 255/2/1 256/1/1
f 257/13/1 258/17/1 259/18/1 260/19/1
f 261/8/1 262/20/1 263/21/1 264/9/1
f 265/5/1 266/24/1 267/15/1 268/6/1
f 269/1/1 270/2/1 271/3/1 272/4/1
f 273/2/1 274/5/1 275/6/1 276/3/1
f 277/5/1 278/24/1 279/15/1 280/6/1
f 281/4/1 282/3/1 283/11/1 284/25/1
f 285/3/1 286/6/1 287/12/1 288/11/1
f 289/12/1 290/16/1 291/17/1 292/13/1
f 293/20/1 294/22/1 295/23/1 296/21/1
f 297/5/1 298/24/1 299/15/1 300/6/1
f 301/4/1 302/3/1 303/11/1 304/25/1
f 305/3/1 306/6/1 307/12/1 308/11/1
f 309/3/1 310/6/1 311/12/1 312/11/1
f 313/3/1 314/6/1 315/12/1 316/11/1
f 317/3/1 318/6/1 319/12/1 320/11/1
f 321/3/1 322/6/1 323/12/1 324/11/1
f 325/3/1 326/6/1 327/12/1 328/11/1
f 329/3/1 330/6/1 331/12/1 332/11/1
f 333/3/1 334/6/1 335/12/1 336/11/1
f 337/12/1 338/16/1 339/17/1 340/13/1
f 341/20/1 342/22/1 343/23/1 344/21/1
f 345/20/1 346/22/1 347/23/1 348/21/1
f 349/7/1 350/8/1 351/9/1 352/10/1
f 353/5/1 354/24/1 355/15/1 356/6/1
f 357/1/1 358/2/1 359/3/1 360/4/1
f 361/7/1 362/8/1 363/9/1 364/10/1
f 365/7/1 366/8/1 367/9/1 368/10/1
f 369/2/1 370/5/1 371/6/1 372/3/1
f 373/8/1 374/20/1 375/21/1 376/9/1
f 377/8/1 378/20/1 379/21/1 380/9/1
f 381/8/1 382/20/1 383/21/1 384/9/1
f 385/7/1 386/8/1 387/9/1 388/10/1
f 389/8/1 390/20/1 391/21/1 392/9/1
f 393/2/1 394/5/1 395/6/1 396/3/1
f 397/7/1 398/8/1 399/9/1 400/10/1
f 401/14/1 402/13/1 403/19/1 404/26/1
f 405/9/1 406/21/1 407/5/1 408/2/1
f 409/21/1 410/23/1 411/24/1 412/5/1
f 413/4/1 414/3/1 415/11/1 416/25/1
f 417/12/1 418/16/1 419/17/1 420/13/1
f 421/8/1 422/20/1 423/21/1 424/9/1
f 425/14/1 426/13/1 427/19/1 428/26/1
f 429/9/1 430/21/1 431/5/1 432/2/1
f 433/9/1 434/21/1 435/5/1 436/2/1
f 437/9/1 438/21/1 439/5/1 440/2/1
f 441/9/1 442/21/1 443/5/1 444/2/1
f 445/9/1 446/21/1 447/5/1 448/2/1
f 449/9/1 450/21/1 451/5/1 452/2/1
f 453/9/1 454/21/1 455/5/1 456/2/1
f 457/9/1 458/21/1 459/5/1 460/2/1
f 461/21/1 462/23/1 463/24/1 464/5/1
f 465/1/1 466/2/1 467/3/1 468/4/1
f 469/2/1 470/5/1 471/6/1 472/3/1
f 473/14/1 474/13/1 475/19/1 476/26/1
f 477/21/1 478/23/1 479/24/1 480/5/1
f 481/1/1 482/2/1 483/3/1 484/4/1
f 485/2/1 486/5/1 487/6/1 488/3/1
f 489/5/1 490/24/1 491/15/1 492/6/1
f 493/1/1 494/2/1 495/3/1 496/4/1
f 497/20/1 498/22/1 499/23/1 500/21/1
f 501/5/1 502/24/1 503/15/1 504/6/1
f 505/1/1 506/2/1 507/3/1 508/4/1
f 509/8/1 510/20/1 511/21/1 512/9/1
f 513/5/1 514/24/1 515/15/1 516/6/1
f 517/1/1 518/2/1 519/3/1 520/4/1
f 521/2/1 522/5/1 523/6/1 524/3/1
f 525/11/1 526/12/1 527/13/1 528/14/1
f 529/6/1 530/15/1 531/16/1 532/12/1
f 533/1/1 534/2/1 535/3/1 536/4/1
f 537/7/1 538/8/1 539/9/1 540/10/1
f 541/20/1 542/22/1 543/23/1 544/21/1
f 545/11/1 546/12/1 547/13/1 548/14/1
f 549/3/1 550/6/1 551/12/1 552/11/1
f 553/6/1 554/15/1 555/16/1 556/12/1
f 557/10/1 558/9/1 559/2/1 560/1/1
f 561/9/1 562/21/1 563/5/1 564/2/1
f 565/13/1 566/17/1 567/18/1 568/19/1
f 569/7/1 570/8/1 571/9/1 572/10/1
f 573/2/1 574/5/1 575/6/1 576/3/1
f 577/11/1 578/12/1 579/13/1 580/14/1
f 581/3/1 582/6/1 583/12/1 584/11/1
f 585/3/1 586/6/1 587/12/1 588/11/1
f 589/6/1 590/15/1 591/16/1 592/12/1
f 593/10/1 594/9/1 595/2/1 596/1/1
f 597/13/1 598/17/1 599/18/1 600/19/1
f 601/20/1 602/22/1 603/23/1 604/21/1
f 605/20/1 606/22/1 607/23/1 608/21/1
f 609/20/1 610/22/1 611/23/1 612/21/1
f 613/8/1 614/20/1 615/21/1 616/9/1
f 617/11/1 618/12/1 619/13/1 620/14/1
f 621/3/1 622/6/1 623/12/1 624/11/1
f 625/6/1 626/15/1 627/16/1 628/12/1
f 629/10/1 630/9/1 631/2/1 632/1/1
f 633/9/1 634/21/1 635/5/1 636/2/1
f 637/9/1 638/21/1 639/5/1 640/2/1
f 641/13/1 642/17/1 643/18/1 644/19/1
f 645/7/1 646/8/1 647/9/1 648/10/1
f 649/2/1 650/5/1 651/6/1 652/3/1
f 653/2/1 654/5/1 655/6/1 656/3/1
f 657/11/1 658/12/1 659/13/1 660/14/1
f 661/3/1 662/6/1 663/12/1 664/11/1
f 665/6/1 666/15/1 667/16/1 668/12/1
f 669/10/1 670/9/1 671/2/1 672/1/1
f 673/9/1 674/21/1 675/5/1 676/2/1
f 677/13/1 678/17/1 679/18/1 680/19/1
f 681/2/1 682/5/1 683/6/1 684/3/1
f 685/20/1 686/22/1 687/23/1 688/21/1
f 689/2/1 690/5/1 691/6/1 692/3/1
f 693/11/1 694/12/1 695/13/1 696/14/1
f 697/6/1 698/15/1 699/16/1 700/12/1
f 701/10/1 702/9/1 703/2/1 704/1/1
f 705/9/1 706/21/1 707/5/1 708/2/1
f 709/13/1 710/17/1 711/18/1 712/19/1
f 713/8/1 714/20/1 715/21/1 716/9/1
f 717/2/1 718/5/1 719/6/1 720/3/1
f 721/11/1 722/12/1 723/13/1 724/14/1
f 725/6/1 726/15/1 727/16/1 728/12/1
f 729/10/1 730/9/1 731/2/1 732/1/1
f 733/9/1 734/21/1 735/5/1 736/2/1
f 737/13/1 738/17/1 739/18/1 740/19/1
f 741/7/1 742/8/1 743/9/1 744/10/1
f 745/11/1 746/12/1 747/13/1 748/14/1
f 749/6/1 750/15/1 751/16/1 752/12/1
f 753/1/1 754/2/1 755/3/1 756/4/1
f 757/2/1 758/5/1 759/6/1 760/3/1
f 761/20/1 762/22/1 763/23/1 764/21/1
f 765/5/1 766/24/1 767/15/1 768/6/1
f 769/10/1 770/9/1 771/2/1 772/1/1
f 773/13/1 774/17/1 775/18/1 776/19/1
f 777/20/1 778/22/1 779/23/1 780/21/1
f 781/5/1 782/24/1 783/15/1 784/6/1

