# Tiled2Unity generated file. Do not modify by hand.
# Wavefront file for 'livingroommap_mesh_0003.obj'

# Vertices (Count = 184)
v 0 -32 0
v -32 -32 0
v -32 0 0
v 0 0 0
v -32 -32 0
v -64 -32 0
v -64 0 0
v -32 0 0
v -64 -32 0
v -96 -32 0
v -96 0 0
v -64 0 0
v -96 -32 0
v -128 -32 0
v -128 0 0
v -96 0 0
v -128 -32 0
v -160 -32 0
v -160 0 0
v -128 0 0
v -224 -32 0
v -256 -32 0
v -256 0 0
v -224 0 0
v -256 -32 0
v -288 -32 0
v -288 0 0
v -256 0 0
v -288 -32 0
v -320 -32 0
v -320 0 0
v -288 0 0
v -320 -32 0
v -352 -32 0
v -352 0 0
v -320 0 0
v -352 -32 0
v -384 -32 0
v -384 0 0
v -352 0 0
v 0 -64 0
v -32 -64 0
v -32 -32 0
v 0 -32 0
v -352 -64 0
v -384 -64 0
v -384 -32 0
v -352 -32 0
v 0 -96 0
v -32 -96 0
v -32 -64 0
v 0 -64 0
v -32 -96 0
v -64 -96 0
v -64 -64 0
v -32 -64 0
v -64 -96 0
v -96 -96 0
v -96 -64 0
v -64 -64 0
v -96 -96 0
v -128 -96 0
v -128 -64 0
v -96 -64 0
v -128 -96 0
v -160 -96 0
v -160 -64 0
v -128 -64 0
v -352 -96 0
v -384 -96 0
v -384 -64 0
v -352 -64 0
v 0 -128 0
v -32 -128 0
v -32 -96 0
v 0 -96 0
v -352 -128 0
v -384 -128 0
v -384 -96 0
v -352 -96 0
v 0 -160 0
v -32 -160 0
v -32 -128 0
v 0 -128 0
v -352 -160 0
v -384 -160 0
v -384 -128 0
v -352 -128 0
v 0 -192 0
v -32 -192 0
v -32 -160 0
v 0 -160 0
v -352 -192 0
v -384 -192 0
v -384 -160 0
v -352 -160 0
v 0 -224 0
v -32 -224 0
v -32 -192 0
v 0 -192 0
v -352 -224 0
v -384 -224 0
v -384 -192 0
v -352 -192 0
v 0 -256 0
v -32 -256 0
v -32 -224 0
v 0 -224 0
v -352 -256 0
v -384 -256 0
v -384 -224 0
v -352 -224 0
v 0 -288 0
v -32 -288 0
v -32 -256 0
v 0 -256 0
v -352 -288 0
v -384 -288 0
v -384 -256 0
v -352 -256 0
v 0 -320 0
v -32 -320 0
v -32 -288 0
v 0 -288 0
v -352 -320 0
v -384 -320 0
v -384 -288 0
v -352 -288 0
v 0 -352 0
v -32 -352 0
v -32 -320 0
v 0 -320 0
v -352 -352 0
v -384 -352 0
v -384 -320 0
v -352 -320 0
v 0 -384 0
v -32 -384 0
v -32 -352 0
v 0 -352 0
v -32 -384 0
v -64 -384 0
v -64 -352 0
v -32 -352 0
v -64 -384 0
v -96 -384 0
v -96 -352 0
v -64 -352 0
v -96 -384 0
v -128 -384 0
v -128 -352 0
v -96 -352 0
v -128 -384 0
v -160 -384 0
v -160 -352 0
v -128 -352 0
v -160 -384 0
v -192 -384 0
v -192 -352 0
v -160 -352 0
v -192 -384 0
v -224 -384 0
v -224 -352 0
v -192 -352 0
v -224 -384 0
v -256 -384 0
v -256 -352 0
v -224 -352 0
v -256 -384 0
v -288 -384 0
v -288 -352 0
v -256 -352 0
v -288 -384 0
v -320 -384 0
v -320 -352 0
v -288 -352 0
v -320 -384 0
v -352 -384 0
v -352 -352 0
v -320 -352 0
v -352 -384 0
v -384 -384 0
v -384 -352 0
v -352 -352 0

# Texture cooridinates (Count = 28)
vt 0.0625 0.8125
vt 0.125 0.8125
vt 0.125 0.875
vt 0.0625 0.875
vt 0.1875 0.8125
vt 0.25 0.8125
vt 0.25 0.875
vt 0.1875 0.875
vt 0.3125 0.8125
vt 0.3125 0.875
vt 0 0.8125
vt 0 0.875
vt 0.3125 0.9375
vt 0.25 0.9375
vt 0.1875 0.9375
vt 0.125 0.9375
vt 0.0625 0.6875
vt 0.125 0.6875
vt 0.125 0.75
vt 0.0625 0.75
vt 0.3125 1
vt 0.25 1
vt 0.0625 0.9375
vt 0.1875 1
vt 0 0.6875
vt 0 0.75
vt 0.125 1
vt 0 0.9375

# Normal
vn 0 0 -1

# Mesh description
g livingroommap_mesh_0003

# Faces
f 1/1/1 2/2/1 3/3/1 4/4/1
f 5/5/1 6/6/1 7/7/1 8/8/1
f 9/5/1 10/6/1 11/7/1 12/8/1
f 13/5/1 14/6/1 15/7/1 16/8/1
f 17/6/1 18/9/1 19/10/1 20/7/1
f 21/2/1 22/5/1 23/8/1 24/3/1
f 25/5/1 26/6/1 27/7/1 28/8/1
f 29/5/1 30/6/1 31/7/1 32/8/1
f 33/5/1 34/6/1 35/7/1 36/8/1
f 37/11/1 38/1/1 39/4/1 40/12/1
f 41/7/1 42/10/1 43/13/1 44/14/1
f 45/3/1 46/8/1 47/15/1 48/16/1
f 49/7/1 50/10/1 51/13/1 52/14/1
f 53/8/1 54/7/1 55/14/1 56/15/1
f 57/8/1 58/7/1 59/14/1 60/15/1
f 61/8/1 62/7/1 63/14/1 64/15/1
f 65/8/1 66/7/1 67/14/1 68/15/1
f 69/3/1 70/8/1 71/15/1 72/16/1
f 73/7/1 74/10/1 75/13/1 76/14/1
f 77/3/1 78/8/1 79/15/1 80/16/1
f 81/6/1 82/9/1 83/10/1 84/7/1
f 85/3/1 86/8/1 87/15/1 88/16/1
f 89/17/1 90/18/1 91/19/1 92/20/1
f 93/3/1 94/8/1 95/15/1 96/16/1
f 97/17/1 98/18/1 99/19/1 100/20/1
f 101/3/1 102/8/1 103/15/1 104/16/1
f 105/14/1 106/13/1 107/21/1 108/22/1
f 109/3/1 110/8/1 111/15/1 112/16/1
f 113/7/1 114/10/1 115/13/1 116/14/1
f 117/3/1 118/8/1 119/15/1 120/16/1
f 121/7/1 122/10/1 123/13/1 124/14/1
f 125/3/1 126/8/1 127/15/1 128/16/1
f 129/7/1 130/10/1 131/13/1 132/14/1
f 133/3/1 134/8/1 135/15/1 136/16/1
f 137/4/1 138/3/1 139/16/1 140/23/1
f 141/15/1 142/14/1 143/22/1 144/24/1
f 145/15/1 146/14/1 147/22/1 148/24/1
f 149/15/1 150/14/1 151/22/1 152/24/1
f 153/14/1 154/13/1 155/21/1 156/22/1
f 157/25/1 158/17/1 159/20/1 160/26/1
f 161/25/1 162/17/1 163/20/1 164/26/1
f 165/16/1 166/15/1 167/24/1 168/27/1
f 169/15/1 170/14/1 171/22/1 172/24/1
f 173/15/1 174/14/1 175/22/1 176/24/1
f 177/15/1 178/14/1 179/22/1 180/24/1
f 181/12/1 182/4/1 183/23/1 184/28/1

