# Tiled2Unity generated file. Do not modify by hand.
# Wavefront file for 'livingroommap_mesh_0008.obj'

# Vertices (Count = 8)
v -32 -288 0
v -64 -288 0
v -64 -256 0
v -32 -256 0
v -96 -288 0
v -128 -288 0
v -128 -256 0
v -96 -256 0

# Texture cooridinates (Count = 8)
vt 0 0.2
vt 0.09090909 0.2
vt 0.09090909 0.4
vt 0 0.4
vt 0.6363636 0.8
vt 0.7272727 0.8
vt 0.7272727 1
vt 0.6363636 1

# Normal
vn 0 0 -1

# Mesh description
g livingroommap_mesh_0008

# Faces
f 1/1/1 2/2/1 3/3/1 4/4/1
f 5/5/1 6/6/1 7/7/1 8/8/1

