# Tiled2Unity generated file. Do not modify by hand.
# Wavefront file for 'livingroommap_mesh_0007.obj'

# Vertices (Count = 8)
v -320 -160 0
v -352 -160 0
v -352 -128 0
v -320 -128 0
v -320 -192 0
v -352 -192 0
v -352 -160 0
v -320 -160 0

# Texture cooridinates (Count = 8)
vt 0.4375 0.8125
vt 0.5 0.8125
vt 0.5 0.875
vt 0.4375 0.875
vt 0.5625 0.8125
vt 0.625 0.8125
vt 0.625 0.875
vt 0.5625 0.875

# Normal
vn 0 0 -1

# Mesh description
g livingroommap_mesh_0007

# Faces
f 1/1/1 2/2/1 3/3/1 4/4/1
f 5/5/1 6/6/1 7/7/1 8/8/1

