# Tiled2Unity generated file. Do not modify by hand.
# Wavefront file for 'davaoSettlement_mesh_0003.obj'

# Vertices (Count = 328)
v -640 -672 0
v -672 -672 0
v -672 -640 0
v -640 -640 0
v -672 -672 0
v -704 -672 0
v -704 -640 0
v -672 -640 0
v -704 -672 0
v -736 -672 0
v -736 -640 0
v -704 -640 0
v -736 -672 0
v -768 -672 0
v -768 -640 0
v -736 -640 0
v -768 -672 0
v -800 -672 0
v -800 -640 0
v -768 -640 0
v -800 -672 0
v -832 -672 0
v -832 -640 0
v -800 -640 0
v -832 -672 0
v -864 -672 0
v -864 -640 0
v -832 -640 0
v -864 -672 0
v -896 -672 0
v -896 -640 0
v -864 -640 0
v -896 -672 0
v -928 -672 0
v -928 -640 0
v -896 -640 0
v -928 -672 0
v -960 -672 0
v -960 -640 0
v -928 -640 0
v -960 -672 0
v -992 -672 0
v -992 -640 0
v -960 -640 0
v -640 -704 0
v -672 -704 0
v -672 -672 0
v -640 -672 0
v -672 -704 0
v -704 -704 0
v -704 -672 0
v -672 -672 0
v -704 -704 0
v -736 -704 0
v -736 -672 0
v -704 -672 0
v -736 -704 0
v -768 -704 0
v -768 -672 0
v -736 -672 0
v -768 -704 0
v -800 -704 0
v -800 -672 0
v -768 -672 0
v -800 -704 0
v -832 -704 0
v -832 -672 0
v -800 -672 0
v -832 -704 0
v -864 -704 0
v -864 -672 0
v -832 -672 0
v -864 -704 0
v -896 -704 0
v -896 -672 0
v -864 -672 0
v -896 -704 0
v -928 -704 0
v -928 -672 0
v -896 -672 0
v -928 -704 0
v -960 -704 0
v -960 -672 0
v -928 -672 0
v -960 -704 0
v -992 -704 0
v -992 -672 0
v -960 -672 0
v -480 -800 0
v -512 -800 0
v -512 -768 0
v -480 -768 0
v -512 -800 0
v -544 -800 0
v -544 -768 0
v -512 -768 0
v -544 -800 0
v -576 -800 0
v -576 -768 0
v -544 -768 0
v -576 -800 0
v -608 -800 0
v -608 -768 0
v -576 -768 0
v -608 -800 0
v -640 -800 0
v -640 -768 0
v -608 -768 0
v -640 -800 0
v -672 -800 0
v -672 -768 0
v -640 -768 0
v -672 -800 0
v -704 -800 0
v -704 -768 0
v -672 -768 0
v -704 -800 0
v -736 -800 0
v -736 -768 0
v -704 -768 0
v -736 -800 0
v -768 -800 0
v -768 -768 0
v -736 -768 0
v -768 -800 0
v -800 -800 0
v -800 -768 0
v -768 -768 0
v -800 -800 0
v -832 -800 0
v -832 -768 0
v -800 -768 0
v -832 -800 0
v -864 -800 0
v -864 -768 0
v -832 -768 0
v -864 -800 0
v -896 -800 0
v -896 -768 0
v -864 -768 0
v -896 -800 0
v -928 -800 0
v -928 -768 0
v -896 -768 0
v -928 -800 0
v -960 -800 0
v -960 -768 0
v -928 -768 0
v -480 -832 0
v -512 -832 0
v -512 -800 0
v -480 -800 0
v -512 -832 0
v -544 -832 0
v -544 -800 0
v -512 -800 0
v -544 -832 0
v -576 -832 0
v -576 -800 0
v -544 -800 0
v -576 -832 0
v -608 -832 0
v -608 -800 0
v -576 -800 0
v -608 -832 0
v -640 -832 0
v -640 -800 0
v -608 -800 0
v -640 -832 0
v -672 -832 0
v -672 -800 0
v -640 -800 0
v -672 -832 0
v -704 -832 0
v -704 -800 0
v -672 -800 0
v -704 -832 0
v -736 -832 0
v -736 -800 0
v -704 -800 0
v -736 -832 0
v -768 -832 0
v -768 -800 0
v -736 -800 0
v -768 -832 0
v -800 -832 0
v -800 -800 0
v -768 -800 0
v -800 -832 0
v -832 -832 0
v -832 -800 0
v -800 -800 0
v -832 -832 0
v -864 -832 0
v -864 -800 0
v -832 -800 0
v -864 -832 0
v -896 -832 0
v -896 -800 0
v -864 -800 0
v -896 -832 0
v -928 -832 0
v -928 -800 0
v -896 -800 0
v -928 -832 0
v -960 -832 0
v -960 -800 0
v -928 -800 0
v -512 -928 0
v -544 -928 0
v -544 -896 0
v -512 -896 0
v -544 -928 0
v -576 -928 0
v -576 -896 0
v -544 -896 0
v -576 -928 0
v -608 -928 0
v -608 -896 0
v -576 -896 0
v -608 -928 0
v -640 -928 0
v -640 -896 0
v -608 -896 0
v -640 -928 0
v -672 -928 0
v -672 -896 0
v -640 -896 0
v -672 -928 0
v -704 -928 0
v -704 -896 0
v -672 -896 0
v -704 -928 0
v -736 -928 0
v -736 -896 0
v -704 -896 0
v -736 -928 0
v -768 -928 0
v -768 -896 0
v -736 -896 0
v -768 -928 0
v -800 -928 0
v -800 -896 0
v -768 -896 0
v -800 -928 0
v -832 -928 0
v -832 -896 0
v -800 -896 0
v -832 -928 0
v -864 -928 0
v -864 -896 0
v -832 -896 0
v -864 -928 0
v -896 -928 0
v -896 -896 0
v -864 -896 0
v -896 -928 0
v -928 -928 0
v -928 -896 0
v -896 -896 0
v -928 -928 0
v -960 -928 0
v -960 -896 0
v -928 -896 0
v -960 -928 0
v -992 -928 0
v -992 -896 0
v -960 -896 0
v -512 -960 0
v -544 -960 0
v -544 -928 0
v -512 -928 0
v -544 -960 0
v -576 -960 0
v -576 -928 0
v -544 -928 0
v -576 -960 0
v -608 -960 0
v -608 -928 0
v -576 -928 0
v -608 -960 0
v -640 -960 0
v -640 -928 0
v -608 -928 0
v -640 -960 0
v -672 -960 0
v -672 -928 0
v -640 -928 0
v -672 -960 0
v -704 -960 0
v -704 -928 0
v -672 -928 0
v -704 -960 0
v -736 -960 0
v -736 -928 0
v -704 -928 0
v -736 -960 0
v -768 -960 0
v -768 -928 0
v -736 -928 0
v -768 -960 0
v -800 -960 0
v -800 -928 0
v -768 -928 0
v -800 -960 0
v -832 -960 0
v -832 -928 0
v -800 -928 0
v -832 -960 0
v -864 -960 0
v -864 -928 0
v -832 -928 0
v -864 -960 0
v -896 -960 0
v -896 -928 0
v -864 -928 0
v -896 -960 0
v -928 -960 0
v -928 -928 0
v -896 -928 0
v -928 -960 0
v -960 -960 0
v -960 -928 0
v -928 -928 0
v -960 -960 0
v -992 -960 0
v -992 -928 0
v -960 -928 0

# Texture cooridinates (Count = 48)
vt 0.15625 0.25
vt 0.1875 0.25
vt 0.1875 0.28125
vt 0.15625 0.28125
vt 0.21875 0.25
vt 0.21875 0.28125
vt 0.25 0.25
vt 0.25 0.28125
vt 0.28125 0.25
vt 0.28125 0.28125
vt 0.3125 0.25
vt 0.3125 0.28125
vt 0.34375 0.25
vt 0.34375 0.28125
vt 0.375 0.25
vt 0.375 0.28125
vt 0.40625 0.25
vt 0.40625 0.28125
vt 0.4375 0.25
vt 0.4375 0.28125
vt 0.46875 0.25
vt 0.46875 0.28125
vt 0.5 0.25
vt 0.5 0.28125
vt 0.15625 0.21875
vt 0.1875 0.21875
vt 0.21875 0.21875
vt 0.25 0.21875
vt 0.28125 0.21875
vt 0.3125 0.21875
vt 0.34375 0.21875
vt 0.375 0.21875
vt 0.40625 0.21875
vt 0.4375 0.21875
vt 0.46875 0.21875
vt 0.5 0.21875
vt 0.53125 0.25
vt 0.53125 0.28125
vt 0.5625 0.25
vt 0.5625 0.28125
vt 0.59375 0.25
vt 0.59375 0.28125
vt 0.625 0.25
vt 0.625 0.28125
vt 0.53125 0.21875
vt 0.5625 0.21875
vt 0.59375 0.21875
vt 0.625 0.21875

# Normal
vn 0 0 -1

# Mesh description
g davaoSettlement_mesh_0003

# Faces
f 1/1/1 2/2/1 3/3/1 4/4/1
f 5/2/1 6/5/1 7/6/1 8/3/1
f 9/5/1 10/7/1 11/8/1 12/6/1
f 13/7/1 14/9/1 15/10/1 16/8/1
f 17/9/1 18/11/1 19/12/1 20/10/1
f 21/11/1 22/13/1 23/14/1 24/12/1
f 25/13/1 26/15/1 27/16/1 28/14/1
f 29/15/1 30/17/1 31/18/1 32/16/1
f 33/17/1 34/19/1 35/20/1 36/18/1
f 37/19/1 38/21/1 39/22/1 40/20/1
f 41/21/1 42/23/1 43/24/1 44/22/1
f 45/25/1 46/26/1 47/2/1 48/1/1
f 49/26/1 50/27/1 51/5/1 52/2/1
f 53/27/1 54/28/1 55/7/1 56/5/1
f 57/28/1 58/29/1 59/9/1 60/7/1
f 61/29/1 62/30/1 63/11/1 64/9/1
f 65/30/1 66/31/1 67/13/1 68/11/1
f 69/31/1 70/32/1 71/15/1 72/13/1
f 73/32/1 74/33/1 75/17/1 76/15/1
f 77/33/1 78/34/1 79/19/1 80/17/1
f 81/34/1 82/35/1 83/21/1 84/19/1
f 85/35/1 86/36/1 87/23/1 88/21/1
f 89/1/1 90/2/1 91/3/1 92/4/1
f 93/2/1 94/5/1 95/6/1 96/3/1
f 97/5/1 98/7/1 99/8/1 100/6/1
f 101/7/1 102/9/1 103/10/1 104/8/1
f 105/9/1 106/11/1 107/12/1 108/10/1
f 109/11/1 110/13/1 111/14/1 112/12/1
f 113/13/1 114/15/1 115/16/1 116/14/1
f 117/15/1 118/17/1 119/18/1 120/16/1
f 121/17/1 122/19/1 123/20/1 124/18/1
f 125/19/1 126/21/1 127/22/1 128/20/1
f 129/21/1 130/23/1 131/24/1 132/22/1
f 133/23/1 134/37/1 135/38/1 136/24/1
f 137/37/1 138/39/1 139/40/1 140/38/1
f 141/39/1 142/41/1 143/42/1 144/40/1
f 145/41/1 146/43/1 147/44/1 148/42/1
f 149/25/1 150/26/1 151/2/1 152/1/1
f 153/26/1 154/27/1 155/5/1 156/2/1
f 157/27/1 158/28/1 159/7/1 160/5/1
f 161/28/1 162/29/1 163/9/1 164/7/1
f 165/29/1 166/30/1 167/11/1 168/9/1
f 169/30/1 170/31/1 171/13/1 172/11/1
f 173/31/1 174/32/1 175/15/1 176/13/1
f 177/32/1 178/33/1 179/17/1 180/15/1
f 181/33/1 182/34/1 183/19/1 184/17/1
f 185/34/1 186/35/1 187/21/1 188/19/1
f 189/35/1 190/36/1 191/23/1 192/21/1
f 193/36/1 194/45/1 195/37/1 196/23/1
f 197/45/1 198/46/1 199/39/1 200/37/1
f 201/46/1 202/47/1 203/41/1 204/39/1
f 205/47/1 206/48/1 207/43/1 208/41/1
f 209/1/1 210/2/1 211/3/1 212/4/1
f 213/2/1 214/5/1 215/6/1 216/3/1
f 217/5/1 218/7/1 219/8/1 220/6/1
f 221/7/1 222/9/1 223/10/1 224/8/1
f 225/9/1 226/11/1 227/12/1 228/10/1
f 229/11/1 230/13/1 231/14/1 232/12/1
f 233/13/1 234/15/1 235/16/1 236/14/1
f 237/15/1 238/17/1 239/18/1 240/16/1
f 241/17/1 242/19/1 243/20/1 244/18/1
f 245/19/1 246/21/1 247/22/1 248/20/1
f 249/21/1 250/23/1 251/24/1 252/22/1
f 253/23/1 254/37/1 255/38/1 256/24/1
f 257/37/1 258/39/1 259/40/1 260/38/1
f 261/39/1 262/41/1 263/42/1 264/40/1
f 265/41/1 266/43/1 267/44/1 268/42/1
f 269/25/1 270/26/1 271/2/1 272/1/1
f 273/26/1 274/27/1 275/5/1 276/2/1
f 277/27/1 278/28/1 279/7/1 280/5/1
f 281/28/1 282/29/1 283/9/1 284/7/1
f 285/29/1 286/30/1 287/11/1 288/9/1
f 289/30/1 290/31/1 291/13/1 292/11/1
f 293/31/1 294/32/1 295/15/1 296/13/1
f 297/32/1 298/33/1 299/17/1 300/15/1
f 301/33/1 302/34/1 303/19/1 304/17/1
f 305/34/1 306/35/1 307/21/1 308/19/1
f 309/35/1 310/36/1 311/23/1 312/21/1
f 313/36/1 314/45/1 315/37/1 316/23/1
f 317/45/1 318/46/1 319/39/1 320/37/1
f 321/46/1 322/47/1 323/41/1 324/39/1
f 325/47/1 326/48/1 327/43/1 328/41/1

